ISO-10303-21;
HEADER;
FILE_DESCRIPTION (( 'STEP AP203' ),
    '1' );
FILE_NAME ('moteur_bas_Défaut_sldprt.STEP',
    '2020-11-29T13:37:14',
    ( '' ),
    ( '' ),
    'SwSTEP 2.0',
    'SolidWorks 2020',
    '' );
FILE_SCHEMA (( 'CONFIG_CONTROL_DESIGN' ));
ENDSEC;

DATA;
#1 = AXIS2_PLACEMENT_3D ( 'NONE', #261, #667, #736 ) ;
#2 = DIRECTION ( 'NONE',  ( -0.000000000000000000, -0.000000000000000000, -1.000000000000000000 ) ) ;
#3 = VECTOR ( 'NONE', #89, 1000.000000000000000 ) ;
#4 = COORDINATED_UNIVERSAL_TIME_OFFSET ( 1, 0, .AHEAD. ) ;
#5 = LINE ( 'NONE', #193, #574 ) ;
#6 = VERTEX_POINT ( 'NONE', #1112 ) ;
#7 = LINE ( 'NONE', #1181, #801 ) ;
#8 = FACE_OUTER_BOUND ( 'NONE', #1170, .T. ) ;
#9 = EDGE_CURVE ( 'NONE', #31, #810, #234, .T. ) ;
#10 = DIRECTION ( 'NONE',  ( 0.000000000000000000, -1.000000000000000000, 0.000000000000000000 ) ) ;
#11 = ORIENTED_EDGE ( 'NONE', *, *, #563, .T. ) ;
#12 = ORIENTED_EDGE ( 'NONE', *, *, #923, .F. ) ;
#13 = LINE ( 'NONE', #1106, #130 ) ;
#14 = DIRECTION ( 'NONE',  ( 0.000000000000000000, -0.000000000000000000, -1.000000000000000000 ) ) ;
#15 = CARTESIAN_POINT ( 'NONE',  ( 10.00000000000000000, -0.1250000000000000000, 0.000000000000000000 ) ) ;
#16 = EDGE_LOOP ( 'NONE', ( #637, #773, #346, #689 ) ) ;
#17 = VERTEX_POINT ( 'NONE', #1172 ) ;
#18 = VECTOR ( 'NONE', #166, 1000.000000000000000 ) ;
#19 = CARTESIAN_POINT ( 'NONE',  ( -7.000000000000001776, 0.000000000000000000, 5.000000000000000000 ) ) ;
#20 = VECTOR ( 'NONE', #617, 1000.000000000000000 ) ;
#21 = CARTESIAN_POINT ( 'NONE',  ( 9.999999999999992895, -0.1250000000000000000, 0.5000000000000000000 ) ) ;
#22 = VECTOR ( 'NONE', #628, 1000.000000000000114 ) ;
#23 = LINE ( 'NONE', #1096, #854 ) ;
#24 = ORIENTED_EDGE ( 'NONE', *, *, #521, .T. ) ;
#25 = CARTESIAN_POINT ( 'NONE',  ( -10.00000000000000178, 10.00000000000000000, 0.000000000000000000 ) ) ;
#26 = LINE ( 'NONE', #29, #301 ) ;
#27 = ORIENTED_EDGE ( 'NONE', *, *, #1043, .F. ) ;
#28 = LINE ( 'NONE', #632, #344 ) ;
#29 = CARTESIAN_POINT ( 'NONE',  ( 10.00000000000000178, 0.1250000000000000000, 79.50000000000001421 ) ) ;
#30 = EDGE_CURVE ( 'NONE', #525, #129, #968, .T. ) ;
#31 = VERTEX_POINT ( 'NONE', #107 ) ;
#32 = CARTESIAN_POINT ( 'NONE',  ( 20.00000000000000355, -9.999999999999998224, 35.00000000000000000 ) ) ;
#33 = VECTOR ( 'NONE', #10, 1000.000000000000000 ) ;
#34 = PLANE ( 'NONE',  #1115 ) ;
#35 = VECTOR ( 'NONE', #386, 999.9999999999998863 ) ;
#36 = EDGE_CURVE ( 'NONE', #634, #314, #954, .T. ) ;
#37 = ORIENTED_EDGE ( 'NONE', *, *, #303, .T. ) ;
#38 = EDGE_CURVE ( 'NONE', #903, #889, #83, .T. ) ;
#39 = PLANE ( 'NONE',  #455 ) ;
#40 = VERTEX_POINT ( 'NONE', #1156 ) ;
#41 = DIRECTION ( 'NONE',  ( -1.000000000000000000, 0.000000000000000000, -0.000000000000000000 ) ) ;
#42 = EDGE_LOOP ( 'NONE', ( #742, #300, #149, #1072, #767, #1216, #257, #789, #1065, #642, #24, #1147, #492, #710 ) ) ;
#43 = LINE ( 'NONE', #1024, #552 ) ;
#44 = ORIENTED_EDGE ( 'NONE', *, *, #724, .F. ) ;
#45 = CARTESIAN_POINT ( 'NONE',  ( 10.00000000000000178, -10.00000000000000000, 80.00000000000001421 ) ) ;
#46 = CARTESIAN_POINT ( 'NONE',  ( -10.00000000000000178, 10.00000000000000000, 5.000000000000000000 ) ) ;
#47 = DIRECTION ( 'NONE',  ( 0.000000000000000000, 0.000000000000000000, -1.000000000000000000 ) ) ;
#48 = ORIENTED_EDGE ( 'NONE', *, *, #761, .F. ) ;
#49 = CARTESIAN_POINT ( 'NONE',  ( -7.000000000000001776, 0.2999999999999991007, -3.469446951953614189E-15 ) ) ;
#50 = PRODUCT ( 'moteur_bas_Défaut_sldprt', 'moteur_bas_Défaut_sldprt', '', ( #153 ) ) ;
#51 = VERTEX_POINT ( 'NONE', #501 ) ;
#52 = LINE ( 'NONE', #349, #255 ) ;
#53 = VECTOR ( 'NONE', #766, 1000.000000000000000 ) ;
#54 = ADVANCED_FACE ( 'NONE', ( #274 ), #90, .T. ) ;
#55 = VECTOR ( 'NONE', #604, 1000.000000000000000 ) ;
#56 = VECTOR ( 'NONE', #622, 1000.000000000000000 ) ;
#57 = FACE_OUTER_BOUND ( 'NONE', #1052, .T. ) ;
#58 = ORIENTED_EDGE ( 'NONE', *, *, #533, .T. ) ;
#59 = EDGE_CURVE ( 'NONE', #986, #327, #188, .T. ) ;
#60 = VECTOR ( 'NONE', #356, 1000.000000000000000 ) ;
#61 = DIRECTION ( 'NONE',  ( -0.000000000000000000, -0.000000000000000000, -1.000000000000000000 ) ) ;
#62 = ORIENTED_EDGE ( 'NONE', *, *, #726, .T. ) ;
#63 = DIRECTION ( 'NONE',  ( -1.000000000000000000, -1.807003620809173954E-17, 0.000000000000000000 ) ) ;
#64 = ORIENTED_EDGE ( 'NONE', *, *, #1182, .T. ) ;
#65 = APPLICATION_CONTEXT ( 'configuration controlled 3d designs of mechanical parts and assemblies' ) ;
#66 = DIRECTION ( 'NONE',  ( 0.000000000000000000, -0.000000000000000000, -1.000000000000000000 ) ) ;
#67 = DIRECTION ( 'NONE',  ( 0.000000000000000000, 1.000000000000000000, -0.000000000000000000 ) ) ;
#68 = DATE_TIME_ROLE ( 'classification_date' ) ;
#69 = DIRECTION ( 'NONE',  ( -0.000000000000000000, 0.000000000000000000, -1.000000000000000000 ) ) ;
#70 = ORIENTED_EDGE ( 'NONE', *, *, #271, .T. ) ;
#71 = PERSON_AND_ORGANIZATION_ROLE ( 'design_owner' ) ;
#72 = DIRECTION ( 'NONE',  ( 0.2706647692040045072, 0.000000000000000000, 0.9626736636637271971 ) ) ;
#73 = CARTESIAN_POINT ( 'NONE',  ( 19.69999999999999574, -0.1250000000000000000, 35.00000000000000000 ) ) ;
#74 = DATE_AND_TIME ( #594, #204 ) ;
#75 = LINE ( 'NONE', #1176, #1059 ) ;
#76 = VECTOR ( 'NONE', #829, 1000.000000000000000 ) ;
#77 = VERTEX_POINT ( 'NONE', #283 ) ;
#78 = ADVANCED_FACE ( 'NONE', ( #590 ), #880, .T. ) ;
#79 = FACE_OUTER_BOUND ( 'NONE', #1129, .T. ) ;
#80 = VECTOR ( 'NONE', #698, 1000.000000000000000 ) ;
#81 = CARTESIAN_POINT ( 'NONE',  ( 19.69999999999999574, -0.1250000000000000000, 45.00000000000000711 ) ) ;
#82 = EDGE_CURVE ( 'NONE', #240, #1090, #825, .T. ) ;
#83 = LINE ( 'NONE', #479, #1118 ) ;
#84 = CARTESIAN_POINT ( 'NONE',  ( 10.00000000000000178, -0.1250000000000000000, 80.00000000000001421 ) ) ;
#85 = DIRECTION ( 'NONE',  ( 1.000000000000000000, -4.336808689942017736E-17, 0.000000000000000000 ) ) ;
#86 = PERSON_AND_ORGANIZATION ( #900, #1002 ) ;
#87 = FACE_OUTER_BOUND ( 'NONE', #539, .T. ) ;
#88 = EDGE_LOOP ( 'NONE', ( #355, #48, #1126, #407, #1023, #549, #341, #112 ) ) ;
#89 = DIRECTION ( 'NONE',  ( 0.000000000000000000, -1.000000000000000000, 0.000000000000000000 ) ) ;
#90 = PLANE ( 'NONE',  #608 ) ;
#91 = CARTESIAN_POINT ( 'NONE',  ( -10.00000000000000178, 10.00000000000000000, 80.00000000000001421 ) ) ;
#92 = CARTESIAN_POINT ( 'NONE',  ( 5.000000000000000888, -10.00000000000000000, 75.00000000000001421 ) ) ;
#93 = CARTESIAN_POINT ( 'NONE',  ( 19.69999999999999574, -0.1250000000000000000, 35.00000000000000000 ) ) ;
#94 = ORIENTED_EDGE ( 'NONE', *, *, #36, .F. ) ;
#95 = EDGE_CURVE ( 'NONE', #318, #1240, #564, .T. ) ;
#96 = ORIENTED_EDGE ( 'NONE', *, *, #443, .T. ) ;
#97 = LINE ( 'NONE', #289, #884 ) ;
#98 = DIRECTION ( 'NONE',  ( -1.734723475976807094E-16, 1.000000000000000000, 0.000000000000000000 ) ) ;
#99 = LINE ( 'NONE', #495, #126 ) ;
#100 = CC_DESIGN_PERSON_AND_ORGANIZATION_ASSIGNMENT ( #768, #71, ( #50 ) ) ;
#101 = CARTESIAN_POINT ( 'NONE',  ( -7.000000000000001776, -0.3000000000000008216, 80.00000000000001421 ) ) ;
#102 = ORIENTED_EDGE ( 'NONE', *, *, #103, .F. ) ;
#103 = EDGE_CURVE ( 'NONE', #1266, #802, #454, .T. ) ;
#104 = VECTOR ( 'NONE', #599, 1000.000000000000000 ) ;
#105 = ORIENTED_EDGE ( 'NONE', *, *, #607, .T. ) ;
#106 = CC_DESIGN_APPROVAL ( #1197, ( #147 ) ) ;
#107 = CARTESIAN_POINT ( 'NONE',  ( -7.000000000000001776, -0.1250000000000000000, 5.000000000000000000 ) ) ;
#108 = CARTESIAN_POINT ( 'NONE',  ( -10.00000000000000178, 10.00000000000000000, 75.00000000000001421 ) ) ;
#109 = VECTOR ( 'NONE', #1229, 1000.000000000000000 ) ;
#110 = CARTESIAN_POINT ( 'NONE',  ( 9.999999999999998224, 10.00000000000000000, 5.000000000000000000 ) ) ;
#111 = PLANE ( 'NONE',  #959 ) ;
#112 = ORIENTED_EDGE ( 'NONE', *, *, #118, .F. ) ;
#113 = ORIENTED_EDGE ( 'NONE', *, *, #152, .F. ) ;
#114 = ORIENTED_EDGE ( 'NONE', *, *, #1185, .F. ) ;
#115 = DIRECTION ( 'NONE',  ( 0.2747211278973778481, 0.000000000000000000, -0.9615239476408231623 ) ) ;
#116 = LINE ( 'NONE', #1005, #420 ) ;
#117 = ORIENTED_EDGE ( 'NONE', *, *, #411, .F. ) ;
#118 = EDGE_CURVE ( 'NONE', #144, #164, #1238, .T. ) ;
#119 = ORIENTED_EDGE ( 'NONE', *, *, #652, .T. ) ;
#120 = ORIENTED_EDGE ( 'NONE', *, *, #319, .F. ) ;
#121 = EDGE_CURVE ( 'NONE', #131, #491, #933, .T. ) ;
#122 = DIRECTION ( 'NONE',  ( 1.000000000000000000, 1.807003620809173954E-17, 0.000000000000000000 ) ) ;
#123 = FACE_OUTER_BOUND ( 'NONE', #88, .T. ) ;
#124 = ORIENTED_EDGE ( 'NONE', *, *, #1158, .F. ) ;
#125 = ORIENTED_EDGE ( 'NONE', *, *, #415, .F. ) ;
#126 = VECTOR ( 'NONE', #787, 1000.000000000000000 ) ;
#127 = CARTESIAN_POINT ( 'NONE',  ( 10.00000000000000178, 10.00000000000000000, 80.00000000000001421 ) ) ;
#128 = CARTESIAN_POINT ( 'NONE',  ( -7.000000000000001776, 0.1250000000000000000, 0.000000000000000000 ) ) ;
#129 = VERTEX_POINT ( 'NONE', #45 ) ;
#130 = VECTOR ( 'NONE', #1100, 1000.000000000000000 ) ;
#131 = VERTEX_POINT ( 'NONE', #447 ) ;
#132 = LINE ( 'NONE', #526, #22 ) ;
#133 = CARTESIAN_POINT ( 'NONE',  ( -10.00000000000000178, 10.00000000000000000, 0.000000000000000000 ) ) ;
#134 = ORIENTED_EDGE ( 'NONE', *, *, #652, .F. ) ;
#135 = ADVANCED_FACE ( 'NONE', ( #832 ), #1223, .T. ) ;
#136 = DIRECTION ( 'NONE',  ( 1.000000000000000000, 0.000000000000000000, -0.000000000000000000 ) ) ;
#137 = DIRECTION ( 'NONE',  ( 1.000000000000000000, -0.000000000000000000, -0.000000000000000000 ) ) ;
#138 = ADVANCED_FACE ( 'NONE', ( #947 ), #1144, .F. ) ;
#139 = ORIENTED_EDGE ( 'NONE', *, *, #553, .T. ) ;
#140 = DIRECTION ( 'NONE',  ( 0.000000000000000000, -1.000000000000000000, 0.000000000000000000 ) ) ;
#141 = VECTOR ( 'NONE', #1153, 1000.000000000000000 ) ;
#142 = ORIENTED_EDGE ( 'NONE', *, *, #842, .F. ) ;
#143 = CARTESIAN_POINT ( 'NONE',  ( -7.500000000000001776, 0.1250000000000000000, 0.000000000000000000 ) ) ;
#144 = VERTEX_POINT ( 'NONE', #858 ) ;
#145 = CARTESIAN_POINT ( 'NONE',  ( -7.000000000000001776, 0.000000000000000000, 0.000000000000000000 ) ) ;
#146 = ORIENTED_EDGE ( 'NONE', *, *, #333, .T. ) ;
#147 = PRODUCT_DEFINITION ( 'UNKNOWN', '', #605, #613 ) ;
#148 = CARTESIAN_POINT ( 'NONE',  ( -10.00000000000000178, -10.00000000000000000, 0.000000000000000000 ) ) ;
#149 = ORIENTED_EDGE ( 'NONE', *, *, #917, .F. ) ;
#150 = CARTESIAN_POINT ( 'NONE',  ( -7.000000000000001776, 0.1250000000000000000, 5.000000000000000000 ) ) ;
#151 = VERTEX_POINT ( 'NONE', #336 ) ;
#152 = EDGE_CURVE ( 'NONE', #1091, #309, #1113, .T. ) ;
#153 = MECHANICAL_CONTEXT ( 'NONE', #1075, 'mechanical' ) ;
#154 = CARTESIAN_POINT ( 'NONE',  ( -7.000000000000001776, 0.1250000000000000000, 0.000000000000000000 ) ) ;
#155 = VERTEX_POINT ( 'NONE', #537 ) ;
#156 = VECTOR ( 'NONE', #1026, 1000.000000000000000 ) ;
#157 = APPROVAL_PERSON_ORGANIZATION ( #463, #1197, #853 ) ;
#158 = VECTOR ( 'NONE', #845, 1000.000000000000227 ) ;
#159 = DIRECTION ( 'NONE',  ( -1.807003620809173954E-17, 1.000000000000000000, 0.000000000000000000 ) ) ;
#160 = ORIENTED_EDGE ( 'NONE', *, *, #406, .F. ) ;
#161 = AXIS2_PLACEMENT_3D ( 'NONE', #581, #589, #1163 ) ;
#162 = CARTESIAN_POINT ( 'NONE',  ( 0.000000000000000000, 0.000000000000000000, 0.000000000000000000 ) ) ;
#163 = DIRECTION ( 'NONE',  ( 0.000000000000000000, -1.000000000000000000, 0.000000000000000000 ) ) ;
#164 = VERTEX_POINT ( 'NONE', #1122 ) ;
#165 = CARTESIAN_POINT ( 'NONE',  ( 19.99999999999999645, -0.1250000000000000000, 35.00000000000000000 ) ) ;
#166 = DIRECTION ( 'NONE',  ( -0.000000000000000000, -0.000000000000000000, 1.000000000000000000 ) ) ;
#167 = EDGE_LOOP ( 'NONE', ( #293, #1154, #1187, #12 ) ) ;
#168 = FACE_OUTER_BOUND ( 'NONE', #1025, .T. ) ;
#169 = DATE_AND_TIME ( #779, #516 ) ;
#170 = LINE ( 'NONE', #846, #321 ) ;
#171 = ORIENTED_EDGE ( 'NONE', *, *, #601, .F. ) ;
#172 = EDGE_CURVE ( 'NONE', #903, #994, #52, .T. ) ;
#173 = DATE_AND_TIME ( #372, #323 ) ;
#174 = DIRECTION ( 'NONE',  ( 0.000000000000000000, -1.000000000000000000, 0.000000000000000000 ) ) ;
#175 = DIRECTION ( 'NONE',  ( -1.000000000000000000, -1.807003620809173954E-17, 0.000000000000000000 ) ) ;
#176 = CARTESIAN_POINT ( 'NONE',  ( -10.00000000000000178, 10.00000000000000000, 5.000000000000000000 ) ) ;
#177 = LINE ( 'NONE', #399, #53 ) ;
#178 = VECTOR ( 'NONE', #833, 1000.000000000000000 ) ;
#179 = APPROVAL_PERSON_ORGANIZATION ( #771, #737, #376 ) ;
#180 = CARTESIAN_POINT ( 'NONE',  ( -7.500000000000001776, 0.1250000000000000000, 80.00000000000001421 ) ) ;
#181 = VECTOR ( 'NONE', #518, 1000.000000000000000 ) ;
#182 = DIRECTION ( 'NONE',  ( 1.000000000000000000, -0.000000000000000000, -0.000000000000000000 ) ) ;
#183 = CARTESIAN_POINT ( 'NONE',  ( 3.794707603699265519E-17, -0.2999999999999999889, 0.000000000000000000 ) ) ;
#184 = PERSON_AND_ORGANIZATION_ROLE ( 'creator' ) ;
#185 = LINE ( 'NONE', #1085, #340 ) ;
#186 = ORIENTED_EDGE ( 'NONE', *, *, #596, .T. ) ;
#187 = DIRECTION ( 'NONE',  ( 0.000000000000000000, 1.000000000000000000, 0.000000000000000000 ) ) ;
#188 = LINE ( 'NONE', #1262, #35 ) ;
#189 = LINE ( 'NONE', #1263, #1209 ) ;
#190 = EDGE_CURVE ( 'NONE', #330, #6, #762, .T. ) ;
#191 = CARTESIAN_POINT ( 'NONE',  ( -7.500000000000001776, 0.1250000000000000000, 0.000000000000000000 ) ) ;
#192 = APPROVAL_DATE_TIME ( #169, #737 ) ;
#193 = CARTESIAN_POINT ( 'NONE',  ( 19.69999999999999574, 0.1250000000000000000, 35.00000000000000000 ) ) ;
#194 = ORIENTED_EDGE ( 'NONE', *, *, #352, .T. ) ;
#195 = ORIENTED_EDGE ( 'NONE', *, *, #694, .F. ) ;
#196 = ORIENTED_EDGE ( 'NONE', *, *, #507, .F. ) ;
#197 = PLANE ( 'NONE',  #658 ) ;
#198 = CARTESIAN_POINT ( 'NONE',  ( -7.000000000000001776, -0.3000000000000008216, -9.999999999999980460 ) ) ;
#199 = CARTESIAN_POINT ( 'NONE',  ( -7.000000000000001776, 0.000000000000000000, 0.000000000000000000 ) ) ;
#200 = ORIENTED_EDGE ( 'NONE', *, *, #950, .F. ) ;
#201 = VECTOR ( 'NONE', #918, 1000.000000000000000 ) ;
#202 = ORIENTED_EDGE ( 'NONE', *, *, #190, .F. ) ;
#203 = ORIENTED_EDGE ( 'NONE', *, *, #507, .T. ) ;
#204 = LOCAL_TIME ( 14, 37, 14.00000000000000000, #382 ) ;
#205 = VECTOR ( 'NONE', #955, 1000.000000000000000 ) ;
#206 = CARTESIAN_POINT ( 'NONE',  ( 19.99999999999999645, -0.1250000000000000000, 45.00000000000000711 ) ) ;
#207 = CARTESIAN_POINT ( 'NONE',  ( -10.00000000000000178, 0.2999999999999990452, -9.999999999999980460 ) ) ;
#208 = ADVANCED_FACE ( 'NONE', ( #872 ), #988, .F. ) ;
#209 = CARTESIAN_POINT ( 'NONE',  ( -10.00000000000000178, 10.00000000000000000, 5.000000000000000000 ) ) ;
#210 = EDGE_LOOP ( 'NONE', ( #528, #1199, #1108, #1267, #134, #416, #214, #995 ) ) ;
#211 = DIRECTION ( 'NONE',  ( 0.000000000000000000, 0.000000000000000000, 1.000000000000000000 ) ) ;
#212 = LINE ( 'NONE', #798, #56 ) ;
#213 = ORIENTED_EDGE ( 'NONE', *, *, #607, .F. ) ;
#214 = ORIENTED_EDGE ( 'NONE', *, *, #1099, .T. ) ;
#215 = CARTESIAN_POINT ( 'NONE',  ( -10.00000000000000178, 10.00000000000000000, 80.00000000000001421 ) ) ;
#216 = LINE ( 'NONE', #1010, #624 ) ;
#217 = ORIENTED_EDGE ( 'NONE', *, *, #1030, .F. ) ;
#218 = ORIENTED_EDGE ( 'NONE', *, *, #306, .T. ) ;
#219 = AXIS2_PLACEMENT_3D ( 'NONE', #1089, #706, #1094 ) ;
#220 = AXIS2_PLACEMENT_3D ( 'NONE', #326, #1184, #612 ) ;
#221 = LINE ( 'NONE', #431, #734 ) ;
#222 = DIRECTION ( 'NONE',  ( -0.000000000000000000, -0.000000000000000000, -1.000000000000000000 ) ) ;
#223 = VECTOR ( 'NONE', #347, 1000.000000000000000 ) ;
#224 = FACE_OUTER_BOUND ( 'NONE', #941, .T. ) ;
#225 = LINE ( 'NONE', #527, #279 ) ;
#226 = ORIENTED_EDGE ( 'NONE', *, *, #364, .T. ) ;
#227 = ADVANCED_FACE ( 'NONE', ( #865 ), #1062, .F. ) ;
#228 = ADVANCED_FACE ( 'NONE', ( #502 ), #592, .F. ) ;
#229 = EDGE_CURVE ( 'NONE', #1240, #1091, #402, .T. ) ;
#230 = LINE ( 'NONE', #907, #1228 ) ;
#231 = EDGE_LOOP ( 'NONE', ( #890, #958, #1161, #1222 ) ) ;
#232 = CARTESIAN_POINT ( 'NONE',  ( -10.00000000000000178, 10.00000000000000000, 5.000000000000000000 ) ) ;
#233 = VECTOR ( 'NONE', #1056, 1000.000000000000000 ) ;
#234 = LINE ( 'NONE', #946, #681 ) ;
#235 = CARTESIAN_POINT ( 'NONE',  ( -7.500000000000001776, 0.1250000000000000000, 0.000000000000000000 ) ) ;
#236 = VECTOR ( 'NONE', #770, 1000.000000000000000 ) ;
#237 = DIRECTION ( 'NONE',  ( -1.000000000000000000, 0.000000000000000000, 0.000000000000000000 ) ) ;
#238 = EDGE_CURVE ( 'NONE', #6, #240, #1250, .T. ) ;
#239 = CARTESIAN_POINT ( 'NONE',  ( -10.00000000000000178, 10.00000000000000000, 5.000000000000000000 ) ) ;
#240 = VERTEX_POINT ( 'NONE', #974 ) ;
#241 = DIRECTION ( 'NONE',  ( -0.000000000000000000, 0.000000000000000000, -1.000000000000000000 ) ) ;
#242 = DIRECTION ( 'NONE',  ( -1.000000000000000000, -1.734723475976807094E-16, -0.000000000000000000 ) ) ;
#243 = ORIENTED_EDGE ( 'NONE', *, *, #1008, .F. ) ;
#244 = DIRECTION ( 'NONE',  ( 1.000000000000000000, 0.000000000000000000, -0.000000000000000000 ) ) ;
#245 = EDGE_CURVE ( 'NONE', #1103, #51, #189, .T. ) ;
#246 = ORIENTED_EDGE ( 'NONE', *, *, #924, .T. ) ;
#247 = CARTESIAN_POINT ( 'NONE',  ( -10.00000000000000178, 0.2999999999999990452, -9.999999999999980460 ) ) ;
#248 = VERTEX_POINT ( 'NONE', #573 ) ;
#249 = FACE_OUTER_BOUND ( 'NONE', #541, .T. ) ;
#250 = EDGE_CURVE ( 'NONE', #1240, #294, #275, .T. ) ;
#251 = ORIENTED_EDGE ( 'NONE', *, *, #404, .T. ) ;
#252 = AXIS2_PLACEMENT_3D ( 'NONE', #1258, #383, #772 ) ;
#253 = VECTOR ( 'NONE', #222, 1000.000000000000000 ) ;
#254 = EDGE_CURVE ( 'NONE', #802, #522, #1068, .T. ) ;
#255 = VECTOR ( 'NONE', #1127, 1000.000000000000000 ) ;
#256 = CARTESIAN_POINT ( 'NONE',  ( -10.00000000000000178, -0.3000000000000012101, -3.469446951953614189E-15 ) ) ;
#257 = ORIENTED_EDGE ( 'NONE', *, *, #121, .F. ) ;
#258 =( LENGTH_UNIT ( ) NAMED_UNIT ( * ) SI_UNIT ( .MILLI., .METRE. ) );
#259 = DIRECTION ( 'NONE',  ( 0.000000000000000000, -1.000000000000000000, 0.000000000000000000 ) ) ;
#260 = ORIENTED_EDGE ( 'NONE', *, *, #59, .T. ) ;
#261 = CARTESIAN_POINT ( 'NONE',  ( 9.999999999999998224, 10.00000000000000000, 5.000000000000000000 ) ) ;
#262 = CARTESIAN_POINT ( 'NONE',  ( 9.999999999999998224, 10.00000000000000000, 0.000000000000000000 ) ) ;
#263 = EDGE_CURVE ( 'NONE', #155, #994, #398, .T. ) ;
#264 = CARTESIAN_POINT ( 'NONE',  ( 20.00000000000000355, -9.999999999999998224, 35.00000000000000000 ) ) ;
#265 = VERTEX_POINT ( 'NONE', #480 ) ;
#266 = DIRECTION ( 'NONE',  ( -1.000000000000000000, -1.807003620809173954E-17, -0.000000000000000000 ) ) ;
#267 = LINE ( 'NONE', #373, #717 ) ;
#268 = PLANE ( 'NONE',  #1084 ) ;
#269 = DIRECTION ( 'NONE',  ( -0.000000000000000000, -0.000000000000000000, 1.000000000000000000 ) ) ;
#270 = DIRECTION ( 'NONE',  ( 1.000000000000000000, 0.000000000000000000, 0.000000000000000000 ) ) ;
#271 = EDGE_CURVE ( 'NONE', #827, #265, #980, .T. ) ;
#272 = LINE ( 'NONE', #665, #639 ) ;
#273 = CARTESIAN_POINT ( 'NONE',  ( -10.00000000000000178, -0.3000000000000012101, 4.999999999999997335 ) ) ;
#274 = FACE_OUTER_BOUND ( 'NONE', #1095, .T. ) ;
#275 = LINE ( 'NONE', #1077, #302 ) ;
#276 = CARTESIAN_POINT ( 'NONE',  ( -7.000000000000001776, 0.1250000000000000000, 74.99999999999998579 ) ) ;
#277 = APPROVAL_DATE_TIME ( #74, #519 ) ;
#278 = FACE_OUTER_BOUND ( 'NONE', #1212, .T. ) ;
#279 = VECTOR ( 'NONE', #908, 1000.000000000000000 ) ;
#280 = ORIENTED_EDGE ( 'NONE', *, *, #972, .F. ) ;
#281 = VECTOR ( 'NONE', #635, 1000.000000000000000 ) ;
#282 = LINE ( 'NONE', #1249, #1033 ) ;
#283 = CARTESIAN_POINT ( 'NONE',  ( -10.00000000000000178, 10.00000000000000000, 0.000000000000000000 ) ) ;
#284 = DIRECTION ( 'NONE',  ( 1.734723475976807094E-16, -1.000000000000000000, 0.000000000000000000 ) ) ;
#285 = CARTESIAN_POINT ( 'NONE',  ( 10.00000000000000178, 0.1250000000000000000, 79.50000000000001421 ) ) ;
#286 = VERTEX_POINT ( 'NONE', #108 ) ;
#287 = ORIENTED_EDGE ( 'NONE', *, *, #672, .F. ) ;
#288 = ORIENTED_EDGE ( 'NONE', *, *, #803, .T. ) ;
#289 = CARTESIAN_POINT ( 'NONE',  ( 10.00000000000000178, -10.00000000000000000, 5.000000000000000000 ) ) ;
#290 = DIRECTION ( 'NONE',  ( -0.9626736636637273081, 0.000000000000000000, -0.2706647692040043407 ) ) ;
#291 = CARTESIAN_POINT ( 'NONE',  ( -7.000000000000001776, 0.1250000000000000000, 80.00000000000001421 ) ) ;
#292 = CARTESIAN_POINT ( 'NONE',  ( 19.99999999999999645, 10.00000000000000178, 45.00000000000000711 ) ) ;
#293 = ORIENTED_EDGE ( 'NONE', *, *, #357, .F. ) ;
#294 = VERTEX_POINT ( 'NONE', #291 ) ;
#295 = CARTESIAN_POINT ( 'NONE',  ( -7.000000000000001776, 0.1250000000000000000, 0.000000000000000000 ) ) ;
#296 = CARTESIAN_POINT ( 'NONE',  ( 10.00000000000000178, -10.00000000000000000, 75.00000000000001421 ) ) ;
#297 = ADVANCED_BREP_SHAPE_REPRESENTATION ( 'moteur_bas_DÚfaut_sldprt', ( #673, #1104 ), #777 ) ;
#298 = CARTESIAN_POINT ( 'NONE',  ( 9.999999999999998224, 10.00000000000000000, 45.00000000000000711 ) ) ;
#299 = VECTOR ( 'NONE', #960, 1000.000000000000000 ) ;
#300 = ORIENTED_EDGE ( 'NONE', *, *, #1234, .F. ) ;
#301 = VECTOR ( 'NONE', #520, 1000.000000000000000 ) ;
#302 = VECTOR ( 'NONE', #374, 1000.000000000000000 ) ;
#303 = EDGE_CURVE ( 'NONE', #839, #318, #7, .T. ) ;
#304 = FACE_OUTER_BOUND ( 'NONE', #16, .T. ) ;
#305 = DIRECTION ( 'NONE',  ( 0.000000000000000000, 0.000000000000000000, 1.000000000000000000 ) ) ;
#306 = EDGE_CURVE ( 'NONE', #889, #802, #961, .T. ) ;
#307 = ORIENTED_EDGE ( 'NONE', *, *, #409, .F. ) ;
#308 = ADVANCED_FACE ( 'NONE', ( #583 ), #268, .F. ) ;
#309 = VERTEX_POINT ( 'NONE', #295 ) ;
#310 = DIRECTION ( 'NONE',  ( 0.2706647692040045072, 0.000000000000000000, 0.9626736636637271971 ) ) ;
#311 = CARTESIAN_POINT ( 'NONE',  ( -7.500000000000001776, 0.000000000000000000, 0.000000000000000000 ) ) ;
#312 = EDGE_LOOP ( 'NONE', ( #11, #102, #171, #747 ) ) ;
#313 = ORIENTED_EDGE ( 'NONE', *, *, #553, .F. ) ;
#314 = VERTEX_POINT ( 'NONE', #671 ) ;
#315 = FACE_OUTER_BOUND ( 'NONE', #532, .T. ) ;
#316 = DIRECTION ( 'NONE',  ( 1.000000000000000000, -0.000000000000000000, -0.000000000000000000 ) ) ;
#317 = ORIENTED_EDGE ( 'NONE', *, *, #677, .T. ) ;
#318 = VERTEX_POINT ( 'NONE', #1082 ) ;
#319 = EDGE_CURVE ( 'NONE', #728, #749, #1164, .T. ) ;
#320 = EDGE_CURVE ( 'NONE', #450, #511, #488, .T. ) ;
#321 = VECTOR ( 'NONE', #538, 1000.000000000000000 ) ;
#322 = ADVANCED_FACE ( 'NONE', ( #224 ), #410, .F. ) ;
#323 = LOCAL_TIME ( 14, 37, 14.00000000000000000, #1247 ) ;
#324 = EDGE_CURVE ( 'NONE', #630, #1103, #715, .T. ) ;
#325 = LINE ( 'NONE', #32, #421 ) ;
#326 = CARTESIAN_POINT ( 'NONE',  ( 20.00000000000000355, -9.999999999999998224, 35.00000000000000000 ) ) ;
#327 = VERTEX_POINT ( 'NONE', #1093 ) ;
#328 = AXIS2_PLACEMENT_3D ( 'NONE', #746, #830, #1133 ) ;
#329 = EDGE_CURVE ( 'NONE', #615, #164, #221, .T. ) ;
#330 = VERTEX_POINT ( 'NONE', #914 ) ;
#331 = LINE ( 'NONE', #25, #181 ) ;
#332 = VERTEX_POINT ( 'NONE', #523 ) ;
#333 = EDGE_CURVE ( 'NONE', #1103, #131, #13, .T. ) ;
#334 = CARTESIAN_POINT ( 'NONE',  ( -10.00000000000000178, 0.2999999999999990452, 80.00000000000001421 ) ) ;
#335 = ORIENTED_EDGE ( 'NONE', *, *, #329, .T. ) ;
#336 = CARTESIAN_POINT ( 'NONE',  ( -7.000000000000001776, 0.2999999999999991007, 80.00000000000001421 ) ) ;
#337 = PLANE ( 'NONE',  #366 ) ;
#338 = CARTESIAN_POINT ( 'NONE',  ( -7.500000000000001776, -0.1250000000000000000, 2.922671448960615834E-17 ) ) ;
#339 = CARTESIAN_POINT ( 'NONE',  ( -10.00000000000000178, 10.00000000000000000, 80.00000000000001421 ) ) ;
#340 = VECTOR ( 'NONE', #862, 1000.000000000000000 ) ;
#341 = ORIENTED_EDGE ( 'NONE', *, *, #948, .F. ) ;
#342 = DIRECTION ( 'NONE',  ( 0.9615239476408232733, 0.000000000000000000, -0.2747211278973780146 ) ) ;
#343 = DIRECTION ( 'NONE',  ( 0.000000000000000000, 0.000000000000000000, 1.000000000000000000 ) ) ;
#344 = VECTOR ( 'NONE', #1009, 1000.000000000000000 ) ;
#345 = DIRECTION ( 'NONE',  ( 0.000000000000000000, 1.000000000000000000, 0.000000000000000000 ) ) ;
#346 = ORIENTED_EDGE ( 'NONE', *, *, #1008, .T. ) ;
#347 = DIRECTION ( 'NONE',  ( -0.000000000000000000, -0.000000000000000000, 1.000000000000000000 ) ) ;
#348 = ORIENTED_EDGE ( 'NONE', *, *, #636, .T. ) ;
#349 = CARTESIAN_POINT ( 'NONE',  ( 19.99999999999999645, 10.00000000000000178, 35.00000000000000000 ) ) ;
#350 = CARTESIAN_POINT ( 'NONE',  ( -10.00000000000000178, -10.00000000000000000, 75.00000000000001421 ) ) ;
#351 = ORIENTED_EDGE ( 'NONE', *, *, #229, .F. ) ;
#352 = EDGE_CURVE ( 'NONE', #525, #735, #28, .T. ) ;
#353 = CARTESIAN_POINT ( 'NONE',  ( -10.00000000000000178, -0.3000000000000012101, 80.00000000000001421 ) ) ;
#354 = PLANE ( 'NONE',  #328 ) ;
#355 = ORIENTED_EDGE ( 'NONE', *, *, #923, .T. ) ;
#356 = DIRECTION ( 'NONE',  ( 0.000000000000000000, 1.000000000000000000, 0.000000000000000000 ) ) ;
#357 = EDGE_CURVE ( 'NONE', #561, #144, #132, .T. ) ;
#358 = DIRECTION ( 'NONE',  ( 1.000000000000000000, 0.000000000000000000, 0.000000000000000000 ) ) ;
#359 = ORIENTED_EDGE ( 'NONE', *, *, #319, .T. ) ;
#360 = ADVANCED_FACE ( 'NONE', ( #1004 ), #1109, .T. ) ;
#361 = APPLICATION_PROTOCOL_DEFINITION ( 'international standard', 'config_control_design', 1994, #1075 ) ;
#362 = CARTESIAN_POINT ( 'NONE',  ( -10.00000000000000178, -10.00000000000000000, 80.00000000000001421 ) ) ;
#363 = PRODUCT_DEFINITION_SHAPE ( 'NONE', 'NONE',  #147 ) ;
#364 = EDGE_CURVE ( 'NONE', #475, #847, #230, .T. ) ;
#365 = ORIENTED_EDGE ( 'NONE', *, *, #1139, .F. ) ;
#366 = AXIS2_PLACEMENT_3D ( 'NONE', #46, #448, #241 ) ;
#367 = PERSON_AND_ORGANIZATION ( #900, #1002 ) ;
#368 = APPROVAL_PERSON_ORGANIZATION ( #86, #519, #1152 ) ;
#369 = VECTOR ( 'NONE', #1157, 1000.000000000000000 ) ;
#370 = PLANE ( 'NONE',  #496 ) ;
#371 = ORIENTED_EDGE ( 'NONE', *, *, #481, .F. ) ;
#372 = CALENDAR_DATE ( 2020, 29, 11 ) ;
#373 = CARTESIAN_POINT ( 'NONE',  ( 10.00000000000000178, -0.1250000000000000000, 80.00000000000001421 ) ) ;
#374 = DIRECTION ( 'NONE',  ( 1.000000000000000000, -0.000000000000000000, -0.000000000000000000 ) ) ;
#375 = DIRECTION ( 'NONE',  ( 0.000000000000000000, 1.000000000000000000, 0.000000000000000000 ) ) ;
#376 = APPROVAL_ROLE ( '' ) ;
#377 = DIRECTION ( 'NONE',  ( 1.000000000000000000, 0.000000000000000000, 0.000000000000000000 ) ) ;
#378 = ORIENTED_EDGE ( 'NONE', *, *, #357, .T. ) ;
#379 =( NAMED_UNIT ( * ) PLANE_ANGLE_UNIT ( ) SI_UNIT ( $, .RADIAN. ) );
#380 = CARTESIAN_POINT ( 'NONE',  ( 9.999999999999998224, 10.00000000000000000, 5.000000000000000000 ) ) ;
#381 = DIRECTION ( 'NONE',  ( 0.000000000000000000, -0.000000000000000000, 1.000000000000000000 ) ) ;
#382 = COORDINATED_UNIVERSAL_TIME_OFFSET ( 1, 0, .AHEAD. ) ;
#383 = DIRECTION ( 'NONE',  ( -1.807003620809173954E-17, 1.000000000000000000, 0.000000000000000000 ) ) ;
#384 = VERTEX_POINT ( 'NONE', #711 ) ;
#385 = PLANE ( 'NONE',  #161 ) ;
#386 = DIRECTION ( 'NONE',  ( -0.2747211278973780146, 0.000000000000000000, -0.9615239476408232733 ) ) ;
#387 = DIRECTION ( 'NONE',  ( -1.000000000000000000, -1.264902534566421922E-16, 0.000000000000000000 ) ) ;
#388 = DIRECTION ( 'NONE',  ( -1.000000000000000000, -1.734723475976807094E-16, 0.000000000000000000 ) ) ;
#389 = CALENDAR_DATE ( 2020, 29, 11 ) ;
#390 = VECTOR ( 'NONE', #182, 1000.000000000000000 ) ;
#391 = LINE ( 'NONE', #976, #679 ) ;
#392 = AXIS2_PLACEMENT_3D ( 'NONE', #198, #887, #881 ) ;
#393 = ORIENTED_EDGE ( 'NONE', *, *, #655, .T. ) ;
#394 = VECTOR ( 'NONE', #686, 1000.000000000000000 ) ;
#395 = ORIENTED_EDGE ( 'NONE', *, *, #1198, .F. ) ;
#396 = DIRECTION ( 'NONE',  ( 0.000000000000000000, 1.000000000000000000, 0.000000000000000000 ) ) ;
#397 = CARTESIAN_POINT ( 'NONE',  ( 10.00000000000000178, -0.1250000000000000000, 79.50000000000001421 ) ) ;
#398 = LINE ( 'NONE', #1173, #517 ) ;
#399 = CARTESIAN_POINT ( 'NONE',  ( 10.00000000000000178, 10.00000000000000000, 80.00000000000001421 ) ) ;
#400 = ORIENTED_EDGE ( 'NONE', *, *, #782, .T. ) ;
#401 = ORIENTED_EDGE ( 'NONE', *, *, #1098, .T. ) ;
#402 = LINE ( 'NONE', #678, #883 ) ;
#403 = FACE_OUTER_BOUND ( 'NONE', #1204, .T. ) ;
#404 = EDGE_CURVE ( 'NONE', #744, #903, #325, .T. ) ;
#405 = LINE ( 'NONE', #701, #731 ) ;
#406 = EDGE_CURVE ( 'NONE', #971, #1252, #720, .T. ) ;
#407 = ORIENTED_EDGE ( 'NONE', *, *, #263, .T. ) ;
#408 = ORIENTED_EDGE ( 'NONE', *, *, #1198, .T. ) ;
#409 = EDGE_CURVE ( 'NONE', #567, #587, #436, .T. ) ;
#410 = PLANE ( 'NONE',  #962 ) ;
#411 = EDGE_CURVE ( 'NONE', #744, #332, #797, .T. ) ;
#412 = DIRECTION ( 'NONE',  ( -1.000000000000000000, 0.000000000000000000, 0.000000000000000000 ) ) ;
#413 = ORIENTED_EDGE ( 'NONE', *, *, #118, .T. ) ;
#414 = UNCERTAINTY_MEASURE_WITH_UNIT (LENGTH_MEASURE( 1.000000000000000082E-05 ), #258, 'distance_accuracy_value', 'NONE');
#415 = EDGE_CURVE ( 'NONE', #40, #77, #331, .T. ) ;
#416 = ORIENTED_EDGE ( 'NONE', *, *, #263, .F. ) ;
#417 = VECTOR ( 'NONE', #855, 1000.000000000000000 ) ;
#418 = ORIENTED_EDGE ( 'NONE', *, *, #481, .T. ) ;
#419 = ORIENTED_EDGE ( 'NONE', *, *, #411, .T. ) ;
#420 = VECTOR ( 'NONE', #633, 1000.000000000000000 ) ;
#421 = VECTOR ( 'NONE', #904, 1000.000000000000000 ) ;
#422 = DIRECTION ( 'NONE',  ( 0.000000000000000000, 1.000000000000000000, -0.000000000000000000 ) ) ;
#423 = LINE ( 'NONE', #712, #1000 ) ;
#424 = ORIENTED_EDGE ( 'NONE', *, *, #558, .F. ) ;
#425 = CARTESIAN_POINT ( 'NONE',  ( -7.000000000000001776, 0.000000000000000000, 0.000000000000000000 ) ) ;
#426 = LINE ( 'NONE', #524, #20 ) ;
#427 = ORIENTED_EDGE ( 'NONE', *, *, #1099, .F. ) ;
#428 = ADVANCED_FACE ( 'NONE', ( #809 ), #705, .F. ) ;
#429 = ADVANCED_FACE ( 'NONE', ( #304 ), #997, .F. ) ;
#430 = EDGE_CURVE ( 'NONE', #1266, #1124, #616, .T. ) ;
#431 = CARTESIAN_POINT ( 'NONE',  ( 9.999999999999992895, 0.1250000000000000000, 0.5000000000000000000 ) ) ;
#432 = PLANE ( 'NONE',  #219 ) ;
#433 = ORIENTED_EDGE ( 'NONE', *, *, #364, .F. ) ;
#434 = VECTOR ( 'NONE', #187, 1000.000000000000000 ) ;
#435 = VECTOR ( 'NONE', #316, 1000.000000000000000 ) ;
#436 = LINE ( 'NONE', #723, #780 ) ;
#437 = ORIENTED_EDGE ( 'NONE', *, *, #238, .T. ) ;
#438 = ORIENTED_EDGE ( 'NONE', *, *, #82, .F. ) ;
#439 = DIRECTION ( 'NONE',  ( -0.000000000000000000, 0.000000000000000000, -1.000000000000000000 ) ) ;
#440 = EDGE_LOOP ( 'NONE', ( #684, #1246, #913, #709 ) ) ;
#441 = DIRECTION ( 'NONE',  ( 1.264902534566421922E-16, -1.000000000000000000, 0.000000000000000000 ) ) ;
#442 = ORIENTED_EDGE ( 'NONE', *, *, #558, .T. ) ;
#443 = EDGE_CURVE ( 'NONE', #810, #728, #513, .T. ) ;
#444 = FACE_OUTER_BOUND ( 'NONE', #1168, .T. ) ;
#445 = ADVANCED_FACE ( 'NONE', ( #315 ), #39, .T. ) ;
#446 = ORIENTED_EDGE ( 'NONE', *, *, #1233, .F. ) ;
#447 = CARTESIAN_POINT ( 'NONE',  ( -7.000000000000001776, -0.3000000000000008216, 80.00000000000001421 ) ) ;
#448 = DIRECTION ( 'NONE',  ( 1.000000000000000000, 0.000000000000000000, -0.000000000000000000 ) ) ;
#449 = LINE ( 'NONE', #929, #1245 ) ;
#450 = VERTEX_POINT ( 'NONE', #339 ) ;
#451 = DIRECTION ( 'NONE',  ( -1.000000000000000000, 0.000000000000000000, 0.000000000000000000 ) ) ;
#452 = VECTOR ( 'NONE', #269, 1000.000000000000000 ) ;
#453 = ORIENTED_EDGE ( 'NONE', *, *, #245, .F. ) ;
#454 = LINE ( 'NONE', #927, #819 ) ;
#455 = AXIS2_PLACEMENT_3D ( 'NONE', #945, #439, #451 ) ;
#456 = DIRECTION ( 'NONE',  ( 0.000000000000000000, -1.000000000000000000, 0.000000000000000000 ) ) ;
#457 = ORIENTED_EDGE ( 'NONE', *, *, #584, .T. ) ;
#458 = CARTESIAN_POINT ( 'NONE',  ( 20.00000000000000355, -9.999999999999998224, 45.00000000000000711 ) ) ;
#459 = ORIENTED_EDGE ( 'NONE', *, *, #636, .F. ) ;
#460 = CARTESIAN_POINT ( 'NONE',  ( 10.00000000000000178, -0.1250000000000000000, 79.50000000000001421 ) ) ;
#461 = LINE ( 'NONE', #1239, #472 ) ;
#462 = VERTEX_POINT ( 'NONE', #148 ) ;
#463 = PERSON_AND_ORGANIZATION ( #900, #1002 ) ;
#464 = DIRECTION ( 'NONE',  ( -0.000000000000000000, -0.000000000000000000, 1.000000000000000000 ) ) ;
#465 = ORIENTED_EDGE ( 'NONE', *, *, #725, .T. ) ;
#466 = CARTESIAN_POINT ( 'NONE',  ( 0.000000000000000000, 0.000000000000000000, 80.00000000000001421 ) ) ;
#467 = EDGE_LOOP ( 'NONE', ( #597, #64, #783, #457, #660, #1121, #555, #395 ) ) ;
#468 = APPROVAL_STATUS ( 'not_yet_approved' ) ;
#469 = LINE ( 'NONE', #760, #299 ) ;
#470 = DIRECTION ( 'NONE',  ( -4.336808689942017736E-17, -1.000000000000000000, -0.000000000000000000 ) ) ;
#471 = DIRECTION ( 'NONE',  ( -0.2747211278973780146, 0.000000000000000000, -0.9615239476408232733 ) ) ;
#472 = VECTOR ( 'NONE', #358, 1000.000000000000000 ) ;
#473 = APPROVAL_STATUS ( 'not_yet_approved' ) ;
#474 = CARTESIAN_POINT ( 'NONE',  ( 10.00000000000000178, 0.1250000000000000000, 79.50000000000001421 ) ) ;
#475 = VERTEX_POINT ( 'NONE', #733 ) ;
#476 = CARTESIAN_POINT ( 'NONE',  ( 3.794707603699265519E-17, -0.2999999999999999889, 5.000000000000000000 ) ) ;
#477 = DIRECTION ( 'NONE',  ( -0.9626736636637271971, 0.000000000000000000, 0.2706647692040045072 ) ) ;
#478 = CC_DESIGN_PERSON_AND_ORGANIZATION_ASSIGNMENT ( #963, #861, ( #548 ) ) ;
#479 = CARTESIAN_POINT ( 'NONE',  ( 19.99999999999999645, 10.00000000000000178, 45.00000000000000711 ) ) ;
#480 = CARTESIAN_POINT ( 'NONE',  ( -7.000000000000001776, -0.3000000000000008216, 0.000000000000000000 ) ) ;
#481 = EDGE_CURVE ( 'NONE', #634, #484, #535, .T. ) ;
#482 = SECURITY_CLASSIFICATION_LEVEL ( 'unclassified' ) ;
#483 = CARTESIAN_POINT ( 'NONE',  ( -7.000000000000001776, 0.2999999999999991007, 74.99999999999998579 ) ) ;
#484 = VERTEX_POINT ( 'NONE', #1235 ) ;
#485 = EDGE_CURVE ( 'NONE', #827, #707, #1038, .T. ) ;
#486 = CARTESIAN_POINT ( 'NONE',  ( -7.000000000000001776, -0.1250000000000000000, 75.00000000000001421 ) ) ;
#487 = CARTESIAN_POINT ( 'NONE',  ( 5.000000000000000888, -10.00000000000000000, 75.00000000000001421 ) ) ;
#488 = LINE ( 'NONE', #91, #236 ) ;
#489 = LINE ( 'NONE', #262, #1265 ) ;
#490 = DIRECTION ( 'NONE',  ( -0.000000000000000000, -0.000000000000000000, -1.000000000000000000 ) ) ;
#491 = VERTEX_POINT ( 'NONE', #640 ) ;
#492 = ORIENTED_EDGE ( 'NONE', *, *, #430, .T. ) ;
#493 = DIRECTION ( 'NONE',  ( -4.336808689942017736E-17, -1.000000000000000000, -0.000000000000000000 ) ) ;
#494 = DIRECTION ( 'NONE',  ( 0.000000000000000000, 0.000000000000000000, 1.000000000000000000 ) ) ;
#495 = CARTESIAN_POINT ( 'NONE',  ( 10.00000000000000178, -10.00000000000000000, 5.000000000000000000 ) ) ;
#496 = AXIS2_PLACEMENT_3D ( 'NONE', #942, #648, #656 ) ;
#497 = DIRECTION ( 'NONE',  ( 1.000000000000000000, 1.264902534566421675E-16, -0.000000000000000000 ) ) ;
#498 = VECTOR ( 'NONE', #1221, 1000.000000000000000 ) ;
#499 = ORIENTED_EDGE ( 'NONE', *, *, #572, .F. ) ;
#500 = VECTOR ( 'NONE', #651, 1000.000000000000000 ) ;
#501 = CARTESIAN_POINT ( 'NONE',  ( -10.00000000000000178, -0.3000000000000012101, 74.99999999999998579 ) ) ;
#502 = FACE_OUTER_BOUND ( 'NONE', #691, .T. ) ;
#503 = CARTESIAN_POINT ( 'NONE',  ( 9.999999999999998224, 10.00000000000000000, 35.00000000000000000 ) ) ;
#504 = ADVANCED_FACE ( 'NONE', ( #826 ), #1120, .F. ) ;
#505 = VERTEX_POINT ( 'NONE', #1017 ) ;
#506 = ORIENTED_EDGE ( 'NONE', *, *, #991, .F. ) ;
#507 = EDGE_CURVE ( 'NONE', #6, #971, #1125, .T. ) ;
#508 = DIRECTION ( 'NONE',  ( 0.000000000000000000, 1.000000000000000000, -0.000000000000000000 ) ) ;
#509 = DIRECTION ( 'NONE',  ( 0.000000000000000000, -1.000000000000000000, 0.000000000000000000 ) ) ;
#510 = ORIENTED_EDGE ( 'NONE', *, *, #533, .F. ) ;
#511 = VERTEX_POINT ( 'NONE', #334 ) ;
#512 = EDGE_LOOP ( 'NONE', ( #545, #1203, #1019, #644 ) ) ;
#513 = LINE ( 'NONE', #19, #1003 ) ;
#514 = PLANE ( 'NONE',  #220 ) ;
#515 = ORIENTED_EDGE ( 'NONE', *, *, #806, .F. ) ;
#516 = LOCAL_TIME ( 14, 37, 14.00000000000000000, #4 ) ;
#517 = VECTOR ( 'NONE', #98, 1000.000000000000000 ) ;
#518 = DIRECTION ( 'NONE',  ( -1.000000000000000000, -0.000000000000000000, -0.000000000000000000 ) ) ;
#519 = APPROVAL ( #764, 'UNSPECIFIED' ) ;
#520 = DIRECTION ( 'NONE',  ( 0.000000000000000000, 0.000000000000000000, 1.000000000000000000 ) ) ;
#521 = EDGE_CURVE ( 'NONE', #129, #330, #741, .T. ) ;
#522 = VERTEX_POINT ( 'NONE', #645 ) ;
#523 = CARTESIAN_POINT ( 'NONE',  ( 10.00000000000000000, 0.1250000000000000000, 0.000000000000000000 ) ) ;
#524 = CARTESIAN_POINT ( 'NONE',  ( -10.00000000000000178, -10.00000000000000000, 5.000000000000000000 ) ) ;
#525 = VERTEX_POINT ( 'NONE', #362 ) ;
#526 = CARTESIAN_POINT ( 'NONE',  ( 9.999999999999992895, -0.1250000000000000000, 0.5000000000000000000 ) ) ;
#527 = CARTESIAN_POINT ( 'NONE',  ( 19.99999999999999645, -0.1250000000000000000, 35.00000000000000000 ) ) ;
#528 = ORIENTED_EDGE ( 'NONE', *, *, #1007, .T. ) ;
#529 = VECTOR ( 'NONE', #174, 1000.000000000000000 ) ;
#530 = DIRECTION ( 'NONE',  ( 0.000000000000000000, 1.000000000000000000, 0.000000000000000000 ) ) ;
#531 = AXIS2_PLACEMENT_3D ( 'NONE', #600, #508, #494 ) ;
#532 = EDGE_LOOP ( 'NONE', ( #433, #1191, #714, #978, #124, #313, #453, #795, #243, #213 ) ) ;
#533 = EDGE_CURVE ( 'NONE', #294, #1073, #843, .T. ) ;
#534 = ADVANCED_FACE ( 'NONE', ( #547 ), #354, .F. ) ;
#535 = LINE ( 'NONE', #939, #1165 ) ;
#536 = EDGE_LOOP ( 'NONE', ( #408, #909, #626, #886 ) ) ;
#537 = CARTESIAN_POINT ( 'NONE',  ( 10.00000000000000178, -10.00000000000000000, 35.00000000000000000 ) ) ;
#538 = DIRECTION ( 'NONE',  ( 0.000000000000000000, 1.000000000000000000, -0.000000000000000000 ) ) ;
#539 = EDGE_LOOP ( 'NONE', ( #359, #365, #307, #807 ) ) ;
#540 = PLANE ( 'NONE',  #1105 ) ;
#541 = EDGE_LOOP ( 'NONE', ( #335, #999, #419, #1259 ) ) ;
#542 = CARTESIAN_POINT ( 'NONE',  ( -7.500000000000001776, 0.1250000000000000000, 80.00000000000001421 ) ) ;
#543 = ADVANCED_FACE ( 'NONE', ( #249 ), #540, .T. ) ;
#544 = FACE_OUTER_BOUND ( 'NONE', #512, .T. ) ;
#545 = ORIENTED_EDGE ( 'NONE', *, *, #245, .T. ) ;
#546 = VECTOR ( 'NONE', #137, 1000.000000000000000 ) ;
#547 = FACE_OUTER_BOUND ( 'NONE', #1179, .T. ) ;
#548 = SECURITY_CLASSIFICATION ( '', '', #482 ) ;
#549 = ORIENTED_EDGE ( 'NONE', *, *, #404, .F. ) ;
#550 = ADVANCED_FACE ( 'NONE', ( #444 ), #1214, .F. ) ;
#551 = VECTOR ( 'NONE', #1042, 1000.000000000000000 ) ;
#552 = VECTOR ( 'NONE', #163, 1000.000000000000000 ) ;
#553 = EDGE_CURVE ( 'NONE', #51, #735, #43, .T. ) ;
#554 = CARTESIAN_POINT ( 'NONE',  ( -7.000000000000001776, 0.2999999999999991007, 4.999999999999997335 ) ) ;
#555 = ORIENTED_EDGE ( 'NONE', *, *, #430, .F. ) ;
#556 = DIRECTION ( 'NONE',  ( 0.000000000000000000, 0.000000000000000000, 1.000000000000000000 ) ) ;
#557 = LINE ( 'NONE', #931, #1210 ) ;
#558 = EDGE_CURVE ( 'NONE', #475, #511, #557, .T. ) ;
#559 = ORIENTED_EDGE ( 'NONE', *, *, #991, .T. ) ;
#560 = PLANE ( 'NONE',  #899 ) ;
#561 = VERTEX_POINT ( 'NONE', #848 ) ;
#562 = LINE ( 'NONE', #953, #529 ) ;
#563 = EDGE_CURVE ( 'NONE', #6, #802, #1142, .T. ) ;
#564 = LINE ( 'NONE', #542, #205 ) ;
#565 = PERSON_AND_ORGANIZATION ( #900, #1002 ) ;
#566 = FACE_OUTER_BOUND ( 'NONE', #754, .T. ) ;
#567 = VERTEX_POINT ( 'NONE', #49 ) ;
#568 = APPROVAL_DATE_TIME ( #173, #1197 ) ;
#569 = EDGE_CURVE ( 'NONE', #332, #615, #727, .T. ) ;
#570 = CARTESIAN_POINT ( 'NONE',  ( 10.00000000000000000, 0.1250000000000000555, 0.5000000000000228706 ) ) ;
#571 = DIRECTION ( 'NONE',  ( 1.000000000000000000, -0.000000000000000000, -0.000000000000000000 ) ) ;
#572 = EDGE_CURVE ( 'NONE', #707, #610, #1111, .T. ) ;
#573 = CARTESIAN_POINT ( 'NONE',  ( 20.00000000000000355, -9.999999999999998224, 35.00000000000000000 ) ) ;
#574 = VECTOR ( 'NONE', #1167, 1000.000000000000000 ) ;
#575 = DIRECTION ( 'NONE',  ( 0.000000000000000000, -0.000000000000000000, -1.000000000000000000 ) ) ;
#576 = DATE_AND_TIME ( #882, #753 ) ;
#577 = VECTOR ( 'NONE', #1207, 1000.000000000000000 ) ;
#578 = VECTOR ( 'NONE', #1020, 1000.000000000000000 ) ;
#579 = ADVANCED_FACE ( 'NONE', ( #864 ), #385, .F. ) ;
#580 = FACE_OUTER_BOUND ( 'NONE', #718, .T. ) ;
#581 = CARTESIAN_POINT ( 'NONE',  ( -10.00000000000000178, -10.00000000000000000, 5.000000000000000000 ) ) ;
#582 = DIRECTION ( 'NONE',  ( 0.000000000000000000, -1.000000000000000000, 0.000000000000000000 ) ) ;
#583 = FACE_OUTER_BOUND ( 'NONE', #167, .T. ) ;
#584 = EDGE_CURVE ( 'NONE', #129, #1252, #97, .T. ) ;
#585 = DIRECTION ( 'NONE',  ( 0.000000000000000000, -1.000000000000000000, 0.000000000000000000 ) ) ;
#586 = CARTESIAN_POINT ( 'NONE',  ( -10.00000000000000178, 10.00000000000000000, 75.00000000000001421 ) ) ;
#587 = VERTEX_POINT ( 'NONE', #1269 ) ;
#588 = EDGE_LOOP ( 'NONE', ( #218, #619, #203, #1097, #896, #690, #251, #952 ) ) ;
#589 = DIRECTION ( 'NONE',  ( 0.000000000000000000, 1.000000000000000000, 0.000000000000000000 ) ) ;
#590 = FACE_OUTER_BOUND ( 'NONE', #1079, .T. ) ;
#591 = EDGE_CURVE ( 'NONE', #839, #505, #685, .T. ) ;
#592 = PLANE ( 'NONE',  #531 ) ;
#593 = PLANE ( 'NONE',  #1101 ) ;
#594 = CALENDAR_DATE ( 2020, 29, 11 ) ;
#595 = LINE ( 'NONE', #101, #751 ) ;
#596 = EDGE_CURVE ( 'NONE', #630, #491, #966, .T. ) ;
#597 = ORIENTED_EDGE ( 'NONE', *, *, #782, .F. ) ;
#598 = ORIENTED_EDGE ( 'NONE', *, *, #822, .F. ) ;
#599 = DIRECTION ( 'NONE',  ( 0.000000000000000000, 0.000000000000000000, 1.000000000000000000 ) ) ;
#600 = CARTESIAN_POINT ( 'NONE',  ( -7.500000000000001776, -0.1250000000000000000, 2.922671448960615834E-17 ) ) ;
#601 = EDGE_CURVE ( 'NONE', #330, #1266, #267, .T. ) ;
#602 = DIRECTION ( 'NONE',  ( -0.000000000000000000, -0.000000000000000000, 1.000000000000000000 ) ) ;
#603 = AXIS2_PLACEMENT_3D ( 'NONE', #643, #47, #41 ) ;
#604 = DIRECTION ( 'NONE',  ( 0.000000000000000000, 1.000000000000000000, -0.000000000000000000 ) ) ;
#605 = PRODUCT_DEFINITION_FORMATION_WITH_SPECIFIED_SOURCE ( 'ANY', '', #50, .NOT_KNOWN. ) ;
#606 = ORIENTED_EDGE ( 'NONE', *, *, #987, .F. ) ;
#607 = EDGE_CURVE ( 'NONE', #847, #1073, #973, .T. ) ;
#608 = AXIS2_PLACEMENT_3D ( 'NONE', #1061, #582, #871 ) ;
#609 = ORIENTED_EDGE ( 'NONE', *, *, #1041, .F. ) ;
#610 = VERTEX_POINT ( 'NONE', #774 ) ;
#611 = DIRECTION ( 'NONE',  ( 0.000000000000000000, 0.000000000000000000, 1.000000000000000000 ) ) ;
#612 = DIRECTION ( 'NONE',  ( 1.000000000000000000, 0.000000000000000000, -0.000000000000000000 ) ) ;
#613 = DESIGN_CONTEXT ( 'detailed design', #65, 'design' ) ;
#614 = ORIENTED_EDGE ( 'NONE', *, *, #924, .F. ) ;
#615 = VERTEX_POINT ( 'NONE', #570 ) ;
#616 = LINE ( 'NONE', #127, #627 ) ;
#617 = DIRECTION ( 'NONE',  ( -0.000000000000000000, -0.000000000000000000, -1.000000000000000000 ) ) ;
#618 = ORIENTED_EDGE ( 'NONE', *, *, #1177, .T. ) ;
#619 = ORIENTED_EDGE ( 'NONE', *, *, #563, .F. ) ;
#620 = CC_DESIGN_DATE_AND_TIME_ASSIGNMENT ( #576, #1050, ( #147 ) ) ;
#621 = CARTESIAN_POINT ( 'NONE',  ( 20.00000000000000355, -9.999999999999998224, 45.00000000000000711 ) ) ;
#622 = DIRECTION ( 'NONE',  ( 0.000000000000000000, 0.000000000000000000, 1.000000000000000000 ) ) ;
#623 = ORIENTED_EDGE ( 'NONE', *, *, #725, .F. ) ;
#624 = VECTOR ( 'NONE', #892, 1000.000000000000000 ) ;
#625 = VECTOR ( 'NONE', #975, 1000.000000000000000 ) ;
#626 = ORIENTED_EDGE ( 'NONE', *, *, #254, .T. ) ;
#627 = VECTOR ( 'NONE', #1201, 1000.000000000000000 ) ;
#628 = DIRECTION ( 'NONE',  ( 0.2706647692040045072, 0.000000000000000000, 0.9626736636637271971 ) ) ;
#629 = DIRECTION ( 'NONE',  ( -0.000000000000000000, -0.000000000000000000, 1.000000000000000000 ) ) ;
#630 = VERTEX_POINT ( 'NONE', #486 ) ;
#631 = ORIENTED_EDGE ( 'NONE', *, *, #1086, .F. ) ;
#632 = CARTESIAN_POINT ( 'NONE',  ( -10.00000000000000178, -10.00000000000000000, 80.00000000000001421 ) ) ;
#633 = DIRECTION ( 'NONE',  ( -0.000000000000000000, -0.000000000000000000, -1.000000000000000000 ) ) ;
#634 = VERTEX_POINT ( 'NONE', #1254 ) ;
#635 = DIRECTION ( 'NONE',  ( -1.000000000000000000, -1.734723475976807094E-16, -0.000000000000000000 ) ) ;
#636 = EDGE_CURVE ( 'NONE', #240, #522, #870, .T. ) ;
#637 = ORIENTED_EDGE ( 'NONE', *, *, #9, .T. ) ;
#638 = VECTOR ( 'NONE', #242, 1000.000000000000000 ) ;
#639 = VECTOR ( 'NONE', #266, 1000.000000000000000 ) ;
#640 = CARTESIAN_POINT ( 'NONE',  ( -7.000000000000001776, -0.1250000000000000000, 80.00000000000001421 ) ) ;
#641 = AXIS2_PLACEMENT_3D ( 'NONE', #397, #290, #729 ) ;
#642 = ORIENTED_EDGE ( 'NONE', *, *, #30, .T. ) ;
#643 = CARTESIAN_POINT ( 'NONE',  ( 20.00000000000000355, -9.999999999999998224, 45.00000000000000711 ) ) ;
#644 = ORIENTED_EDGE ( 'NONE', *, *, #333, .F. ) ;
#645 = CARTESIAN_POINT ( 'NONE',  ( 19.69999999999999574, 0.1250000000000000000, 45.00000000000000711 ) ) ;
#646 = ORIENTED_EDGE ( 'NONE', *, *, #1182, .F. ) ;
#647 = LINE ( 'NONE', #934, #452 ) ;
#648 = DIRECTION ( 'NONE',  ( -0.000000000000000000, 0.000000000000000000, 1.000000000000000000 ) ) ;
#649 = ORIENTED_EDGE ( 'NONE', *, *, #740, .T. ) ;
#650 =( NAMED_UNIT ( * ) SI_UNIT ( $, .STERADIAN. ) SOLID_ANGLE_UNIT ( ) );
#651 = DIRECTION ( 'NONE',  ( -0.000000000000000000, -0.000000000000000000, -1.000000000000000000 ) ) ;
#652 = EDGE_CURVE ( 'NONE', #994, #40, #1261, .T. ) ;
#653 = ORIENTED_EDGE ( 'NONE', *, *, #324, .T. ) ;
#654 = ADVANCED_FACE ( 'NONE', ( #168 ), #197, .T. ) ;
#655 = EDGE_CURVE ( 'NONE', #484, #384, #282, .T. ) ;
#656 = DIRECTION ( 'NONE',  ( 1.000000000000000000, 0.000000000000000000, 0.000000000000000000 ) ) ;
#657 = ORIENTED_EDGE ( 'NONE', *, *, #1016, .F. ) ;
#658 = AXIS2_PLACEMENT_3D ( 'NONE', #1149, #477, #72 ) ;
#659 = DIRECTION ( 'NONE',  ( 0.000000000000000000, 1.000000000000000000, 0.000000000000000000 ) ) ;
#660 = ORIENTED_EDGE ( 'NONE', *, *, #695, .F. ) ;
#661 = DIRECTION ( 'NONE',  ( 0.2747211278973778481, 0.000000000000000000, -0.9615239476408231623 ) ) ;
#662 = VECTOR ( 'NONE', #530, 1000.000000000000000 ) ;
#663 = LINE ( 'NONE', #264, #178 ) ;
#664 = ORIENTED_EDGE ( 'NONE', *, *, #1098, .F. ) ;
#665 = CARTESIAN_POINT ( 'NONE',  ( -10.00000000000000178, 0.2999999999999990452, 80.00000000000001421 ) ) ;
#666 = CARTESIAN_POINT ( 'NONE',  ( 19.99999999999999645, -0.1250000000000000000, 45.00000000000000711 ) ) ;
#667 = DIRECTION ( 'NONE',  ( -1.000000000000000000, -1.734723475976807094E-16, 0.000000000000000000 ) ) ;
#668 = CARTESIAN_POINT ( 'NONE',  ( 10.00000000000000178, -0.1250000000000000000, 79.50000000000001421 ) ) ;
#669 = ORIENTED_EDGE ( 'NONE', *, *, #409, .T. ) ;
#670 = CARTESIAN_POINT ( 'NONE',  ( -7.000000000000001776, 0.000000000000000000, 75.00000000000001421 ) ) ;
#671 = CARTESIAN_POINT ( 'NONE',  ( 5.000000000000000888, -10.00000000000000000, 75.00000000000001421 ) ) ;
#672 = EDGE_CURVE ( 'NONE', #450, #286, #1074, .T. ) ;
#673 = MANIFOLD_SOLID_BREP ( 'Boss.-Extru.8', #756 ) ;
#674 = LINE ( 'NONE', #474, #1137 ) ;
#675 = CARTESIAN_POINT ( 'NONE',  ( -7.000000000000001776, 0.2999999999999991007, -9.999999999999980460 ) ) ;
#676 = CARTESIAN_POINT ( 'NONE',  ( -7.000000000000001776, -0.1250000000000000000, 2.922671448960615834E-17 ) ) ;
#677 = EDGE_CURVE ( 'NONE', #1091, #839, #692, .T. ) ;
#678 = CARTESIAN_POINT ( 'NONE',  ( -7.500000000000001776, 0.1250000000000000000, 0.000000000000000000 ) ) ;
#679 = VECTOR ( 'NONE', #1070, 1000.000000000000000 ) ;
#680 = SHAPE_DEFINITION_REPRESENTATION ( #363, #297 ) ;
#681 = VECTOR ( 'NONE', #67, 1000.000000000000000 ) ;
#682 = DIRECTION ( 'NONE',  ( 0.000000000000000000, 0.000000000000000000, -1.000000000000000000 ) ) ;
#683 = ORIENTED_EDGE ( 'NONE', *, *, #820, .F. ) ;
#684 = ORIENTED_EDGE ( 'NONE', *, *, #1213, .T. ) ;
#685 = LINE ( 'NONE', #1060, #390 ) ;
#686 = DIRECTION ( 'NONE',  ( -1.000000000000000000, 0.000000000000000000, 0.000000000000000000 ) ) ;
#687 = CARTESIAN_POINT ( 'NONE',  ( 10.00000000000000178, -0.1250000000000000000, 79.50000000000001421 ) ) ;
#688 = CARTESIAN_POINT ( 'NONE',  ( -7.000000000000001776, 0.2999999999999991007, -9.999999999999980460 ) ) ;
#689 = ORIENTED_EDGE ( 'NONE', *, *, #1134, .F. ) ;
#690 = ORIENTED_EDGE ( 'NONE', *, *, #1119, .T. ) ;
#691 = EDGE_LOOP ( 'NONE', ( #1013, #1220, #186, #790, #1230, #1138 ) ) ;
#692 = LINE ( 'NONE', #785, #800 ) ;
#693 = DIRECTION ( 'NONE',  ( -1.000000000000000000, -1.734723475976807094E-16, 0.000000000000000000 ) ) ;
#694 = EDGE_CURVE ( 'NONE', #1227, #525, #562, .T. ) ;
#695 = EDGE_CURVE ( 'NONE', #996, #1252, #469, .T. ) ;
#696 = CARTESIAN_POINT ( 'NONE',  ( -10.00000000000000178, 10.00000000000000000, 5.000000000000000000 ) ) ;
#697 = EDGE_LOOP ( 'NONE', ( #120, #1169, #1011, #893, #446, #791, #401, #1193, #1110, #937 ) ) ;
#698 = DIRECTION ( 'NONE',  ( 1.000000000000000000, 1.264902534566421922E-16, 0.000000000000000000 ) ) ;
#699 = CARTESIAN_POINT ( 'NONE',  ( -7.000000000000001776, 0.1250000000000000000, -9.999999999999980460 ) ) ;
#700 = VECTOR ( 'NONE', #345, 1000.000000000000000 ) ;
#701 = CARTESIAN_POINT ( 'NONE',  ( -10.00000000000000178, 10.00000000000000000, 5.000000000000000000 ) ) ;
#702 = VECTOR ( 'NONE', #1012, 999.9999999999998863 ) ;
#703 = VERTEX_POINT ( 'NONE', #1155 ) ;
#704 = ORIENTED_EDGE ( 'NONE', *, *, #1185, .T. ) ;
#705 = PLANE ( 'NONE',  #901 ) ;
#706 = DIRECTION ( 'NONE',  ( 0.9615239476408232733, -0.000000000000000000, 0.2747211278973779036 ) ) ;
#707 = VERTEX_POINT ( 'NONE', #273 ) ;
#708 = CC_DESIGN_PERSON_AND_ORGANIZATION_ASSIGNMENT ( #367, #1159, ( #605 ) ) ;
#709 = ORIENTED_EDGE ( 'NONE', *, *, #987, .T. ) ;
#710 = ORIENTED_EDGE ( 'NONE', *, *, #912, .T. ) ;
#711 = CARTESIAN_POINT ( 'NONE',  ( 5.000000000000000888, -10.00000000000000000, 5.000000000000000000 ) ) ;
#712 = CARTESIAN_POINT ( 'NONE',  ( 10.00000000000000178, 10.00000000000000000, 75.00000000000001421 ) ) ;
#713 = ORIENTED_EDGE ( 'NONE', *, *, #95, .T. ) ;
#714 = ORIENTED_EDGE ( 'NONE', *, *, #1130, .F. ) ;
#715 = LINE ( 'NONE', #1211, #1037 ) ;
#716 = CARTESIAN_POINT ( 'NONE',  ( 0.000000000000000000, 0.1250000000000000000, 0.000000000000000000 ) ) ;
#717 = VECTOR ( 'NONE', #396, 1000.000000000000000 ) ;
#718 = EDGE_LOOP ( 'NONE', ( #114, #96, #27, #506 ) ) ;
#719 = VECTOR ( 'NONE', #921, 1000.000000000000000 ) ;
#720 = LINE ( 'NONE', #621, #281 ) ;
#721 = CARTESIAN_POINT ( 'NONE',  ( -7.500000000000001776, -0.1250000000000000000, 80.00000000000001421 ) ) ;
#722 = EDGE_LOOP ( 'NONE', ( #831, #427, #515, #280, #1027, #1071, #1031, #194, #849, #246, #664, #869 ) ) ;
#723 = CARTESIAN_POINT ( 'NONE',  ( -5.421010862427507533E-18, 0.2999999999999992117, 0.000000000000000000 ) ) ;
#724 = EDGE_CURVE ( 'NONE', #265, #505, #1022, .T. ) ;
#725 = EDGE_CURVE ( 'NONE', #827, #462, #758, .T. ) ;
#726 = EDGE_CURVE ( 'NONE', #265, #703, #449, .T. ) ;
#727 = LINE ( 'NONE', #836, #109 ) ;
#728 = VERTEX_POINT ( 'NONE', #554 ) ;
#729 = DIRECTION ( 'NONE',  ( -0.2706647692040043407, 0.000000000000000000, 0.9626736636637273081 ) ) ;
#730 = CARTESIAN_POINT ( 'NONE',  ( 19.99999999999999645, 0.1250000000000000000, 45.00000000000000711 ) ) ;
#731 = VECTOR ( 'NONE', #911, 1000.000000000000000 ) ;
#732 = AXIS2_PLACEMENT_3D ( 'NONE', #675, #823, #1058 ) ;
#733 = CARTESIAN_POINT ( 'NONE',  ( -10.00000000000000178, 0.2999999999999990452, 74.99999999999998579 ) ) ;
#734 = VECTOR ( 'NONE', #310, 1000.000000000000114 ) ;
#735 = VERTEX_POINT ( 'NONE', #350 ) ;
#736 = DIRECTION ( 'NONE',  ( 1.734723475976807094E-16, -1.000000000000000000, 0.000000000000000000 ) ) ;
#737 = APPROVAL ( #473, 'UNSPECIFIED' ) ;
#738 = LINE ( 'NONE', #851, #18 ) ;
#739 = VERTEX_POINT ( 'NONE', #951 ) ;
#740 = EDGE_CURVE ( 'NONE', #703, #31, #170, .T. ) ;
#741 = LINE ( 'NONE', #1047, #719 ) ;
#742 = ORIENTED_EDGE ( 'NONE', *, *, #320, .T. ) ;
#743 = LINE ( 'NONE', #668, #700 ) ;
#744 = VERTEX_POINT ( 'NONE', #1226 ) ;
#745 = LINE ( 'NONE', #476, #981 ) ;
#746 = CARTESIAN_POINT ( 'NONE',  ( -10.00000000000000178, 10.00000000000000000, 80.00000000000001421 ) ) ;
#747 = ORIENTED_EDGE ( 'NONE', *, *, #190, .T. ) ;
#748 = LINE ( 'NONE', #1136, #76 ) ;
#749 = VERTEX_POINT ( 'NONE', #1032 ) ;
#750 = PLANE ( 'NONE',  #732 ) ;
#751 = VECTOR ( 'NONE', #497, 1000.000000000000000 ) ;
#752 = CARTESIAN_POINT ( 'NONE',  ( 0.000000000000000000, 0.1250000000000000000, 0.000000000000000000 ) ) ;
#753 = LOCAL_TIME ( 14, 37, 14.00000000000000000, #1175 ) ;
#754 = EDGE_LOOP ( 'NONE', ( #196, #437, #348, #930, #926, #1006, #1143, #160 ) ) ;
#755 = CARTESIAN_POINT ( 'NONE',  ( -7.000000000000001776, 0.2999999999999991007, 80.00000000000001421 ) ) ;
#756 = CLOSED_SHELL ( 'NONE', ( #138, #1217, #1044, #910, #428, #1236, #850, #1018, #534, #504, #579, #1076, #360, #765, #1080, #322, #838, #445, #811, #817, #857, #227, #228, #550, #1196, #429, #757, #208, #78, #1116, #54, #1183, #654, #135, #308, #543 ) ) ;
#757 = ADVANCED_FACE ( 'NONE', ( #566 ), #1244, .F. ) ;
#758 = LINE ( 'NONE', #1051, #1224 ) ;
#759 = ORIENTED_EDGE ( 'NONE', *, *, #1180, .T. ) ;
#760 = CARTESIAN_POINT ( 'NONE',  ( 10.00000000000000178, -10.00000000000000000, 45.00000000000000711 ) ) ;
#761 = EDGE_CURVE ( 'NONE', #248, #986, #663, .T. ) ;
#762 = LINE ( 'NONE', #84, #982 ) ;
#763 = CARTESIAN_POINT ( 'NONE',  ( -7.000000000000001776, 0.2999999999999991007, -9.999999999999980460 ) ) ;
#764 = APPROVAL_STATUS ( 'not_yet_approved' ) ;
#765 = ADVANCED_FACE ( 'NONE', ( #1123 ), #370, .F. ) ;
#766 = DIRECTION ( 'NONE',  ( -1.000000000000000000, 0.000000000000000000, 0.000000000000000000 ) ) ;
#767 = ORIENTED_EDGE ( 'NONE', *, *, #95, .F. ) ;
#768 = PERSON_AND_ORGANIZATION ( #900, #1002 ) ;
#769 = DIRECTION ( 'NONE',  ( -0.000000000000000000, -0.000000000000000000, -1.000000000000000000 ) ) ;
#770 = DIRECTION ( 'NONE',  ( 0.000000000000000000, -1.000000000000000000, 0.000000000000000000 ) ) ;
#771 = PERSON_AND_ORGANIZATION ( #900, #1002 ) ;
#772 = DIRECTION ( 'NONE',  ( -1.000000000000000000, -1.807003620809173954E-17, 0.000000000000000000 ) ) ;
#773 = ORIENTED_EDGE ( 'NONE', *, *, #1177, .F. ) ;
#774 = CARTESIAN_POINT ( 'NONE',  ( -10.00000000000000178, -10.00000000000000000, 5.000000000000000000 ) ) ;
#775 = VECTOR ( 'NONE', #375, 1000.000000000000000 ) ;
#776 = CARTESIAN_POINT ( 'NONE',  ( 19.99999999999999645, 0.1250000000000000000, 45.00000000000000711 ) ) ;
#777 =( GEOMETRIC_REPRESENTATION_CONTEXT ( 3 ) GLOBAL_UNCERTAINTY_ASSIGNED_CONTEXT ( ( #414 ) ) GLOBAL_UNIT_ASSIGNED_CONTEXT ( ( #258, #379, #650 ) ) REPRESENTATION_CONTEXT ( 'NONE', 'WORKASPACE' ) );
#778 = DIRECTION ( 'NONE',  ( -1.734723475976807094E-16, 1.000000000000000000, -0.000000000000000000 ) ) ;
#779 = CALENDAR_DATE ( 2020, 29, 11 ) ;
#780 = VECTOR ( 'NONE', #821, 1000.000000000000000 ) ;
#781 = DIRECTION ( 'NONE',  ( -1.000000000000000000, -1.734723475976807094E-16, -0.000000000000000000 ) ) ;
#782 = EDGE_CURVE ( 'NONE', #1090, #977, #743, .T. ) ;
#783 = ORIENTED_EDGE ( 'NONE', *, *, #521, .F. ) ;
#784 = ORIENTED_EDGE ( 'NONE', *, *, #1041, .T. ) ;
#785 = CARTESIAN_POINT ( 'NONE',  ( -7.500000000000001776, 0.1250000000000000000, 0.000000000000000000 ) ) ;
#786 = CARTESIAN_POINT ( 'NONE',  ( 20.00000000000000000, 3.469446951953614189E-15, 0.000000000000000000 ) ) ;
#787 = DIRECTION ( 'NONE',  ( -0.000000000000000000, -0.000000000000000000, -1.000000000000000000 ) ) ;
#788 = LINE ( 'NONE', #696, #141 ) ;
#789 = ORIENTED_EDGE ( 'NONE', *, *, #983, .F. ) ;
#790 = ORIENTED_EDGE ( 'NONE', *, *, #1148, .F. ) ;
#791 = ORIENTED_EDGE ( 'NONE', *, *, #572, .T. ) ;
#792 = DIRECTION ( 'NONE',  ( -1.000000000000000000, 0.000000000000000000, 0.000000000000000000 ) ) ;
#793 = PLANE ( 'NONE',  #856 ) ;
#794 = CARTESIAN_POINT ( 'NONE',  ( 19.99999999999999645, 10.00000000000000178, 35.00000000000000000 ) ) ;
#795 = ORIENTED_EDGE ( 'NONE', *, *, #324, .F. ) ;
#796 = EDGE_LOOP ( 'NONE', ( #499, #841, #465, #834 ) ) ;
#797 = LINE ( 'NONE', #992, #702 ) ;
#798 = CARTESIAN_POINT ( 'NONE',  ( 10.00000000000000178, -0.1250000000000000000, 79.50000000000001421 ) ) ;
#799 = EDGE_LOOP ( 'NONE', ( #510, #1087, #863, #105 ) ) ;
#800 = VECTOR ( 'NONE', #1171, 1000.000000000000000 ) ;
#801 = VECTOR ( 'NONE', #611, 1000.000000000000000 ) ;
#802 = VERTEX_POINT ( 'NONE', #730 ) ;
#803 = EDGE_CURVE ( 'NONE', #847, #151, #738, .T. ) ;
#804 = DIRECTION ( 'NONE',  ( -0.000000000000000000, 0.000000000000000000, -1.000000000000000000 ) ) ;
#805 = LINE ( 'NONE', #296, #435 ) ;
#806 = EDGE_CURVE ( 'NONE', #248, #155, #1117, .T. ) ;
#807 = ORIENTED_EDGE ( 'NONE', *, *, #1043, .T. ) ;
#808 = ORIENTED_EDGE ( 'NONE', *, *, #250, .T. ) ;
#809 = FACE_OUTER_BOUND ( 'NONE', #799, .T. ) ;
#810 = VERTEX_POINT ( 'NONE', #150 ) ;
#811 = ADVANCED_FACE ( 'NONE', ( #544 ), #1219, .F. ) ;
#812 = CARTESIAN_POINT ( 'NONE',  ( 0.000000000000000000, 0.000000000000000000, 5.000000000000000000 ) ) ;
#813 = CARTESIAN_POINT ( 'NONE',  ( 10.00000000000000178, 10.00000000000000000, 80.00000000000001421 ) ) ;
#814 = ORIENTED_EDGE ( 'NONE', *, *, #229, .T. ) ;
#815 = AXIS2_PLACEMENT_3D ( 'NONE', #888, #270, #964 ) ;
#816 = VECTOR ( 'NONE', #1131, 1000.000000000000000 ) ;
#817 = ADVANCED_FACE ( 'NONE', ( #57 ), #1231, .F. ) ;
#818 = ORIENTED_EDGE ( 'NONE', *, *, #672, .T. ) ;
#819 = VECTOR ( 'NONE', #661, 1000.000000000000114 ) ;
#820 = EDGE_CURVE ( 'NONE', #462, #17, #461, .T. ) ;
#821 = DIRECTION ( 'NONE',  ( -1.000000000000000000, -1.807003620809173954E-17, 0.000000000000000000 ) ) ;
#822 = EDGE_CURVE ( 'NONE', #332, #40, #748, .T. ) ;
#823 = DIRECTION ( 'NONE',  ( 1.000000000000000000, 0.000000000000000000, 0.000000000000000000 ) ) ;
#824 = ORIENTED_EDGE ( 'NONE', *, *, #1213, .F. ) ;
#825 = LINE ( 'NONE', #460, #158 ) ;
#826 = FACE_OUTER_BOUND ( 'NONE', #796, .T. ) ;
#827 = VERTEX_POINT ( 'NONE', #256 ) ;
#828 = FACE_OUTER_BOUND ( 'NONE', #440, .T. ) ;
#829 = DIRECTION ( 'NONE',  ( -1.734723475976807094E-16, 1.000000000000000000, -0.000000000000000000 ) ) ;
#830 = DIRECTION ( 'NONE',  ( 1.000000000000000000, 0.000000000000000000, -0.000000000000000000 ) ) ;
#831 = ORIENTED_EDGE ( 'NONE', *, *, #820, .T. ) ;
#832 = FACE_OUTER_BOUND ( 'NONE', #895, .T. ) ;
#833 = DIRECTION ( 'NONE',  ( -1.734723475976807094E-16, 1.000000000000000000, 0.000000000000000000 ) ) ;
#834 = ORIENTED_EDGE ( 'NONE', *, *, #1215, .F. ) ;
#835 = VECTOR ( 'NONE', #1251, 1000.000000000000000 ) ;
#836 = CARTESIAN_POINT ( 'NONE',  ( 10.00000000000000000, 0.1250000000000000000, 0.000000000000000000 ) ) ;
#837 = AXIS2_PLACEMENT_3D ( 'NONE', #812, #897, #1205 ) ;
#838 = ADVANCED_FACE ( 'NONE', ( #1045 ), #560, .F. ) ;
#839 = VERTEX_POINT ( 'NONE', #338 ) ;
#840 = DIRECTION ( 'NONE',  ( -0.000000000000000000, -0.000000000000000000, 1.000000000000000000 ) ) ;
#841 = ORIENTED_EDGE ( 'NONE', *, *, #485, .F. ) ;
#842 = EDGE_CURVE ( 'NONE', #522, #977, #674, .T. ) ;
#843 = LINE ( 'NONE', #154, #500 ) ;
#844 = ORIENTED_EDGE ( 'NONE', *, *, #1130, .T. ) ;
#845 = DIRECTION ( 'NONE',  ( -0.2706647692040042297, -0.000000000000000000, 0.9626736636637271971 ) ) ;
#846 = CARTESIAN_POINT ( 'NONE',  ( -7.000000000000001776, 0.000000000000000000, 5.000000000000000000 ) ) ;
#847 = VERTEX_POINT ( 'NONE', #483 ) ;
#848 = CARTESIAN_POINT ( 'NONE',  ( 10.00000000000000000, -0.1250000000000001110, 0.5000000000000240918 ) ) ;
#849 = ORIENTED_EDGE ( 'NONE', *, *, #1158, .T. ) ;
#850 = ADVANCED_FACE ( 'NONE', ( #580 ), #1160, .F. ) ;
#851 = CARTESIAN_POINT ( 'NONE',  ( -7.000000000000001776, 0.2999999999999991007, -9.999999999999980460 ) ) ;
#852 = ORIENTED_EDGE ( 'NONE', *, *, #677, .F. ) ;
#853 = APPROVAL_ROLE ( '' ) ;
#854 = VECTOR ( 'NONE', #1014, 1000.000000000000000 ) ;
#855 = DIRECTION ( 'NONE',  ( 0.000000000000000000, -1.000000000000000000, 0.000000000000000000 ) ) ;
#856 = AXIS2_PLACEMENT_3D ( 'NONE', #311, #1190, #305 ) ;
#857 = ADVANCED_FACE ( 'NONE', ( #87 ), #984, .F. ) ;
#858 = CARTESIAN_POINT ( 'NONE',  ( 19.69999999999999574, -0.1250000000000000000, 35.00000000000000000 ) ) ;
#859 = VECTOR ( 'NONE', #571, 1000.000000000000000 ) ;
#860 = CARTESIAN_POINT ( 'NONE',  ( 10.00000000000000000, -0.1250000000000000000, 0.000000000000000000 ) ) ;
#861 = PERSON_AND_ORGANIZATION_ROLE ( 'classification_officer' ) ;
#862 = DIRECTION ( 'NONE',  ( -0.000000000000000000, 1.000000000000000000, -0.000000000000000000 ) ) ;
#863 = ORIENTED_EDGE ( 'NONE', *, *, #803, .F. ) ;
#864 = FACE_OUTER_BOUND ( 'NONE', #722, .T. ) ;
#865 = FACE_OUTER_BOUND ( 'NONE', #231, .T. ) ;
#866 = DIRECTION ( 'NONE',  ( 1.734723475976807094E-16, -1.000000000000000000, 0.000000000000000000 ) ) ;
#867 = COORDINATED_UNIVERSAL_TIME_OFFSET ( 1, 0, .AHEAD. ) ;
#868 = DIRECTION ( 'NONE',  ( -0.2706647692040042297, -0.000000000000000000, 0.9626736636637271971 ) ) ;
#869 = ORIENTED_EDGE ( 'NONE', *, *, #1215, .T. ) ;
#870 = LINE ( 'NONE', #81, #434 ) ;
#871 = DIRECTION ( 'NONE',  ( 0.000000000000000000, -0.000000000000000000, -1.000000000000000000 ) ) ;
#872 = FACE_OUTER_BOUND ( 'NONE', #588, .T. ) ;
#873 = LINE ( 'NONE', #763, #1162 ) ;
#874 = PRODUCT_RELATED_PRODUCT_CATEGORY ( 'detail', '', ( #50 ) ) ;
#875 = LINE ( 'NONE', #209, #835 ) ;
#876 = EDGE_CURVE ( 'NONE', #286, #475, #1064, .T. ) ;
#877 = ORIENTED_EDGE ( 'NONE', *, *, #172, .T. ) ;
#878 = CARTESIAN_POINT ( 'NONE',  ( -10.00000000000000178, 10.00000000000000000, 80.00000000000001421 ) ) ;
#879 = VECTOR ( 'NONE', #1053, 1000.000000000000000 ) ;
#880 = PLANE ( 'NONE',  #641 ) ;
#881 = DIRECTION ( 'NONE',  ( 1.000000000000000000, 1.264902534566421922E-16, 0.000000000000000000 ) ) ;
#882 = CALENDAR_DATE ( 2020, 29, 11 ) ;
#883 = VECTOR ( 'NONE', #2, 1000.000000000000000 ) ;
#884 = VECTOR ( 'NONE', #1066, 1000.000000000000000 ) ;
#885 = CARTESIAN_POINT ( 'NONE',  ( 19.99999999999999645, -0.1250000000000000000, 35.00000000000000000 ) ) ;
#886 = ORIENTED_EDGE ( 'NONE', *, *, #842, .T. ) ;
#887 = DIRECTION ( 'NONE',  ( 1.264902534566421922E-16, -1.000000000000000000, 0.000000000000000000 ) ) ;
#888 = CARTESIAN_POINT ( 'NONE',  ( -7.000000000000001776, 0.2999999999999991007, -9.999999999999980460 ) ) ;
#889 = VERTEX_POINT ( 'NONE', #292 ) ;
#890 = ORIENTED_EDGE ( 'NONE', *, *, #1233, .T. ) ;
#891 = CARTESIAN_POINT ( 'NONE',  ( -7.000000000000001776, 0.2999999999999991007, -9.999999999999980460 ) ) ;
#892 = DIRECTION ( 'NONE',  ( 0.000000000000000000, 0.000000000000000000, 1.000000000000000000 ) ) ;
#893 = ORIENTED_EDGE ( 'NONE', *, *, #740, .F. ) ;
#894 = EDGE_LOOP ( 'NONE', ( #990, #932, #852, #1200, #559, #669, #824, #125, #598, #609, #631, #683, #623, #70 ) ) ;
#895 = EDGE_LOOP ( 'NONE', ( #784, #117, #1034, #260 ) ) ;
#896 = ORIENTED_EDGE ( 'NONE', *, *, #761, .T. ) ;
#897 = DIRECTION ( 'NONE',  ( -0.000000000000000000, 0.000000000000000000, 1.000000000000000000 ) ) ;
#898 = LINE ( 'NONE', #21, #816 ) ;
#899 = AXIS2_PLACEMENT_3D ( 'NONE', #466, #69, #237 ) ;
#900 = PERSON ( 'UNSPECIFIED', 'UNSPECIFIED', 'UNSPECIFIED', ('UNSPECIFIED'), ('UNSPECIFIED'), ('UNSPECIFIED') ) ;
#901 = AXIS2_PLACEMENT_3D ( 'NONE', #891, #1194, #1189 ) ;
#902 = ORIENTED_EDGE ( 'NONE', *, *, #352, .F. ) ;
#903 = VERTEX_POINT ( 'NONE', #794 ) ;
#904 = DIRECTION ( 'NONE',  ( -1.734723475976807094E-16, 1.000000000000000000, 0.000000000000000000 ) ) ;
#905 = LINE ( 'NONE', #133, #577 ) ;
#906 = ORIENTED_EDGE ( 'NONE', *, *, #38, .F. ) ;
#907 = CARTESIAN_POINT ( 'NONE',  ( -5.421010862427507533E-18, 0.2999999999999992117, 75.00000000000001421 ) ) ;
#908 = DIRECTION ( 'NONE',  ( 0.000000000000000000, 1.000000000000000000, 0.000000000000000000 ) ) ;
#909 = ORIENTED_EDGE ( 'NONE', *, *, #103, .T. ) ;
#910 = ADVANCED_FACE ( 'NONE', ( #278 ), #111, .F. ) ;
#911 = DIRECTION ( 'NONE',  ( 0.000000000000000000, -1.000000000000000000, 0.000000000000000000 ) ) ;
#912 = EDGE_CURVE ( 'NONE', #1124, #450, #177, .T. ) ;
#913 = ORIENTED_EDGE ( 'NONE', *, *, #1001, .F. ) ;
#914 = CARTESIAN_POINT ( 'NONE',  ( 10.00000000000000178, -0.1250000000000000000, 80.00000000000001421 ) ) ;
#915 = LINE ( 'NONE', #128, #253 ) ;
#916 = EDGE_LOOP ( 'NONE', ( #317, #37, #713, #814 ) ) ;
#917 = EDGE_CURVE ( 'NONE', #294, #151, #185, .T. ) ;
#918 = DIRECTION ( 'NONE',  ( -1.387778780781445676E-14, 0.000000000000000000, 1.000000000000000000 ) ) ;
#919 = VECTOR ( 'NONE', #343, 1000.000000000000000 ) ;
#920 = VECTOR ( 'NONE', #792, 1000.000000000000000 ) ;
#921 = DIRECTION ( 'NONE',  ( -0.000000000000000000, 1.000000000000000000, -0.000000000000000000 ) ) ;
#922 = ORIENTED_EDGE ( 'NONE', *, *, #320, .F. ) ;
#923 = EDGE_CURVE ( 'NONE', #144, #986, #970, .T. ) ;
#924 = EDGE_CURVE ( 'NONE', #314, #384, #957, .T. ) ;
#925 = DIRECTION ( 'NONE',  ( 0.000000000000000000, -0.000000000000000000, 1.000000000000000000 ) ) ;
#926 = ORIENTED_EDGE ( 'NONE', *, *, #306, .F. ) ;
#927 = CARTESIAN_POINT ( 'NONE',  ( 10.00000000000000178, 0.1250000000000000000, 80.00000000000001421 ) ) ;
#928 = EDGE_CURVE ( 'NONE', #889, #996, #75, .T. ) ;
#929 = CARTESIAN_POINT ( 'NONE',  ( -7.000000000000001776, -0.3000000000000008216, -9.999999999999980460 ) ) ;
#930 = ORIENTED_EDGE ( 'NONE', *, *, #254, .F. ) ;
#931 = CARTESIAN_POINT ( 'NONE',  ( -10.00000000000000178, 0.2999999999999990452, -9.999999999999980460 ) ) ;
#932 = ORIENTED_EDGE ( 'NONE', *, *, #591, .F. ) ;
#933 = LINE ( 'NONE', #755, #551 ) ;
#934 = CARTESIAN_POINT ( 'NONE',  ( -10.00000000000000178, -0.3000000000000012101, -9.999999999999980460 ) ) ;
#935 = CARTESIAN_POINT ( 'NONE',  ( -7.000000000000001776, -0.3000000000000008216, -9.999999999999980460 ) ) ;
#936 = VECTOR ( 'NONE', #629, 1000.000000000000000 ) ;
#937 = ORIENTED_EDGE ( 'NONE', *, *, #1001, .T. ) ;
#938 = AXIS2_PLACEMENT_3D ( 'NONE', #165, #342, #471 ) ;
#939 = CARTESIAN_POINT ( 'NONE',  ( 5.000000000000001776, 10.00000000000000000, 75.00000000000001421 ) ) ;
#940 = AXIS2_PLACEMENT_3D ( 'NONE', #239, #244, #1241 ) ;
#941 = EDGE_LOOP ( 'NONE', ( #195, #217, #139, #902 ) ) ;
#942 = CARTESIAN_POINT ( 'NONE',  ( 0.000000000000000000, 0.000000000000000000, 0.000000000000000000 ) ) ;
#943 = ORIENTED_EDGE ( 'NONE', *, *, #1218, .F. ) ;
#944 = DIRECTION ( 'NONE',  ( 1.000000000000000000, 0.000000000000000000, 0.000000000000000000 ) ) ;
#945 = CARTESIAN_POINT ( 'NONE',  ( 0.000000000000000000, 0.000000000000000000, 75.00000000000001421 ) ) ;
#946 = CARTESIAN_POINT ( 'NONE',  ( -7.000000000000001776, 0.000000000000000000, 5.000000000000000000 ) ) ;
#947 = FACE_OUTER_BOUND ( 'NONE', #210, .T. ) ;
#948 = EDGE_CURVE ( 'NONE', #164, #744, #5, .T. ) ;
#949 = DATE_AND_TIME ( #389, #1268 ) ;
#950 = EDGE_CURVE ( 'NONE', #484, #739, #875, .T. ) ;
#951 = CARTESIAN_POINT ( 'NONE',  ( -10.00000000000000178, 10.00000000000000000, 5.000000000000000000 ) ) ;
#952 = ORIENTED_EDGE ( 'NONE', *, *, #38, .T. ) ;
#953 = CARTESIAN_POINT ( 'NONE',  ( -10.00000000000000178, 10.00000000000000000, 80.00000000000001421 ) ) ;
#954 = LINE ( 'NONE', #487, #1141 ) ;
#955 = DIRECTION ( 'NONE',  ( -0.000000000000000000, 1.000000000000000000, -0.000000000000000000 ) ) ;
#956 = PERSON_AND_ORGANIZATION_ROLE ( 'creator' ) ;
#957 = LINE ( 'NONE', #1264, #979 ) ;
#958 = ORIENTED_EDGE ( 'NONE', *, *, #726, .F. ) ;
#959 = AXIS2_PLACEMENT_3D ( 'NONE', #688, #377, #682 ) ;
#960 = DIRECTION ( 'NONE',  ( 1.734723475976807094E-16, -1.000000000000000000, -0.000000000000000000 ) ) ;
#961 = LINE ( 'NONE', #1150, #369 ) ;
#962 = AXIS2_PLACEMENT_3D ( 'NONE', #215, #136, #804 ) ;
#963 = PERSON_AND_ORGANIZATION ( #900, #1002 ) ;
#964 = DIRECTION ( 'NONE',  ( 0.000000000000000000, 0.000000000000000000, -1.000000000000000000 ) ) ;
#965 = DIRECTION ( 'NONE',  ( 1.000000000000000000, 1.264902534566421922E-16, 0.000000000000000000 ) ) ;
#966 = LINE ( 'NONE', #676, #104 ) ;
#967 = CC_DESIGN_PERSON_AND_ORGANIZATION_ASSIGNMENT ( #1257, #184, ( #147 ) ) ;
#968 = LINE ( 'NONE', #1048, #859 ) ;
#969 = DIRECTION ( 'NONE',  ( 0.000000000000000000, 1.000000000000000000, 0.000000000000000000 ) ) ;
#970 = LINE ( 'NONE', #93, #233 ) ;
#971 = VERTEX_POINT ( 'NONE', #1186 ) ;
#972 = EDGE_CURVE ( 'NONE', #971, #248, #391, .T. ) ;
#973 = LINE ( 'NONE', #670, #417 ) ;
#974 = CARTESIAN_POINT ( 'NONE',  ( 19.69999999999999574, -0.1250000000000000000, 45.00000000000000711 ) ) ;
#975 = DIRECTION ( 'NONE',  ( 1.000000000000000000, 0.000000000000000000, 0.000000000000000000 ) ) ;
#976 = CARTESIAN_POINT ( 'NONE',  ( 20.00000000000000355, -9.999999999999998224, 45.00000000000000711 ) ) ;
#977 = VERTEX_POINT ( 'NONE', #285 ) ;
#978 = ORIENTED_EDGE ( 'NONE', *, *, #36, .T. ) ;
#979 = VECTOR ( 'NONE', #490, 1000.000000000000000 ) ;
#980 = LINE ( 'NONE', #183, #80 ) ;
#981 = VECTOR ( 'NONE', #965, 1000.000000000000000 ) ;
#982 = VECTOR ( 'NONE', #115, 1000.000000000000114 ) ;
#983 = EDGE_CURVE ( 'NONE', #1227, #131, #595, .T. ) ;
#984 = PLANE ( 'NONE',  #252 ) ;
#985 = ORIENTED_EDGE ( 'NONE', *, *, #1234, .T. ) ;
#986 = VERTEX_POINT ( 'NONE', #885 ) ;
#987 = EDGE_CURVE ( 'NONE', #739, #77, #788, .T. ) ;
#988 = PLANE ( 'NONE',  #1192 ) ;
#989 = LINE ( 'NONE', #721, #546 ) ;
#990 = ORIENTED_EDGE ( 'NONE', *, *, #724, .T. ) ;
#991 = EDGE_CURVE ( 'NONE', #309, #567, #1078, .T. ) ;
#992 = CARTESIAN_POINT ( 'NONE',  ( 19.99999999999999645, 0.1250000000000000000, 35.00000000000000000 ) ) ;
#993 = FACE_OUTER_BOUND ( 'NONE', #916, .T. ) ;
#994 = VERTEX_POINT ( 'NONE', #503 ) ;
#995 = ORIENTED_EDGE ( 'NONE', *, *, #1086, .T. ) ;
#996 = VERTEX_POINT ( 'NONE', #298 ) ;
#997 = PLANE ( 'NONE',  #1063 ) ;
#998 = FACE_OUTER_BOUND ( 'NONE', #536, .T. ) ;
#999 = ORIENTED_EDGE ( 'NONE', *, *, #948, .T. ) ;
#1000 = VECTOR ( 'NONE', #412, 1000.000000000000000 ) ;
#1001 = EDGE_CURVE ( 'NONE', #739, #749, #405, .T. ) ;
#1002 = ORGANIZATION ( 'UNSPECIFIED', 'UNSPECIFIED', '' ) ;
#1003 = VECTOR ( 'NONE', #422, 1000.000000000000000 ) ;
#1004 = FACE_OUTER_BOUND ( 'NONE', #697, .T. ) ;
#1005 = CARTESIAN_POINT ( 'NONE',  ( 9.999999999999998224, 10.00000000000000000, 5.000000000000000000 ) ) ;
#1006 = ORIENTED_EDGE ( 'NONE', *, *, #928, .T. ) ;
#1007 = EDGE_CURVE ( 'NONE', #327, #561, #1208, .T. ) ;
#1008 = EDGE_CURVE ( 'NONE', #1073, #630, #23, .T. ) ;
#1009 = DIRECTION ( 'NONE',  ( -0.000000000000000000, -0.000000000000000000, -1.000000000000000000 ) ) ;
#1010 = CARTESIAN_POINT ( 'NONE',  ( -7.000000000000001776, -0.1250000000000000000, 2.922671448960615834E-17 ) ) ;
#1011 = ORIENTED_EDGE ( 'NONE', *, *, #9, .F. ) ;
#1012 = DIRECTION ( 'NONE',  ( -0.2747211278973780146, 0.000000000000000000, -0.9615239476408232733 ) ) ;
#1013 = ORIENTED_EDGE ( 'NONE', *, *, #1016, .T. ) ;
#1014 = DIRECTION ( 'NONE',  ( 0.000000000000000000, -1.000000000000000000, 0.000000000000000000 ) ) ;
#1015 = AXIS2_PLACEMENT_3D ( 'NONE', #935, #441, #1146 ) ;
#1016 = EDGE_CURVE ( 'NONE', #505, #31, #1243, .T. ) ;
#1017 = CARTESIAN_POINT ( 'NONE',  ( -7.000000000000001776, -0.1250000000000000000, 0.000000000000000000 ) ) ;
#1018 = ADVANCED_FACE ( 'NONE', ( #828 ), #337, .F. ) ;
#1019 = ORIENTED_EDGE ( 'NONE', *, *, #983, .T. ) ;
#1020 = DIRECTION ( 'NONE',  ( 1.000000000000000000, -0.000000000000000000, -0.000000000000000000 ) ) ;
#1021 = CARTESIAN_POINT ( 'NONE',  ( -7.000000000000001776, -0.1250000000000000000, 2.922671448960615834E-17 ) ) ;
#1022 = LINE ( 'NONE', #145, #156 ) ;
#1023 = ORIENTED_EDGE ( 'NONE', *, *, #172, .F. ) ;
#1024 = CARTESIAN_POINT ( 'NONE',  ( -10.00000000000000178, 10.00000000000000000, 75.00000000000001421 ) ) ;
#1025 = EDGE_LOOP ( 'NONE', ( #413, #1040, #943, #378 ) ) ;
#1026 = DIRECTION ( 'NONE',  ( 0.000000000000000000, 1.000000000000000000, -0.000000000000000000 ) ) ;
#1027 = ORIENTED_EDGE ( 'NONE', *, *, #406, .T. ) ;
#1028 = CARTESIAN_POINT ( 'NONE',  ( 10.00000000000000178, -10.00000000000000000, 45.00000000000000711 ) ) ;
#1029 = CARTESIAN_POINT ( 'NONE',  ( -10.00000000000000178, -0.3000000000000012101, -9.999999999999980460 ) ) ;
#1030 = EDGE_CURVE ( 'NONE', #51, #1227, #647, .T. ) ;
#1031 = ORIENTED_EDGE ( 'NONE', *, *, #30, .F. ) ;
#1032 = CARTESIAN_POINT ( 'NONE',  ( -10.00000000000000178, 0.2999999999999990452, 4.999999999999997335 ) ) ;
#1033 = VECTOR ( 'NONE', #493, 1000.000000000000000 ) ;
#1034 = ORIENTED_EDGE ( 'NONE', *, *, #1119, .F. ) ;
#1035 = CC_DESIGN_SECURITY_CLASSIFICATION ( #548, ( #605 ) ) ;
#1036 = APPLICATION_PROTOCOL_DEFINITION ( 'international standard', 'config_control_design', 1994, #65 ) ;
#1037 = VECTOR ( 'NONE', #140, 1000.000000000000000 ) ;
#1038 = LINE ( 'NONE', #1029, #223 ) ;
#1039 = AXIS2_PLACEMENT_3D ( 'NONE', #143, #259, #66 ) ;
#1040 = ORIENTED_EDGE ( 'NONE', *, *, #329, .F. ) ;
#1041 = EDGE_CURVE ( 'NONE', #327, #332, #1166, .T. ) ;
#1042 = DIRECTION ( 'NONE',  ( -0.000000000000000000, 1.000000000000000000, -0.000000000000000000 ) ) ;
#1043 = EDGE_CURVE ( 'NONE', #567, #728, #873, .T. ) ;
#1044 = ADVANCED_FACE ( 'NONE', ( #1256 ), #1151, .F. ) ;
#1045 = FACE_OUTER_BOUND ( 'NONE', #42, .T. ) ;
#1046 = ORIENTED_EDGE ( 'NONE', *, *, #82, .T. ) ;
#1047 = CARTESIAN_POINT ( 'NONE',  ( 10.00000000000000178, 10.00000000000000000, 80.00000000000001421 ) ) ;
#1048 = CARTESIAN_POINT ( 'NONE',  ( 10.00000000000000178, -10.00000000000000000, 80.00000000000001421 ) ) ;
#1049 = CARTESIAN_POINT ( 'NONE',  ( -10.00000000000000178, -10.00000000000000000, 5.000000000000000000 ) ) ;
#1050 = DATE_TIME_ROLE ( 'creation_date' ) ;
#1051 = CARTESIAN_POINT ( 'NONE',  ( -10.00000000000000178, 10.00000000000000000, 0.000000000000000000 ) ) ;
#1052 = EDGE_LOOP ( 'NONE', ( #226, #288, #985, #424 ) ) ;
#1053 = DIRECTION ( 'NONE',  ( -0.000000000000000000, -0.000000000000000000, -1.000000000000000000 ) ) ;
#1054 = CARTESIAN_POINT ( 'NONE',  ( -5.421010862427507533E-18, 0.2999999999999992117, 5.000000000000000000 ) ) ;
#1055 = PLANE ( 'NONE',  #1114 ) ;
#1056 = DIRECTION ( 'NONE',  ( 1.000000000000000000, 0.000000000000000000, 0.000000000000000000 ) ) ;
#1057 = CC_DESIGN_DATE_AND_TIME_ASSIGNMENT ( #949, #68, ( #548 ) ) ;
#1058 = DIRECTION ( 'NONE',  ( 0.000000000000000000, 0.000000000000000000, -1.000000000000000000 ) ) ;
#1059 = VECTOR ( 'NONE', #781, 1000.000000000000000 ) ;
#1060 = CARTESIAN_POINT ( 'NONE',  ( -7.500000000000001776, -0.1250000000000000000, 2.922671448960615834E-17 ) ) ;
#1061 = CARTESIAN_POINT ( 'NONE',  ( 0.000000000000000000, -0.1250000000000000000, 0.000000000000000000 ) ) ;
#1062 = PLANE ( 'NONE',  #392 ) ;
#1063 = AXIS2_PLACEMENT_3D ( 'NONE', #425, #1088, #211 ) ;
#1064 = LINE ( 'NONE', #586, #33 ) ;
#1065 = ORIENTED_EDGE ( 'NONE', *, *, #694, .T. ) ;
#1066 = DIRECTION ( 'NONE',  ( -0.000000000000000000, -0.000000000000000000, -1.000000000000000000 ) ) ;
#1067 = DIRECTION ( 'NONE',  ( -0.000000000000000000, -0.000000000000000000, 1.000000000000000000 ) ) ;
#1068 = LINE ( 'NONE', #776, #394 ) ;
#1069 = LINE ( 'NONE', #1049, #625 ) ;
#1070 = DIRECTION ( 'NONE',  ( 0.000000000000000000, 0.000000000000000000, -1.000000000000000000 ) ) ;
#1071 = ORIENTED_EDGE ( 'NONE', *, *, #584, .F. ) ;
#1072 = ORIENTED_EDGE ( 'NONE', *, *, #250, .F. ) ;
#1073 = VERTEX_POINT ( 'NONE', #276 ) ;
#1074 = LINE ( 'NONE', #878, #879 ) ;
#1075 = APPLICATION_CONTEXT ( 'configuration controlled 3d designs of mechanical parts and assemblies' ) ;
#1076 = ADVANCED_FACE ( 'NONE', ( #403 ), #1055, .F. ) ;
#1077 = CARTESIAN_POINT ( 'NONE',  ( -7.500000000000001776, 0.1250000000000000000, 80.00000000000001421 ) ) ;
#1078 = LINE ( 'NONE', #199, #55 ) ;
#1079 = EDGE_LOOP ( 'NONE', ( #400, #142, #459, #1046 ) ) ;
#1080 = ADVANCED_FACE ( 'NONE', ( #8 ), #593, .F. ) ;
#1081 = VECTOR ( 'NONE', #769, 1000.000000000000000 ) ;
#1082 = CARTESIAN_POINT ( 'NONE',  ( -7.500000000000001776, -0.1250000000000000000, 80.00000000000001421 ) ) ;
#1083 = CC_DESIGN_APPROVAL ( #519, ( #548 ) ) ;
#1084 = AXIS2_PLACEMENT_3D ( 'NONE', #1255, #969, #381 ) ;
#1085 = CARTESIAN_POINT ( 'NONE',  ( -7.000000000000001776, 0.2999999999999991007, 80.00000000000001421 ) ) ;
#1086 = EDGE_CURVE ( 'NONE', #17, #327, #489, .T. ) ;
#1087 = ORIENTED_EDGE ( 'NONE', *, *, #917, .T. ) ;
#1088 = DIRECTION ( 'NONE',  ( -1.000000000000000000, 0.000000000000000000, 0.000000000000000000 ) ) ;
#1089 = CARTESIAN_POINT ( 'NONE',  ( 10.00000000000000178, -0.1250000000000000000, 80.00000000000001421 ) ) ;
#1090 = VERTEX_POINT ( 'NONE', #687 ) ;
#1091 = VERTEX_POINT ( 'NONE', #191 ) ;
#1092 = ORIENTED_EDGE ( 'NONE', *, *, #238, .F. ) ;
#1093 = CARTESIAN_POINT ( 'NONE',  ( 10.00000000000000000, -0.1250000000000001110, 0.000000000000000000 ) ) ;
#1094 = DIRECTION ( 'NONE',  ( 0.2747211278973778481, 0.000000000000000000, -0.9615239476408231623 ) ) ;
#1095 = EDGE_LOOP ( 'NONE', ( #646, #438, #1092, #202 ) ) ;
#1096 = CARTESIAN_POINT ( 'NONE',  ( -7.000000000000001776, 0.000000000000000000, 75.00000000000001421 ) ) ;
#1097 = ORIENTED_EDGE ( 'NONE', *, *, #972, .T. ) ;
#1098 = EDGE_CURVE ( 'NONE', #610, #384, #1069, .T. ) ;
#1099 = EDGE_CURVE ( 'NONE', #155, #17, #99, .T. ) ;
#1100 = DIRECTION ( 'NONE',  ( -0.000000000000000000, -0.000000000000000000, 1.000000000000000000 ) ) ;
#1101 = AXIS2_PLACEMENT_3D ( 'NONE', #92, #85, #1145 ) ;
#1102 = DIRECTION ( 'NONE',  ( 0.000000000000000000, 0.000000000000000000, -1.000000000000000000 ) ) ;
#1103 = VERTEX_POINT ( 'NONE', #1174 ) ;
#1104 = AXIS2_PLACEMENT_3D ( 'NONE', #162, #556, #944 ) ;
#1105 = AXIS2_PLACEMENT_3D ( 'NONE', #752, #659, #925 ) ;
#1106 = CARTESIAN_POINT ( 'NONE',  ( -7.000000000000001776, -0.3000000000000008216, -9.999999999999980460 ) ) ;
#1107 = FACE_OUTER_BOUND ( 'NONE', #312, .T. ) ;
#1108 = ORIENTED_EDGE ( 'NONE', *, *, #569, .F. ) ;
#1109 = PLANE ( 'NONE',  #837 ) ;
#1110 = ORIENTED_EDGE ( 'NONE', *, *, #950, .T. ) ;
#1111 = LINE ( 'NONE', #232, #3 ) ;
#1112 = CARTESIAN_POINT ( 'NONE',  ( 20.00000000000000355, -0.1250000000000001110, 45.00000000000000711 ) ) ;
#1113 = LINE ( 'NONE', #235, #578 ) ;
#1114 = AXIS2_PLACEMENT_3D ( 'NONE', #176, #585, #575 ) ;
#1115 = AXIS2_PLACEMENT_3D ( 'NONE', #716, #509, #14 ) ;
#1116 = ADVANCED_FACE ( 'NONE', ( #1107 ), #432, .T. ) ;
#1117 = LINE ( 'NONE', #1128, #638 ) ;
#1118 = VECTOR ( 'NONE', #1067, 1000.000000000000000 ) ;
#1119 = EDGE_CURVE ( 'NONE', #986, #744, #225, .T. ) ;
#1120 = PLANE ( 'NONE',  #940 ) ;
#1121 = ORIENTED_EDGE ( 'NONE', *, *, #1180, .F. ) ;
#1122 = CARTESIAN_POINT ( 'NONE',  ( 19.69999999999999574, 0.1250000000000000000, 35.00000000000000000 ) ) ;
#1123 = FACE_OUTER_BOUND ( 'NONE', #894, .T. ) ;
#1124 = VERTEX_POINT ( 'NONE', #813 ) ;
#1125 = LINE ( 'NONE', #458, #498 ) ;
#1126 = ORIENTED_EDGE ( 'NONE', *, *, #806, .T. ) ;
#1127 = DIRECTION ( 'NONE',  ( -1.000000000000000000, -1.734723475976807094E-16, -0.000000000000000000 ) ) ;
#1128 = CARTESIAN_POINT ( 'NONE',  ( 20.00000000000000355, -9.999999999999998224, 35.00000000000000000 ) ) ;
#1129 = EDGE_LOOP ( 'NONE', ( #657, #44, #62, #649 ) ) ;
#1130 = EDGE_CURVE ( 'NONE', #634, #286, #423, .T. ) ;
#1131 = DIRECTION ( 'NONE',  ( 0.000000000000000000, 1.000000000000000000, 0.000000000000000000 ) ) ;
#1132 = CC_DESIGN_PERSON_AND_ORGANIZATION_ASSIGNMENT ( #565, #956, ( #605 ) ) ;
#1133 = DIRECTION ( 'NONE',  ( -0.000000000000000000, 0.000000000000000000, -1.000000000000000000 ) ) ;
#1134 = EDGE_CURVE ( 'NONE', #31, #630, #216, .T. ) ;
#1135 = ORIENTED_EDGE ( 'NONE', *, *, #928, .F. ) ;
#1136 = CARTESIAN_POINT ( 'NONE',  ( 9.999999999999998224, 10.00000000000000000, 0.000000000000000000 ) ) ;
#1137 = VECTOR ( 'NONE', #868, 1000.000000000000227 ) ;
#1138 = ORIENTED_EDGE ( 'NONE', *, *, #591, .T. ) ;
#1139 = EDGE_CURVE ( 'NONE', #587, #749, #1202, .T. ) ;
#1140 = VECTOR ( 'NONE', #1102, 1000.000000000000000 ) ;
#1141 = VECTOR ( 'NONE', #470, 1000.000000000000000 ) ;
#1142 = LINE ( 'NONE', #666, #662 ) ;
#1143 = ORIENTED_EDGE ( 'NONE', *, *, #695, .T. ) ;
#1144 = PLANE ( 'NONE',  #1 ) ;
#1145 = DIRECTION ( 'NONE',  ( 4.336808689942017736E-17, 1.000000000000000000, 0.000000000000000000 ) ) ;
#1146 = DIRECTION ( 'NONE',  ( 1.000000000000000000, 1.264902534566421922E-16, 0.000000000000000000 ) ) ;
#1147 = ORIENTED_EDGE ( 'NONE', *, *, #601, .T. ) ;
#1148 = EDGE_CURVE ( 'NONE', #318, #491, #989, .T. ) ;
#1149 = CARTESIAN_POINT ( 'NONE',  ( 9.999999999999992895, -0.1250000000000000000, 0.5000000000000000000 ) ) ;
#1150 = CARTESIAN_POINT ( 'NONE',  ( 20.00000000000000355, -9.999999999999998224, 45.00000000000000711 ) ) ;
#1151 = PLANE ( 'NONE',  #1188 ) ;
#1152 = APPROVAL_ROLE ( '' ) ;
#1153 = DIRECTION ( 'NONE',  ( -0.000000000000000000, -0.000000000000000000, -1.000000000000000000 ) ) ;
#1154 = ORIENTED_EDGE ( 'NONE', *, *, #1007, .F. ) ;
#1155 = CARTESIAN_POINT ( 'NONE',  ( -7.000000000000001776, -0.3000000000000008216, 4.999999999999997335 ) ) ;
#1156 = CARTESIAN_POINT ( 'NONE',  ( 9.999999999999998224, 10.00000000000000000, 0.000000000000000000 ) ) ;
#1157 = DIRECTION ( 'NONE',  ( 1.734723475976807094E-16, -1.000000000000000000, -0.000000000000000000 ) ) ;
#1158 = EDGE_CURVE ( 'NONE', #735, #314, #805, .T. ) ;
#1159 = PERSON_AND_ORGANIZATION_ROLE ( 'design_supplier' ) ;
#1160 = PLANE ( 'NONE',  #815 ) ;
#1161 = ORIENTED_EDGE ( 'NONE', *, *, #271, .F. ) ;
#1162 = VECTOR ( 'NONE', #602, 1000.000000000000000 ) ;
#1163 = DIRECTION ( 'NONE',  ( 0.000000000000000000, -0.000000000000000000, 1.000000000000000000 ) ) ;
#1164 = LINE ( 'NONE', #1054, #1248 ) ;
#1165 = VECTOR ( 'NONE', #61, 1000.000000000000000 ) ;
#1166 = LINE ( 'NONE', #860, #775 ) ;
#1167 = DIRECTION ( 'NONE',  ( 1.000000000000000000, 0.000000000000000000, 0.000000000000000000 ) ) ;
#1168 = EDGE_LOOP ( 'NONE', ( #58, #618, #704, #113, #351, #808 ) ) ;
#1169 = ORIENTED_EDGE ( 'NONE', *, *, #443, .F. ) ;
#1170 = EDGE_LOOP ( 'NONE', ( #393, #614, #94, #418 ) ) ;
#1171 = DIRECTION ( 'NONE',  ( 0.000000000000000000, -1.000000000000000000, 1.169068579584246334E-16 ) ) ;
#1172 = CARTESIAN_POINT ( 'NONE',  ( 10.00000000000000178, -10.00000000000000000, 0.000000000000000000 ) ) ;
#1173 = CARTESIAN_POINT ( 'NONE',  ( 10.00000000000000178, -10.00000000000000000, 35.00000000000000000 ) ) ;
#1174 = CARTESIAN_POINT ( 'NONE',  ( -7.000000000000001776, -0.3000000000000008216, 75.00000000000001421 ) ) ;
#1175 = COORDINATED_UNIVERSAL_TIME_OFFSET ( 1, 0, .AHEAD. ) ;
#1176 = CARTESIAN_POINT ( 'NONE',  ( 19.99999999999999645, 10.00000000000000178, 45.00000000000000711 ) ) ;
#1177 = EDGE_CURVE ( 'NONE', #1073, #810, #915, .T. ) ;
#1178 = ORIENTED_EDGE ( 'NONE', *, *, #121, .T. ) ;
#1179 = EDGE_LOOP ( 'NONE', ( #1242, #442, #922, #818 ) ) ;
#1180 = EDGE_CURVE ( 'NONE', #1124, #996, #116, .T. ) ;
#1181 = CARTESIAN_POINT ( 'NONE',  ( -7.500000000000001776, -0.1250000000000000000, 2.922671448960615834E-17 ) ) ;
#1182 = EDGE_CURVE ( 'NONE', #1090, #330, #212, .T. ) ;
#1183 = ADVANCED_FACE ( 'NONE', ( #998 ), #34, .F. ) ;
#1184 = DIRECTION ( 'NONE',  ( 0.000000000000000000, -0.000000000000000000, 1.000000000000000000 ) ) ;
#1185 = EDGE_CURVE ( 'NONE', #810, #309, #1195, .T. ) ;
#1186 = CARTESIAN_POINT ( 'NONE',  ( 20.00000000000000355, -9.999999999999998224, 45.00000000000000711 ) ) ;
#1187 = ORIENTED_EDGE ( 'NONE', *, *, #59, .F. ) ;
#1188 = AXIS2_PLACEMENT_3D ( 'NONE', #110, #388, #866 ) ;
#1189 = DIRECTION ( 'NONE',  ( 0.000000000000000000, 0.000000000000000000, -1.000000000000000000 ) ) ;
#1190 = DIRECTION ( 'NONE',  ( -1.000000000000000000, 0.000000000000000000, 0.000000000000000000 ) ) ;
#1191 = ORIENTED_EDGE ( 'NONE', *, *, #876, .F. ) ;
#1192 = AXIS2_PLACEMENT_3D ( 'NONE', #786, #693, #284 ) ;
#1193 = ORIENTED_EDGE ( 'NONE', *, *, #655, .F. ) ;
#1194 = DIRECTION ( 'NONE',  ( 1.000000000000000000, 0.000000000000000000, 0.000000000000000000 ) ) ;
#1195 = LINE ( 'NONE', #699, #1140 ) ;
#1196 = ADVANCED_FACE ( 'NONE', ( #993 ), #793, .T. ) ;
#1197 = APPROVAL ( #468, 'UNSPECIFIED' ) ;
#1198 = EDGE_CURVE ( 'NONE', #977, #1266, #26, .T. ) ;
#1199 = ORIENTED_EDGE ( 'NONE', *, *, #1218, .T. ) ;
#1200 = ORIENTED_EDGE ( 'NONE', *, *, #152, .T. ) ;
#1201 = DIRECTION ( 'NONE',  ( -0.000000000000000000, 1.000000000000000000, -0.000000000000000000 ) ) ;
#1202 = LINE ( 'NONE', #207, #936 ) ;
#1203 = ORIENTED_EDGE ( 'NONE', *, *, #1030, .T. ) ;
#1204 = EDGE_LOOP ( 'NONE', ( #1232, #606, #200, #371, #844, #287, #1260, #759, #1135, #906, #877, #119 ) ) ;
#1205 = DIRECTION ( 'NONE',  ( 1.000000000000000000, 0.000000000000000000, 0.000000000000000000 ) ) ;
#1206 = AXIS2_PLACEMENT_3D ( 'NONE', #247, #159, #63 ) ;
#1207 = DIRECTION ( 'NONE',  ( 0.000000000000000000, -1.000000000000000000, 0.000000000000000000 ) ) ;
#1208 = LINE ( 'NONE', #15, #201 ) ;
#1209 = VECTOR ( 'NONE', #387, 1000.000000000000000 ) ;
#1210 = VECTOR ( 'NONE', #464, 1000.000000000000000 ) ;
#1211 = CARTESIAN_POINT ( 'NONE',  ( -7.000000000000001776, 0.000000000000000000, 75.00000000000001421 ) ) ;
#1212 = EDGE_LOOP ( 'NONE', ( #1237, #653, #146, #1178 ) ) ;
#1213 = EDGE_CURVE ( 'NONE', #77, #587, #905, .T. ) ;
#1214 = PLANE ( 'NONE',  #1039 ) ;
#1215 = EDGE_CURVE ( 'NONE', #610, #462, #426, .T. ) ;
#1216 = ORIENTED_EDGE ( 'NONE', *, *, #1148, .T. ) ;
#1217 = ADVANCED_FACE ( 'NONE', ( #123 ), #514, .F. ) ;
#1218 = EDGE_CURVE ( 'NONE', #561, #615, #898, .T. ) ;
#1219 = PLANE ( 'NONE',  #1015 ) ;
#1220 = ORIENTED_EDGE ( 'NONE', *, *, #1134, .T. ) ;
#1221 = DIRECTION ( 'NONE',  ( 1.734723475976807094E-16, -1.000000000000000000, -0.000000000000000000 ) ) ;
#1222 = ORIENTED_EDGE ( 'NONE', *, *, #485, .T. ) ;
#1223 = PLANE ( 'NONE',  #938 ) ;
#1224 = VECTOR ( 'NONE', #456, 1000.000000000000000 ) ;
#1225 = CC_DESIGN_APPROVAL ( #737, ( #605 ) ) ;
#1226 = CARTESIAN_POINT ( 'NONE',  ( 20.00000000000000000, 0.1250000000000001110, 35.00000000000000000 ) ) ;
#1227 = VERTEX_POINT ( 'NONE', #353 ) ;
#1228 = VECTOR ( 'NONE', #122, 1000.000000000000000 ) ;
#1229 = DIRECTION ( 'NONE',  ( -1.387778780781445676E-14, 0.000000000000000000, 1.000000000000000000 ) ) ;
#1230 = ORIENTED_EDGE ( 'NONE', *, *, #303, .F. ) ;
#1231 = PLANE ( 'NONE',  #1206 ) ;
#1232 = ORIENTED_EDGE ( 'NONE', *, *, #415, .T. ) ;
#1233 = EDGE_CURVE ( 'NONE', #707, #703, #745, .T. ) ;
#1234 = EDGE_CURVE ( 'NONE', #151, #511, #272, .T. ) ;
#1235 = CARTESIAN_POINT ( 'NONE',  ( 5.000000000000000888, 10.00000000000000000, 5.000000000000000000 ) ) ;
#1236 = ADVANCED_FACE ( 'NONE', ( #79 ), #750, .F. ) ;
#1237 = ORIENTED_EDGE ( 'NONE', *, *, #596, .F. ) ;
#1238 = LINE ( 'NONE', #73, #60 ) ;
#1239 = CARTESIAN_POINT ( 'NONE',  ( -10.00000000000000178, -10.00000000000000000, 0.000000000000000000 ) ) ;
#1240 = VERTEX_POINT ( 'NONE', #180 ) ;
#1241 = DIRECTION ( 'NONE',  ( -0.000000000000000000, 0.000000000000000000, -1.000000000000000000 ) ) ;
#1242 = ORIENTED_EDGE ( 'NONE', *, *, #876, .T. ) ;
#1243 = LINE ( 'NONE', #1021, #919 ) ;
#1244 = PLANE ( 'NONE',  #603 ) ;
#1245 = VECTOR ( 'NONE', #840, 1000.000000000000000 ) ;
#1246 = ORIENTED_EDGE ( 'NONE', *, *, #1139, .T. ) ;
#1247 = COORDINATED_UNIVERSAL_TIME_OFFSET ( 1, 0, .AHEAD. ) ;
#1248 = VECTOR ( 'NONE', #175, 1000.000000000000000 ) ;
#1249 = CARTESIAN_POINT ( 'NONE',  ( 5.000000000000000888, -10.00000000000000000, 5.000000000000000000 ) ) ;
#1250 = LINE ( 'NONE', #206, #920 ) ;
#1251 = DIRECTION ( 'NONE',  ( -1.000000000000000000, -0.000000000000000000, -0.000000000000000000 ) ) ;
#1252 = VERTEX_POINT ( 'NONE', #1028 ) ;
#1253 = CARTESIAN_POINT ( 'NONE',  ( 10.00000000000000178, 0.1250000000000001110, 80.00000000000001421 ) ) ;
#1254 = CARTESIAN_POINT ( 'NONE',  ( 5.000000000000001776, 10.00000000000000000, 75.00000000000001421 ) ) ;
#1255 = CARTESIAN_POINT ( 'NONE',  ( 0.000000000000000000, -0.1250000000000000000, 0.000000000000000000 ) ) ;
#1256 = FACE_OUTER_BOUND ( 'NONE', #467, .T. ) ;
#1257 = PERSON_AND_ORGANIZATION ( #900, #1002 ) ;
#1258 = CARTESIAN_POINT ( 'NONE',  ( -10.00000000000000178, 0.2999999999999990452, -9.999999999999980460 ) ) ;
#1259 = ORIENTED_EDGE ( 'NONE', *, *, #569, .T. ) ;
#1260 = ORIENTED_EDGE ( 'NONE', *, *, #912, .F. ) ;
#1261 = LINE ( 'NONE', #380, #1081 ) ;
#1262 = CARTESIAN_POINT ( 'NONE',  ( 19.99999999999999645, -0.1250000000000000000, 35.00000000000000000 ) ) ;
#1263 = CARTESIAN_POINT ( 'NONE',  ( 3.794707603699265519E-17, -0.2999999999999999889, 75.00000000000001421 ) ) ;
#1264 = CARTESIAN_POINT ( 'NONE',  ( 5.000000000000000888, -10.00000000000000000, 75.00000000000001421 ) ) ;
#1265 = VECTOR ( 'NONE', #778, 1000.000000000000000 ) ;
#1266 = VERTEX_POINT ( 'NONE', #1253 ) ;
#1267 = ORIENTED_EDGE ( 'NONE', *, *, #822, .T. ) ;
#1268 = LOCAL_TIME ( 14, 37, 14.00000000000000000, #867 ) ;
#1269 = CARTESIAN_POINT ( 'NONE',  ( -10.00000000000000178, 0.2999999999999990452, -3.469446951953614189E-15 ) ) ;
ENDSEC;
END-ISO-10303-21;
