ISO-10303-21;
HEADER;
FILE_DESCRIPTION (( 'STEP AP203' ),
    '1' );
FILE_NAME ('PLATEMillieu_Défaut_sldprt.STEP',
    '2020-11-29T13:36:49',
    ( '' ),
    ( '' ),
    'SwSTEP 2.0',
    'SolidWorks 2020',
    '' );
FILE_SCHEMA (( 'CONFIG_CONTROL_DESIGN' ));
ENDSEC;

DATA;
#1 = ORIENTED_EDGE ( 'NONE', *, *, #535, .F. ) ;
#2 = CARTESIAN_POINT ( 'NONE',  ( -100.0000000000000000, 84.99999999999998579, 0.000000000000000000 ) ) ;
#3 = EDGE_CURVE ( 'NONE', #622, #595, #339, .T. ) ;
#4 = CARTESIAN_POINT ( 'NONE',  ( 80.00000000000000000, 79.99999999999998579, 0.000000000000000000 ) ) ;
#5 = EDGE_CURVE ( 'NONE', #371, #638, #135, .T. ) ;
#6 = EDGE_LOOP ( 'NONE', ( #193, #229, #537, #61 ) ) ;
#7 = DIRECTION ( 'NONE',  ( 0.000000000000000000, 0.000000000000000000, -1.000000000000000000 ) ) ;
#8 = LINE ( 'NONE', #212, #178 ) ;
#9 = DIRECTION ( 'NONE',  ( 1.000000000000000000, 0.000000000000000000, 0.000000000000000000 ) ) ;
#10 = VECTOR ( 'NONE', #505, 1000.000000000000000 ) ;
#11 = CYLINDRICAL_SURFACE ( 'NONE', #189, 5.000000000000004441 ) ;
#12 = ORIENTED_EDGE ( 'NONE', *, *, #634, .T. ) ;
#13 = ADVANCED_FACE ( 'NONE', ( #444 ), #590, .F. ) ;
#14 = PERSON_AND_ORGANIZATION ( #578, #492 ) ;
#15 = LINE ( 'NONE', #623, #410 ) ;
#16 = ORIENTED_EDGE ( 'NONE', *, *, #49, .T. ) ;
#17 = ORIENTED_EDGE ( 'NONE', *, *, #147, .F. ) ;
#18 = DATE_TIME_ROLE ( 'creation_date' ) ;
#19 = VECTOR ( 'NONE', #192, 1000.000000000000000 ) ;
#20 = EDGE_LOOP ( 'NONE', ( #150, #570, #632, #95 ) ) ;
#21 = DIRECTION ( 'NONE',  ( 0.000000000000000000, 0.000000000000000000, 1.000000000000000000 ) ) ;
#22 = CARTESIAN_POINT ( 'NONE',  ( 85.00000000000000000, 79.99999999999998579, 0.000000000000000000 ) ) ;
#23 = CARTESIAN_POINT ( 'NONE',  ( 85.00000000000000000, -85.00000000000001421, 7.000000000000000000 ) ) ;
#24 = LINE ( 'NONE', #82, #352 ) ;
#25 = ORIENTED_EDGE ( 'NONE', *, *, #29, .F. ) ;
#26 = VECTOR ( 'NONE', #93, 1000.000000000000000 ) ;
#27 = EDGE_CURVE ( 'NONE', #35, #404, #131, .T. ) ;
#28 = DIRECTION ( 'NONE',  ( 0.000000000000000000, 0.000000000000000000, -1.000000000000000000 ) ) ;
#29 = EDGE_CURVE ( 'NONE', #408, #622, #64, .T. ) ;
#30 = ORIENTED_EDGE ( 'NONE', *, *, #57, .T. ) ;
#31 = PERSON_AND_ORGANIZATION_ROLE ( 'design_supplier' ) ;
#32 = CARTESIAN_POINT ( 'NONE',  ( 100.0000000000000000, -85.00000000000001421, 0.000000000000000000 ) ) ;
#33 = DIRECTION ( 'NONE',  ( 0.000000000000000000, 0.000000000000000000, 1.000000000000000000 ) ) ;
#34 = DIRECTION ( 'NONE',  ( 0.000000000000000000, 0.000000000000000000, 1.000000000000000000 ) ) ;
#35 = VERTEX_POINT ( 'NONE', #387 ) ;
#36 = AXIS2_PLACEMENT_3D ( 'NONE', #460, #357, #353 ) ;
#37 = CARTESIAN_POINT ( 'NONE',  ( -80.00000000000000000, 79.99999999999998579, 0.000000000000000000 ) ) ;
#38 = DIRECTION ( 'NONE',  ( -0.000000000000000000, -0.000000000000000000, -1.000000000000000000 ) ) ;
#39 = ORIENTED_EDGE ( 'NONE', *, *, #603, .F. ) ;
#40 = CARTESIAN_POINT ( 'NONE',  ( 84.99999999999998579, 84.99999999999998579, 7.000000000000000000 ) ) ;
#41 = CYLINDRICAL_SURFACE ( 'NONE', #658, 5.000000000000004441 ) ;
#42 = ORIENTED_EDGE ( 'NONE', *, *, #149, .T. ) ;
#43 = APPROVAL_DATE_TIME ( #145, #373 ) ;
#44 = FACE_OUTER_BOUND ( 'NONE', #429, .T. ) ;
#45 = FACE_BOUND ( 'NONE', #669, .T. ) ;
#46 = ORIENTED_EDGE ( 'NONE', *, *, #517, .T. ) ;
#47 = DIRECTION ( 'NONE',  ( -1.000000000000000000, 0.000000000000000000, 0.000000000000000000 ) ) ;
#48 = AXIS2_PLACEMENT_3D ( 'NONE', #394, #397, #653 ) ;
#49 = EDGE_CURVE ( 'NONE', #530, #118, #435, .T. ) ;
#50 = DIRECTION ( 'NONE',  ( -1.000000000000000000, 0.000000000000000000, 0.000000000000000000 ) ) ;
#51 = ORIENTED_EDGE ( 'NONE', *, *, #97, .F. ) ;
#52 = DIRECTION ( 'NONE',  ( -1.000000000000000000, 0.000000000000000000, 0.000000000000000000 ) ) ;
#53 = CARTESIAN_POINT ( 'NONE',  ( 100.0000000000000000, -85.00000000000001421, 7.000000000000000000 ) ) ;
#54 = EDGE_LOOP ( 'NONE', ( #331, #367 ) ) ;
#55 = DIRECTION ( 'NONE',  ( 1.000000000000000000, 0.000000000000000000, 0.000000000000000000 ) ) ;
#56 = FACE_OUTER_BOUND ( 'NONE', #315, .T. ) ;
#57 = EDGE_CURVE ( 'NONE', #479, #558, #203, .T. ) ;
#58 = ORIENTED_EDGE ( 'NONE', *, *, #183, .T. ) ;
#59 = AXIS2_PLACEMENT_3D ( 'NONE', #568, #369, #425 ) ;
#60 = FACE_BOUND ( 'NONE', #323, .T. ) ;
#61 = ORIENTED_EDGE ( 'NONE', *, *, #440, .F. ) ;
#62 = VERTEX_POINT ( 'NONE', #299 ) ;
#63 = APPROVAL_DATE_TIME ( #579, #363 ) ;
#64 = CIRCLE ( 'NONE', #522, 15.00000000000000000 ) ;
#65 = AXIS2_PLACEMENT_3D ( 'NONE', #576, #370, #478 ) ;
#66 = DIRECTION ( 'NONE',  ( -1.000000000000000000, 0.000000000000000000, 0.000000000000000000 ) ) ;
#67 = ORIENTED_EDGE ( 'NONE', *, *, #3, .F. ) ;
#68 = CARTESIAN_POINT ( 'NONE',  ( 84.99999999999998579, 99.99999999999998579, 7.000000000000000000 ) ) ;
#69 = DIRECTION ( 'NONE',  ( 1.000000000000000000, 0.000000000000000000, 0.000000000000000000 ) ) ;
#70 = CARTESIAN_POINT ( 'NONE',  ( -80.00000000000000000, 79.99999999999998579, 7.000000000000000000 ) ) ;
#71 = LINE ( 'NONE', #239, #550 ) ;
#72 = EDGE_CURVE ( 'NONE', #567, #527, #226, .T. ) ;
#73 = ORIENTED_EDGE ( 'NONE', *, *, #587, .T. ) ;
#74 = EDGE_CURVE ( 'NONE', #461, #376, #71, .T. ) ;
#75 = DIRECTION ( 'NONE',  ( 1.000000000000000000, 0.000000000000000000, 0.000000000000000000 ) ) ;
#76 = DIRECTION ( 'NONE',  ( 1.000000000000000000, 0.000000000000000000, 0.000000000000000000 ) ) ;
#77 = AXIS2_PLACEMENT_3D ( 'NONE', #303, #600, #130 ) ;
#78 = PERSON_AND_ORGANIZATION ( #578, #492 ) ;
#79 = CIRCLE ( 'NONE', #498, 15.00000000000000000 ) ;
#80 = CARTESIAN_POINT ( 'NONE',  ( -85.00000000000000000, 84.99999999999998579, 0.000000000000000000 ) ) ;
#81 = CARTESIAN_POINT ( 'NONE',  ( 84.99999999999998579, 84.99999999999998579, 7.000000000000000000 ) ) ;
#82 = CARTESIAN_POINT ( 'NONE',  ( 100.0000000000000000, 84.99999999999997158, 7.000000000000000000 ) ) ;
#83 = DIRECTION ( 'NONE',  ( -1.000000000000000000, 0.000000000000000000, 0.000000000000000000 ) ) ;
#84 = VERTEX_POINT ( 'NONE', #648 ) ;
#85 = LINE ( 'NONE', #291, #560 ) ;
#86 = DIRECTION ( 'NONE',  ( -1.000000000000000000, 0.000000000000000000, -0.000000000000000000 ) ) ;
#87 = ORIENTED_EDGE ( 'NONE', *, *, #197, .T. ) ;
#88 = AXIS2_PLACEMENT_3D ( 'NONE', #204, #55, #359 ) ;
#89 = CARTESIAN_POINT ( 'NONE',  ( 80.00000000000000000, 79.99999999999998579, 7.000000000000000000 ) ) ;
#90 = EDGE_CURVE ( 'NONE', #154, #638, #499, .T. ) ;
#91 = ORIENTED_EDGE ( 'NONE', *, *, #120, .T. ) ;
#92 = PERSON_AND_ORGANIZATION_ROLE ( 'classification_officer' ) ;
#93 = DIRECTION ( 'NONE',  ( -0.000000000000000000, -0.000000000000000000, -1.000000000000000000 ) ) ;
#94 = LINE ( 'NONE', #142, #169 ) ;
#95 = ORIENTED_EDGE ( 'NONE', *, *, #149, .F. ) ;
#96 = EDGE_CURVE ( 'NONE', #115, #62, #157, .T. ) ;
#97 = EDGE_CURVE ( 'NONE', #376, #477, #524, .T. ) ;
#98 = CARTESIAN_POINT ( 'NONE',  ( 100.0000000000000000, -100.0000000000000142, 7.000000000000000000 ) ) ;
#99 = ORIENTED_EDGE ( 'NONE', *, *, #134, .T. ) ;
#100 = LOCAL_TIME ( 14, 36, 49.00000000000000000, #254 ) ;
#101 = FACE_OUTER_BOUND ( 'NONE', #224, .T. ) ;
#102 = VECTOR ( 'NONE', #217, 1000.000000000000000 ) ;
#103 = CARTESIAN_POINT ( 'NONE',  ( 84.99999999999998579, -100.0000000000000142, 7.000000000000000000 ) ) ;
#104 = EDGE_LOOP ( 'NONE', ( #164, #611 ) ) ;
#105 = FACE_BOUND ( 'NONE', #311, .T. ) ;
#106 = PRODUCT ( 'PLATEMillieu_Défaut_sldprt', 'PLATEMillieu_Défaut_sldprt', '', ( #630 ) ) ;
#107 = VERTEX_POINT ( 'NONE', #652 ) ;
#108 = CARTESIAN_POINT ( 'NONE',  ( 0.000000000000000000, 0.000000000000000000, 7.000000000000000000 ) ) ;
#109 = ORIENTED_EDGE ( 'NONE', *, *, #564, .F. ) ;
#110 = APPROVAL_PERSON_ORGANIZATION ( #432, #363, #385 ) ;
#111 = PERSON_AND_ORGANIZATION ( #578, #492 ) ;
#112 = VECTOR ( 'NONE', #469, 1000.000000000000000 ) ;
#113 = ORIENTED_EDGE ( 'NONE', *, *, #90, .F. ) ;
#114 = DATE_AND_TIME ( #231, #624 ) ;
#115 = VERTEX_POINT ( 'NONE', #489 ) ;
#116 = EDGE_CURVE ( 'NONE', #530, #393, #79, .T. ) ;
#117 = CC_DESIGN_PERSON_AND_ORGANIZATION_ASSIGNMENT ( #78, #31, ( #548 ) ) ;
#118 = VERTEX_POINT ( 'NONE', #132 ) ;
#119 = DIRECTION ( 'NONE',  ( -1.000000000000000000, 0.000000000000000000, 0.000000000000000000 ) ) ;
#120 = EDGE_CURVE ( 'NONE', #404, #408, #243, .T. ) ;
#121 = AXIS2_PLACEMENT_3D ( 'NONE', #591, #230, #290 ) ;
#122 = DIRECTION ( 'NONE',  ( -1.000000000000000000, 0.000000000000000000, 0.000000000000000000 ) ) ;
#123 = DIRECTION ( 'NONE',  ( -1.000000000000000000, 0.000000000000000000, 0.000000000000000000 ) ) ;
#124 = EDGE_CURVE ( 'NONE', #337, #206, #672, .T. ) ;
#125 = EDGE_LOOP ( 'NONE', ( #285, #599, #302, #140 ) ) ;
#126 = ORIENTED_EDGE ( 'NONE', *, *, #416, .F. ) ;
#127 = CARTESIAN_POINT ( 'NONE',  ( 75.00000000000000000, -80.00000000000000000, 7.000000000000000000 ) ) ;
#128 = CARTESIAN_POINT ( 'NONE',  ( -100.0000000000000000, 84.99999999999998579, 7.000000000000000000 ) ) ;
#129 = ORIENTED_EDGE ( 'NONE', *, *, #462, .T. ) ;
#130 = DIRECTION ( 'NONE',  ( 1.000000000000000000, 0.000000000000000000, 0.000000000000000000 ) ) ;
#131 = CIRCLE ( 'NONE', #573, 15.00000000000000000 ) ;
#132 = CARTESIAN_POINT ( 'NONE',  ( 100.0000000000000000, 84.99999999999997158, 0.000000000000000000 ) ) ;
#133 = AXIS2_PLACEMENT_3D ( 'NONE', #508, #455, #554 ) ;
#134 = EDGE_CURVE ( 'NONE', #622, #376, #179, .T. ) ;
#135 = CIRCLE ( 'NONE', #190, 5.000000000000004441 ) ;
#136 = CARTESIAN_POINT ( 'NONE',  ( -85.00000000000000000, 79.99999999999998579, 7.000000000000000000 ) ) ;
#137 = DIRECTION ( 'NONE',  ( -0.000000000000000000, -0.000000000000000000, -1.000000000000000000 ) ) ;
#138 = CARTESIAN_POINT ( 'NONE',  ( -85.00000000000000000, -100.0000000000000000, 7.000000000000000000 ) ) ;
#139 = CARTESIAN_POINT ( 'NONE',  ( 75.00000000000000000, -80.00000000000000000, 7.000000000000000000 ) ) ;
#140 = ORIENTED_EDGE ( 'NONE', *, *, #462, .F. ) ;
#141 = LOCAL_TIME ( 14, 36, 49.00000000000000000, #377 ) ;
#142 = CARTESIAN_POINT ( 'NONE',  ( 85.00000000000000000, -80.00000000000000000, 7.000000000000000000 ) ) ;
#143 = AXIS2_PLACEMENT_3D ( 'NONE', #37, #238, #605 ) ;
#144 = EDGE_LOOP ( 'NONE', ( #25, #319, #329, #67 ) ) ;
#145 = DATE_AND_TIME ( #457, #100 ) ;
#146 = PERSON_AND_ORGANIZATION_ROLE ( 'design_owner' ) ;
#147 = EDGE_CURVE ( 'NONE', #527, #107, #94, .T. ) ;
#148 = CARTESIAN_POINT ( 'NONE',  ( 80.00000000000000000, -80.00000000000000000, 0.000000000000000000 ) ) ;
#149 = EDGE_CURVE ( 'NONE', #567, #447, #401, .T. ) ;
#150 = ORIENTED_EDGE ( 'NONE', *, *, #72, .T. ) ;
#151 = MANIFOLD_SOLID_BREP ( 'Congé1', #320 ) ;
#152 =( NAMED_UNIT ( * ) SI_UNIT ( $, .STERADIAN. ) SOLID_ANGLE_UNIT ( ) );
#153 = DIRECTION ( 'NONE',  ( -0.000000000000000000, -0.000000000000000000, -1.000000000000000000 ) ) ;
#154 = VERTEX_POINT ( 'NONE', #314 ) ;
#155 = DIRECTION ( 'NONE',  ( -1.000000000000000000, 0.000000000000000000, -0.000000000000000000 ) ) ;
#156 = ORIENTED_EDGE ( 'NONE', *, *, #124, .F. ) ;
#157 = CIRCLE ( 'NONE', #602, 5.000000000000004441 ) ;
#158 = CARTESIAN_POINT ( 'NONE',  ( 85.00000000000000000, 79.99999999999998579, 7.000000000000000000 ) ) ;
#159 = CIRCLE ( 'NONE', #143, 5.000000000000004441 ) ;
#160 = DIRECTION ( 'NONE',  ( 1.000000000000000000, 0.000000000000000000, 0.000000000000000000 ) ) ;
#161 = ORIENTED_EDGE ( 'NONE', *, *, #3, .T. ) ;
#162 = LINE ( 'NONE', #158, #26 ) ;
#163 = FACE_OUTER_BOUND ( 'NONE', #383, .T. ) ;
#164 = ORIENTED_EDGE ( 'NONE', *, *, #636, .F. ) ;
#165 = DIRECTION ( 'NONE',  ( 0.000000000000000000, 0.000000000000000000, -1.000000000000000000 ) ) ;
#166 = EDGE_LOOP ( 'NONE', ( #355, #12, #201, #277 ) ) ;
#167 = LOCAL_TIME ( 14, 36, 49.00000000000000000, #168 ) ;
#168 = COORDINATED_UNIVERSAL_TIME_OFFSET ( 1, 0, .AHEAD. ) ;
#169 = VECTOR ( 'NONE', #305, 1000.000000000000000 ) ;
#170 = CC_DESIGN_DATE_AND_TIME_ASSIGNMENT ( #633, #18, ( #362 ) ) ;
#171 = ORIENTED_EDGE ( 'NONE', *, *, #270, .F. ) ;
#172 = ADVANCED_FACE ( 'NONE', ( #621, #256, #668, #301, #45 ), #317, .T. ) ;
#173 = APPROVAL_STATUS ( 'not_yet_approved' ) ;
#174 = ORIENTED_EDGE ( 'NONE', *, *, #97, .T. ) ;
#175 = DIRECTION ( 'NONE',  ( -0.000000000000000000, -0.000000000000000000, 1.000000000000000000 ) ) ;
#176 = ADVANCED_FACE ( 'NONE', ( #523 ), #41, .F. ) ;
#177 = DIRECTION ( 'NONE',  ( -0.000000000000000000, -0.000000000000000000, -1.000000000000000000 ) ) ;
#178 = VECTOR ( 'NONE', #454, 1000.000000000000000 ) ;
#179 = LINE ( 'NONE', #407, #466 ) ;
#180 = ORIENTED_EDGE ( 'NONE', *, *, #116, .F. ) ;
#181 = LINE ( 'NONE', #296, #584 ) ;
#182 = CARTESIAN_POINT ( 'NONE',  ( -85.00000000000000000, -80.00000000000000000, 7.000000000000000000 ) ) ;
#183 = EDGE_CURVE ( 'NONE', #107, #447, #345, .T. ) ;
#184 = CARTESIAN_POINT ( 'NONE',  ( 85.00000000000000000, -85.00000000000001421, 0.000000000000000000 ) ) ;
#185 = ORIENTED_EDGE ( 'NONE', *, *, #74, .T. ) ;
#186 = CARTESIAN_POINT ( 'NONE',  ( -75.00000000000000000, 79.99999999999998579, 7.000000000000000000 ) ) ;
#187 = VECTOR ( 'NONE', #236, 1000.000000000000000 ) ;
#188 = LINE ( 'NONE', #659, #19 ) ;
#189 = AXIS2_PLACEMENT_3D ( 'NONE', #263, #631, #119 ) ;
#190 = AXIS2_PLACEMENT_3D ( 'NONE', #547, #392, #69 ) ;
#191 = DIRECTION ( 'NONE',  ( -0.000000000000000000, -0.000000000000000000, 1.000000000000000000 ) ) ;
#192 = DIRECTION ( 'NONE',  ( 1.000000000000000000, -6.938893903907228378E-17, 0.000000000000000000 ) ) ;
#193 = ORIENTED_EDGE ( 'NONE', *, *, #634, .F. ) ;
#194 = DIRECTION ( 'NONE',  ( 0.000000000000000000, 0.000000000000000000, 1.000000000000000000 ) ) ;
#195 = ORIENTED_EDGE ( 'NONE', *, *, #5, .T. ) ;
#196 = CALENDAR_DATE ( 2020, 29, 11 ) ;
#197 = EDGE_CURVE ( 'NONE', #558, #62, #360, .T. ) ;
#198 = ADVANCED_FACE ( 'NONE', ( #415 ), #403, .F. ) ;
#199 = CARTESIAN_POINT ( 'NONE',  ( 0.000000000000000000, 0.000000000000000000, 0.000000000000000000 ) ) ;
#200 = AXIS2_PLACEMENT_3D ( 'NONE', #609, #497, #245 ) ;
#201 = ORIENTED_EDGE ( 'NONE', *, *, #341, .F. ) ;
#202 = APPROVAL_ROLE ( '' ) ;
#203 = CIRCLE ( 'NONE', #588, 5.000000000000004441 ) ;
#204 = CARTESIAN_POINT ( 'NONE',  ( -100.0000000000000000, -100.0000000000000000, 7.000000000000000000 ) ) ;
#205 = CYLINDRICAL_SURFACE ( 'NONE', #133, 5.000000000000004441 ) ;
#206 = VERTEX_POINT ( 'NONE', #615 ) ;
#207 = CARTESIAN_POINT ( 'NONE',  ( 0.000000000000000000, 0.000000000000000000, 0.000000000000000000 ) ) ;
#208 = CYLINDRICAL_SURFACE ( 'NONE', #400, 5.000000000000004441 ) ;
#209 = ORIENTED_EDGE ( 'NONE', *, *, #57, .F. ) ;
#210 = DIRECTION ( 'NONE',  ( 0.000000000000000000, 0.000000000000000000, -1.000000000000000000 ) ) ;
#211 = CC_DESIGN_APPROVAL ( #650, ( #362 ) ) ;
#212 = CARTESIAN_POINT ( 'NONE',  ( -75.00000000000000000, -80.00000000000000000, 7.000000000000000000 ) ) ;
#213 = VERTEX_POINT ( 'NONE', #349 ) ;
#214 = CIRCLE ( 'NONE', #451, 5.000000000000004441 ) ;
#215 = APPLICATION_PROTOCOL_DEFINITION ( 'international standard', 'config_control_design', 1994, #278 ) ;
#216 = CIRCLE ( 'NONE', #48, 5.000000000000004441 ) ;
#217 = DIRECTION ( 'NONE',  ( -1.000000000000000000, -0.000000000000000000, -0.000000000000000000 ) ) ;
#218 = ORIENTED_EDGE ( 'NONE', *, *, #440, .T. ) ;
#219 = ADVANCED_FACE ( 'NONE', ( #566 ), #310, .F. ) ;
#220 = CARTESIAN_POINT ( 'NONE',  ( -100.0000000000000000, -85.00000000000000000, 7.000000000000000000 ) ) ;
#221 = ORIENTED_EDGE ( 'NONE', *, *, #636, .T. ) ;
#222 = ADVANCED_FACE ( 'NONE', ( #465 ), #557, .F. ) ;
#223 = ADVANCED_FACE ( 'NONE', ( #673 ), #205, .F. ) ;
#224 = EDGE_LOOP ( 'NONE', ( #267, #625, #445, #109 ) ) ;
#225 = LOCAL_TIME ( 14, 36, 49.00000000000000000, #312 ) ;
#226 = CIRCLE ( 'NONE', #121, 5.000000000000004441 ) ;
#227 = CIRCLE ( 'NONE', #617, 15.00000000000000000 ) ;
#228 = AXIS2_PLACEMENT_3D ( 'NONE', #148, #618, #258 ) ;
#229 = ORIENTED_EDGE ( 'NONE', *, *, #342, .T. ) ;
#230 = DIRECTION ( 'NONE',  ( 0.000000000000000000, 0.000000000000000000, 1.000000000000000000 ) ) ;
#231 = CALENDAR_DATE ( 2020, 29, 11 ) ;
#232 = LINE ( 'NONE', #53, #112 ) ;
#233 = DIRECTION ( 'NONE',  ( -0.000000000000000000, -0.000000000000000000, 1.000000000000000000 ) ) ;
#234 = CARTESIAN_POINT ( 'NONE',  ( 85.00000000000000000, 79.99999999999998579, 7.000000000000000000 ) ) ;
#235 = AXIS2_PLACEMENT_3D ( 'NONE', #421, #210, #512 ) ;
#236 = DIRECTION ( 'NONE',  ( 0.000000000000000000, 0.000000000000000000, -1.000000000000000000 ) ) ;
#237 = EDGE_LOOP ( 'NONE', ( #504, #195 ) ) ;
#238 = DIRECTION ( 'NONE',  ( 0.000000000000000000, 0.000000000000000000, 1.000000000000000000 ) ) ;
#239 = CARTESIAN_POINT ( 'NONE',  ( -100.0000000000000000, -85.00000000000000000, 7.000000000000000000 ) ) ;
#240 = CARTESIAN_POINT ( 'NONE',  ( 75.00000000000000000, 79.99999999999998579, 7.000000000000000000 ) ) ;
#241 = EDGE_CURVE ( 'NONE', #470, #467, #388, .T. ) ;
#242 = CC_DESIGN_PERSON_AND_ORGANIZATION_ASSIGNMENT ( #111, #381, ( #548 ) ) ;
#243 = LINE ( 'NONE', #542, #293 ) ;
#244 = APPROVAL_PERSON_ORGANIZATION ( #271, #650, #487 ) ;
#245 = DIRECTION ( 'NONE',  ( -1.000000000000000000, 0.000000000000000000, 0.000000000000000000 ) ) ;
#246 = CC_DESIGN_APPROVAL ( #363, ( #548 ) ) ;
#247 = DIRECTION ( 'NONE',  ( 1.000000000000000000, 0.000000000000000000, 0.000000000000000000 ) ) ;
#248 = AXIS2_PLACEMENT_3D ( 'NONE', #80, #491, #442 ) ;
#249 = ORIENTED_EDGE ( 'NONE', *, *, #536, .T. ) ;
#250 = DIRECTION ( 'NONE',  ( 0.000000000000000000, 0.000000000000000000, 1.000000000000000000 ) ) ;
#251 = CARTESIAN_POINT ( 'NONE',  ( -75.00000000000000000, 79.99999999999998579, 7.000000000000000000 ) ) ;
#252 = ORIENTED_EDGE ( 'NONE', *, *, #482, .T. ) ;
#253 = PRODUCT_RELATED_PRODUCT_CATEGORY ( 'detail', '', ( #106 ) ) ;
#254 = COORDINATED_UNIVERSAL_TIME_OFFSET ( 1, 0, .AHEAD. ) ;
#255 =( NAMED_UNIT ( * ) PLANE_ANGLE_UNIT ( ) SI_UNIT ( $, .RADIAN. ) );
#256 = FACE_BOUND ( 'NONE', #514, .T. ) ;
#257 = ORIENTED_EDGE ( 'NONE', *, *, #341, .T. ) ;
#258 = DIRECTION ( 'NONE',  ( 1.000000000000000000, 0.000000000000000000, 0.000000000000000000 ) ) ;
#259 = AXIS2_PLACEMENT_3D ( 'NONE', #546, #250, #75 ) ;
#260 = ORIENTED_EDGE ( 'NONE', *, *, #124, .T. ) ;
#261 = VECTOR ( 'NONE', #607, 1000.000000000000000 ) ;
#262 = EDGE_CURVE ( 'NONE', #638, #371, #484, .T. ) ;
#263 = CARTESIAN_POINT ( 'NONE',  ( 80.00000000000000000, 79.99999999999998579, 7.000000000000000000 ) ) ;
#264 = ORIENTED_EDGE ( 'NONE', *, *, #29, .T. ) ;
#265 = CARTESIAN_POINT ( 'NONE',  ( -100.0000000000000000, 84.99999999999998579, 7.000000000000000000 ) ) ;
#266 = DIRECTION ( 'NONE',  ( 0.000000000000000000, 0.000000000000000000, 1.000000000000000000 ) ) ;
#267 = ORIENTED_EDGE ( 'NONE', *, *, #27, .F. ) ;
#268 = FACE_OUTER_BOUND ( 'NONE', #125, .T. ) ;
#269 = ORIENTED_EDGE ( 'NONE', *, *, #96, .T. ) ;
#270 = EDGE_CURVE ( 'NONE', #206, #35, #569, .T. ) ;
#271 = PERSON_AND_ORGANIZATION ( #578, #492 ) ;
#272 = AXIS2_PLACEMENT_3D ( 'NONE', #207, #521, #9 ) ;
#273 = DIRECTION ( 'NONE',  ( 0.000000000000000000, 0.000000000000000000, 1.000000000000000000 ) ) ;
#274 = EDGE_LOOP ( 'NONE', ( #17, #73, #42, #637 ) ) ;
#275 = EDGE_CURVE ( 'NONE', #213, #393, #188, .T. ) ;
#276 = ADVANCED_FACE ( 'NONE', ( #664 ), #11, .F. ) ;
#277 = ORIENTED_EDGE ( 'NONE', *, *, #414, .F. ) ;
#278 = APPLICATION_CONTEXT ( 'configuration controlled 3d designs of mechanical parts and assemblies' ) ;
#279 = ORIENTED_EDGE ( 'NONE', *, *, #564, .T. ) ;
#280 = AXIS2_PLACEMENT_3D ( 'NONE', #544, #551, #386 ) ;
#281 = CIRCLE ( 'NONE', #65, 5.000000000000004441 ) ;
#282 = ADVANCED_FACE ( 'NONE', ( #56 ), #644, .F. ) ;
#283 = VECTOR ( 'NONE', #598, 1000.000000000000000 ) ;
#284 = DIRECTION ( 'NONE',  ( -0.000000000000000000, -0.000000000000000000, 1.000000000000000000 ) ) ;
#285 = ORIENTED_EDGE ( 'NONE', *, *, #197, .F. ) ;
#286 = COORDINATED_UNIVERSAL_TIME_OFFSET ( 1, 0, .AHEAD. ) ;
#287 = DIRECTION ( 'NONE',  ( -1.000000000000000000, 0.000000000000000000, 0.000000000000000000 ) ) ;
#288 = DIRECTION ( 'NONE',  ( -1.000000000000000000, 0.000000000000000000, 0.000000000000000000 ) ) ;
#289 = DIRECTION ( 'NONE',  ( -0.000000000000000000, -0.000000000000000000, -1.000000000000000000 ) ) ;
#290 = DIRECTION ( 'NONE',  ( 1.000000000000000000, 0.000000000000000000, 0.000000000000000000 ) ) ;
#291 = CARTESIAN_POINT ( 'NONE',  ( -85.00000000000000000, 99.99999999999998579, 7.000000000000000000 ) ) ;
#292 = VECTOR ( 'NONE', #654, 1000.000000000000000 ) ;
#293 = VECTOR ( 'NONE', #640, 1000.000000000000000 ) ;
#294 = DIRECTION ( 'NONE',  ( -0.000000000000000000, -0.000000000000000000, 1.000000000000000000 ) ) ;
#295 = CC_DESIGN_PERSON_AND_ORGANIZATION_ASSIGNMENT ( #14, #430, ( #362 ) ) ;
#296 = CARTESIAN_POINT ( 'NONE',  ( 84.99999999999998579, 99.99999999999998579, 7.000000000000000000 ) ) ;
#297 = EDGE_CURVE ( 'NONE', #84, #118, #227, .T. ) ;
#298 = ADVANCED_BREP_SHAPE_REPRESENTATION ( 'PLATEMillieu_DÚfaut_sldprt', ( #151, #272 ), #441 ) ;
#299 = CARTESIAN_POINT ( 'NONE',  ( -75.00000000000000000, 79.99999999999998579, 0.000000000000000000 ) ) ;
#300 = CARTESIAN_POINT ( 'NONE',  ( 75.00000000000000000, 79.99999999999998579, 0.000000000000000000 ) ) ;
#301 = FACE_BOUND ( 'NONE', #586, .T. ) ;
#302 = ORIENTED_EDGE ( 'NONE', *, *, #384, .T. ) ;
#303 = CARTESIAN_POINT ( 'NONE',  ( 80.00000000000000000, -80.00000000000000000, 0.000000000000000000 ) ) ;
#304 = AXIS2_PLACEMENT_3D ( 'NONE', #364, #471, #468 ) ;
#305 = DIRECTION ( 'NONE',  ( -0.000000000000000000, -0.000000000000000000, -1.000000000000000000 ) ) ;
#306 = AXIS2_PLACEMENT_3D ( 'NONE', #418, #7, #47 ) ;
#307 = ORIENTED_EDGE ( 'NONE', *, *, #562, .T. ) ;
#308 = DATE_TIME_ROLE ( 'classification_date' ) ;
#309 = PERSON_AND_ORGANIZATION ( #578, #492 ) ;
#310 = CYLINDRICAL_SURFACE ( 'NONE', #532, 5.000000000000004441 ) ;
#311 = EDGE_LOOP ( 'NONE', ( #358, #582 ) ) ;
#312 = COORDINATED_UNIVERSAL_TIME_OFFSET ( 1, 0, .AHEAD. ) ;
#313 = DIRECTION ( 'NONE',  ( 1.000000000000000000, 0.000000000000000000, 0.000000000000000000 ) ) ;
#314 = CARTESIAN_POINT ( 'NONE',  ( -85.00000000000000000, -80.00000000000000000, 7.000000000000000000 ) ) ;
#315 = EDGE_LOOP ( 'NONE', ( #483, #379, #346, #252 ) ) ;
#316 = APPROVAL_PERSON_ORGANIZATION ( #511, #373, #202 ) ;
#317 = PLANE ( 'NONE',  #639 ) ;
#318 = AXIS2_PLACEMENT_3D ( 'NONE', #108, #336, #155 ) ;
#319 = ORIENTED_EDGE ( 'NONE', *, *, #517, .F. ) ;
#320 = CLOSED_SHELL ( 'NONE', ( #553, #222, #198, #176, #328, #172, #651, #282, #395, #13, #276, #219, #223, #330, #580, #481, #614, #661 ) ) ;
#321 = CC_DESIGN_PERSON_AND_ORGANIZATION_ASSIGNMENT ( #666, #92, ( #327 ) ) ;
#322 = DIRECTION ( 'NONE',  ( -1.000000000000000000, 0.000000000000000000, 0.000000000000000000 ) ) ;
#323 = EDGE_LOOP ( 'NONE', ( #209, #616 ) ) ;
#324 = DIRECTION ( 'NONE',  ( -0.000000000000000000, -0.000000000000000000, -1.000000000000000000 ) ) ;
#325 = ORIENTED_EDGE ( 'NONE', *, *, #482, .F. ) ;
#326 = CARTESIAN_POINT ( 'NONE',  ( -100.0000000000000000, -100.0000000000000000, 7.000000000000000000 ) ) ;
#327 = SECURITY_CLASSIFICATION ( '', '', #405 ) ;
#328 = ADVANCED_FACE ( 'NONE', ( #163, #105, #426, #437, #60 ), #375, .F. ) ;
#329 = ORIENTED_EDGE ( 'NONE', *, *, #562, .F. ) ;
#330 = ADVANCED_FACE ( 'NONE', ( #268 ), #208, .F. ) ;
#331 = ORIENTED_EDGE ( 'NONE', *, *, #72, .F. ) ;
#332 = EDGE_LOOP ( 'NONE', ( #642, #417, #473, #307, #126, #660, #596, #608 ) ) ;
#333 = CARTESIAN_POINT ( 'NONE',  ( -85.00000000000000000, 84.99999999999998579, 7.000000000000000000 ) ) ;
#334 = CC_DESIGN_APPROVAL ( #373, ( #327 ) ) ;
#335 = AXIS2_PLACEMENT_3D ( 'NONE', #503, #38, #449 ) ;
#336 = DIRECTION ( 'NONE',  ( 0.000000000000000000, 0.000000000000000000, -1.000000000000000000 ) ) ;
#337 = VERTEX_POINT ( 'NONE', #103 ) ;
#338 = LINE ( 'NONE', #488, #102 ) ;
#339 = LINE ( 'NONE', #128, #187 ) ;
#340 = CARTESIAN_POINT ( 'NONE',  ( -80.00000000000000000, 79.99999999999998579, 7.000000000000000000 ) ) ;
#341 = EDGE_CURVE ( 'NONE', #533, #427, #475, .T. ) ;
#342 = EDGE_CURVE ( 'NONE', #467, #470, #281, .T. ) ;
#343 = CARTESIAN_POINT ( 'NONE',  ( -75.00000000000000000, -80.00000000000000000, 7.000000000000000000 ) ) ;
#344 = AXIS2_PLACEMENT_3D ( 'NONE', #326, #628, #581 ) ;
#345 = CIRCLE ( 'NONE', #228, 5.000000000000004441 ) ;
#346 = ORIENTED_EDGE ( 'NONE', *, *, #275, .T. ) ;
#347 = DIRECTION ( 'NONE',  ( -0.000000000000000000, -0.000000000000000000, -1.000000000000000000 ) ) ;
#348 = ORIENTED_EDGE ( 'NONE', *, *, #262, .F. ) ;
#349 = CARTESIAN_POINT ( 'NONE',  ( -85.00000000000000000, -100.0000000000000000, 0.000000000000000000 ) ) ;
#350 = EDGE_LOOP ( 'NONE', ( #221, #510, #348, #113 ) ) ;
#351 = FACE_OUTER_BOUND ( 'NONE', #361, .T. ) ;
#352 = VECTOR ( 'NONE', #191, 1000.000000000000000 ) ;
#353 = DIRECTION ( 'NONE',  ( -1.000000000000000000, 0.000000000000000000, 0.000000000000000000 ) ) ;
#354 = AXIS2_PLACEMENT_3D ( 'NONE', #40, #409, #52 ) ;
#355 = ORIENTED_EDGE ( 'NONE', *, *, #241, .T. ) ;
#356 = APPLICATION_PROTOCOL_DEFINITION ( 'international standard', 'config_control_design', 1994, #486 ) ;
#357 = DIRECTION ( 'NONE',  ( -0.000000000000000000, -0.000000000000000000, -1.000000000000000000 ) ) ;
#358 = ORIENTED_EDGE ( 'NONE', *, *, #241, .F. ) ;
#359 = DIRECTION ( 'NONE',  ( 0.000000000000000000, 0.000000000000000000, -1.000000000000000000 ) ) ;
#360 = LINE ( 'NONE', #251, #606 ) ;
#361 = EDGE_LOOP ( 'NONE', ( #30, #87, #424, #412 ) ) ;
#362 = PRODUCT_DEFINITION ( 'UNKNOWN', '', #548, #391 ) ;
#363 = APPROVAL ( #372, 'UNSPECIFIED' ) ;
#364 = CARTESIAN_POINT ( 'NONE',  ( -85.00000000000000000, -85.00000000000000000, 7.000000000000000000 ) ) ;
#365 = CARTESIAN_POINT ( 'NONE',  ( 84.99999999999998579, -100.0000000000000142, 0.000000000000000000 ) ) ;
#366 = VECTOR ( 'NONE', #543, 1000.000000000000000 ) ;
#367 = ORIENTED_EDGE ( 'NONE', *, *, #587, .F. ) ;
#368 = VECTOR ( 'NONE', #641, 1000.000000000000000 ) ;
#369 = DIRECTION ( 'NONE',  ( 0.000000000000000000, 0.000000000000000000, 1.000000000000000000 ) ) ;
#370 = DIRECTION ( 'NONE',  ( 0.000000000000000000, 0.000000000000000000, 1.000000000000000000 ) ) ;
#371 = VERTEX_POINT ( 'NONE', #419 ) ;
#372 = APPROVAL_STATUS ( 'not_yet_approved' ) ;
#373 = APPROVAL ( #612, 'UNSPECIFIED' ) ;
#374 = PRODUCT_DEFINITION_SHAPE ( 'NONE', 'NONE',  #362 ) ;
#375 = PLANE ( 'NONE',  #318 ) ;
#376 = VERTEX_POINT ( 'NONE', #220 ) ;
#377 = COORDINATED_UNIVERSAL_TIME_OFFSET ( 1, 0, .AHEAD. ) ;
#378 = DIRECTION ( 'NONE',  ( 1.000000000000000000, -6.938893903907228378E-17, 0.000000000000000000 ) ) ;
#379 = ORIENTED_EDGE ( 'NONE', *, *, #535, .T. ) ;
#380 = VECTOR ( 'NONE', #406, 1000.000000000000000 ) ;
#381 = PERSON_AND_ORGANIZATION_ROLE ( 'creator' ) ;
#382 = AXIS2_PLACEMENT_3D ( 'NONE', #23, #233, #646 ) ;
#383 = EDGE_LOOP ( 'NONE', ( #99, #174, #431, #260, #420, #629, #91, #264 ) ) ;
#384 = EDGE_CURVE ( 'NONE', #479, #115, #15, .T. ) ;
#385 = APPROVAL_ROLE ( '' ) ;
#386 = DIRECTION ( 'NONE',  ( 0.000000000000000000, -0.000000000000000000, -1.000000000000000000 ) ) ;
#387 = CARTESIAN_POINT ( 'NONE',  ( 100.0000000000000000, 84.99999999999997158, 7.000000000000000000 ) ) ;
#388 = CIRCLE ( 'NONE', #423, 5.000000000000004441 ) ;
#389 = CARTESIAN_POINT ( 'NONE',  ( 84.99999999999998579, 84.99999999999998579, 0.000000000000000000 ) ) ;
#390 = EDGE_CURVE ( 'NONE', #477, #337, #428, .T. ) ;
#391 = DESIGN_CONTEXT ( 'detailed design', #486, 'design' ) ;
#392 = DIRECTION ( 'NONE',  ( 0.000000000000000000, 0.000000000000000000, 1.000000000000000000 ) ) ;
#393 = VERTEX_POINT ( 'NONE', #365 ) ;
#394 = CARTESIAN_POINT ( 'NONE',  ( -80.00000000000000000, 79.99999999999998579, 7.000000000000000000 ) ) ;
#395 = ADVANCED_FACE ( 'NONE', ( #572 ), #583, .F. ) ;
#396 = CARTESIAN_POINT ( 'NONE',  ( -85.00000000000000000, -85.00000000000000000, 7.000000000000000000 ) ) ;
#397 = DIRECTION ( 'NONE',  ( 0.000000000000000000, 0.000000000000000000, 1.000000000000000000 ) ) ;
#398 = DIRECTION ( 'NONE',  ( 0.000000000000000000, 0.000000000000000000, -1.000000000000000000 ) ) ;
#399 = CARTESIAN_POINT ( 'NONE',  ( -100.0000000000000000, -85.00000000000000000, 0.000000000000000000 ) ) ;
#400 = AXIS2_PLACEMENT_3D ( 'NONE', #422, #324, #123 ) ;
#401 = LINE ( 'NONE', #139, #261 ) ;
#402 = CARTESIAN_POINT ( 'NONE',  ( 75.00000000000000000, -80.00000000000000000, 0.000000000000000000 ) ) ;
#403 = CYLINDRICAL_SURFACE ( 'NONE', #36, 5.000000000000004441 ) ;
#404 = VERTEX_POINT ( 'NONE', #68 ) ;
#405 = SECURITY_CLASSIFICATION_LEVEL ( 'unclassified' ) ;
#406 = DIRECTION ( 'NONE',  ( -0.000000000000000000, -1.000000000000000000, -0.000000000000000000 ) ) ;
#407 = CARTESIAN_POINT ( 'NONE',  ( -100.0000000000000000, -100.0000000000000000, 7.000000000000000000 ) ) ;
#408 = VERTEX_POINT ( 'NONE', #594 ) ;
#409 = DIRECTION ( 'NONE',  ( 0.000000000000000000, 0.000000000000000000, -1.000000000000000000 ) ) ;
#410 = VECTOR ( 'NONE', #177, 1000.000000000000000 ) ;
#411 = CARTESIAN_POINT ( 'NONE',  ( 80.00000000000000000, 79.99999999999998579, 7.000000000000000000 ) ) ;
#412 = ORIENTED_EDGE ( 'NONE', *, *, #384, .F. ) ;
#413 = FACE_OUTER_BOUND ( 'NONE', #665, .T. ) ;
#414 = EDGE_CURVE ( 'NONE', #470, #533, #526, .T. ) ;
#415 = FACE_OUTER_BOUND ( 'NONE', #20, .T. ) ;
#416 = EDGE_CURVE ( 'NONE', #84, #655, #338, .T. ) ;
#417 = ORIENTED_EDGE ( 'NONE', *, *, #603, .T. ) ;
#418 = CARTESIAN_POINT ( 'NONE',  ( 85.00000000000000000, -85.00000000000001421, 7.000000000000000000 ) ) ;
#419 = CARTESIAN_POINT ( 'NONE',  ( -75.00000000000000000, -80.00000000000000000, 0.000000000000000000 ) ) ;
#420 = ORIENTED_EDGE ( 'NONE', *, *, #270, .T. ) ;
#421 = CARTESIAN_POINT ( 'NONE',  ( -85.00000000000000000, -85.00000000000000000, 0.000000000000000000 ) ) ;
#422 = CARTESIAN_POINT ( 'NONE',  ( -80.00000000000000000, 79.99999999999998579, 7.000000000000000000 ) ) ;
#423 = AXIS2_PLACEMENT_3D ( 'NONE', #89, #194, #452 ) ;
#424 = ORIENTED_EDGE ( 'NONE', *, *, #96, .F. ) ;
#425 = DIRECTION ( 'NONE',  ( 1.000000000000000000, 0.000000000000000000, 0.000000000000000000 ) ) ;
#426 = FACE_BOUND ( 'NONE', #54, .T. ) ;
#427 = VERTEX_POINT ( 'NONE', #22 ) ;
#428 = LINE ( 'NONE', #635, #656 ) ;
#429 = EDGE_LOOP ( 'NONE', ( #480, #185, #577, #161 ) ) ;
#430 = PERSON_AND_ORGANIZATION_ROLE ( 'creator' ) ;
#431 = ORIENTED_EDGE ( 'NONE', *, *, #390, .T. ) ;
#432 = PERSON_AND_ORGANIZATION ( #578, #492 ) ;
#433 = EDGE_LOOP ( 'NONE', ( #574, #520, #555, #456 ) ) ;
#434 = EDGE_CURVE ( 'NONE', #206, #530, #232, .T. ) ;
#435 = LINE ( 'NONE', #485, #283 ) ;
#436 = APPROVAL_DATE_TIME ( #114, #650 ) ;
#437 = FACE_BOUND ( 'NONE', #104, .T. ) ;
#438 = CARTESIAN_POINT ( 'NONE',  ( -80.00000000000000000, 79.99999999999998579, 0.000000000000000000 ) ) ;
#439 = CIRCLE ( 'NONE', #235, 15.00000000000000000 ) ;
#440 = EDGE_CURVE ( 'NONE', #427, #533, #214, .T. ) ;
#441 =( GEOMETRIC_REPRESENTATION_CONTEXT ( 3 ) GLOBAL_UNCERTAINTY_ASSIGNED_CONTEXT ( ( #645 ) ) GLOBAL_UNIT_ASSIGNED_CONTEXT ( ( #667, #255, #152 ) ) REPRESENTATION_CONTEXT ( 'NONE', 'WORKASPACE' ) );
#442 = DIRECTION ( 'NONE',  ( -1.000000000000000000, 0.000000000000000000, 0.000000000000000000 ) ) ;
#443 = EDGE_CURVE ( 'NONE', #545, #371, #8, .T. ) ;
#444 = FACE_OUTER_BOUND ( 'NONE', #534, .T. ) ;
#445 = ORIENTED_EDGE ( 'NONE', *, *, #297, .F. ) ;
#446 = DIRECTION ( 'NONE',  ( -0.000000000000000000, -0.000000000000000000, 1.000000000000000000 ) ) ;
#447 = VERTEX_POINT ( 'NONE', #402 ) ;
#448 = LINE ( 'NONE', #647, #627 ) ;
#449 = DIRECTION ( 'NONE',  ( -1.000000000000000000, 0.000000000000000000, 0.000000000000000000 ) ) ;
#450 = LINE ( 'NONE', #556, #10 ) ;
#451 = AXIS2_PLACEMENT_3D ( 'NONE', #4, #266, #472 ) ;
#452 = DIRECTION ( 'NONE',  ( 1.000000000000000000, 0.000000000000000000, 0.000000000000000000 ) ) ;
#453 = ORIENTED_EDGE ( 'NONE', *, *, #434, .T. ) ;
#454 = DIRECTION ( 'NONE',  ( -0.000000000000000000, -0.000000000000000000, -1.000000000000000000 ) ) ;
#455 = DIRECTION ( 'NONE',  ( -0.000000000000000000, -0.000000000000000000, -1.000000000000000000 ) ) ;
#456 = ORIENTED_EDGE ( 'NONE', *, *, #5, .F. ) ;
#457 = CALENDAR_DATE ( 2020, 29, 11 ) ;
#458 = EDGE_CURVE ( 'NONE', #595, #461, #663, .T. ) ;
#459 = PLANE ( 'NONE',  #88 ) ;
#460 = CARTESIAN_POINT ( 'NONE',  ( 80.00000000000000000, -80.00000000000000000, 7.000000000000000000 ) ) ;
#461 = VERTEX_POINT ( 'NONE', #399 ) ;
#462 = EDGE_CURVE ( 'NONE', #62, #115, #159, .T. ) ;
#463 = EDGE_CURVE ( 'NONE', #118, #35, #24, .T. ) ;
#464 = CIRCLE ( 'NONE', #248, 15.00000000000000000 ) ;
#465 = FACE_OUTER_BOUND ( 'NONE', #350, .T. ) ;
#466 = VECTOR ( 'NONE', #610, 1000.000000000000000 ) ;
#467 = VERTEX_POINT ( 'NONE', #234 ) ;
#468 = DIRECTION ( 'NONE',  ( -1.000000000000000000, 0.000000000000000000, 0.000000000000000000 ) ) ;
#469 = DIRECTION ( 'NONE',  ( 0.000000000000000000, 0.000000000000000000, -1.000000000000000000 ) ) ;
#470 = VERTEX_POINT ( 'NONE', #240 ) ;
#471 = DIRECTION ( 'NONE',  ( 0.000000000000000000, -0.000000000000000000, -1.000000000000000000 ) ) ;
#472 = DIRECTION ( 'NONE',  ( 1.000000000000000000, 0.000000000000000000, 0.000000000000000000 ) ) ;
#473 = ORIENTED_EDGE ( 'NONE', *, *, #458, .F. ) ;
#474 = CARTESIAN_POINT ( 'NONE',  ( 75.00000000000000000, 79.99999999999998579, 7.000000000000000000 ) ) ;
#475 = CIRCLE ( 'NONE', #496, 5.000000000000004441 ) ;
#476 = CIRCLE ( 'NONE', #561, 5.000000000000004441 ) ;
#477 = VERTEX_POINT ( 'NONE', #138 ) ;
#478 = DIRECTION ( 'NONE',  ( 1.000000000000000000, 0.000000000000000000, 0.000000000000000000 ) ) ;
#479 = VERTEX_POINT ( 'NONE', #136 ) ;
#480 = ORIENTED_EDGE ( 'NONE', *, *, #458, .T. ) ;
#481 = ADVANCED_FACE ( 'NONE', ( #597 ), #613, .T. ) ;
#482 = EDGE_CURVE ( 'NONE', #393, #337, #450, .T. ) ;
#483 = ORIENTED_EDGE ( 'NONE', *, *, #390, .F. ) ;
#484 = CIRCLE ( 'NONE', #604, 5.000000000000004441 ) ;
#485 = CARTESIAN_POINT ( 'NONE',  ( 100.0000000000000000, -100.0000000000000142, 0.000000000000000000 ) ) ;
#486 = APPLICATION_CONTEXT ( 'configuration controlled 3d designs of mechanical parts and assemblies' ) ;
#487 = APPROVAL_ROLE ( '' ) ;
#488 = CARTESIAN_POINT ( 'NONE',  ( -100.0000000000000000, 99.99999999999998579, 0.000000000000000000 ) ) ;
#489 = CARTESIAN_POINT ( 'NONE',  ( -85.00000000000000000, 79.99999999999998579, 0.000000000000000000 ) ) ;
#490 = CC_DESIGN_DATE_AND_TIME_ASSIGNMENT ( #516, #308, ( #327 ) ) ;
#491 = DIRECTION ( 'NONE',  ( 0.000000000000000000, 0.000000000000000000, -1.000000000000000000 ) ) ;
#492 = ORGANIZATION ( 'UNSPECIFIED', 'UNSPECIFIED', '' ) ;
#493 = ORIENTED_EDGE ( 'NONE', *, *, #120, .F. ) ;
#494 = CC_DESIGN_SECURITY_CLASSIFICATION ( #327, ( #548 ) ) ;
#495 = ORIENTED_EDGE ( 'NONE', *, *, #463, .T. ) ;
#496 = AXIS2_PLACEMENT_3D ( 'NONE', #531, #273, #160 ) ;
#497 = DIRECTION ( 'NONE',  ( 0.000000000000000000, 0.000000000000000000, -1.000000000000000000 ) ) ;
#498 = AXIS2_PLACEMENT_3D ( 'NONE', #184, #398, #601 ) ;
#499 = LINE ( 'NONE', #182, #368 ) ;
#500 = DIRECTION ( 'NONE',  ( 0.000000000000000000, 0.000000000000000000, -1.000000000000000000 ) ) ;
#501 = DIRECTION ( 'NONE',  ( 1.000000000000000000, 0.000000000000000000, 0.000000000000000000 ) ) ;
#502 = DIRECTION ( 'NONE',  ( -1.000000000000000000, 0.000000000000000000, 0.000000000000000000 ) ) ;
#503 = CARTESIAN_POINT ( 'NONE',  ( -80.00000000000000000, -80.00000000000000000, 7.000000000000000000 ) ) ;
#504 = ORIENTED_EDGE ( 'NONE', *, *, #262, .T. ) ;
#505 = DIRECTION ( 'NONE',  ( -0.000000000000000000, -0.000000000000000000, 1.000000000000000000 ) ) ;
#506 = AXIS2_PLACEMENT_3D ( 'NONE', #396, #175, #122 ) ;
#507 = CIRCLE ( 'NONE', #259, 5.000000000000004441 ) ;
#508 = CARTESIAN_POINT ( 'NONE',  ( -80.00000000000000000, -80.00000000000000000, 7.000000000000000000 ) ) ;
#509 = EDGE_CURVE ( 'NONE', #545, #154, #507, .T. ) ;
#510 = ORIENTED_EDGE ( 'NONE', *, *, #443, .T. ) ;
#511 = PERSON_AND_ORGANIZATION ( #578, #492 ) ;
#512 = DIRECTION ( 'NONE',  ( -1.000000000000000000, 0.000000000000000000, 0.000000000000000000 ) ) ;
#513 = CARTESIAN_POINT ( 'NONE',  ( 80.00000000000000000, -80.00000000000000000, 7.000000000000000000 ) ) ;
#514 = EDGE_LOOP ( 'NONE', ( #257, #218 ) ) ;
#515 = EDGE_CURVE ( 'NONE', #558, #479, #216, .T. ) ;
#516 = DATE_AND_TIME ( #196, #225 ) ;
#517 = EDGE_CURVE ( 'NONE', #655, #408, #85, .T. ) ;
#518 = CYLINDRICAL_SURFACE ( 'NONE', #304, 15.00000000000000000 ) ;
#519 = DIRECTION ( 'NONE',  ( 0.000000000000000000, 0.000000000000000000, -1.000000000000000000 ) ) ;
#520 = ORIENTED_EDGE ( 'NONE', *, *, #509, .T. ) ;
#521 = DIRECTION ( 'NONE',  ( 0.000000000000000000, 0.000000000000000000, 1.000000000000000000 ) ) ;
#522 = AXIS2_PLACEMENT_3D ( 'NONE', #333, #539, #66 ) ;
#523 = FACE_OUTER_BOUND ( 'NONE', #166, .T. ) ;
#524 = CIRCLE ( 'NONE', #506, 15.00000000000000000 ) ;
#525 = EDGE_LOOP ( 'NONE', ( #51, #649, #39, #1 ) ) ;
#526 = LINE ( 'NONE', #474, #366 ) ;
#527 = VERTEX_POINT ( 'NONE', #552 ) ;
#528 = FACE_OUTER_BOUND ( 'NONE', #525, .T. ) ;
#529 = DIRECTION ( 'NONE',  ( 0.000000000000000000, 0.000000000000000000, 1.000000000000000000 ) ) ;
#530 = VERTEX_POINT ( 'NONE', #32 ) ;
#531 = CARTESIAN_POINT ( 'NONE',  ( 80.00000000000000000, 79.99999999999998579, 0.000000000000000000 ) ) ;
#532 = AXIS2_PLACEMENT_3D ( 'NONE', #513, #347, #83 ) ;
#533 = VERTEX_POINT ( 'NONE', #300 ) ;
#534 = EDGE_LOOP ( 'NONE', ( #565, #46, #493, #279 ) ) ;
#535 = EDGE_CURVE ( 'NONE', #477, #213, #448, .T. ) ;
#536 = EDGE_CURVE ( 'NONE', #447, #107, #540, .T. ) ;
#537 = ORIENTED_EDGE ( 'NONE', *, *, #414, .T. ) ;
#538 = CALENDAR_DATE ( 2020, 29, 11 ) ;
#539 = DIRECTION ( 'NONE',  ( -0.000000000000000000, -0.000000000000000000, 1.000000000000000000 ) ) ;
#540 = CIRCLE ( 'NONE', #77, 5.000000000000004441 ) ;
#541 = CARTESIAN_POINT ( 'NONE',  ( 100.0000000000000000, -100.0000000000000142, 7.000000000000000000 ) ) ;
#542 = CARTESIAN_POINT ( 'NONE',  ( -100.0000000000000000, 99.99999999999998579, 7.000000000000000000 ) ) ;
#543 = DIRECTION ( 'NONE',  ( -0.000000000000000000, -0.000000000000000000, -1.000000000000000000 ) ) ;
#544 = CARTESIAN_POINT ( 'NONE',  ( -100.0000000000000000, 99.99999999999998579, 7.000000000000000000 ) ) ;
#545 = VERTEX_POINT ( 'NONE', #343 ) ;
#546 = CARTESIAN_POINT ( 'NONE',  ( -80.00000000000000000, -80.00000000000000000, 7.000000000000000000 ) ) ;
#547 = CARTESIAN_POINT ( 'NONE',  ( -80.00000000000000000, -80.00000000000000000, 0.000000000000000000 ) ) ;
#548 = PRODUCT_DEFINITION_FORMATION_WITH_SPECIFIED_SOURCE ( 'ANY', '', #106, .NOT_KNOWN. ) ;
#549 = CARTESIAN_POINT ( 'NONE',  ( -100.0000000000000000, -100.0000000000000000, 0.000000000000000000 ) ) ;
#550 = VECTOR ( 'NONE', #294, 1000.000000000000000 ) ;
#551 = DIRECTION ( 'NONE',  ( 0.000000000000000000, -1.000000000000000000, 0.000000000000000000 ) ) ;
#552 = CARTESIAN_POINT ( 'NONE',  ( 85.00000000000000000, -80.00000000000000000, 7.000000000000000000 ) ) ;
#553 = ADVANCED_FACE ( 'NONE', ( #351 ), #657, .F. ) ;
#554 = DIRECTION ( 'NONE',  ( -1.000000000000000000, 0.000000000000000000, 0.000000000000000000 ) ) ;
#555 = ORIENTED_EDGE ( 'NONE', *, *, #90, .T. ) ;
#556 = CARTESIAN_POINT ( 'NONE',  ( 84.99999999999998579, -100.0000000000000142, 7.000000000000000000 ) ) ;
#557 = CYLINDRICAL_SURFACE ( 'NONE', #335, 5.000000000000004441 ) ;
#558 = VERTEX_POINT ( 'NONE', #186 ) ;
#559 = CYLINDRICAL_SURFACE ( 'NONE', #306, 15.00000000000000000 ) ;
#560 = VECTOR ( 'NONE', #446, 1000.000000000000000 ) ;
#561 = AXIS2_PLACEMENT_3D ( 'NONE', #571, #620, #313 ) ;
#562 = EDGE_CURVE ( 'NONE', #595, #655, #464, .T. ) ;
#563 = CARTESIAN_POINT ( 'NONE',  ( -80.00000000000000000, -80.00000000000000000, 0.000000000000000000 ) ) ;
#564 = EDGE_CURVE ( 'NONE', #404, #84, #181, .T. ) ;
#565 = ORIENTED_EDGE ( 'NONE', *, *, #416, .T. ) ;
#566 = FACE_OUTER_BOUND ( 'NONE', #274, .T. ) ;
#567 = VERTEX_POINT ( 'NONE', #127 ) ;
#568 = CARTESIAN_POINT ( 'NONE',  ( 80.00000000000000000, -80.00000000000000000, 7.000000000000000000 ) ) ;
#569 = LINE ( 'NONE', #98, #292 ) ;
#570 = ORIENTED_EDGE ( 'NONE', *, *, #147, .T. ) ;
#571 = CARTESIAN_POINT ( 'NONE',  ( -80.00000000000000000, -80.00000000000000000, 7.000000000000000000 ) ) ;
#572 = FACE_OUTER_BOUND ( 'NONE', #589, .T. ) ;
#573 = AXIS2_PLACEMENT_3D ( 'NONE', #81, #284, #288 ) ;
#574 = ORIENTED_EDGE ( 'NONE', *, *, #443, .F. ) ;
#575 = CARTESIAN_POINT ( 'NONE',  ( -85.00000000000000000, 99.99999999999998579, 0.000000000000000000 ) ) ;
#576 = CARTESIAN_POINT ( 'NONE',  ( 80.00000000000000000, 79.99999999999998579, 7.000000000000000000 ) ) ;
#577 = ORIENTED_EDGE ( 'NONE', *, *, #134, .F. ) ;
#578 = PERSON ( 'UNSPECIFIED', 'UNSPECIFIED', 'UNSPECIFIED', ('UNSPECIFIED'), ('UNSPECIFIED'), ('UNSPECIFIED') ) ;
#579 = DATE_AND_TIME ( #538, #141 ) ;
#580 = ADVANCED_FACE ( 'NONE', ( #528 ), #518, .T. ) ;
#581 = DIRECTION ( 'NONE',  ( -1.000000000000000000, 6.938893903907229610E-17, 0.000000000000000000 ) ) ;
#582 = ORIENTED_EDGE ( 'NONE', *, *, #342, .F. ) ;
#583 = PLANE ( 'NONE',  #671 ) ;
#584 = VECTOR ( 'NONE', #500, 1000.000000000000000 ) ;
#585 = CC_DESIGN_PERSON_AND_ORGANIZATION_ASSIGNMENT ( #309, #146, ( #106 ) ) ;
#586 = EDGE_LOOP ( 'NONE', ( #249, #58 ) ) ;
#587 = EDGE_CURVE ( 'NONE', #527, #567, #592, .T. ) ;
#588 = AXIS2_PLACEMENT_3D ( 'NONE', #340, #21, #76 ) ;
#589 = EDGE_LOOP ( 'NONE', ( #16, #495, #171, #453 ) ) ;
#590 = PLANE ( 'NONE',  #280 ) ;
#591 = CARTESIAN_POINT ( 'NONE',  ( 80.00000000000000000, -80.00000000000000000, 7.000000000000000000 ) ) ;
#592 = CIRCLE ( 'NONE', #59, 5.000000000000004441 ) ;
#593 = AXIS2_PLACEMENT_3D ( 'NONE', #70, #289, #502 ) ;
#594 = CARTESIAN_POINT ( 'NONE',  ( -85.00000000000000000, 99.99999999999998579, 7.000000000000000000 ) ) ;
#595 = VERTEX_POINT ( 'NONE', #2 ) ;
#596 = ORIENTED_EDGE ( 'NONE', *, *, #49, .F. ) ;
#597 = FACE_OUTER_BOUND ( 'NONE', #144, .T. ) ;
#598 = DIRECTION ( 'NONE',  ( 0.000000000000000000, 1.000000000000000000, 0.000000000000000000 ) ) ;
#599 = ORIENTED_EDGE ( 'NONE', *, *, #515, .T. ) ;
#600 = DIRECTION ( 'NONE',  ( 0.000000000000000000, 0.000000000000000000, 1.000000000000000000 ) ) ;
#601 = DIRECTION ( 'NONE',  ( -1.000000000000000000, 0.000000000000000000, 0.000000000000000000 ) ) ;
#602 = AXIS2_PLACEMENT_3D ( 'NONE', #438, #33, #501 ) ;
#603 = EDGE_CURVE ( 'NONE', #213, #461, #439, .T. ) ;
#604 = AXIS2_PLACEMENT_3D ( 'NONE', #563, #34, #247 ) ;
#605 = DIRECTION ( 'NONE',  ( 1.000000000000000000, 0.000000000000000000, 0.000000000000000000 ) ) ;
#606 = VECTOR ( 'NONE', #153, 1000.000000000000000 ) ;
#607 = DIRECTION ( 'NONE',  ( -0.000000000000000000, -0.000000000000000000, -1.000000000000000000 ) ) ;
#608 = ORIENTED_EDGE ( 'NONE', *, *, #116, .T. ) ;
#609 = CARTESIAN_POINT ( 'NONE',  ( -85.00000000000000000, 84.99999999999998579, 7.000000000000000000 ) ) ;
#610 = DIRECTION ( 'NONE',  ( -0.000000000000000000, -1.000000000000000000, -0.000000000000000000 ) ) ;
#611 = ORIENTED_EDGE ( 'NONE', *, *, #509, .F. ) ;
#612 = APPROVAL_STATUS ( 'not_yet_approved' ) ;
#613 = CYLINDRICAL_SURFACE ( 'NONE', #200, 15.00000000000000000 ) ;
#614 = ADVANCED_FACE ( 'NONE', ( #101 ), #626, .T. ) ;
#615 = CARTESIAN_POINT ( 'NONE',  ( 100.0000000000000000, -85.00000000000001421, 7.000000000000000000 ) ) ;
#616 = ORIENTED_EDGE ( 'NONE', *, *, #515, .F. ) ;
#617 = AXIS2_PLACEMENT_3D ( 'NONE', #389, #165, #287 ) ;
#618 = DIRECTION ( 'NONE',  ( 0.000000000000000000, 0.000000000000000000, 1.000000000000000000 ) ) ;
#619 = ORIENTED_EDGE ( 'NONE', *, *, #434, .F. ) ;
#620 = DIRECTION ( 'NONE',  ( 0.000000000000000000, 0.000000000000000000, 1.000000000000000000 ) ) ;
#621 = FACE_BOUND ( 'NONE', #237, .T. ) ;
#622 = VERTEX_POINT ( 'NONE', #265 ) ;
#623 = CARTESIAN_POINT ( 'NONE',  ( -85.00000000000000000, 79.99999999999998579, 7.000000000000000000 ) ) ;
#624 = LOCAL_TIME ( 14, 36, 49.00000000000000000, #286 ) ;
#625 = ORIENTED_EDGE ( 'NONE', *, *, #463, .F. ) ;
#626 = CYLINDRICAL_SURFACE ( 'NONE', #354, 15.00000000000000000 ) ;
#627 = VECTOR ( 'NONE', #28, 1000.000000000000000 ) ;
#628 = DIRECTION ( 'NONE',  ( 6.938893903907229610E-17, 1.000000000000000000, -0.000000000000000000 ) ) ;
#629 = ORIENTED_EDGE ( 'NONE', *, *, #27, .T. ) ;
#630 = MECHANICAL_CONTEXT ( 'NONE', #278, 'mechanical' ) ;
#631 = DIRECTION ( 'NONE',  ( -0.000000000000000000, -0.000000000000000000, -1.000000000000000000 ) ) ;
#632 = ORIENTED_EDGE ( 'NONE', *, *, #536, .F. ) ;
#633 = DATE_AND_TIME ( #643, #167 ) ;
#634 = EDGE_CURVE ( 'NONE', #467, #427, #162, .T. ) ;
#635 = CARTESIAN_POINT ( 'NONE',  ( -100.0000000000000000, -100.0000000000000000, 7.000000000000000000 ) ) ;
#636 = EDGE_CURVE ( 'NONE', #154, #545, #476, .T. ) ;
#637 = ORIENTED_EDGE ( 'NONE', *, *, #183, .F. ) ;
#638 = VERTEX_POINT ( 'NONE', #670 ) ;
#639 = AXIS2_PLACEMENT_3D ( 'NONE', #199, #519, #86 ) ;
#640 = DIRECTION ( 'NONE',  ( -1.000000000000000000, -0.000000000000000000, -0.000000000000000000 ) ) ;
#641 = DIRECTION ( 'NONE',  ( -0.000000000000000000, -0.000000000000000000, -1.000000000000000000 ) ) ;
#642 = ORIENTED_EDGE ( 'NONE', *, *, #275, .F. ) ;
#643 = CALENDAR_DATE ( 2020, 29, 11 ) ;
#644 = PLANE ( 'NONE',  #344 ) ;
#645 = UNCERTAINTY_MEASURE_WITH_UNIT (LENGTH_MEASURE( 1.000000000000000082E-05 ), #667, 'distance_accuracy_value', 'NONE');
#646 = DIRECTION ( 'NONE',  ( -1.000000000000000000, 0.000000000000000000, 0.000000000000000000 ) ) ;
#647 = CARTESIAN_POINT ( 'NONE',  ( -85.00000000000000000, -100.0000000000000000, 7.000000000000000000 ) ) ;
#648 = CARTESIAN_POINT ( 'NONE',  ( 84.99999999999998579, 99.99999999999998579, 0.000000000000000000 ) ) ;
#649 = ORIENTED_EDGE ( 'NONE', *, *, #74, .F. ) ;
#650 = APPROVAL ( #173, 'UNSPECIFIED' ) ;
#651 = ADVANCED_FACE ( 'NONE', ( #44 ), #459, .F. ) ;
#652 = CARTESIAN_POINT ( 'NONE',  ( 85.00000000000000000, -80.00000000000000000, 0.000000000000000000 ) ) ;
#653 = DIRECTION ( 'NONE',  ( 1.000000000000000000, 0.000000000000000000, 0.000000000000000000 ) ) ;
#654 = DIRECTION ( 'NONE',  ( 0.000000000000000000, 1.000000000000000000, 0.000000000000000000 ) ) ;
#655 = VERTEX_POINT ( 'NONE', #575 ) ;
#656 = VECTOR ( 'NONE', #378, 1000.000000000000000 ) ;
#657 = CYLINDRICAL_SURFACE ( 'NONE', #593, 5.000000000000004441 ) ;
#658 = AXIS2_PLACEMENT_3D ( 'NONE', #411, #137, #50 ) ;
#659 = CARTESIAN_POINT ( 'NONE',  ( -100.0000000000000000, -100.0000000000000000, 0.000000000000000000 ) ) ;
#660 = ORIENTED_EDGE ( 'NONE', *, *, #297, .T. ) ;
#661 = ADVANCED_FACE ( 'NONE', ( #413 ), #559, .T. ) ;
#662 = SHAPE_DEFINITION_REPRESENTATION ( #374, #298 ) ;
#663 = LINE ( 'NONE', #549, #380 ) ;
#664 = FACE_OUTER_BOUND ( 'NONE', #6, .T. ) ;
#665 = EDGE_LOOP ( 'NONE', ( #156, #325, #180, #619 ) ) ;
#666 = PERSON_AND_ORGANIZATION ( #578, #492 ) ;
#667 =( LENGTH_UNIT ( ) NAMED_UNIT ( * ) SI_UNIT ( .MILLI., .METRE. ) );
#668 = FACE_OUTER_BOUND ( 'NONE', #332, .T. ) ;
#669 = EDGE_LOOP ( 'NONE', ( #269, #129 ) ) ;
#670 = CARTESIAN_POINT ( 'NONE',  ( -85.00000000000000000, -80.00000000000000000, 0.000000000000000000 ) ) ;
#671 = AXIS2_PLACEMENT_3D ( 'NONE', #541, #322, #529 ) ;
#672 = CIRCLE ( 'NONE', #382, 15.00000000000000000 ) ;
#673 = FACE_OUTER_BOUND ( 'NONE', #433, .T. ) ;
ENDSEC;
END-ISO-10303-21;
