ISO-10303-21;
HEADER;
FILE_DESCRIPTION (( 'STEP AP203' ),
    '1' );
FILE_NAME ('PLATEMillieubas_Défaut_sldprt.STEP',
    '2020-11-29T13:36:54',
    ( '' ),
    ( '' ),
    'SwSTEP 2.0',
    'SolidWorks 2020',
    '' );
FILE_SCHEMA (( 'CONFIG_CONTROL_DESIGN' ));
ENDSEC;

DATA;
#1 = CIRCLE ( 'NONE', #463, 15.00000000000000000 ) ;
#2 = FACE_OUTER_BOUND ( 'NONE', #271, .T. ) ;
#3 = VECTOR ( 'NONE', #510, 1000.000000000000000 ) ;
#4 = FACE_BOUND ( 'NONE', #329, .T. ) ;
#5 = EDGE_LOOP ( 'NONE', ( #707, #650, #668, #406 ) ) ;
#6 = CYLINDRICAL_SURFACE ( 'NONE', #669, 5.000000000000004441 ) ;
#7 = DIRECTION ( 'NONE',  ( -1.000000000000000000, 0.000000000000000000, 0.000000000000000000 ) ) ;
#8 = ORIENTED_EDGE ( 'NONE', *, *, #731, .F. ) ;
#9 = CARTESIAN_POINT ( 'NONE',  ( -80.00000000000000000, -80.00000000000000000, 0.000000000000000000 ) ) ;
#10 = EDGE_CURVE ( 'NONE', #104, #787, #750, .T. ) ;
#11 = AXIS2_PLACEMENT_3D ( 'NONE', #234, #546, #113 ) ;
#12 = AXIS2_PLACEMENT_3D ( 'NONE', #762, #457, #75 ) ;
#13 = CALENDAR_DATE ( 2020, 29, 11 ) ;
#14 = VECTOR ( 'NONE', #676, 1000.000000000000000 ) ;
#15 = DIRECTION ( 'NONE',  ( 0.000000000000000000, 0.000000000000000000, -1.000000000000000000 ) ) ;
#16 = PLANE ( 'NONE',  #240 ) ;
#17 = APPROVAL_STATUS ( 'not_yet_approved' ) ;
#18 = EDGE_CURVE ( 'NONE', #515, #677, #379, .T. ) ;
#19 = DIRECTION ( 'NONE',  ( 0.000000000000000000, 0.000000000000000000, -1.000000000000000000 ) ) ;
#20 = ORIENTED_EDGE ( 'NONE', *, *, #679, .T. ) ;
#21 = DIRECTION ( 'NONE',  ( -1.000000000000000000, 0.000000000000000000, 0.000000000000000000 ) ) ;
#22 = CARTESIAN_POINT ( 'NONE',  ( 5.000000000000000888, 25.00000000000000000, 0.000000000000000000 ) ) ;
#23 = AXIS2_PLACEMENT_3D ( 'NONE', #717, #503, #88 ) ;
#24 = CARTESIAN_POINT ( 'NONE',  ( -85.00000000000000000, -80.00000000000000000, 7.000000000000000000 ) ) ;
#25 = DIRECTION ( 'NONE',  ( 1.000000000000000000, 0.000000000000000000, 0.000000000000000000 ) ) ;
#26 = VECTOR ( 'NONE', #116, 1000.000000000000000 ) ;
#27 =( NAMED_UNIT ( * ) PLANE_ANGLE_UNIT ( ) SI_UNIT ( $, .RADIAN. ) );
#28 = AXIS2_PLACEMENT_3D ( 'NONE', #736, #34, #661 ) ;
#29 = CARTESIAN_POINT ( 'NONE',  ( 0.000000000000000000, 25.00000000000000000, 7.000000000000000000 ) ) ;
#30 = ORIENTED_EDGE ( 'NONE', *, *, #665, .F. ) ;
#31 = FACE_OUTER_BOUND ( 'NONE', #262, .T. ) ;
#32 = CARTESIAN_POINT ( 'NONE',  ( 85.00000000000000000, -80.00000000000000000, 0.000000000000000000 ) ) ;
#33 = VERTEX_POINT ( 'NONE', #615 ) ;
#34 = DIRECTION ( 'NONE',  ( -0.000000000000000000, -0.000000000000000000, -1.000000000000000000 ) ) ;
#35 = VERTEX_POINT ( 'NONE', #623 ) ;
#36 = FACE_OUTER_BOUND ( 'NONE', #730, .T. ) ;
#37 = ORIENTED_EDGE ( 'NONE', *, *, #547, .F. ) ;
#38 = VERTEX_POINT ( 'NONE', #383 ) ;
#39 = CARTESIAN_POINT ( 'NONE',  ( -80.00000000000000000, -80.00000000000000000, 7.000000000000000000 ) ) ;
#40 = VECTOR ( 'NONE', #448, 1000.000000000000000 ) ;
#41 = CIRCLE ( 'NONE', #51, 5.000000000000000888 ) ;
#42 = PLANE ( 'NONE',  #283 ) ;
#43 = CC_DESIGN_APPROVAL ( #625, ( #212 ) ) ;
#44 = VERTEX_POINT ( 'NONE', #559 ) ;
#45 = VERTEX_POINT ( 'NONE', #57 ) ;
#46 = DIRECTION ( 'NONE',  ( 0.000000000000000000, 0.000000000000000000, -1.000000000000000000 ) ) ;
#47 = ADVANCED_FACE ( 'NONE', ( #187 ), #308, .F. ) ;
#48 = VERTEX_POINT ( 'NONE', #121 ) ;
#49 = LINE ( 'NONE', #180, #73 ) ;
#50 = CARTESIAN_POINT ( 'NONE',  ( 80.00000000000000000, 79.99999999999998579, 0.000000000000000000 ) ) ;
#51 = AXIS2_PLACEMENT_3D ( 'NONE', #630, #64, #315 ) ;
#52 = DIRECTION ( 'NONE',  ( -0.000000000000000000, -0.000000000000000000, -1.000000000000000000 ) ) ;
#53 = ORIENTED_EDGE ( 'NONE', *, *, #451, .T. ) ;
#54 = DIRECTION ( 'NONE',  ( -0.000000000000000000, -0.000000000000000000, -1.000000000000000000 ) ) ;
#55 = EDGE_CURVE ( 'NONE', #687, #490, #685, .T. ) ;
#56 = DIRECTION ( 'NONE',  ( -1.000000000000000000, 0.000000000000000000, 0.000000000000000000 ) ) ;
#57 = CARTESIAN_POINT ( 'NONE',  ( -85.00000000000000000, -100.0000000000000000, 7.000000000000000000 ) ) ;
#58 = DIRECTION ( 'NONE',  ( 0.000000000000000000, 0.000000000000000000, -1.000000000000000000 ) ) ;
#59 = FACE_BOUND ( 'NONE', #235, .T. ) ;
#60 = EDGE_LOOP ( 'NONE', ( #169, #158 ) ) ;
#61 = CARTESIAN_POINT ( 'NONE',  ( 84.99999999999998579, 99.99999999999998579, 7.000000000000000000 ) ) ;
#62 = EDGE_CURVE ( 'NONE', #45, #48, #491, .T. ) ;
#63 = CIRCLE ( 'NONE', #488, 5.000000000000004441 ) ;
#64 = DIRECTION ( 'NONE',  ( 0.000000000000000000, 0.000000000000000000, -1.000000000000000000 ) ) ;
#65 = VERTEX_POINT ( 'NONE', #744 ) ;
#66 = LINE ( 'NONE', #318, #3 ) ;
#67 = AXIS2_PLACEMENT_3D ( 'NONE', #557, #751, #126 ) ;
#68 = DIRECTION ( 'NONE',  ( -0.000000000000000000, -0.000000000000000000, 1.000000000000000000 ) ) ;
#69 = VERTEX_POINT ( 'NONE', #170 ) ;
#70 = EDGE_CURVE ( 'NONE', #145, #388, #1, .T. ) ;
#71 = CYLINDRICAL_SURFACE ( 'NONE', #327, 5.000000000000004441 ) ;
#72 = CARTESIAN_POINT ( 'NONE',  ( -85.00000000000000000, 99.99999999999998579, 7.000000000000000000 ) ) ;
#73 = VECTOR ( 'NONE', #799, 1000.000000000000000 ) ;
#74 = CARTESIAN_POINT ( 'NONE',  ( -100.0000000000000000, -100.0000000000000000, 0.000000000000000000 ) ) ;
#75 = DIRECTION ( 'NONE',  ( -1.000000000000000000, 0.000000000000000000, 0.000000000000000000 ) ) ;
#76 = ORIENTED_EDGE ( 'NONE', *, *, #409, .F. ) ;
#77 = AXIS2_PLACEMENT_3D ( 'NONE', #29, #710, #149 ) ;
#78 = DATE_AND_TIME ( #516, #292 ) ;
#79 = ORIENTED_EDGE ( 'NONE', *, *, #485, .T. ) ;
#80 = PERSON_AND_ORGANIZATION ( #610, #82 ) ;
#81 = EDGE_CURVE ( 'NONE', #770, #35, #112, .T. ) ;
#82 = ORGANIZATION ( 'UNSPECIFIED', 'UNSPECIFIED', '' ) ;
#83 = DIRECTION ( 'NONE',  ( 0.000000000000000000, 0.000000000000000000, 1.000000000000000000 ) ) ;
#84 = EDGE_LOOP ( 'NONE', ( #468, #740, #645, #643 ) ) ;
#85 = LINE ( 'NONE', #336, #593 ) ;
#86 = DIRECTION ( 'NONE',  ( 1.000000000000000000, -6.938893903907228378E-17, 0.000000000000000000 ) ) ;
#87 = VERTEX_POINT ( 'NONE', #354 ) ;
#88 = DIRECTION ( 'NONE',  ( 1.000000000000000000, 0.000000000000000000, 0.000000000000000000 ) ) ;
#89 = EDGE_CURVE ( 'NONE', #356, #479, #208, .T. ) ;
#90 = DIRECTION ( 'NONE',  ( -0.000000000000000000, -0.000000000000000000, -1.000000000000000000 ) ) ;
#91 = ORIENTED_EDGE ( 'NONE', *, *, #131, .T. ) ;
#92 = DIRECTION ( 'NONE',  ( 0.000000000000000000, -0.000000000000000000, -1.000000000000000000 ) ) ;
#93 = EDGE_LOOP ( 'NONE', ( #364, #660, #289, #132 ) ) ;
#94 = ADVANCED_FACE ( 'NONE', ( #613 ), #554, .F. ) ;
#95 = ORIENTED_EDGE ( 'NONE', *, *, #70, .T. ) ;
#96 = VERTEX_POINT ( 'NONE', #477 ) ;
#97 = DIRECTION ( 'NONE',  ( -1.000000000000000000, 6.938893903907229610E-17, 0.000000000000000000 ) ) ;
#98 = ADVANCED_FACE ( 'NONE', ( #155 ), #603, .F. ) ;
#99 = ORIENTED_EDGE ( 'NONE', *, *, #511, .F. ) ;
#100 = AXIS2_PLACEMENT_3D ( 'NONE', #159, #524, #206 ) ;
#101 = VERTEX_POINT ( 'NONE', #538 ) ;
#102 = LINE ( 'NONE', #723, #727 ) ;
#103 = ORIENTED_EDGE ( 'NONE', *, *, #570, .T. ) ;
#104 = VERTEX_POINT ( 'NONE', #795 ) ;
#105 = AXIS2_PLACEMENT_3D ( 'NONE', #637, #58, #755 ) ;
#106 = EDGE_CURVE ( 'NONE', #69, #96, #129, .T. ) ;
#107 = VECTOR ( 'NONE', #616, 1000.000000000000000 ) ;
#108 = EDGE_LOOP ( 'NONE', ( #298, #221, #352, #320 ) ) ;
#109 = CYLINDRICAL_SURFACE ( 'NONE', #766, 15.00000000000000000 ) ;
#110 = VECTOR ( 'NONE', #393, 1000.000000000000000 ) ;
#111 = VERTEX_POINT ( 'NONE', #294 ) ;
#112 = LINE ( 'NONE', #232, #107 ) ;
#113 = DIRECTION ( 'NONE',  ( -1.000000000000000000, 0.000000000000000000, 0.000000000000000000 ) ) ;
#114 = CIRCLE ( 'NONE', #220, 15.00000000000000000 ) ;
#115 = CARTESIAN_POINT ( 'NONE',  ( -5.000000000000000888, 25.00000000000000000, 0.000000000000000000 ) ) ;
#116 = DIRECTION ( 'NONE',  ( -1.000000000000000000, -0.000000000000000000, -0.000000000000000000 ) ) ;
#117 = AXIS2_PLACEMENT_3D ( 'NONE', #119, #260, #764 ) ;
#118 = CARTESIAN_POINT ( 'NONE',  ( 100.0000000000000000, -100.0000000000000142, 7.000000000000000000 ) ) ;
#119 = CARTESIAN_POINT ( 'NONE',  ( 0.000000000000000000, 25.00000000000000000, 0.000000000000000000 ) ) ;
#120 =( NAMED_UNIT ( * ) SI_UNIT ( $, .STERADIAN. ) SOLID_ANGLE_UNIT ( ) );
#121 = CARTESIAN_POINT ( 'NONE',  ( 84.99999999999998579, -100.0000000000000142, 7.000000000000000000 ) ) ;
#122 = DIRECTION ( 'NONE',  ( -0.000000000000000000, -0.000000000000000000, -1.000000000000000000 ) ) ;
#123 = EDGE_CURVE ( 'NONE', #724, #87, #550, .T. ) ;
#124 = DIRECTION ( 'NONE',  ( -0.000000000000000000, -0.000000000000000000, -1.000000000000000000 ) ) ;
#125 = ORIENTED_EDGE ( 'NONE', *, *, #18, .F. ) ;
#126 = DIRECTION ( 'NONE',  ( 1.000000000000000000, 0.000000000000000000, 0.000000000000000000 ) ) ;
#127 = EDGE_CURVE ( 'NONE', #65, #655, #567, .T. ) ;
#128 = DIRECTION ( 'NONE',  ( 1.000000000000000000, 0.000000000000000000, 0.000000000000000000 ) ) ;
#129 = CIRCLE ( 'NONE', #700, 5.000000000000004441 ) ;
#130 = CARTESIAN_POINT ( 'NONE',  ( 5.000000000000000888, 25.00000000000000000, 7.000000000000000000 ) ) ;
#131 = EDGE_CURVE ( 'NONE', #479, #356, #672, .T. ) ;
#132 = ORIENTED_EDGE ( 'NONE', *, *, #363, .T. ) ;
#133 = CARTESIAN_POINT ( 'NONE',  ( -80.00000000000000000, 79.99999999999998579, 7.000000000000000000 ) ) ;
#134 = FACE_OUTER_BOUND ( 'NONE', #152, .T. ) ;
#135 = AXIS2_PLACEMENT_3D ( 'NONE', #326, #272, #714 ) ;
#136 = EDGE_CURVE ( 'NONE', #687, #479, #66, .T. ) ;
#137 = APPROVAL_DATE_TIME ( #392, #625 ) ;
#138 = EDGE_CURVE ( 'NONE', #787, #101, #255, .T. ) ;
#139 = ORIENTED_EDGE ( 'NONE', *, *, #106, .T. ) ;
#140 = FACE_OUTER_BOUND ( 'NONE', #587, .T. ) ;
#141 = VECTOR ( 'NONE', #151, 1000.000000000000000 ) ;
#142 = COORDINATED_UNIVERSAL_TIME_OFFSET ( 1, 0, .AHEAD. ) ;
#143 = UNCERTAINTY_MEASURE_WITH_UNIT (LENGTH_MEASURE( 1.000000000000000082E-05 ), #382, 'distance_accuracy_value', 'NONE');
#144 = CYLINDRICAL_SURFACE ( 'NONE', #820, 15.00000000000000000 ) ;
#145 = VERTEX_POINT ( 'NONE', #818 ) ;
#146 = CARTESIAN_POINT ( 'NONE',  ( -85.00000000000000000, 84.99999999999998579, 0.000000000000000000 ) ) ;
#147 = DIRECTION ( 'NONE',  ( -1.000000000000000000, 0.000000000000000000, 0.000000000000000000 ) ) ;
#148 = COORDINATED_UNIVERSAL_TIME_OFFSET ( 1, 0, .AHEAD. ) ;
#149 = DIRECTION ( 'NONE',  ( -1.000000000000000000, 0.000000000000000000, 0.000000000000000000 ) ) ;
#150 = EDGE_CURVE ( 'NONE', #33, #595, #783, .T. ) ;
#151 = DIRECTION ( 'NONE',  ( -0.000000000000000000, -0.000000000000000000, 1.000000000000000000 ) ) ;
#152 = EDGE_LOOP ( 'NONE', ( #705, #423, #743, #426, #602, #539, #472, #801 ) ) ;
#153 = VECTOR ( 'NONE', #586, 1000.000000000000000 ) ;
#154 = EDGE_LOOP ( 'NONE', ( #532, #293, #748, #183 ) ) ;
#155 = FACE_OUTER_BOUND ( 'NONE', #108, .T. ) ;
#156 = VECTOR ( 'NONE', #683, 1000.000000000000000 ) ;
#157 = ORIENTED_EDGE ( 'NONE', *, *, #409, .T. ) ;
#158 = ORIENTED_EDGE ( 'NONE', *, *, #274, .T. ) ;
#159 = CARTESIAN_POINT ( 'NONE',  ( 80.00000000000000000, -80.00000000000000000, 7.000000000000000000 ) ) ;
#160 = APPROVAL_ROLE ( '' ) ;
#161 = EDGE_LOOP ( 'NONE', ( #612, #475, #237, #192, #575, #95, #215, #157 ) ) ;
#162 = EDGE_CURVE ( 'NONE', #655, #33, #811, .T. ) ;
#163 = CARTESIAN_POINT ( 'NONE',  ( -100.0000000000000000, 84.99999999999998579, 7.000000000000000000 ) ) ;
#164 = ORIENTED_EDGE ( 'NONE', *, *, #594, .F. ) ;
#165 = ORIENTED_EDGE ( 'NONE', *, *, #136, .F. ) ;
#166 = AXIS2_PLACEMENT_3D ( 'NONE', #642, #387, #774 ) ;
#167 = AXIS2_PLACEMENT_3D ( 'NONE', #473, #531, #430 ) ;
#168 = CARTESIAN_POINT ( 'NONE',  ( -100.0000000000000000, 84.99999999999998579, 0.000000000000000000 ) ) ;
#169 = ORIENTED_EDGE ( 'NONE', *, *, #299, .T. ) ;
#170 = CARTESIAN_POINT ( 'NONE',  ( -75.00000000000000000, -80.00000000000000000, 7.000000000000000000 ) ) ;
#171 = ORIENTED_EDGE ( 'NONE', *, *, #663, .F. ) ;
#172 = DIRECTION ( 'NONE',  ( 1.000000000000000000, 0.000000000000000000, 0.000000000000000000 ) ) ;
#173 = CARTESIAN_POINT ( 'NONE',  ( -100.0000000000000000, 99.99999999999998579, 7.000000000000000000 ) ) ;
#174 = DIRECTION ( 'NONE',  ( 0.000000000000000000, 0.000000000000000000, 1.000000000000000000 ) ) ;
#175 = CIRCLE ( 'NONE', #417, 15.00000000000000000 ) ;
#176 = ADVANCED_FACE ( 'NONE', ( #380 ), #6, .F. ) ;
#177 = CARTESIAN_POINT ( 'NONE',  ( 100.0000000000000000, -85.00000000000001421, 7.000000000000000000 ) ) ;
#178 = CARTESIAN_POINT ( 'NONE',  ( 0.000000000000000000, -25.00000000000000000, 7.000000000000000000 ) ) ;
#179 = VECTOR ( 'NONE', #68, 1000.000000000000000 ) ;
#180 = CARTESIAN_POINT ( 'NONE',  ( -5.000000000000000888, -25.00000000000000000, 10.00000000000000000 ) ) ;
#181 = AXIS2_PLACEMENT_3D ( 'NONE', #817, #249, #688 ) ;
#182 = CC_DESIGN_PERSON_AND_ORGANIZATION_ASSIGNMENT ( #335, #636, ( #212 ) ) ;
#183 = ORIENTED_EDGE ( 'NONE', *, *, #89, .F. ) ;
#184 = DIRECTION ( 'NONE',  ( -0.000000000000000000, -0.000000000000000000, -1.000000000000000000 ) ) ;
#185 = LINE ( 'NONE', #72, #179 ) ;
#186 = ORIENTED_EDGE ( 'NONE', *, *, #438, .F. ) ;
#187 = FACE_OUTER_BOUND ( 'NONE', #302, .T. ) ;
#188 = DIRECTION ( 'NONE',  ( 0.000000000000000000, 0.000000000000000000, -1.000000000000000000 ) ) ;
#189 = ADVANCED_FACE ( 'NONE', ( #634 ), #375, .F. ) ;
#190 = CARTESIAN_POINT ( 'NONE',  ( 84.99999999999998579, -100.0000000000000142, 7.000000000000000000 ) ) ;
#191 = FACE_BOUND ( 'NONE', #429, .T. ) ;
#192 = ORIENTED_EDGE ( 'NONE', *, *, #438, .T. ) ;
#193 = PERSON_AND_ORGANIZATION_ROLE ( 'creator' ) ;
#194 = CARTESIAN_POINT ( 'NONE',  ( 80.00000000000000000, -80.00000000000000000, 7.000000000000000000 ) ) ;
#195 = AXIS2_PLACEMENT_3D ( 'NONE', #228, #601, #147 ) ;
#196 = FACE_BOUND ( 'NONE', #60, .T. ) ;
#197 = DATE_TIME_ROLE ( 'creation_date' ) ;
#198 = ORIENTED_EDGE ( 'NONE', *, *, #534, .F. ) ;
#199 = EDGE_CURVE ( 'NONE', #402, #317, #753, .T. ) ;
#200 = EDGE_CURVE ( 'NONE', #388, #722, #699, .T. ) ;
#201 = ORIENTED_EDGE ( 'NONE', *, *, #10, .T. ) ;
#202 = LINE ( 'NONE', #653, #251 ) ;
#203 = DIRECTION ( 'NONE',  ( -0.000000000000000000, -0.000000000000000000, 1.000000000000000000 ) ) ;
#204 = EDGE_LOOP ( 'NONE', ( #399, #549 ) ) ;
#205 = CARTESIAN_POINT ( 'NONE',  ( 100.0000000000000000, -85.00000000000001421, 0.000000000000000000 ) ) ;
#206 = DIRECTION ( 'NONE',  ( 1.000000000000000000, 0.000000000000000000, 0.000000000000000000 ) ) ;
#207 = AXIS2_PLACEMENT_3D ( 'NONE', #596, #779, #355 ) ;
#208 = CIRCLE ( 'NONE', #671, 5.000000000000004441 ) ;
#209 = ORIENTED_EDGE ( 'NONE', *, *, #562, .F. ) ;
#210 = VECTOR ( 'NONE', #236, 1000.000000000000000 ) ;
#211 = FACE_BOUND ( 'NONE', #239, .T. ) ;
#212 = PRODUCT_DEFINITION_FORMATION_WITH_SPECIFIED_SOURCE ( 'ANY', '', #504, .NOT_KNOWN. ) ;
#213 = DIRECTION ( 'NONE',  ( 0.000000000000000000, 0.000000000000000000, -1.000000000000000000 ) ) ;
#214 = DIRECTION ( 'NONE',  ( 0.000000000000000000, 0.000000000000000000, -1.000000000000000000 ) ) ;
#215 = ORIENTED_EDGE ( 'NONE', *, *, #285, .T. ) ;
#216 = FACE_BOUND ( 'NONE', #763, .T. ) ;
#217 = ADVANCED_FACE ( 'NONE', ( #684 ), #620, .F. ) ;
#218 = ORIENTED_EDGE ( 'NONE', *, *, #814, .F. ) ;
#219 = DATE_TIME_ROLE ( 'classification_date' ) ;
#220 = AXIS2_PLACEMENT_3D ( 'NONE', #146, #407, #592 ) ;
#221 = ORIENTED_EDGE ( 'NONE', *, *, #378, .T. ) ;
#222 = DIRECTION ( 'NONE',  ( -0.000000000000000000, -0.000000000000000000, 1.000000000000000000 ) ) ;
#223 = LINE ( 'NONE', #24, #428 ) ;
#224 = VERTEX_POINT ( 'NONE', #571 ) ;
#225 = AXIS2_PLACEMENT_3D ( 'NONE', #447, #122, #313 ) ;
#226 = ORIENTED_EDGE ( 'NONE', *, *, #521, .F. ) ;
#227 = CARTESIAN_POINT ( 'NONE',  ( -100.0000000000000000, -100.0000000000000000, 7.000000000000000000 ) ) ;
#228 = CARTESIAN_POINT ( 'NONE',  ( 0.000000000000000000, 25.00000000000000000, 7.000000000000000000 ) ) ;
#229 = EDGE_CURVE ( 'NONE', #772, #809, #682, .T. ) ;
#230 = CC_DESIGN_SECURITY_CLASSIFICATION ( #609, ( #212 ) ) ;
#231 = EDGE_LOOP ( 'NONE', ( #76, #600, #218, #226 ) ) ;
#232 = CARTESIAN_POINT ( 'NONE',  ( -100.0000000000000000, -100.0000000000000000, 7.000000000000000000 ) ) ;
#233 = ORIENTED_EDGE ( 'NONE', *, *, #55, .T. ) ;
#234 = CARTESIAN_POINT ( 'NONE',  ( -85.00000000000000000, 84.99999999999998579, 7.000000000000000000 ) ) ;
#235 = EDGE_LOOP ( 'NONE', ( #631, #776 ) ) ;
#236 = DIRECTION ( 'NONE',  ( -0.000000000000000000, -1.000000000000000000, -0.000000000000000000 ) ) ;
#237 = ORIENTED_EDGE ( 'NONE', *, *, #62, .T. ) ;
#238 = FACE_OUTER_BOUND ( 'NONE', #84, .T. ) ;
#239 = EDGE_LOOP ( 'NONE', ( #453, #30 ) ) ;
#240 = AXIS2_PLACEMENT_3D ( 'NONE', #454, #257, #693 ) ;
#241 = CARTESIAN_POINT ( 'NONE',  ( 85.00000000000000000, -85.00000000000001421, 7.000000000000000000 ) ) ;
#242 = CARTESIAN_POINT ( 'NONE',  ( 80.00000000000000000, 79.99999999999998579, 0.000000000000000000 ) ) ;
#243 = EDGE_CURVE ( 'NONE', #224, #455, #376, .T. ) ;
#244 = CARTESIAN_POINT ( 'NONE',  ( -80.00000000000000000, -80.00000000000000000, 7.000000000000000000 ) ) ;
#245 = CARTESIAN_POINT ( 'NONE',  ( 100.0000000000000000, -100.0000000000000142, 0.000000000000000000 ) ) ;
#246 =( GEOMETRIC_REPRESENTATION_CONTEXT ( 3 ) GLOBAL_UNCERTAINTY_ASSIGNED_CONTEXT ( ( #143 ) ) GLOBAL_UNIT_ASSIGNED_CONTEXT ( ( #382, #27, #120 ) ) REPRESENTATION_CONTEXT ( 'NONE', 'WORKASPACE' ) );
#247 = DIRECTION ( 'NONE',  ( -0.000000000000000000, -0.000000000000000000, -1.000000000000000000 ) ) ;
#248 = ORIENTED_EDGE ( 'NONE', *, *, #199, .T. ) ;
#249 = DIRECTION ( 'NONE',  ( -0.000000000000000000, -0.000000000000000000, -1.000000000000000000 ) ) ;
#250 = DIRECTION ( 'NONE',  ( 0.000000000000000000, 0.000000000000000000, 1.000000000000000000 ) ) ;
#251 = VECTOR ( 'NONE', #90, 1000.000000000000000 ) ;
#252 = CARTESIAN_POINT ( 'NONE',  ( 75.00000000000000000, 79.99999999999998579, 0.000000000000000000 ) ) ;
#253 = ADVANCED_FACE ( 'NONE', ( #309 ), #560, .F. ) ;
#254 = CARTESIAN_POINT ( 'NONE',  ( 75.00000000000000000, -80.00000000000000000, 7.000000000000000000 ) ) ;
#255 = LINE ( 'NONE', #245, #110 ) ;
#256 = LINE ( 'NONE', #190, #40 ) ;
#257 = DIRECTION ( 'NONE',  ( 0.000000000000000000, 0.000000000000000000, -1.000000000000000000 ) ) ;
#258 = VERTEX_POINT ( 'NONE', #130 ) ;
#259 = PRODUCT_DEFINITION ( 'UNKNOWN', '', #212, #512 ) ;
#260 = DIRECTION ( 'NONE',  ( 0.000000000000000000, 0.000000000000000000, -1.000000000000000000 ) ) ;
#261 = LINE ( 'NONE', #767, #806 ) ;
#262 = EDGE_LOOP ( 'NONE', ( #735, #551, #164, #471 ) ) ;
#263 = DIRECTION ( 'NONE',  ( -0.000000000000000000, -0.000000000000000000, -1.000000000000000000 ) ) ;
#264 = CARTESIAN_POINT ( 'NONE',  ( -80.00000000000000000, -80.00000000000000000, 7.000000000000000000 ) ) ;
#265 = LOCAL_TIME ( 14, 36, 54.00000000000000000, #348 ) ;
#266 = COORDINATED_UNIVERSAL_TIME_OFFSET ( 1, 0, .AHEAD. ) ;
#267 = ORIENTED_EDGE ( 'NONE', *, *, #127, .T. ) ;
#268 = MECHANICAL_CONTEXT ( 'NONE', #692, 'mechanical' ) ;
#269 = DIRECTION ( 'NONE',  ( 6.938893903907229610E-17, 1.000000000000000000, -0.000000000000000000 ) ) ;
#270 = AXIS2_PLACEMENT_3D ( 'NONE', #397, #403, #15 ) ;
#271 = EDGE_LOOP ( 'NONE', ( #280, #139, #464, #466 ) ) ;
#272 = DIRECTION ( 'NONE',  ( 0.000000000000000000, 0.000000000000000000, -1.000000000000000000 ) ) ;
#273 = CIRCLE ( 'NONE', #517, 5.000000000000004441 ) ;
#274 = EDGE_CURVE ( 'NONE', #422, #38, #63, .T. ) ;
#275 = ORIENTED_EDGE ( 'NONE', *, *, #123, .T. ) ;
#276 = CARTESIAN_POINT ( 'NONE',  ( -85.00000000000000000, -100.0000000000000000, 7.000000000000000000 ) ) ;
#277 = ORIENTED_EDGE ( 'NONE', *, *, #432, .T. ) ;
#278 = ORIENTED_EDGE ( 'NONE', *, *, #739, .T. ) ;
#279 = DIRECTION ( 'NONE',  ( 0.000000000000000000, 0.000000000000000000, -1.000000000000000000 ) ) ;
#280 = ORIENTED_EDGE ( 'NONE', *, *, #780, .F. ) ;
#281 = ORIENTED_EDGE ( 'NONE', *, *, #229, .T. ) ;
#282 = DIRECTION ( 'NONE',  ( 1.000000000000000000, -6.938893903907228378E-17, 0.000000000000000000 ) ) ;
#283 = AXIS2_PLACEMENT_3D ( 'NONE', #118, #496, #174 ) ;
#284 = ADVANCED_FACE ( 'NONE', ( #2 ), #71, .F. ) ;
#285 = EDGE_CURVE ( 'NONE', #388, #758, #808, .T. ) ;
#286 = ORIENTED_EDGE ( 'NONE', *, *, #381, .T. ) ;
#287 = DIRECTION ( 'NONE',  ( -1.000000000000000000, 0.000000000000000000, 0.000000000000000000 ) ) ;
#288 = AXIS2_PLACEMENT_3D ( 'NONE', #757, #124, #7 ) ;
#289 = ORIENTED_EDGE ( 'NONE', *, *, #789, .T. ) ;
#290 = DIRECTION ( 'NONE',  ( 1.000000000000000000, 0.000000000000000000, 0.000000000000000000 ) ) ;
#291 = EDGE_LOOP ( 'NONE', ( #565, #53, #703, #720 ) ) ;
#292 = LOCAL_TIME ( 14, 36, 54.00000000000000000, #266 ) ;
#293 = ORIENTED_EDGE ( 'NONE', *, *, #665, .T. ) ;
#294 = CARTESIAN_POINT ( 'NONE',  ( 85.00000000000000000, -80.00000000000000000, 7.000000000000000000 ) ) ;
#295 = ORIENTED_EDGE ( 'NONE', *, *, #138, .T. ) ;
#296 = EDGE_LOOP ( 'NONE', ( #545, #209, #425, #281 ) ) ;
#297 = DIRECTION ( 'NONE',  ( 0.000000000000000000, 0.000000000000000000, 1.000000000000000000 ) ) ;
#298 = ORIENTED_EDGE ( 'NONE', *, *, #381, .F. ) ;
#299 = EDGE_CURVE ( 'NONE', #38, #422, #273, .T. ) ;
#300 = DIRECTION ( 'NONE',  ( 0.000000000000000000, 0.000000000000000000, 1.000000000000000000 ) ) ;
#301 = VECTOR ( 'NONE', #501, 1000.000000000000000 ) ;
#302 = EDGE_LOOP ( 'NONE', ( #99, #371, #278, #530 ) ) ;
#303 = CYLINDRICAL_SURFACE ( 'NONE', #738, 5.000000000000004441 ) ;
#304 = LOCAL_TIME ( 14, 36, 54.00000000000000000, #350 ) ;
#305 = ORIENTED_EDGE ( 'NONE', *, *, #728, .F. ) ;
#306 = CARTESIAN_POINT ( 'NONE',  ( 80.00000000000000000, 79.99999999999998579, 7.000000000000000000 ) ) ;
#307 = DIRECTION ( 'NONE',  ( 0.000000000000000000, 0.000000000000000000, -1.000000000000000000 ) ) ;
#308 = CYLINDRICAL_SURFACE ( 'NONE', #181, 5.000000000000000888 ) ;
#309 = FACE_OUTER_BOUND ( 'NONE', #5, .T. ) ;
#310 = AXIS2_PLACEMENT_3D ( 'NONE', #563, #819, #646 ) ;
#311 = EDGE_CURVE ( 'NONE', #598, #772, #85, .T. ) ;
#312 = ORIENTED_EDGE ( 'NONE', *, *, #562, .T. ) ;
#313 = DIRECTION ( 'NONE',  ( -1.000000000000000000, 0.000000000000000000, 0.000000000000000000 ) ) ;
#314 = CIRCLE ( 'NONE', #781, 15.00000000000000000 ) ;
#315 = DIRECTION ( 'NONE',  ( -1.000000000000000000, 0.000000000000000000, 0.000000000000000000 ) ) ;
#316 = AXIS2_PLACEMENT_3D ( 'NONE', #242, #250, #494 ) ;
#317 = VERTEX_POINT ( 'NONE', #416 ) ;
#318 = CARTESIAN_POINT ( 'NONE',  ( 75.00000000000000000, 79.99999999999998579, 7.000000000000000000 ) ) ;
#319 = CARTESIAN_POINT ( 'NONE',  ( 85.00000000000000000, 79.99999999999998579, 7.000000000000000000 ) ) ;
#320 = ORIENTED_EDGE ( 'NONE', *, *, #311, .F. ) ;
#321 = DIRECTION ( 'NONE',  ( -1.000000000000000000, 0.000000000000000000, 0.000000000000000000 ) ) ;
#322 = CARTESIAN_POINT ( 'NONE',  ( 85.00000000000000000, -85.00000000000001421, 7.000000000000000000 ) ) ;
#323 = CIRCLE ( 'NONE', #791, 5.000000000000004441 ) ;
#324 = PERSON_AND_ORGANIZATION ( #610, #82 ) ;
#325 = ADVANCED_FACE ( 'NONE', ( #401 ), #716, .F. ) ;
#326 = CARTESIAN_POINT ( 'NONE',  ( 0.000000000000000000, 0.000000000000000000, 7.000000000000000000 ) ) ;
#327 = AXIS2_PLACEMENT_3D ( 'NONE', #747, #680, #321 ) ;
#328 = CARTESIAN_POINT ( 'NONE',  ( -5.000000000000000888, -25.00000000000000000, 0.000000000000000000 ) ) ;
#329 = EDGE_LOOP ( 'NONE', ( #506, #277 ) ) ;
#330 = PERSON_AND_ORGANIZATION_ROLE ( 'design_supplier' ) ;
#331 = CYLINDRICAL_SURFACE ( 'NONE', #483, 5.000000000000004441 ) ;
#332 = APPROVAL ( #17, 'UNSPECIFIED' ) ;
#333 = LINE ( 'NONE', #514, #344 ) ;
#334 = EDGE_LOOP ( 'NONE', ( #275, #544, #639, #533 ) ) ;
#335 = PERSON_AND_ORGANIZATION ( #610, #82 ) ;
#336 = CARTESIAN_POINT ( 'NONE',  ( -5.000000000000000888, 25.00000000000000000, 10.00000000000000000 ) ) ;
#337 = FACE_BOUND ( 'NONE', #204, .T. ) ;
#338 = EDGE_CURVE ( 'NONE', #96, #69, #360, .T. ) ;
#339 = DIRECTION ( 'NONE',  ( -0.000000000000000000, -0.000000000000000000, -1.000000000000000000 ) ) ;
#340 = DIRECTION ( 'NONE',  ( -0.000000000000000000, -0.000000000000000000, -1.000000000000000000 ) ) ;
#341 = VECTOR ( 'NONE', #365, 1000.000000000000000 ) ;
#342 = ORIENTED_EDGE ( 'NONE', *, *, #243, .T. ) ;
#343 = DIRECTION ( 'NONE',  ( -0.000000000000000000, -0.000000000000000000, -1.000000000000000000 ) ) ;
#344 = VECTOR ( 'NONE', #522, 1000.000000000000000 ) ;
#345 = CC_DESIGN_PERSON_AND_ORGANIZATION_ASSIGNMENT ( #695, #193, ( #259 ) ) ;
#346 = VECTOR ( 'NONE', #282, 1000.000000000000000 ) ;
#347 = ORIENTED_EDGE ( 'NONE', *, *, #731, .T. ) ;
#348 = COORDINATED_UNIVERSAL_TIME_OFFSET ( 1, 0, .AHEAD. ) ;
#349 = DIRECTION ( 'NONE',  ( -1.000000000000000000, 0.000000000000000000, 0.000000000000000000 ) ) ;
#350 = COORDINATED_UNIVERSAL_TIME_OFFSET ( 1, 0, .AHEAD. ) ;
#351 = EDGE_CURVE ( 'NONE', #722, #44, #502, .T. ) ;
#352 = ORIENTED_EDGE ( 'NONE', *, *, #534, .T. ) ;
#353 = EDGE_CURVE ( 'NONE', #455, #224, #41, .T. ) ;
#354 = CARTESIAN_POINT ( 'NONE',  ( -100.0000000000000000, -85.00000000000000000, 0.000000000000000000 ) ) ;
#355 = DIRECTION ( 'NONE',  ( 1.000000000000000000, 0.000000000000000000, 0.000000000000000000 ) ) ;
#356 = VERTEX_POINT ( 'NONE', #702 ) ;
#357 = DIRECTION ( 'NONE',  ( 0.000000000000000000, -0.000000000000000000, -1.000000000000000000 ) ) ;
#358 = FACE_OUTER_BOUND ( 'NONE', #231, .T. ) ;
#359 = CALENDAR_DATE ( 2020, 29, 11 ) ;
#360 = CIRCLE ( 'NONE', #796, 5.000000000000004441 ) ;
#361 = VERTEX_POINT ( 'NONE', #761 ) ;
#362 = VECTOR ( 'NONE', #389, 1000.000000000000000 ) ;
#363 = EDGE_CURVE ( 'NONE', #361, #48, #256, .T. ) ;
#364 = ORIENTED_EDGE ( 'NONE', *, *, #62, .F. ) ;
#365 = DIRECTION ( 'NONE',  ( 0.000000000000000000, 1.000000000000000000, 0.000000000000000000 ) ) ;
#366 = ORIENTED_EDGE ( 'NONE', *, *, #243, .F. ) ;
#367 = ORIENTED_EDGE ( 'NONE', *, *, #580, .F. ) ;
#368 = ADVANCED_FACE ( 'NONE', ( #31 ), #528, .T. ) ;
#369 = DIRECTION ( 'NONE',  ( -1.000000000000000000, 0.000000000000000000, 0.000000000000000000 ) ) ;
#370 = AXIS2_PLACEMENT_3D ( 'NONE', #715, #411, #651 ) ;
#371 = ORIENTED_EDGE ( 'NONE', *, *, #199, .F. ) ;
#372 = LINE ( 'NONE', #526, #617 ) ;
#373 = CC_DESIGN_PERSON_AND_ORGANIZATION_ASSIGNMENT ( #711, #721, ( #609 ) ) ;
#374 = ORIENTED_EDGE ( 'NONE', *, *, #690, .T. ) ;
#375 = CYLINDRICAL_SURFACE ( 'NONE', #225, 5.000000000000000888 ) ;
#376 = CIRCLE ( 'NONE', #105, 5.000000000000000888 ) ;
#377 = CARTESIAN_POINT ( 'NONE',  ( -80.00000000000000000, 79.99999999999998579, 7.000000000000000000 ) ) ;
#378 = EDGE_CURVE ( 'NONE', #258, #809, #202, .T. ) ;
#379 = LINE ( 'NONE', #254, #14 ) ;
#380 = FACE_OUTER_BOUND ( 'NONE', #804, .T. ) ;
#381 = EDGE_CURVE ( 'NONE', #258, #598, #618, .T. ) ;
#382 =( LENGTH_UNIT ( ) NAMED_UNIT ( * ) SI_UNIT ( .MILLI., .METRE. ) );
#383 = CARTESIAN_POINT ( 'NONE',  ( -85.00000000000000000, -80.00000000000000000, 0.000000000000000000 ) ) ;
#384 = CARTESIAN_POINT ( 'NONE',  ( -80.00000000000000000, -80.00000000000000000, 0.000000000000000000 ) ) ;
#385 = PRODUCT_DEFINITION_SHAPE ( 'NONE', 'NONE',  #259 ) ;
#386 = DIRECTION ( 'NONE',  ( -1.000000000000000000, -0.000000000000000000, -0.000000000000000000 ) ) ;
#387 = DIRECTION ( 'NONE',  ( 0.000000000000000000, 0.000000000000000000, 1.000000000000000000 ) ) ;
#388 = VERTEX_POINT ( 'NONE', #418 ) ;
#389 = DIRECTION ( 'NONE',  ( -0.000000000000000000, -0.000000000000000000, -1.000000000000000000 ) ) ;
#390 = CARTESIAN_POINT ( 'NONE',  ( -75.00000000000000000, -80.00000000000000000, 0.000000000000000000 ) ) ;
#391 = ORIENTED_EDGE ( 'NONE', *, *, #127, .F. ) ;
#392 = DATE_AND_TIME ( #13, #408 ) ;
#393 = DIRECTION ( 'NONE',  ( 0.000000000000000000, 1.000000000000000000, 0.000000000000000000 ) ) ;
#394 = DIRECTION ( 'NONE',  ( -0.000000000000000000, -0.000000000000000000, 1.000000000000000000 ) ) ;
#395 = ADVANCED_FACE ( 'NONE', ( #706, #191, #196, #452, #134, #4, #582 ), #16, .T. ) ;
#396 = ORIENTED_EDGE ( 'NONE', *, *, #150, .T. ) ;
#397 = CARTESIAN_POINT ( 'NONE',  ( -100.0000000000000000, -100.0000000000000000, 7.000000000000000000 ) ) ;
#398 = CARTESIAN_POINT ( 'NONE',  ( 80.00000000000000000, -80.00000000000000000, 0.000000000000000000 ) ) ;
#399 = ORIENTED_EDGE ( 'NONE', *, *, #812, .F. ) ;
#400 = PERSON_AND_ORGANIZATION ( #610, #82 ) ;
#401 = FACE_OUTER_BOUND ( 'NONE', #519, .T. ) ;
#402 = VERTEX_POINT ( 'NONE', #509 ) ;
#403 = DIRECTION ( 'NONE',  ( 1.000000000000000000, 0.000000000000000000, 0.000000000000000000 ) ) ;
#404 = AXIS2_PLACEMENT_3D ( 'NONE', #306, #624, #440 ) ;
#405 = AXIS2_PLACEMENT_3D ( 'NONE', #638, #340, #21 ) ;
#406 = ORIENTED_EDGE ( 'NONE', *, *, #432, .F. ) ;
#407 = DIRECTION ( 'NONE',  ( 0.000000000000000000, 0.000000000000000000, -1.000000000000000000 ) ) ;
#408 = LOCAL_TIME ( 14, 36, 54.00000000000000000, #142 ) ;
#409 = EDGE_CURVE ( 'NONE', #758, #770, #541, .T. ) ;
#410 = CARTESIAN_POINT ( 'NONE',  ( 84.99999999999998579, 84.99999999999998579, 7.000000000000000000 ) ) ;
#411 = DIRECTION ( 'NONE',  ( -0.000000000000000000, -0.000000000000000000, 1.000000000000000000 ) ) ;
#412 = ORIENTED_EDGE ( 'NONE', *, *, #520, .F. ) ;
#413 = APPLICATION_PROTOCOL_DEFINITION ( 'international standard', 'config_control_design', 1994, #692 ) ;
#414 = CARTESIAN_POINT ( 'NONE',  ( 84.99999999999998579, 84.99999999999998579, 0.000000000000000000 ) ) ;
#415 = CALENDAR_DATE ( 2020, 29, 11 ) ;
#416 = CARTESIAN_POINT ( 'NONE',  ( 5.000000000000000888, -25.00000000000000000, 7.000000000000000000 ) ) ;
#417 = AXIS2_PLACEMENT_3D ( 'NONE', #813, #810, #611 ) ;
#418 = CARTESIAN_POINT ( 'NONE',  ( 84.99999999999998579, 99.99999999999998579, 7.000000000000000000 ) ) ;
#419 = AXIS2_PLACEMENT_3D ( 'NONE', #178, #188, #696 ) ;
#420 = ORIENTED_EDGE ( 'NONE', *, *, #131, .F. ) ;
#421 = AXIS2_PLACEMENT_3D ( 'NONE', #662, #269, #97 ) ;
#422 = VERTEX_POINT ( 'NONE', #390 ) ;
#423 = ORIENTED_EDGE ( 'NONE', *, *, #728, .T. ) ;
#424 = LINE ( 'NONE', #276, #153 ) ;
#425 = ORIENTED_EDGE ( 'NONE', *, *, #311, .T. ) ;
#426 = ORIENTED_EDGE ( 'NONE', *, *, #814, .T. ) ;
#427 = CARTESIAN_POINT ( 'NONE',  ( 84.99999999999998579, 99.99999999999998579, 0.000000000000000000 ) ) ;
#428 = VECTOR ( 'NONE', #339, 1000.000000000000000 ) ;
#429 = EDGE_LOOP ( 'NONE', ( #573, #198 ) ) ;
#430 = DIRECTION ( 'NONE',  ( 1.000000000000000000, 0.000000000000000000, 0.000000000000000000 ) ) ;
#431 = AXIS2_PLACEMENT_3D ( 'NONE', #443, #508, #760 ) ;
#432 = EDGE_CURVE ( 'NONE', #591, #677, #741, .T. ) ;
#433 = CARTESIAN_POINT ( 'NONE',  ( 75.00000000000000000, -80.00000000000000000, 0.000000000000000000 ) ) ;
#434 = CARTESIAN_POINT ( 'NONE',  ( 84.99999999999998579, 84.99999999999998579, 7.000000000000000000 ) ) ;
#435 = DIRECTION ( 'NONE',  ( -1.000000000000000000, 0.000000000000000000, 0.000000000000000000 ) ) ;
#436 = DIRECTION ( 'NONE',  ( -1.000000000000000000, 0.000000000000000000, 0.000000000000000000 ) ) ;
#437 = CARTESIAN_POINT ( 'NONE',  ( 0.000000000000000000, -25.00000000000000000, 7.000000000000000000 ) ) ;
#438 = EDGE_CURVE ( 'NONE', #48, #104, #657, .T. ) ;
#439 = EDGE_CURVE ( 'NONE', #111, #591, #333, .T. ) ;
#440 = DIRECTION ( 'NONE',  ( -1.000000000000000000, 0.000000000000000000, 0.000000000000000000 ) ) ;
#441 = AXIS2_PLACEMENT_3D ( 'NONE', #410, #213, #581 ) ;
#442 = DIRECTION ( 'NONE',  ( -1.000000000000000000, 0.000000000000000000, 0.000000000000000000 ) ) ;
#443 = CARTESIAN_POINT ( 'NONE',  ( -80.00000000000000000, 79.99999999999998579, 0.000000000000000000 ) ) ;
#444 = PERSON_AND_ORGANIZATION_ROLE ( 'design_owner' ) ;
#445 = CARTESIAN_POINT ( 'NONE',  ( 100.0000000000000000, 84.99999999999997158, 7.000000000000000000 ) ) ;
#446 = ORIENTED_EDGE ( 'NONE', *, *, #150, .F. ) ;
#447 = CARTESIAN_POINT ( 'NONE',  ( 0.000000000000000000, 25.00000000000000000, 10.00000000000000000 ) ) ;
#448 = DIRECTION ( 'NONE',  ( -0.000000000000000000, -0.000000000000000000, 1.000000000000000000 ) ) ;
#449 = DIRECTION ( 'NONE',  ( -1.000000000000000000, 0.000000000000000000, 0.000000000000000000 ) ) ;
#450 = AXIS2_PLACEMENT_3D ( 'NONE', #786, #214, #797 ) ;
#451 = EDGE_CURVE ( 'NONE', #44, #758, #185, .T. ) ;
#452 = FACE_BOUND ( 'NONE', #569, .T. ) ;
#453 = ORIENTED_EDGE ( 'NONE', *, *, #55, .F. ) ;
#454 = CARTESIAN_POINT ( 'NONE',  ( 0.000000000000000000, 0.000000000000000000, 0.000000000000000000 ) ) ;
#455 = VERTEX_POINT ( 'NONE', #328 ) ;
#456 = APPROVAL_DATE_TIME ( #633, #332 ) ;
#457 = DIRECTION ( 'NONE',  ( -0.000000000000000000, -0.000000000000000000, 1.000000000000000000 ) ) ;
#458 = CIRCLE ( 'NONE', #100, 5.000000000000004441 ) ;
#459 = DIRECTION ( 'NONE',  ( 1.000000000000000000, 0.000000000000000000, 0.000000000000000000 ) ) ;
#460 = EDGE_CURVE ( 'NONE', #677, #591, #647, .T. ) ;
#461 = CIRCLE ( 'NONE', #195, 5.000000000000000888 ) ;
#462 = CARTESIAN_POINT ( 'NONE',  ( -75.00000000000000000, 79.99999999999998579, 7.000000000000000000 ) ) ;
#463 = AXIS2_PLACEMENT_3D ( 'NONE', #434, #222, #369 ) ;
#464 = ORIENTED_EDGE ( 'NONE', *, *, #604, .T. ) ;
#465 = SHAPE_DEFINITION_REPRESENTATION ( #385, #542 ) ;
#466 = ORIENTED_EDGE ( 'NONE', *, *, #274, .F. ) ;
#467 = DIRECTION ( 'NONE',  ( -1.000000000000000000, 0.000000000000000000, 0.000000000000000000 ) ) ;
#468 = ORIENTED_EDGE ( 'NONE', *, *, #338, .T. ) ;
#469 = DIRECTION ( 'NONE',  ( -0.000000000000000000, -0.000000000000000000, -1.000000000000000000 ) ) ;
#470 = PERSON_AND_ORGANIZATION ( #610, #82 ) ;
#471 = ORIENTED_EDGE ( 'NONE', *, *, #200, .F. ) ;
#472 = ORIENTED_EDGE ( 'NONE', *, *, #138, .F. ) ;
#473 = CARTESIAN_POINT ( 'NONE',  ( 80.00000000000000000, 79.99999999999998579, 7.000000000000000000 ) ) ;
#474 = FACE_OUTER_BOUND ( 'NONE', #93, .T. ) ;
#475 = ORIENTED_EDGE ( 'NONE', *, *, #663, .T. ) ;
#476 = ORIENTED_EDGE ( 'NONE', *, *, #739, .F. ) ;
#477 = CARTESIAN_POINT ( 'NONE',  ( -85.00000000000000000, -80.00000000000000000, 7.000000000000000000 ) ) ;
#478 = CC_DESIGN_APPROVAL ( #574, ( #609 ) ) ;
#479 = VERTEX_POINT ( 'NONE', #252 ) ;
#480 = CARTESIAN_POINT ( 'NONE',  ( -85.00000000000000000, -85.00000000000000000, 7.000000000000000000 ) ) ;
#481 = DATE_AND_TIME ( #415, #556 ) ;
#482 = ORIENTED_EDGE ( 'NONE', *, *, #712, .F. ) ;
#483 = AXIS2_PLACEMENT_3D ( 'NONE', #133, #579, #467 ) ;
#484 = ORIENTED_EDGE ( 'NONE', *, *, #89, .T. ) ;
#485 = EDGE_CURVE ( 'NONE', #101, #145, #505, .T. ) ;
#486 = CIRCLE ( 'NONE', #765, 15.00000000000000000 ) ;
#487 = CARTESIAN_POINT ( 'NONE',  ( -85.00000000000000000, -100.0000000000000000, 0.000000000000000000 ) ) ;
#488 = AXIS2_PLACEMENT_3D ( 'NONE', #384, #627, #566 ) ;
#489 = EDGE_LOOP ( 'NONE', ( #608, #366 ) ) ;
#490 = VERTEX_POINT ( 'NONE', #319 ) ;
#491 = LINE ( 'NONE', #227, #346 ) ;
#492 = DIRECTION ( 'NONE',  ( 0.000000000000000000, 0.000000000000000000, -1.000000000000000000 ) ) ;
#493 = EDGE_LOOP ( 'NONE', ( #347, #396 ) ) ;
#494 = DIRECTION ( 'NONE',  ( 1.000000000000000000, 0.000000000000000000, 0.000000000000000000 ) ) ;
#495 = ADVANCED_FACE ( 'NONE', ( #572 ), #576, .F. ) ;
#496 = DIRECTION ( 'NONE',  ( -1.000000000000000000, 0.000000000000000000, 0.000000000000000000 ) ) ;
#497 = CARTESIAN_POINT ( 'NONE',  ( 80.00000000000000000, 79.99999999999998579, 7.000000000000000000 ) ) ;
#498 = DIRECTION ( 'NONE',  ( -0.000000000000000000, -0.000000000000000000, -1.000000000000000000 ) ) ;
#499 = CC_DESIGN_DATE_AND_TIME_ASSIGNMENT ( #481, #219, ( #609 ) ) ;
#500 = VECTOR ( 'NONE', #394, 1000.000000000000000 ) ;
#501 = DIRECTION ( 'NONE',  ( 0.000000000000000000, 0.000000000000000000, -1.000000000000000000 ) ) ;
#502 = LINE ( 'NONE', #628, #605 ) ;
#503 = DIRECTION ( 'NONE',  ( 0.000000000000000000, 0.000000000000000000, 1.000000000000000000 ) ) ;
#504 = PRODUCT ( 'PLATEMillieubas_Défaut_sldprt', 'PLATEMillieubas_Défaut_sldprt', '', ( #268 ) ) ;
#505 = LINE ( 'NONE', #445, #500 ) ;
#506 = ORIENTED_EDGE ( 'NONE', *, *, #460, .T. ) ;
#507 = APPROVAL_PERSON_ORGANIZATION ( #667, #574, #160 ) ;
#508 = DIRECTION ( 'NONE',  ( 0.000000000000000000, 0.000000000000000000, 1.000000000000000000 ) ) ;
#509 = CARTESIAN_POINT ( 'NONE',  ( -5.000000000000000888, -25.00000000000000000, 7.000000000000000000 ) ) ;
#510 = DIRECTION ( 'NONE',  ( -0.000000000000000000, -0.000000000000000000, -1.000000000000000000 ) ) ;
#511 = EDGE_CURVE ( 'NONE', #317, #224, #261, .T. ) ;
#512 = DESIGN_CONTEXT ( 'detailed design', #540, 'design' ) ;
#513 = CIRCLE ( 'NONE', #370, 15.00000000000000000 ) ;
#514 = CARTESIAN_POINT ( 'NONE',  ( 85.00000000000000000, -80.00000000000000000, 7.000000000000000000 ) ) ;
#515 = VERTEX_POINT ( 'NONE', #518 ) ;
#516 = CALENDAR_DATE ( 2020, 29, 11 ) ;
#517 = AXIS2_PLACEMENT_3D ( 'NONE', #9, #775, #459 ) ;
#518 = CARTESIAN_POINT ( 'NONE',  ( 75.00000000000000000, -80.00000000000000000, 7.000000000000000000 ) ) ;
#519 = EDGE_LOOP ( 'NONE', ( #794, #785, #768, #125 ) ) ;
#520 = EDGE_CURVE ( 'NONE', #45, #713, #424, .T. ) ;
#521 = EDGE_CURVE ( 'NONE', #770, #724, #102, .T. ) ;
#522 = DIRECTION ( 'NONE',  ( -0.000000000000000000, -0.000000000000000000, -1.000000000000000000 ) ) ;
#523 = APPROVAL_ROLE ( '' ) ;
#524 = DIRECTION ( 'NONE',  ( 0.000000000000000000, 0.000000000000000000, 1.000000000000000000 ) ) ;
#525 = VECTOR ( 'NONE', #52, 1000.000000000000000 ) ;
#526 = CARTESIAN_POINT ( 'NONE',  ( -75.00000000000000000, -80.00000000000000000, 7.000000000000000000 ) ) ;
#527 = CIRCLE ( 'NONE', #450, 5.000000000000000888 ) ;
#528 = CYLINDRICAL_SURFACE ( 'NONE', #441, 15.00000000000000000 ) ;
#529 = CARTESIAN_POINT ( 'NONE',  ( -100.0000000000000000, -85.00000000000000000, 7.000000000000000000 ) ) ;
#530 = ORIENTED_EDGE ( 'NONE', *, *, #353, .T. ) ;
#531 = DIRECTION ( 'NONE',  ( 0.000000000000000000, 0.000000000000000000, 1.000000000000000000 ) ) ;
#532 = ORIENTED_EDGE ( 'NONE', *, *, #690, .F. ) ;
#533 = ORIENTED_EDGE ( 'NONE', *, *, #521, .T. ) ;
#534 = EDGE_CURVE ( 'NONE', #809, #772, #527, .T. ) ;
#535 = DIRECTION ( 'NONE',  ( -0.000000000000000000, -0.000000000000000000, -1.000000000000000000 ) ) ;
#536 = EDGE_LOOP ( 'NONE', ( #652, #798, #342, #476 ) ) ;
#537 = ORIENTED_EDGE ( 'NONE', *, *, #162, .F. ) ;
#538 = CARTESIAN_POINT ( 'NONE',  ( 100.0000000000000000, 84.99999999999997158, 0.000000000000000000 ) ) ;
#539 = ORIENTED_EDGE ( 'NONE', *, *, #594, .T. ) ;
#540 = APPLICATION_CONTEXT ( 'configuration controlled 3d designs of mechanical parts and assemblies' ) ;
#541 = CIRCLE ( 'NONE', #12, 15.00000000000000000 ) ;
#542 = ADVANCED_BREP_SHAPE_REPRESENTATION ( 'PLATEMillieubas_DÚfaut_sldprt', ( #649, #310 ), #246 ) ;
#543 = CLOSED_SHELL ( 'NONE', ( #495, #98, #718, #701, #325, #176, #790, #395, #805, #619, #708, #94, #217, #253, #284, #800, #578, #754, #368, #771, #189, #47 ) ) ;
#544 = ORIENTED_EDGE ( 'NONE', *, *, #547, .T. ) ;
#545 = ORIENTED_EDGE ( 'NONE', *, *, #378, .F. ) ;
#546 = DIRECTION ( 'NONE',  ( 0.000000000000000000, 0.000000000000000000, -1.000000000000000000 ) ) ;
#547 = EDGE_CURVE ( 'NONE', #87, #35, #719, .T. ) ;
#548 = APPROVAL_DATE_TIME ( #607, #574 ) ;
#549 = ORIENTED_EDGE ( 'NONE', *, *, #629, .F. ) ;
#550 = LINE ( 'NONE', #802, #210 ) ;
#551 = ORIENTED_EDGE ( 'NONE', *, *, #485, .F. ) ;
#552 = FACE_OUTER_BOUND ( 'NONE', #664, .T. ) ;
#553 = AXIS2_PLACEMENT_3D ( 'NONE', #322, #203, #821 ) ;
#554 = PLANE ( 'NONE',  #635 ) ;
#555 = FACE_OUTER_BOUND ( 'NONE', #673, .T. ) ;
#556 = LOCAL_TIME ( 14, 36, 54.00000000000000000, #148 ) ;
#557 = CARTESIAN_POINT ( 'NONE',  ( -80.00000000000000000, 79.99999999999998579, 7.000000000000000000 ) ) ;
#558 = CARTESIAN_POINT ( 'NONE',  ( -80.00000000000000000, 79.99999999999998579, 0.000000000000000000 ) ) ;
#559 = CARTESIAN_POINT ( 'NONE',  ( -85.00000000000000000, 99.99999999999998579, 0.000000000000000000 ) ) ;
#560 = CYLINDRICAL_SURFACE ( 'NONE', #769, 5.000000000000004441 ) ;
#561 = CIRCLE ( 'NONE', #778, 5.000000000000004441 ) ;
#562 = EDGE_CURVE ( 'NONE', #598, #258, #461, .T. ) ;
#563 = CARTESIAN_POINT ( 'NONE',  ( 0.000000000000000000, 0.000000000000000000, 0.000000000000000000 ) ) ;
#564 = CIRCLE ( 'NONE', #207, 5.000000000000004441 ) ;
#565 = ORIENTED_EDGE ( 'NONE', *, *, #351, .T. ) ;
#566 = DIRECTION ( 'NONE',  ( 1.000000000000000000, 0.000000000000000000, 0.000000000000000000 ) ) ;
#567 = CIRCLE ( 'NONE', #67, 5.000000000000004441 ) ;
#568 = ORIENTED_EDGE ( 'NONE', *, *, #570, .F. ) ;
#569 = EDGE_LOOP ( 'NONE', ( #91, #484 ) ) ;
#570 = EDGE_CURVE ( 'NONE', #65, #595, #658, .T. ) ;
#571 = CARTESIAN_POINT ( 'NONE',  ( 5.000000000000000888, -25.00000000000000000, 0.000000000000000000 ) ) ;
#572 = FACE_OUTER_BOUND ( 'NONE', #536, .T. ) ;
#573 = ORIENTED_EDGE ( 'NONE', *, *, #229, .F. ) ;
#574 = APPROVAL ( #659, 'UNSPECIFIED' ) ;
#575 = ORIENTED_EDGE ( 'NONE', *, *, #712, .T. ) ;
#576 = CYLINDRICAL_SURFACE ( 'NONE', #288, 5.000000000000000888 ) ;
#577 = APPROVAL_ROLE ( '' ) ;
#578 = ADVANCED_FACE ( 'NONE', ( #36 ), #144, .T. ) ;
#579 = DIRECTION ( 'NONE',  ( -0.000000000000000000, -0.000000000000000000, -1.000000000000000000 ) ) ;
#580 = EDGE_CURVE ( 'NONE', #655, #65, #564, .T. ) ;
#581 = DIRECTION ( 'NONE',  ( -1.000000000000000000, 0.000000000000000000, 0.000000000000000000 ) ) ;
#582 = FACE_BOUND ( 'NONE', #493, .T. ) ;
#583 = SECURITY_CLASSIFICATION_LEVEL ( 'unclassified' ) ;
#584 = ORIENTED_EDGE ( 'NONE', *, *, #745, .F. ) ;
#585 = LINE ( 'NONE', #74, #654 ) ;
#586 = DIRECTION ( 'NONE',  ( 0.000000000000000000, 0.000000000000000000, -1.000000000000000000 ) ) ;
#587 = EDGE_LOOP ( 'NONE', ( #537, #694, #103, #446 ) ) ;
#588 = FACE_OUTER_BOUND ( 'NONE', #334, .T. ) ;
#589 = AXIS2_PLACEMENT_3D ( 'NONE', #437, #46, #56 ) ;
#590 = DIRECTION ( 'NONE',  ( 0.000000000000000000, 0.000000000000000000, 1.000000000000000000 ) ) ;
#591 = VERTEX_POINT ( 'NONE', #32 ) ;
#592 = DIRECTION ( 'NONE',  ( -1.000000000000000000, 0.000000000000000000, 0.000000000000000000 ) ) ;
#593 = VECTOR ( 'NONE', #469, 1000.000000000000000 ) ;
#594 = EDGE_CURVE ( 'NONE', #722, #101, #314, .T. ) ;
#595 = VERTEX_POINT ( 'NONE', #734 ) ;
#596 = CARTESIAN_POINT ( 'NONE',  ( -80.00000000000000000, 79.99999999999998579, 7.000000000000000000 ) ) ;
#597 = PRODUCT_RELATED_PRODUCT_CATEGORY ( 'detail', '', ( #504 ) ) ;
#598 = VERTEX_POINT ( 'NONE', #792 ) ;
#599 = DIRECTION ( 'NONE',  ( 0.000000000000000000, -1.000000000000000000, 0.000000000000000000 ) ) ;
#600 = ORIENTED_EDGE ( 'NONE', *, *, #451, .F. ) ;
#601 = DIRECTION ( 'NONE',  ( 0.000000000000000000, 0.000000000000000000, -1.000000000000000000 ) ) ;
#602 = ORIENTED_EDGE ( 'NONE', *, *, #351, .F. ) ;
#603 = CYLINDRICAL_SURFACE ( 'NONE', #28, 5.000000000000000888 ) ;
#604 = EDGE_CURVE ( 'NONE', #96, #38, #223, .T. ) ;
#605 = VECTOR ( 'NONE', #386, 1000.000000000000000 ) ;
#606 = CARTESIAN_POINT ( 'NONE',  ( -85.00000000000000000, -85.00000000000000000, 0.000000000000000000 ) ) ;
#607 = DATE_AND_TIME ( #359, #304 ) ;
#608 = ORIENTED_EDGE ( 'NONE', *, *, #353, .F. ) ;
#609 = SECURITY_CLASSIFICATION ( '', '', #583 ) ;
#610 = PERSON ( 'UNSPECIFIED', 'UNSPECIFIED', 'UNSPECIFIED', ('UNSPECIFIED'), ('UNSPECIFIED'), ('UNSPECIFIED') ) ;
#611 = DIRECTION ( 'NONE',  ( -1.000000000000000000, 0.000000000000000000, 0.000000000000000000 ) ) ;
#612 = ORIENTED_EDGE ( 'NONE', *, *, #81, .T. ) ;
#613 = FACE_OUTER_BOUND ( 'NONE', #291, .T. ) ;
#614 = DIRECTION ( 'NONE',  ( -1.000000000000000000, 0.000000000000000000, 0.000000000000000000 ) ) ;
#615 = CARTESIAN_POINT ( 'NONE',  ( -75.00000000000000000, 79.99999999999998579, 0.000000000000000000 ) ) ;
#616 = DIRECTION ( 'NONE',  ( -0.000000000000000000, -1.000000000000000000, -0.000000000000000000 ) ) ;
#617 = VECTOR ( 'NONE', #343, 1000.000000000000000 ) ;
#618 = CIRCLE ( 'NONE', #77, 5.000000000000000888 ) ;
#619 = ADVANCED_FACE ( 'NONE', ( #474 ), #729, .F. ) ;
#620 = CYLINDRICAL_SURFACE ( 'NONE', #404, 5.000000000000004441 ) ;
#621 = APPROVAL_PERSON_ORGANIZATION ( #80, #332, #523 ) ;
#622 = CARTESIAN_POINT ( 'NONE',  ( 80.00000000000000000, 79.99999999999998579, 7.000000000000000000 ) ) ;
#623 = CARTESIAN_POINT ( 'NONE',  ( -100.0000000000000000, -85.00000000000000000, 7.000000000000000000 ) ) ;
#624 = DIRECTION ( 'NONE',  ( -0.000000000000000000, -0.000000000000000000, -1.000000000000000000 ) ) ;
#625 = APPROVAL ( #704, 'UNSPECIFIED' ) ;
#626 = FACE_BOUND ( 'NONE', #815, .T. ) ;
#627 = DIRECTION ( 'NONE',  ( 0.000000000000000000, 0.000000000000000000, 1.000000000000000000 ) ) ;
#628 = CARTESIAN_POINT ( 'NONE',  ( -100.0000000000000000, 99.99999999999998579, 0.000000000000000000 ) ) ;
#629 = EDGE_CURVE ( 'NONE', #111, #515, #458, .T. ) ;
#630 = CARTESIAN_POINT ( 'NONE',  ( 0.000000000000000000, -25.00000000000000000, 0.000000000000000000 ) ) ;
#631 = ORIENTED_EDGE ( 'NONE', *, *, #338, .F. ) ;
#632 = VECTOR ( 'NONE', #535, 1000.000000000000000 ) ;
#633 = DATE_AND_TIME ( #656, #265 ) ;
#634 = FACE_OUTER_BOUND ( 'NONE', #296, .T. ) ;
#635 = AXIS2_PLACEMENT_3D ( 'NONE', #726, #599, #357 ) ;
#636 = PERSON_AND_ORGANIZATION_ROLE ( 'creator' ) ;
#637 = CARTESIAN_POINT ( 'NONE',  ( 0.000000000000000000, -25.00000000000000000, 0.000000000000000000 ) ) ;
#638 = CARTESIAN_POINT ( 'NONE',  ( 80.00000000000000000, -80.00000000000000000, 7.000000000000000000 ) ) ;
#639 = ORIENTED_EDGE ( 'NONE', *, *, #81, .F. ) ;
#640 = APPLICATION_PROTOCOL_DEFINITION ( 'international standard', 'config_control_design', 1994, #540 ) ;
#641 = AXIS2_PLACEMENT_3D ( 'NONE', #377, #247, #442 ) ;
#642 = CARTESIAN_POINT ( 'NONE',  ( 80.00000000000000000, -80.00000000000000000, 0.000000000000000000 ) ) ;
#643 = ORIENTED_EDGE ( 'NONE', *, *, #604, .F. ) ;
#644 = CC_DESIGN_PERSON_AND_ORGANIZATION_ASSIGNMENT ( #400, #330, ( #212 ) ) ;
#645 = ORIENTED_EDGE ( 'NONE', *, *, #299, .F. ) ;
#646 = DIRECTION ( 'NONE',  ( 1.000000000000000000, 0.000000000000000000, 0.000000000000000000 ) ) ;
#647 = CIRCLE ( 'NONE', #166, 5.000000000000004441 ) ;
#648 = CC_DESIGN_APPROVAL ( #332, ( #259 ) ) ;
#649 = MANIFOLD_SOLID_BREP ( 'Enlèv. mat.-Extru.1', #543 ) ;
#650 = ORIENTED_EDGE ( 'NONE', *, *, #629, .T. ) ;
#651 = DIRECTION ( 'NONE',  ( -1.000000000000000000, 0.000000000000000000, 0.000000000000000000 ) ) ;
#652 = ORIENTED_EDGE ( 'NONE', *, *, #679, .F. ) ;
#653 = CARTESIAN_POINT ( 'NONE',  ( 5.000000000000000888, 25.00000000000000000, 10.00000000000000000 ) ) ;
#654 = VECTOR ( 'NONE', #86, 1000.000000000000000 ) ;
#655 = VERTEX_POINT ( 'NONE', #462 ) ;
#656 = CALENDAR_DATE ( 2020, 29, 11 ) ;
#657 = CIRCLE ( 'NONE', #553, 15.00000000000000000 ) ;
#658 = LINE ( 'NONE', #666, #632 ) ;
#659 = APPROVAL_STATUS ( 'not_yet_approved' ) ;
#660 = ORIENTED_EDGE ( 'NONE', *, *, #520, .T. ) ;
#661 = DIRECTION ( 'NONE',  ( -1.000000000000000000, 0.000000000000000000, 0.000000000000000000 ) ) ;
#662 = CARTESIAN_POINT ( 'NONE',  ( -100.0000000000000000, -100.0000000000000000, 7.000000000000000000 ) ) ;
#663 = EDGE_CURVE ( 'NONE', #35, #45, #513, .T. ) ;
#664 = EDGE_LOOP ( 'NONE', ( #186, #793, #584, #788 ) ) ;
#665 = EDGE_CURVE ( 'NONE', #490, #687, #561, .T. ) ;
#666 = CARTESIAN_POINT ( 'NONE',  ( -85.00000000000000000, 79.99999999999998579, 7.000000000000000000 ) ) ;
#667 = PERSON_AND_ORGANIZATION ( #610, #82 ) ;
#668 = ORIENTED_EDGE ( 'NONE', *, *, #18, .T. ) ;
#669 = AXIS2_PLACEMENT_3D ( 'NONE', #497, #54, #436 ) ;
#670 = CYLINDRICAL_SURFACE ( 'NONE', #11, 15.00000000000000000 ) ;
#671 = AXIS2_PLACEMENT_3D ( 'NONE', #50, #300, #674 ) ;
#672 = CIRCLE ( 'NONE', #316, 5.000000000000004441 ) ;
#673 = EDGE_LOOP ( 'NONE', ( #295, #79, #482, #201 ) ) ;
#674 = DIRECTION ( 'NONE',  ( 1.000000000000000000, 0.000000000000000000, 0.000000000000000000 ) ) ;
#675 = LINE ( 'NONE', #807, #341 ) ;
#676 = DIRECTION ( 'NONE',  ( -0.000000000000000000, -0.000000000000000000, -1.000000000000000000 ) ) ;
#677 = VERTEX_POINT ( 'NONE', #433 ) ;
#678 = DIRECTION ( 'NONE',  ( 1.000000000000000000, 0.000000000000000000, 0.000000000000000000 ) ) ;
#679 = EDGE_CURVE ( 'NONE', #317, #402, #697, .T. ) ;
#680 = DIRECTION ( 'NONE',  ( -0.000000000000000000, -0.000000000000000000, -1.000000000000000000 ) ) ;
#681 = CYLINDRICAL_SURFACE ( 'NONE', #641, 5.000000000000004441 ) ;
#682 = CIRCLE ( 'NONE', #117, 5.000000000000000888 ) ;
#683 = DIRECTION ( 'NONE',  ( 0.000000000000000000, 0.000000000000000000, -1.000000000000000000 ) ) ;
#684 = FACE_OUTER_BOUND ( 'NONE', #154, .T. ) ;
#685 = CIRCLE ( 'NONE', #167, 5.000000000000004441 ) ;
#686 = FACE_OUTER_BOUND ( 'NONE', #725, .T. ) ;
#687 = VERTEX_POINT ( 'NONE', #742 ) ;
#688 = DIRECTION ( 'NONE',  ( -1.000000000000000000, 0.000000000000000000, 0.000000000000000000 ) ) ;
#689 = CARTESIAN_POINT ( 'NONE',  ( -75.00000000000000000, 79.99999999999998579, 7.000000000000000000 ) ) ;
#690 = EDGE_CURVE ( 'NONE', #490, #356, #752, .T. ) ;
#691 = PLANE ( 'NONE',  #135 ) ;
#692 = APPLICATION_CONTEXT ( 'configuration controlled 3d designs of mechanical parts and assemblies' ) ;
#693 = DIRECTION ( 'NONE',  ( -1.000000000000000000, 0.000000000000000000, -0.000000000000000000 ) ) ;
#694 = ORIENTED_EDGE ( 'NONE', *, *, #580, .T. ) ;
#695 = PERSON_AND_ORGANIZATION ( #610, #82 ) ;
#696 = DIRECTION ( 'NONE',  ( -1.000000000000000000, 0.000000000000000000, 0.000000000000000000 ) ) ;
#697 = CIRCLE ( 'NONE', #589, 5.000000000000000888 ) ;
#698 = AXIS2_PLACEMENT_3D ( 'NONE', #398, #83, #128 ) ;
#699 = LINE ( 'NONE', #61, #301 ) ;
#700 = AXIS2_PLACEMENT_3D ( 'NONE', #39, #733, #290 ) ;
#701 = ADVANCED_FACE ( 'NONE', ( #238 ), #303, .F. ) ;
#702 = CARTESIAN_POINT ( 'NONE',  ( 85.00000000000000000, 79.99999999999998579, 0.000000000000000000 ) ) ;
#703 = ORIENTED_EDGE ( 'NONE', *, *, #285, .F. ) ;
#704 = APPROVAL_STATUS ( 'not_yet_approved' ) ;
#705 = ORIENTED_EDGE ( 'NONE', *, *, #789, .F. ) ;
#706 = FACE_BOUND ( 'NONE', #489, .T. ) ;
#707 = ORIENTED_EDGE ( 'NONE', *, *, #439, .F. ) ;
#708 = ADVANCED_FACE ( 'NONE', ( #555 ), #42, .F. ) ;
#709 = FACE_BOUND ( 'NONE', #732, .T. ) ;
#710 = DIRECTION ( 'NONE',  ( 0.000000000000000000, 0.000000000000000000, -1.000000000000000000 ) ) ;
#711 = PERSON_AND_ORGANIZATION ( #610, #82 ) ;
#712 = EDGE_CURVE ( 'NONE', #104, #145, #675, .T. ) ;
#713 = VERTEX_POINT ( 'NONE', #487 ) ;
#714 = DIRECTION ( 'NONE',  ( -1.000000000000000000, 0.000000000000000000, -0.000000000000000000 ) ) ;
#715 = CARTESIAN_POINT ( 'NONE',  ( -85.00000000000000000, -85.00000000000000000, 7.000000000000000000 ) ) ;
#716 = CYLINDRICAL_SURFACE ( 'NONE', #405, 5.000000000000004441 ) ;
#717 = CARTESIAN_POINT ( 'NONE',  ( 80.00000000000000000, -80.00000000000000000, 7.000000000000000000 ) ) ;
#718 = ADVANCED_FACE ( 'NONE', ( #686 ), #681, .F. ) ;
#719 = LINE ( 'NONE', #529, #141 ) ;
#720 = ORIENTED_EDGE ( 'NONE', *, *, #200, .T. ) ;
#721 = PERSON_AND_ORGANIZATION_ROLE ( 'classification_officer' ) ;
#722 = VERTEX_POINT ( 'NONE', #427 ) ;
#723 = CARTESIAN_POINT ( 'NONE',  ( -100.0000000000000000, 84.99999999999998579, 7.000000000000000000 ) ) ;
#724 = VERTEX_POINT ( 'NONE', #168 ) ;
#725 = EDGE_LOOP ( 'NONE', ( #267, #759, #8, #568 ) ) ;
#726 = CARTESIAN_POINT ( 'NONE',  ( -100.0000000000000000, 99.99999999999998579, 7.000000000000000000 ) ) ;
#727 = VECTOR ( 'NONE', #19, 1000.000000000000000 ) ;
#728 = EDGE_CURVE ( 'NONE', #713, #87, #486, .T. ) ;
#729 = PLANE ( 'NONE',  #421 ) ;
#730 = EDGE_LOOP ( 'NONE', ( #171, #37, #305, #412 ) ) ;
#731 = EDGE_CURVE ( 'NONE', #595, #33, #323, .T. ) ;
#732 = EDGE_LOOP ( 'NONE', ( #312, #286 ) ) ;
#733 = DIRECTION ( 'NONE',  ( 0.000000000000000000, 0.000000000000000000, 1.000000000000000000 ) ) ;
#734 = CARTESIAN_POINT ( 'NONE',  ( -85.00000000000000000, 79.99999999999998579, 0.000000000000000000 ) ) ;
#735 = ORIENTED_EDGE ( 'NONE', *, *, #70, .F. ) ;
#736 = CARTESIAN_POINT ( 'NONE',  ( 0.000000000000000000, 25.00000000000000000, 10.00000000000000000 ) ) ;
#737 = CARTESIAN_POINT ( 'NONE',  ( -85.00000000000000000, 99.99999999999998579, 7.000000000000000000 ) ) ;
#738 = AXIS2_PLACEMENT_3D ( 'NONE', #244, #498, #435 ) ;
#739 = EDGE_CURVE ( 'NONE', #402, #455, #49, .T. ) ;
#740 = ORIENTED_EDGE ( 'NONE', *, *, #780, .T. ) ;
#741 = CIRCLE ( 'NONE', #698, 5.000000000000004441 ) ;
#742 = CARTESIAN_POINT ( 'NONE',  ( 75.00000000000000000, 79.99999999999998579, 7.000000000000000000 ) ) ;
#743 = ORIENTED_EDGE ( 'NONE', *, *, #123, .F. ) ;
#744 = CARTESIAN_POINT ( 'NONE',  ( -85.00000000000000000, 79.99999999999998579, 7.000000000000000000 ) ) ;
#745 = EDGE_CURVE ( 'NONE', #787, #361, #175, .T. ) ;
#746 = DIRECTION ( 'NONE',  ( -1.000000000000000000, 0.000000000000000000, 0.000000000000000000 ) ) ;
#747 = CARTESIAN_POINT ( 'NONE',  ( -80.00000000000000000, -80.00000000000000000, 7.000000000000000000 ) ) ;
#748 = ORIENTED_EDGE ( 'NONE', *, *, #136, .T. ) ;
#749 = CARTESIAN_POINT ( 'NONE',  ( 85.00000000000000000, 79.99999999999998579, 7.000000000000000000 ) ) ;
#750 = LINE ( 'NONE', #177, #156 ) ;
#751 = DIRECTION ( 'NONE',  ( 0.000000000000000000, 0.000000000000000000, 1.000000000000000000 ) ) ;
#752 = LINE ( 'NONE', #749, #525 ) ;
#753 = CIRCLE ( 'NONE', #419, 5.000000000000000888 ) ;
#754 = ADVANCED_FACE ( 'NONE', ( #358 ), #670, .T. ) ;
#755 = DIRECTION ( 'NONE',  ( -1.000000000000000000, 0.000000000000000000, 0.000000000000000000 ) ) ;
#756 = APPROVAL_PERSON_ORGANIZATION ( #324, #625, #577 ) ;
#757 = CARTESIAN_POINT ( 'NONE',  ( 0.000000000000000000, -25.00000000000000000, 10.00000000000000000 ) ) ;
#758 = VERTEX_POINT ( 'NONE', #737 ) ;
#759 = ORIENTED_EDGE ( 'NONE', *, *, #162, .T. ) ;
#760 = DIRECTION ( 'NONE',  ( 1.000000000000000000, 0.000000000000000000, 0.000000000000000000 ) ) ;
#761 = CARTESIAN_POINT ( 'NONE',  ( 84.99999999999998579, -100.0000000000000142, 0.000000000000000000 ) ) ;
#762 = CARTESIAN_POINT ( 'NONE',  ( -85.00000000000000000, 84.99999999999998579, 7.000000000000000000 ) ) ;
#763 = EDGE_LOOP ( 'NONE', ( #391, #367 ) ) ;
#764 = DIRECTION ( 'NONE',  ( -1.000000000000000000, 0.000000000000000000, 0.000000000000000000 ) ) ;
#765 = AXIS2_PLACEMENT_3D ( 'NONE', #606, #307, #614 ) ;
#766 = AXIS2_PLACEMENT_3D ( 'NONE', #241, #492, #746 ) ;
#767 = CARTESIAN_POINT ( 'NONE',  ( 5.000000000000000888, -25.00000000000000000, 10.00000000000000000 ) ) ;
#768 = ORIENTED_EDGE ( 'NONE', *, *, #460, .F. ) ;
#769 = AXIS2_PLACEMENT_3D ( 'NONE', #194, #184, #449 ) ;
#770 = VERTEX_POINT ( 'NONE', #163 ) ;
#771 = ADVANCED_FACE ( 'NONE', ( #552 ), #109, .T. ) ;
#772 = VERTEX_POINT ( 'NONE', #115 ) ;
#773 = CC_DESIGN_PERSON_AND_ORGANIZATION_ASSIGNMENT ( #470, #444, ( #504 ) ) ;
#774 = DIRECTION ( 'NONE',  ( 1.000000000000000000, 0.000000000000000000, 0.000000000000000000 ) ) ;
#775 = DIRECTION ( 'NONE',  ( 0.000000000000000000, 0.000000000000000000, 1.000000000000000000 ) ) ;
#776 = ORIENTED_EDGE ( 'NONE', *, *, #106, .F. ) ;
#777 = PLANE ( 'NONE',  #270 ) ;
#778 = AXIS2_PLACEMENT_3D ( 'NONE', #622, #803, #172 ) ;
#779 = DIRECTION ( 'NONE',  ( 0.000000000000000000, 0.000000000000000000, 1.000000000000000000 ) ) ;
#780 = EDGE_CURVE ( 'NONE', #69, #422, #372, .T. ) ;
#781 = AXIS2_PLACEMENT_3D ( 'NONE', #414, #279, #287 ) ;
#782 = FACE_OUTER_BOUND ( 'NONE', #161, .T. ) ;
#783 = CIRCLE ( 'NONE', #431, 5.000000000000004441 ) ;
#784 = CC_DESIGN_DATE_AND_TIME_ASSIGNMENT ( #78, #197, ( #259 ) ) ;
#785 = ORIENTED_EDGE ( 'NONE', *, *, #439, .T. ) ;
#786 = CARTESIAN_POINT ( 'NONE',  ( 0.000000000000000000, 25.00000000000000000, 0.000000000000000000 ) ) ;
#787 = VERTEX_POINT ( 'NONE', #205 ) ;
#788 = ORIENTED_EDGE ( 'NONE', *, *, #10, .F. ) ;
#789 = EDGE_CURVE ( 'NONE', #713, #361, #585, .T. ) ;
#790 = ADVANCED_FACE ( 'NONE', ( #626, #709, #782, #211, #337, #59, #216 ), #691, .F. ) ;
#791 = AXIS2_PLACEMENT_3D ( 'NONE', #558, #297, #678 ) ;
#792 = CARTESIAN_POINT ( 'NONE',  ( -5.000000000000000888, 25.00000000000000000, 7.000000000000000000 ) ) ;
#793 = ORIENTED_EDGE ( 'NONE', *, *, #363, .F. ) ;
#794 = ORIENTED_EDGE ( 'NONE', *, *, #812, .T. ) ;
#795 = CARTESIAN_POINT ( 'NONE',  ( 100.0000000000000000, -85.00000000000001421, 7.000000000000000000 ) ) ;
#796 = AXIS2_PLACEMENT_3D ( 'NONE', #264, #590, #25 ) ;
#797 = DIRECTION ( 'NONE',  ( -1.000000000000000000, 0.000000000000000000, 0.000000000000000000 ) ) ;
#798 = ORIENTED_EDGE ( 'NONE', *, *, #511, .T. ) ;
#799 = DIRECTION ( 'NONE',  ( -0.000000000000000000, -0.000000000000000000, -1.000000000000000000 ) ) ;
#800 = ADVANCED_FACE ( 'NONE', ( #140 ), #331, .F. ) ;
#801 = ORIENTED_EDGE ( 'NONE', *, *, #745, .T. ) ;
#802 = CARTESIAN_POINT ( 'NONE',  ( -100.0000000000000000, -100.0000000000000000, 0.000000000000000000 ) ) ;
#803 = DIRECTION ( 'NONE',  ( 0.000000000000000000, 0.000000000000000000, 1.000000000000000000 ) ) ;
#804 = EDGE_LOOP ( 'NONE', ( #233, #374, #420, #165 ) ) ;
#805 = ADVANCED_FACE ( 'NONE', ( #588 ), #777, .F. ) ;
#806 = VECTOR ( 'NONE', #263, 1000.000000000000000 ) ;
#807 = CARTESIAN_POINT ( 'NONE',  ( 100.0000000000000000, -100.0000000000000142, 7.000000000000000000 ) ) ;
#808 = LINE ( 'NONE', #173, #26 ) ;
#809 = VERTEX_POINT ( 'NONE', #22 ) ;
#810 = DIRECTION ( 'NONE',  ( 0.000000000000000000, 0.000000000000000000, -1.000000000000000000 ) ) ;
#811 = LINE ( 'NONE', #689, #362 ) ;
#812 = EDGE_CURVE ( 'NONE', #515, #111, #816, .T. ) ;
#813 = CARTESIAN_POINT ( 'NONE',  ( 85.00000000000000000, -85.00000000000001421, 0.000000000000000000 ) ) ;
#814 = EDGE_CURVE ( 'NONE', #724, #44, #114, .T. ) ;
#815 = EDGE_LOOP ( 'NONE', ( #248, #20 ) ) ;
#816 = CIRCLE ( 'NONE', #23, 5.000000000000004441 ) ;
#817 = CARTESIAN_POINT ( 'NONE',  ( 0.000000000000000000, -25.00000000000000000, 10.00000000000000000 ) ) ;
#818 = CARTESIAN_POINT ( 'NONE',  ( 100.0000000000000000, 84.99999999999997158, 7.000000000000000000 ) ) ;
#819 = DIRECTION ( 'NONE',  ( 0.000000000000000000, 0.000000000000000000, 1.000000000000000000 ) ) ;
#820 = AXIS2_PLACEMENT_3D ( 'NONE', #480, #92, #349 ) ;
#821 = DIRECTION ( 'NONE',  ( -1.000000000000000000, 0.000000000000000000, 0.000000000000000000 ) ) ;
ENDSEC;
END-ISO-10303-21;
