ISO-10303-21;
HEADER;
FILE_DESCRIPTION (( 'STEP AP203' ),
    '1' );
FILE_NAME ('PLATEMillieuHaut_Défaut_sldprt.STEP',
    '2020-11-29T13:36:52',
    ( '' ),
    ( '' ),
    'SwSTEP 2.0',
    'SolidWorks 2020',
    '' );
FILE_SCHEMA (( 'CONFIG_CONTROL_DESIGN' ));
ENDSEC;

DATA;
#1 = APPROVAL ( #57, 'UNSPECIFIED' ) ;
#2 = APPROVAL_DATE_TIME ( #88, #374 ) ;
#3 = VECTOR ( 'NONE', #511, 1000.000000000000000 ) ;
#4 = EDGE_CURVE ( 'NONE', #83, #605, #113, .T. ) ;
#5 = DIRECTION ( 'NONE',  ( 0.000000000000000000, 0.000000000000000000, -1.000000000000000000 ) ) ;
#6 = ORGANIZATION ( 'UNSPECIFIED', 'UNSPECIFIED', '' ) ;
#7 = CIRCLE ( 'NONE', #31, 15.00000000000000000 ) ;
#8 = FACE_OUTER_BOUND ( 'NONE', #644, .T. ) ;
#9 = CARTESIAN_POINT ( 'NONE',  ( 85.00000000000000000, -85.00000000000001421, 7.000000000000000000 ) ) ;
#10 = APPROVAL_STATUS ( 'not_yet_approved' ) ;
#11 = DIRECTION ( 'NONE',  ( -0.000000000000000000, -0.000000000000000000, 1.000000000000000000 ) ) ;
#12 = ORIENTED_EDGE ( 'NONE', *, *, #470, .T. ) ;
#13 = ORIENTED_EDGE ( 'NONE', *, *, #533, .T. ) ;
#14 = EDGE_LOOP ( 'NONE', ( #17, #114 ) ) ;
#15 = VERTEX_POINT ( 'NONE', #462 ) ;
#16 = AXIS2_PLACEMENT_3D ( 'NONE', #22, #444, #81 ) ;
#17 = ORIENTED_EDGE ( 'NONE', *, *, #368, .F. ) ;
#18 = CARTESIAN_POINT ( 'NONE',  ( -100.0000000000000000, 84.99999999999998579, 7.000000000000000000 ) ) ;
#19 = LOCAL_TIME ( 14, 36, 52.00000000000000000, #461 ) ;
#20 = EDGE_LOOP ( 'NONE', ( #130, #336, #641, #217 ) ) ;
#21 = DIRECTION ( 'NONE',  ( 1.000000000000000000, 0.000000000000000000, 0.000000000000000000 ) ) ;
#22 = CARTESIAN_POINT ( 'NONE',  ( -85.00000000000000000, 84.99999999999998579, 7.000000000000000000 ) ) ;
#23 = CARTESIAN_POINT ( 'NONE',  ( -85.00000000000000000, -85.00000000000000000, 7.000000000000000000 ) ) ;
#24 = EDGE_CURVE ( 'NONE', #390, #76, #61, .T. ) ;
#25 = LINE ( 'NONE', #658, #353 ) ;
#26 = ORIENTED_EDGE ( 'NONE', *, *, #622, .T. ) ;
#27 = DIRECTION ( 'NONE',  ( 1.000000000000000000, -6.938893903907228378E-17, 0.000000000000000000 ) ) ;
#28 = DIRECTION ( 'NONE',  ( 1.000000000000000000, 0.000000000000000000, 0.000000000000000000 ) ) ;
#29 = LINE ( 'NONE', #607, #364 ) ;
#30 = CIRCLE ( 'NONE', #104, 15.00000000000000000 ) ;
#31 = AXIS2_PLACEMENT_3D ( 'NONE', #489, #132, #235 ) ;
#32 = CARTESIAN_POINT ( 'NONE',  ( 85.00000000000000000, -85.00000000000001421, 0.000000000000000000 ) ) ;
#33 = ORIENTED_EDGE ( 'NONE', *, *, #418, .T. ) ;
#34 = CARTESIAN_POINT ( 'NONE',  ( 84.99999999999998579, 84.99999999999998579, 7.000000000000000000 ) ) ;
#35 = CARTESIAN_POINT ( 'NONE',  ( 75.00000000000000000, -80.00000000000000000, 0.000000000000000000 ) ) ;
#36 = ORIENTED_EDGE ( 'NONE', *, *, #150, .T. ) ;
#37 = FACE_BOUND ( 'NONE', #121, .T. ) ;
#38 = ORIENTED_EDGE ( 'NONE', *, *, #665, .T. ) ;
#39 = DIRECTION ( 'NONE',  ( 0.000000000000000000, 0.000000000000000000, 1.000000000000000000 ) ) ;
#40 = CARTESIAN_POINT ( 'NONE',  ( -85.00000000000000000, -100.0000000000000000, 0.000000000000000000 ) ) ;
#41 = VECTOR ( 'NONE', #454, 1000.000000000000000 ) ;
#42 = DIRECTION ( 'NONE',  ( 1.000000000000000000, 0.000000000000000000, 0.000000000000000000 ) ) ;
#43 = ORIENTED_EDGE ( 'NONE', *, *, #340, .T. ) ;
#44 = CYLINDRICAL_SURFACE ( 'NONE', #242, 5.000000000000004441 ) ;
#45 = EDGE_CURVE ( 'NONE', #479, #171, #257, .T. ) ;
#46 = FACE_OUTER_BOUND ( 'NONE', #312, .T. ) ;
#47 = PERSON_AND_ORGANIZATION_ROLE ( 'creator' ) ;
#48 = ORIENTED_EDGE ( 'NONE', *, *, #211, .T. ) ;
#49 = DIRECTION ( 'NONE',  ( -0.000000000000000000, -0.000000000000000000, -1.000000000000000000 ) ) ;
#50 = PERSON_AND_ORGANIZATION ( #425, #6 ) ;
#51 = ORIENTED_EDGE ( 'NONE', *, *, #622, .F. ) ;
#52 = ADVANCED_FACE ( 'NONE', ( #369 ), #107, .T. ) ;
#53 = CARTESIAN_POINT ( 'NONE',  ( 80.00000000000000000, 79.99999999999998579, 7.000000000000000000 ) ) ;
#54 = DATE_AND_TIME ( #95, #473 ) ;
#55 = VECTOR ( 'NONE', #406, 1000.000000000000000 ) ;
#56 = PLANE ( 'NONE',  #206 ) ;
#57 = APPROVAL_STATUS ( 'not_yet_approved' ) ;
#58 = VECTOR ( 'NONE', #199, 1000.000000000000000 ) ;
#59 = CC_DESIGN_PERSON_AND_ORGANIZATION_ASSIGNMENT ( #412, #621, ( #92 ) ) ;
#60 = EDGE_CURVE ( 'NONE', #15, #537, #183, .T. ) ;
#61 = LINE ( 'NONE', #673, #316 ) ;
#62 = CARTESIAN_POINT ( 'NONE',  ( 0.000000000000000000, 0.000000000000000000, 7.000000000000000000 ) ) ;
#63 = DIRECTION ( 'NONE',  ( -0.000000000000000000, -0.000000000000000000, 1.000000000000000000 ) ) ;
#64 = CIRCLE ( 'NONE', #158, 5.000000000000004441 ) ;
#65 = DIRECTION ( 'NONE',  ( 0.000000000000000000, 0.000000000000000000, -1.000000000000000000 ) ) ;
#66 = CARTESIAN_POINT ( 'NONE',  ( 80.00000000000000000, 79.99999999999998579, 7.000000000000000000 ) ) ;
#67 = VERTEX_POINT ( 'NONE', #273 ) ;
#68 = AXIS2_PLACEMENT_3D ( 'NONE', #671, #204, #101 ) ;
#69 = FACE_OUTER_BOUND ( 'NONE', #609, .T. ) ;
#70 = CARTESIAN_POINT ( 'NONE',  ( 75.00000000000000000, -80.00000000000000000, 7.000000000000000000 ) ) ;
#71 = EDGE_CURVE ( 'NONE', #634, #379, #156, .T. ) ;
#72 = ORIENTED_EDGE ( 'NONE', *, *, #74, .F. ) ;
#73 = CARTESIAN_POINT ( 'NONE',  ( -80.00000000000000000, 79.99999999999998579, 0.000000000000000000 ) ) ;
#74 = EDGE_CURVE ( 'NONE', #83, #434, #472, .T. ) ;
#75 = CYLINDRICAL_SURFACE ( 'NONE', #16, 15.00000000000000000 ) ;
#76 = VERTEX_POINT ( 'NONE', #527 ) ;
#77 = CARTESIAN_POINT ( 'NONE',  ( -85.00000000000000000, -85.00000000000000000, 7.000000000000000000 ) ) ;
#78 = CIRCLE ( 'NONE', #343, 5.000000000000004441 ) ;
#79 = ORIENTED_EDGE ( 'NONE', *, *, #120, .T. ) ;
#80 = CIRCLE ( 'NONE', #169, 15.00000000000000000 ) ;
#81 = DIRECTION ( 'NONE',  ( -1.000000000000000000, 0.000000000000000000, 0.000000000000000000 ) ) ;
#82 = LINE ( 'NONE', #507, #324 ) ;
#83 = VERTEX_POINT ( 'NONE', #280 ) ;
#84 = ADVANCED_FACE ( 'NONE', ( #8, #477, #523, #424, #108 ), #332, .F. ) ;
#85 = CARTESIAN_POINT ( 'NONE',  ( -100.0000000000000000, -100.0000000000000000, 0.000000000000000000 ) ) ;
#86 = ORIENTED_EDGE ( 'NONE', *, *, #649, .F. ) ;
#87 = DIRECTION ( 'NONE',  ( -1.000000000000000000, 0.000000000000000000, 0.000000000000000000 ) ) ;
#88 = DATE_AND_TIME ( #629, #89 ) ;
#89 = LOCAL_TIME ( 14, 36, 52.00000000000000000, #566 ) ;
#90 = VECTOR ( 'NONE', #11, 1000.000000000000000 ) ;
#91 = EDGE_LOOP ( 'NONE', ( #542, #508 ) ) ;
#92 = PRODUCT ( 'PLATEMillieuHaut_Défaut_sldprt', 'PLATEMillieuHaut_Défaut_sldprt', '', ( #524 ) ) ;
#93 = AXIS2_PLACEMENT_3D ( 'NONE', #207, #279, #153 ) ;
#94 = EDGE_CURVE ( 'NONE', #15, #360, #220, .T. ) ;
#95 = CALENDAR_DATE ( 2020, 29, 11 ) ;
#96 = APPLICATION_CONTEXT ( 'configuration controlled 3d designs of mechanical parts and assemblies' ) ;
#97 = EDGE_CURVE ( 'NONE', #294, #667, #326, .T. ) ;
#98 = EDGE_LOOP ( 'NONE', ( #263, #138, #331, #300 ) ) ;
#99 = APPROVAL_PERSON_ORGANIZATION ( #319, #1, #415 ) ;
#100 = CARTESIAN_POINT ( 'NONE',  ( 100.0000000000000000, -85.00000000000001421, 7.000000000000000000 ) ) ;
#101 = DIRECTION ( 'NONE',  ( -1.000000000000000000, 0.000000000000000000, 0.000000000000000000 ) ) ;
#102 = DATE_TIME_ROLE ( 'classification_date' ) ;
#103 =( LENGTH_UNIT ( ) NAMED_UNIT ( * ) SI_UNIT ( .MILLI., .METRE. ) );
#104 = AXIS2_PLACEMENT_3D ( 'NONE', #375, #63, #478 ) ;
#105 = EDGE_CURVE ( 'NONE', #67, #428, #341, .T. ) ;
#106 = EDGE_CURVE ( 'NONE', #164, #388, #579, .T. ) ;
#107 = CYLINDRICAL_SURFACE ( 'NONE', #267, 15.00000000000000000 ) ;
#108 = FACE_BOUND ( 'NONE', #14, .T. ) ;
#109 = CARTESIAN_POINT ( 'NONE',  ( 100.0000000000000000, 84.99999999999997158, 7.000000000000000000 ) ) ;
#110 = EDGE_LOOP ( 'NONE', ( #197, #561, #430, #550 ) ) ;
#111 = AXIS2_PLACEMENT_3D ( 'NONE', #552, #135, #347 ) ;
#112 = DIRECTION ( 'NONE',  ( -0.000000000000000000, -0.000000000000000000, -1.000000000000000000 ) ) ;
#113 = CIRCLE ( 'NONE', #476, 5.000000000000004441 ) ;
#114 = ORIENTED_EDGE ( 'NONE', *, *, #470, .F. ) ;
#115 = DESIGN_CONTEXT ( 'detailed design', #278, 'design' ) ;
#116 = CC_DESIGN_DATE_AND_TIME_ASSIGNMENT ( #54, #202, ( #481 ) ) ;
#117 = EDGE_LOOP ( 'NONE', ( #226, #12, #38, #188 ) ) ;
#118 = DIRECTION ( 'NONE',  ( 1.000000000000000000, 0.000000000000000000, 0.000000000000000000 ) ) ;
#119 = EDGE_LOOP ( 'NONE', ( #500, #43, #145, #535, #421, #222, #394, #625 ) ) ;
#120 = EDGE_CURVE ( 'NONE', #495, #428, #601, .T. ) ;
#121 = EDGE_LOOP ( 'NONE', ( #440, #362 ) ) ;
#122 = DIRECTION ( 'NONE',  ( -0.000000000000000000, -0.000000000000000000, -1.000000000000000000 ) ) ;
#123 = ORIENTED_EDGE ( 'NONE', *, *, #313, .T. ) ;
#124 = CC_DESIGN_PERSON_AND_ORGANIZATION_ASSIGNMENT ( #265, #322, ( #329 ) ) ;
#125 = AXIS2_PLACEMENT_3D ( 'NONE', #77, #643, #549 ) ;
#126 = LINE ( 'NONE', #396, #475 ) ;
#127 = CARTESIAN_POINT ( 'NONE',  ( -80.00000000000000000, -80.00000000000000000, 7.000000000000000000 ) ) ;
#128 = DIRECTION ( 'NONE',  ( 1.000000000000000000, 0.000000000000000000, 0.000000000000000000 ) ) ;
#129 = CARTESIAN_POINT ( 'NONE',  ( 100.0000000000000000, -100.0000000000000142, 0.000000000000000000 ) ) ;
#130 = ORIENTED_EDGE ( 'NONE', *, *, #60, .T. ) ;
#131 = CARTESIAN_POINT ( 'NONE',  ( 84.99999999999998579, -100.0000000000000142, 7.000000000000000000 ) ) ;
#132 = DIRECTION ( 'NONE',  ( 0.000000000000000000, 0.000000000000000000, -1.000000000000000000 ) ) ;
#133 = ORIENTED_EDGE ( 'NONE', *, *, #584, .F. ) ;
#134 = CARTESIAN_POINT ( 'NONE',  ( 85.00000000000000000, -80.00000000000000000, 7.000000000000000000 ) ) ;
#135 = DIRECTION ( 'NONE',  ( 0.000000000000000000, 0.000000000000000000, 1.000000000000000000 ) ) ;
#136 = VECTOR ( 'NONE', #547, 1000.000000000000000 ) ;
#137 = ADVANCED_FACE ( 'NONE', ( #645 ), #295, .F. ) ;
#138 = ORIENTED_EDGE ( 'NONE', *, *, #417, .T. ) ;
#139 = CYLINDRICAL_SURFACE ( 'NONE', #498, 15.00000000000000000 ) ;
#140 = CARTESIAN_POINT ( 'NONE',  ( -100.0000000000000000, -85.00000000000000000, 7.000000000000000000 ) ) ;
#141 = LOCAL_TIME ( 14, 36, 52.00000000000000000, #521 ) ;
#142 = VERTEX_POINT ( 'NONE', #100 ) ;
#143 = ADVANCED_BREP_SHAPE_REPRESENTATION ( 'PLATEMillieuHaut_DÚfaut_sldprt', ( #174, #662 ), #285 ) ;
#144 = APPROVAL_STATUS ( 'not_yet_approved' ) ;
#145 = ORIENTED_EDGE ( 'NONE', *, *, #201, .F. ) ;
#146 = ADVANCED_FACE ( 'NONE', ( #404 ), #615, .F. ) ;
#147 = DIRECTION ( 'NONE',  ( 0.000000000000000000, 0.000000000000000000, 1.000000000000000000 ) ) ;
#148 = AXIS2_PLACEMENT_3D ( 'NONE', #318, #147, #253 ) ;
#149 = ORIENTED_EDGE ( 'NONE', *, *, #150, .F. ) ;
#150 = EDGE_CURVE ( 'NONE', #171, #479, #208, .T. ) ;
#151 = DIRECTION ( 'NONE',  ( 0.000000000000000000, 0.000000000000000000, 1.000000000000000000 ) ) ;
#152 = DATE_AND_TIME ( #626, #19 ) ;
#153 = DIRECTION ( 'NONE',  ( 1.000000000000000000, 0.000000000000000000, 0.000000000000000000 ) ) ;
#154 = CARTESIAN_POINT ( 'NONE',  ( 75.00000000000000000, 79.99999999999998579, 0.000000000000000000 ) ) ;
#155 = CARTESIAN_POINT ( 'NONE',  ( 0.000000000000000000, 0.000000000000000000, 0.000000000000000000 ) ) ;
#156 = LINE ( 'NONE', #327, #525 ) ;
#157 = AXIS2_PLACEMENT_3D ( 'NONE', #492, #237, #350 ) ;
#158 = AXIS2_PLACEMENT_3D ( 'NONE', #517, #457, #193 ) ;
#159 = DIRECTION ( 'NONE',  ( -1.000000000000000000, 0.000000000000000000, -0.000000000000000000 ) ) ;
#160 = DIRECTION ( 'NONE',  ( -1.000000000000000000, 0.000000000000000000, 0.000000000000000000 ) ) ;
#161 = ORIENTED_EDGE ( 'NONE', *, *, #191, .T. ) ;
#162 = ADVANCED_FACE ( 'NONE', ( #252 ), #564, .F. ) ;
#163 = DIRECTION ( 'NONE',  ( 1.000000000000000000, 0.000000000000000000, 0.000000000000000000 ) ) ;
#164 = VERTEX_POINT ( 'NONE', #610 ) ;
#165 = ORIENTED_EDGE ( 'NONE', *, *, #608, .F. ) ;
#166 = CIRCLE ( 'NONE', #487, 5.000000000000004441 ) ;
#167 = CLOSED_SHELL ( 'NONE', ( #544, #175, #162, #309, #84, #505, #137, #469, #526, #515, #146, #639, #620, #366, #371, #409, #459, #52 ) ) ;
#168 = DIRECTION ( 'NONE',  ( 0.000000000000000000, 0.000000000000000000, 1.000000000000000000 ) ) ;
#169 = AXIS2_PLACEMENT_3D ( 'NONE', #32, #604, #345 ) ;
#170 = ORIENTED_EDGE ( 'NONE', *, *, #298, .T. ) ;
#171 = VERTEX_POINT ( 'NONE', #134 ) ;
#172 = CARTESIAN_POINT ( 'NONE',  ( -80.00000000000000000, -80.00000000000000000, 0.000000000000000000 ) ) ;
#173 = EDGE_LOOP ( 'NONE', ( #192, #659 ) ) ;
#174 = MANIFOLD_SOLID_BREP ( 'Congé1', #167 ) ;
#175 = ADVANCED_FACE ( 'NONE', ( #512 ), #44, .F. ) ;
#176 = CARTESIAN_POINT ( 'NONE',  ( -100.0000000000000000, -100.0000000000000000, 7.000000000000000000 ) ) ;
#177 = CARTESIAN_POINT ( 'NONE',  ( -85.00000000000000000, 99.99999999999998579, 7.000000000000000000 ) ) ;
#178 = DIRECTION ( 'NONE',  ( -0.000000000000000000, -0.000000000000000000, 1.000000000000000000 ) ) ;
#179 = ORIENTED_EDGE ( 'NONE', *, *, #247, .T. ) ;
#180 = AXIS2_PLACEMENT_3D ( 'NONE', #450, #661, #194 ) ;
#181 = DIRECTION ( 'NONE',  ( 6.938893903907229610E-17, 1.000000000000000000, -0.000000000000000000 ) ) ;
#182 = DIRECTION ( 'NONE',  ( -1.000000000000000000, 0.000000000000000000, 0.000000000000000000 ) ) ;
#183 = CIRCLE ( 'NONE', #356, 5.000000000000004441 ) ;
#184 = EDGE_LOOP ( 'NONE', ( #335, #431, #133, #51 ) ) ;
#185 = CARTESIAN_POINT ( 'NONE',  ( -100.0000000000000000, -100.0000000000000000, 0.000000000000000000 ) ) ;
#186 = CARTESIAN_POINT ( 'NONE',  ( -85.00000000000000000, 79.99999999999998579, 7.000000000000000000 ) ) ;
#187 = CC_DESIGN_APPROVAL ( #1, ( #376 ) ) ;
#188 = ORIENTED_EDGE ( 'NONE', *, *, #97, .F. ) ;
#189 = LINE ( 'NONE', #185, #435 ) ;
#190 = DIRECTION ( 'NONE',  ( 0.000000000000000000, 0.000000000000000000, -1.000000000000000000 ) ) ;
#191 = EDGE_CURVE ( 'NONE', #474, #236, #64, .T. ) ;
#192 = ORIENTED_EDGE ( 'NONE', *, *, #490, .T. ) ;
#193 = DIRECTION ( 'NONE',  ( 1.000000000000000000, 0.000000000000000000, 0.000000000000000000 ) ) ;
#194 = DIRECTION ( 'NONE',  ( -1.000000000000000000, 0.000000000000000000, -0.000000000000000000 ) ) ;
#195 = VECTOR ( 'NONE', #359, 1000.000000000000000 ) ;
#196 = VECTOR ( 'NONE', #27, 1000.000000000000000 ) ;
#197 = ORIENTED_EDGE ( 'NONE', *, *, #305, .T. ) ;
#198 = CARTESIAN_POINT ( 'NONE',  ( 80.00000000000000000, -80.00000000000000000, 7.000000000000000000 ) ) ;
#199 = DIRECTION ( 'NONE',  ( -1.000000000000000000, -0.000000000000000000, -0.000000000000000000 ) ) ;
#200 = ORIENTED_EDGE ( 'NONE', *, *, #106, .T. ) ;
#201 = EDGE_CURVE ( 'NONE', #76, #384, #668, .T. ) ;
#202 = DATE_TIME_ROLE ( 'creation_date' ) ;
#203 = VERTEX_POINT ( 'NONE', #499 ) ;
#204 = DIRECTION ( 'NONE',  ( -0.000000000000000000, -0.000000000000000000, -1.000000000000000000 ) ) ;
#205 = APPROVAL_ROLE ( '' ) ;
#206 = AXIS2_PLACEMENT_3D ( 'NONE', #562, #624, #509 ) ;
#207 = CARTESIAN_POINT ( 'NONE',  ( 80.00000000000000000, -80.00000000000000000, 7.000000000000000000 ) ) ;
#208 = CIRCLE ( 'NONE', #502, 5.000000000000004441 ) ;
#209 = LINE ( 'NONE', #518, #532 ) ;
#210 = CALENDAR_DATE ( 2020, 29, 11 ) ;
#211 = EDGE_CURVE ( 'NONE', #203, #360, #385, .T. ) ;
#212 = CARTESIAN_POINT ( 'NONE',  ( -85.00000000000000000, 79.99999999999998579, 0.000000000000000000 ) ) ;
#213 = EDGE_CURVE ( 'NONE', #458, #495, #80, .T. ) ;
#214 = CARTESIAN_POINT ( 'NONE',  ( 84.99999999999998579, 99.99999999999998579, 0.000000000000000000 ) ) ;
#215 = CIRCLE ( 'NONE', #111, 5.000000000000004441 ) ;
#216 = VECTOR ( 'NONE', #122, 1000.000000000000000 ) ;
#217 = ORIENTED_EDGE ( 'NONE', *, *, #94, .F. ) ;
#218 = EDGE_CURVE ( 'NONE', #458, #613, #560, .T. ) ;
#219 = EDGE_CURVE ( 'NONE', #667, #294, #557, .T. ) ;
#220 = LINE ( 'NONE', #386, #216 ) ;
#221 = CARTESIAN_POINT ( 'NONE',  ( -85.00000000000000000, -80.00000000000000000, 0.000000000000000000 ) ) ;
#222 = ORIENTED_EDGE ( 'NONE', *, *, #584, .T. ) ;
#223 = ORIENTED_EDGE ( 'NONE', *, *, #71, .T. ) ;
#224 = FACE_OUTER_BOUND ( 'NONE', #110, .T. ) ;
#225 = LOCAL_TIME ( 14, 36, 52.00000000000000000, #484 ) ;
#226 = ORIENTED_EDGE ( 'NONE', *, *, #417, .F. ) ;
#227 = CIRCLE ( 'NONE', #266, 5.000000000000004441 ) ;
#228 = CALENDAR_DATE ( 2020, 29, 11 ) ;
#229 = VECTOR ( 'NONE', #112, 1000.000000000000000 ) ;
#230 = DIRECTION ( 'NONE',  ( 0.000000000000000000, 0.000000000000000000, 1.000000000000000000 ) ) ;
#231 = EDGE_LOOP ( 'NONE', ( #655, #486, #233, #571 ) ) ;
#232 = EDGE_CURVE ( 'NONE', #479, #236, #311, .T. ) ;
#233 = ORIENTED_EDGE ( 'NONE', *, *, #213, .F. ) ;
#234 = EDGE_CURVE ( 'NONE', #388, #379, #554, .T. ) ;
#235 = DIRECTION ( 'NONE',  ( -1.000000000000000000, 0.000000000000000000, 0.000000000000000000 ) ) ;
#236 = VERTEX_POINT ( 'NONE', #35 ) ;
#237 = DIRECTION ( 'NONE',  ( -0.000000000000000000, -0.000000000000000000, -1.000000000000000000 ) ) ;
#238 = FACE_OUTER_BOUND ( 'NONE', #663, .T. ) ;
#239 = EDGE_LOOP ( 'NONE', ( #320, #416, #260, #349 ) ) ;
#240 = FACE_BOUND ( 'NONE', #445, .T. ) ;
#241 = DIRECTION ( 'NONE',  ( 0.000000000000000000, 0.000000000000000000, -1.000000000000000000 ) ) ;
#242 = AXIS2_PLACEMENT_3D ( 'NONE', #352, #556, #660 ) ;
#243 = DIRECTION ( 'NONE',  ( 1.000000000000000000, 0.000000000000000000, 0.000000000000000000 ) ) ;
#244 = EDGE_CURVE ( 'NONE', #428, #142, #588, .T. ) ;
#245 = FACE_OUTER_BOUND ( 'NONE', #184, .T. ) ;
#246 = CARTESIAN_POINT ( 'NONE',  ( 75.00000000000000000, 79.99999999999998579, 7.000000000000000000 ) ) ;
#247 = EDGE_CURVE ( 'NONE', #390, #317, #25, .T. ) ;
#248 = PLANE ( 'NONE',  #180 ) ;
#249 = CARTESIAN_POINT ( 'NONE',  ( -80.00000000000000000, 79.99999999999998579, 0.000000000000000000 ) ) ;
#250 = ORIENTED_EDGE ( 'NONE', *, *, #325, .F. ) ;
#251 = CC_DESIGN_SECURITY_CLASSIFICATION ( #329, ( #376 ) ) ;
#252 = FACE_OUTER_BOUND ( 'NONE', #600, .T. ) ;
#253 = DIRECTION ( 'NONE',  ( 1.000000000000000000, 0.000000000000000000, 0.000000000000000000 ) ) ;
#254 = DIRECTION ( 'NONE',  ( -1.000000000000000000, 0.000000000000000000, 0.000000000000000000 ) ) ;
#255 = AXIS2_PLACEMENT_3D ( 'NONE', #23, #178, #254 ) ;
#256 = CC_DESIGN_PERSON_AND_ORGANIZATION_ASSIGNMENT ( #315, #47, ( #481 ) ) ;
#257 = CIRCLE ( 'NONE', #93, 5.000000000000004441 ) ;
#258 = ORIENTED_EDGE ( 'NONE', *, *, #649, .T. ) ;
#259 = PLANE ( 'NONE',  #541 ) ;
#260 = ORIENTED_EDGE ( 'NONE', *, *, #247, .F. ) ;
#261 = CARTESIAN_POINT ( 'NONE',  ( -75.00000000000000000, -80.00000000000000000, 7.000000000000000000 ) ) ;
#262 = PERSON_AND_ORGANIZATION_ROLE ( 'creator' ) ;
#263 = ORIENTED_EDGE ( 'NONE', *, *, #368, .T. ) ;
#264 = DIRECTION ( 'NONE',  ( -1.000000000000000000, 0.000000000000000000, 0.000000000000000000 ) ) ;
#265 = PERSON_AND_ORGANIZATION ( #425, #6 ) ;
#266 = AXIS2_PLACEMENT_3D ( 'NONE', #172, #168, #590 ) ;
#267 = AXIS2_PLACEMENT_3D ( 'NONE', #9, #582, #540 ) ;
#268 = VECTOR ( 'NONE', #618, 1000.000000000000000 ) ;
#269 = CARTESIAN_POINT ( 'NONE',  ( 100.0000000000000000, -100.0000000000000142, 7.000000000000000000 ) ) ;
#270 = CARTESIAN_POINT ( 'NONE',  ( -85.00000000000000000, 79.99999999999998579, 7.000000000000000000 ) ) ;
#271 =( NAMED_UNIT ( * ) PLANE_ANGLE_UNIT ( ) SI_UNIT ( $, .RADIAN. ) );
#272 = DIRECTION ( 'NONE',  ( 0.000000000000000000, 0.000000000000000000, 1.000000000000000000 ) ) ;
#273 = CARTESIAN_POINT ( 'NONE',  ( -85.00000000000000000, -100.0000000000000000, 7.000000000000000000 ) ) ;
#274 = ORIENTED_EDGE ( 'NONE', *, *, #45, .T. ) ;
#275 = CC_DESIGN_APPROVAL ( #374, ( #481 ) ) ;
#276 = VECTOR ( 'NONE', #190, 1000.000000000000000 ) ;
#277 = DIRECTION ( 'NONE',  ( 0.000000000000000000, 0.000000000000000000, -1.000000000000000000 ) ) ;
#278 = APPLICATION_CONTEXT ( 'configuration controlled 3d designs of mechanical parts and assemblies' ) ;
#279 = DIRECTION ( 'NONE',  ( 0.000000000000000000, 0.000000000000000000, 1.000000000000000000 ) ) ;
#280 = CARTESIAN_POINT ( 'NONE',  ( 85.00000000000000000, 79.99999999999998579, 7.000000000000000000 ) ) ;
#281 = DIRECTION ( 'NONE',  ( 0.000000000000000000, 0.000000000000000000, 1.000000000000000000 ) ) ;
#282 = ORIENTED_EDGE ( 'NONE', *, *, #408, .F. ) ;
#283 = APPROVAL_ROLE ( '' ) ;
#284 = EDGE_LOOP ( 'NONE', ( #72, #563, #632, #250 ) ) ;
#285 =( GEOMETRIC_REPRESENTATION_CONTEXT ( 3 ) GLOBAL_UNCERTAINTY_ASSIGNED_CONTEXT ( ( #382 ) ) GLOBAL_UNIT_ASSIGNED_CONTEXT ( ( #103, #271, #420 ) ) REPRESENTATION_CONTEXT ( 'NONE', 'WORKASPACE' ) );
#286 = AXIS2_PLACEMENT_3D ( 'NONE', #399, #545, #290 ) ;
#287 = CYLINDRICAL_SURFACE ( 'NONE', #125, 15.00000000000000000 ) ;
#288 = CARTESIAN_POINT ( 'NONE',  ( -80.00000000000000000, -80.00000000000000000, 7.000000000000000000 ) ) ;
#289 = ORIENTED_EDGE ( 'NONE', *, *, #346, .T. ) ;
#290 = DIRECTION ( 'NONE',  ( -1.000000000000000000, 0.000000000000000000, 0.000000000000000000 ) ) ;
#291 = CARTESIAN_POINT ( 'NONE',  ( 84.99999999999998579, -100.0000000000000142, 0.000000000000000000 ) ) ;
#292 = LINE ( 'NONE', #407, #136 ) ;
#293 = CARTESIAN_POINT ( 'NONE',  ( 85.00000000000000000, -85.00000000000001421, 7.000000000000000000 ) ) ;
#294 = VERTEX_POINT ( 'NONE', #534 ) ;
#295 = PLANE ( 'NONE',  #570 ) ;
#296 = CARTESIAN_POINT ( 'NONE',  ( 85.00000000000000000, -80.00000000000000000, 0.000000000000000000 ) ) ;
#297 = CARTESIAN_POINT ( 'NONE',  ( -85.00000000000000000, 99.99999999999998579, 0.000000000000000000 ) ) ;
#298 = EDGE_CURVE ( 'NONE', #142, #164, #485, .T. ) ;
#299 = DIRECTION ( 'NONE',  ( 0.000000000000000000, 0.000000000000000000, 1.000000000000000000 ) ) ;
#300 = ORIENTED_EDGE ( 'NONE', *, *, #665, .F. ) ;
#301 = CARTESIAN_POINT ( 'NONE',  ( -100.0000000000000000, -100.0000000000000000, 7.000000000000000000 ) ) ;
#302 = AXIS2_PLACEMENT_3D ( 'NONE', #581, #272, #163 ) ;
#303 = CARTESIAN_POINT ( 'NONE',  ( -100.0000000000000000, -85.00000000000000000, 0.000000000000000000 ) ) ;
#304 = AXIS2_PLACEMENT_3D ( 'NONE', #293, #494, #449 ) ;
#305 = EDGE_CURVE ( 'NONE', #605, #83, #599, .T. ) ;
#306 = ORIENTED_EDGE ( 'NONE', *, *, #218, .T. ) ;
#307 = FACE_OUTER_BOUND ( 'NONE', #119, .T. ) ;
#308 = DIRECTION ( 'NONE',  ( -0.000000000000000000, -0.000000000000000000, -1.000000000000000000 ) ) ;
#309 = ADVANCED_FACE ( 'NONE', ( #224 ), #482, .F. ) ;
#310 = FACE_OUTER_BOUND ( 'NONE', #381, .T. ) ;
#311 = LINE ( 'NONE', #451, #357 ) ;
#312 = EDGE_LOOP ( 'NONE', ( #306, #123, #555, #627 ) ) ;
#313 = EDGE_CURVE ( 'NONE', #613, #164, #528, .T. ) ;
#314 = FACE_OUTER_BOUND ( 'NONE', #414, .T. ) ;
#315 = PERSON_AND_ORGANIZATION ( #425, #6 ) ;
#316 = VECTOR ( 'NONE', #65, 1000.000000000000000 ) ;
#317 = VERTEX_POINT ( 'NONE', #333 ) ;
#318 = CARTESIAN_POINT ( 'NONE',  ( 80.00000000000000000, -80.00000000000000000, 0.000000000000000000 ) ) ;
#319 = PERSON_AND_ORGANIZATION ( #425, #6 ) ;
#320 = ORIENTED_EDGE ( 'NONE', *, *, #201, .T. ) ;
#321 = CARTESIAN_POINT ( 'NONE',  ( -80.00000000000000000, -80.00000000000000000, 7.000000000000000000 ) ) ;
#322 = PERSON_AND_ORGANIZATION_ROLE ( 'classification_officer' ) ;
#323 = PRODUCT_RELATED_PRODUCT_CATEGORY ( 'detail', '', ( #92 ) ) ;
#324 = VECTOR ( 'NONE', #5, 1000.000000000000000 ) ;
#325 = EDGE_CURVE ( 'NONE', #434, #573, #513, .T. ) ;
#326 = CIRCLE ( 'NONE', #488, 5.000000000000004441 ) ;
#327 = CARTESIAN_POINT ( 'NONE',  ( -85.00000000000000000, 99.99999999999998579, 7.000000000000000000 ) ) ;
#328 = APPLICATION_PROTOCOL_DEFINITION ( 'international standard', 'config_control_design', 1994, #278 ) ;
#329 = SECURITY_CLASSIFICATION ( '', '', #569 ) ;
#330 = DIRECTION ( 'NONE',  ( -1.000000000000000000, 0.000000000000000000, 0.000000000000000000 ) ) ;
#331 = ORIENTED_EDGE ( 'NONE', *, *, #219, .F. ) ;
#332 = PLANE ( 'NONE',  #614 ) ;
#333 = CARTESIAN_POINT ( 'NONE',  ( -100.0000000000000000, -85.00000000000000000, 7.000000000000000000 ) ) ;
#334 = EDGE_LOOP ( 'NONE', ( #567, #149 ) ) ;
#335 = ORIENTED_EDGE ( 'NONE', *, *, #106, .F. ) ;
#336 = ORIENTED_EDGE ( 'NONE', *, *, #408, .T. ) ;
#337 = FACE_OUTER_BOUND ( 'NONE', #117, .T. ) ;
#338 = VERTEX_POINT ( 'NONE', #214 ) ;
#339 = ORIENTED_EDGE ( 'NONE', *, *, #533, .F. ) ;
#340 = EDGE_CURVE ( 'NONE', #593, #384, #405, .T. ) ;
#341 = LINE ( 'NONE', #176, #196 ) ;
#342 = SHAPE_DEFINITION_REPRESENTATION ( #574, #143 ) ;
#343 = AXIS2_PLACEMENT_3D ( 'NONE', #354, #558, #28 ) ;
#344 = CARTESIAN_POINT ( 'NONE',  ( 85.00000000000000000, 79.99999999999998579, 0.000000000000000000 ) ) ;
#345 = DIRECTION ( 'NONE',  ( -1.000000000000000000, 0.000000000000000000, 0.000000000000000000 ) ) ;
#346 = EDGE_CURVE ( 'NONE', #360, #203, #227, .T. ) ;
#347 = DIRECTION ( 'NONE',  ( 1.000000000000000000, 0.000000000000000000, 0.000000000000000000 ) ) ;
#348 = EDGE_CURVE ( 'NONE', #379, #390, #30, .T. ) ;
#349 = ORIENTED_EDGE ( 'NONE', *, *, #24, .T. ) ;
#350 = DIRECTION ( 'NONE',  ( -1.000000000000000000, 0.000000000000000000, 0.000000000000000000 ) ) ;
#351 = EDGE_LOOP ( 'NONE', ( #642, #339 ) ) ;
#352 = CARTESIAN_POINT ( 'NONE',  ( -80.00000000000000000, -80.00000000000000000, 7.000000000000000000 ) ) ;
#353 = VECTOR ( 'NONE', #595, 1000.000000000000000 ) ;
#354 = CARTESIAN_POINT ( 'NONE',  ( 80.00000000000000000, 79.99999999999998579, 0.000000000000000000 ) ) ;
#355 = CARTESIAN_POINT ( 'NONE',  ( 80.00000000000000000, -80.00000000000000000, 7.000000000000000000 ) ) ;
#356 = AXIS2_PLACEMENT_3D ( 'NONE', #288, #583, #580 ) ;
#357 = VECTOR ( 'NONE', #455, 1000.000000000000000 ) ;
#358 = EDGE_LOOP ( 'NONE', ( #587, #538, #623, #483 ) ) ;
#359 = DIRECTION ( 'NONE',  ( -0.000000000000000000, -0.000000000000000000, 1.000000000000000000 ) ) ;
#360 = VERTEX_POINT ( 'NONE', #221 ) ;
#361 = CARTESIAN_POINT ( 'NONE',  ( 80.00000000000000000, -80.00000000000000000, 7.000000000000000000 ) ) ;
#362 = ORIENTED_EDGE ( 'NONE', *, *, #97, .T. ) ;
#363 = APPROVAL_DATE_TIME ( #576, #1 ) ;
#364 = VECTOR ( 'NONE', #241, 1000.000000000000000 ) ;
#365 = VERTEX_POINT ( 'NONE', #429 ) ;
#366 = ADVANCED_FACE ( 'NONE', ( #337 ), #646, .F. ) ;
#367 = APPLICATION_PROTOCOL_DEFINITION ( 'international standard', 'config_control_design', 1994, #96 ) ;
#368 = EDGE_CURVE ( 'NONE', #650, #365, #215, .T. ) ;
#369 = FACE_OUTER_BOUND ( 'NONE', #231, .T. ) ;
#370 = PERSON_AND_ORGANIZATION ( #425, #6 ) ;
#371 = ADVANCED_FACE ( 'NONE', ( #69 ), #287, .T. ) ;
#372 = AXIS2_PLACEMENT_3D ( 'NONE', #471, #230, #118 ) ;
#373 = VECTOR ( 'NONE', #551, 1000.000000000000000 ) ;
#374 = APPROVAL ( #144, 'UNSPECIFIED' ) ;
#375 = CARTESIAN_POINT ( 'NONE',  ( -85.00000000000000000, 84.99999999999998579, 7.000000000000000000 ) ) ;
#376 = PRODUCT_DEFINITION_FORMATION_WITH_SPECIFIED_SOURCE ( 'ANY', '', #92, .NOT_KNOWN. ) ;
#377 = CARTESIAN_POINT ( 'NONE',  ( 85.00000000000000000, 79.99999999999998579, 7.000000000000000000 ) ) ;
#378 = DIRECTION ( 'NONE',  ( 0.000000000000000000, 1.000000000000000000, 0.000000000000000000 ) ) ;
#379 = VERTEX_POINT ( 'NONE', #177 ) ;
#380 = DATE_AND_TIME ( #228, #225 ) ;
#381 = EDGE_LOOP ( 'NONE', ( #282, #13, #591, #398 ) ) ;
#382 = UNCERTAINTY_MEASURE_WITH_UNIT (LENGTH_MEASURE( 1.000000000000000082E-05 ), #103, 'distance_accuracy_value', 'NONE');
#383 = AXIS2_PLACEMENT_3D ( 'NONE', #426, #530, #160 ) ;
#384 = VERTEX_POINT ( 'NONE', #303 ) ;
#385 = CIRCLE ( 'NONE', #467, 5.000000000000004441 ) ;
#386 = CARTESIAN_POINT ( 'NONE',  ( -85.00000000000000000, -80.00000000000000000, 7.000000000000000000 ) ) ;
#387 = CARTESIAN_POINT ( 'NONE',  ( 80.00000000000000000, 79.99999999999998579, 7.000000000000000000 ) ) ;
#388 = VERTEX_POINT ( 'NONE', #597 ) ;
#389 = CC_DESIGN_PERSON_AND_ORGANIZATION_ASSIGNMENT ( #468, #466, ( #376 ) ) ;
#390 = VERTEX_POINT ( 'NONE', #18 ) ;
#391 = CARTESIAN_POINT ( 'NONE',  ( 100.0000000000000000, -85.00000000000001421, 0.000000000000000000 ) ) ;
#392 = CARTESIAN_POINT ( 'NONE',  ( 84.99999999999998579, 84.99999999999998579, 0.000000000000000000 ) ) ;
#393 = APPROVAL_PERSON_ORGANIZATION ( #370, #374, #205 ) ;
#394 = ORIENTED_EDGE ( 'NONE', *, *, #218, .F. ) ;
#395 = VECTOR ( 'NONE', #378, 1000.000000000000000 ) ;
#396 = CARTESIAN_POINT ( 'NONE',  ( -75.00000000000000000, -80.00000000000000000, 7.000000000000000000 ) ) ;
#397 = LINE ( 'NONE', #657, #41 ) ;
#398 = ORIENTED_EDGE ( 'NONE', *, *, #211, .F. ) ;
#399 = CARTESIAN_POINT ( 'NONE',  ( 84.99999999999998579, 84.99999999999998579, 7.000000000000000000 ) ) ;
#400 = DIRECTION ( 'NONE',  ( 1.000000000000000000, -6.938893903907228378E-17, 0.000000000000000000 ) ) ;
#401 = DIRECTION ( 'NONE',  ( -1.000000000000000000, 6.938893903907229610E-17, 0.000000000000000000 ) ) ;
#402 = CC_DESIGN_APPROVAL ( #432, ( #329 ) ) ;
#403 = ORIENTED_EDGE ( 'NONE', *, *, #633, .T. ) ;
#404 = FACE_OUTER_BOUND ( 'NONE', #284, .T. ) ;
#405 = CIRCLE ( 'NONE', #383, 15.00000000000000000 ) ;
#406 = DIRECTION ( 'NONE',  ( -0.000000000000000000, -0.000000000000000000, -1.000000000000000000 ) ) ;
#407 = CARTESIAN_POINT ( 'NONE',  ( 85.00000000000000000, -80.00000000000000000, 7.000000000000000000 ) ) ;
#408 = EDGE_CURVE ( 'NONE', #537, #203, #126, .T. ) ;
#409 = ADVANCED_FACE ( 'NONE', ( #503 ), #75, .T. ) ;
#410 = ORIENTED_EDGE ( 'NONE', *, *, #519, .T. ) ;
#411 = DIRECTION ( 'NONE',  ( -0.000000000000000000, -0.000000000000000000, -1.000000000000000000 ) ) ;
#412 = PERSON_AND_ORGANIZATION ( #425, #6 ) ;
#413 = DIRECTION ( 'NONE',  ( 0.000000000000000000, 0.000000000000000000, 1.000000000000000000 ) ) ;
#414 = EDGE_LOOP ( 'NONE', ( #403, #223, #529, #26 ) ) ;
#415 = APPROVAL_ROLE ( '' ) ;
#416 = ORIENTED_EDGE ( 'NONE', *, *, #608, .T. ) ;
#417 = EDGE_CURVE ( 'NONE', #365, #294, #539, .T. ) ;
#418 = EDGE_CURVE ( 'NONE', #593, #495, #189, .T. ) ;
#419 = AXIS2_PLACEMENT_3D ( 'NONE', #546, #181, #401 ) ;
#420 =( NAMED_UNIT ( * ) SI_UNIT ( $, .STERADIAN. ) SOLID_ANGLE_UNIT ( ) );
#421 = ORIENTED_EDGE ( 'NONE', *, *, #633, .F. ) ;
#422 = PERSON_AND_ORGANIZATION ( #425, #6 ) ;
#423 = EDGE_CURVE ( 'NONE', #76, #634, #7, .T. ) ;
#424 = FACE_BOUND ( 'NONE', #351, .T. ) ;
#425 = PERSON ( 'UNSPECIFIED', 'UNSPECIFIED', 'UNSPECIFIED', ('UNSPECIFIED'), ('UNSPECIFIED'), ('UNSPECIFIED') ) ;
#426 = CARTESIAN_POINT ( 'NONE',  ( -85.00000000000000000, -85.00000000000000000, 0.000000000000000000 ) ) ;
#427 = AXIS2_PLACEMENT_3D ( 'NONE', #355, #559, #497 ) ;
#428 = VERTEX_POINT ( 'NONE', #606 ) ;
#429 = CARTESIAN_POINT ( 'NONE',  ( -75.00000000000000000, 79.99999999999998579, 7.000000000000000000 ) ) ;
#430 = ORIENTED_EDGE ( 'NONE', *, *, #490, .F. ) ;
#431 = ORIENTED_EDGE ( 'NONE', *, *, #313, .F. ) ;
#432 = APPROVAL ( #10, 'UNSPECIFIED' ) ;
#433 = DIRECTION ( 'NONE',  ( -0.000000000000000000, -0.000000000000000000, -1.000000000000000000 ) ) ;
#434 = VERTEX_POINT ( 'NONE', #344 ) ;
#435 = VECTOR ( 'NONE', #400, 1000.000000000000000 ) ;
#436 = ORIENTED_EDGE ( 'NONE', *, *, #232, .T. ) ;
#437 = EDGE_LOOP ( 'NONE', ( #410, #161 ) ) ;
#438 = DIRECTION ( 'NONE',  ( 0.000000000000000000, 0.000000000000000000, -1.000000000000000000 ) ) ;
#439 = FACE_OUTER_BOUND ( 'NONE', #635, .T. ) ;
#440 = ORIENTED_EDGE ( 'NONE', *, *, #219, .T. ) ;
#441 = DIRECTION ( 'NONE',  ( -1.000000000000000000, 0.000000000000000000, 0.000000000000000000 ) ) ;
#442 = DIRECTION ( 'NONE',  ( -1.000000000000000000, 0.000000000000000000, 0.000000000000000000 ) ) ;
#443 = CIRCLE ( 'NONE', #586, 5.000000000000004441 ) ;
#444 = DIRECTION ( 'NONE',  ( 0.000000000000000000, 0.000000000000000000, -1.000000000000000000 ) ) ;
#445 = EDGE_LOOP ( 'NONE', ( #289, #48 ) ) ;
#446 = DIRECTION ( 'NONE',  ( 0.000000000000000000, 0.000000000000000000, -1.000000000000000000 ) ) ;
#447 = PLANE ( 'NONE',  #419 ) ;
#448 = CARTESIAN_POINT ( 'NONE',  ( 100.0000000000000000, 84.99999999999997158, 0.000000000000000000 ) ) ;
#449 = DIRECTION ( 'NONE',  ( -1.000000000000000000, 0.000000000000000000, 0.000000000000000000 ) ) ;
#450 = CARTESIAN_POINT ( 'NONE',  ( 0.000000000000000000, 0.000000000000000000, 0.000000000000000000 ) ) ;
#451 = CARTESIAN_POINT ( 'NONE',  ( 75.00000000000000000, -80.00000000000000000, 7.000000000000000000 ) ) ;
#452 = ORIENTED_EDGE ( 'NONE', *, *, #592, .F. ) ;
#453 = AXIS2_PLACEMENT_3D ( 'NONE', #392, #438, #442 ) ;
#454 = DIRECTION ( 'NONE',  ( -1.000000000000000000, -0.000000000000000000, -0.000000000000000000 ) ) ;
#455 = DIRECTION ( 'NONE',  ( -0.000000000000000000, -0.000000000000000000, -1.000000000000000000 ) ) ;
#456 = ORIENTED_EDGE ( 'NONE', *, *, #519, .F. ) ;
#457 = DIRECTION ( 'NONE',  ( 0.000000000000000000, 0.000000000000000000, 1.000000000000000000 ) ) ;
#458 = VERTEX_POINT ( 'NONE', #391 ) ;
#459 = ADVANCED_FACE ( 'NONE', ( #245 ), #139, .T. ) ;
#460 = FACE_OUTER_BOUND ( 'NONE', #98, .T. ) ;
#461 = COORDINATED_UNIVERSAL_TIME_OFFSET ( 1, 0, .AHEAD. ) ;
#462 = CARTESIAN_POINT ( 'NONE',  ( -85.00000000000000000, -80.00000000000000000, 7.000000000000000000 ) ) ;
#463 = DIRECTION ( 'NONE',  ( 1.000000000000000000, 0.000000000000000000, 0.000000000000000000 ) ) ;
#464 = CIRCLE ( 'NONE', #148, 5.000000000000004441 ) ;
#465 = DIRECTION ( 'NONE',  ( -1.000000000000000000, 0.000000000000000000, 0.000000000000000000 ) ) ;
#466 = PERSON_AND_ORGANIZATION_ROLE ( 'design_supplier' ) ;
#467 = AXIS2_PLACEMENT_3D ( 'NONE', #654, #299, #42 ) ;
#468 = PERSON_AND_ORGANIZATION ( #425, #6 ) ;
#469 = ADVANCED_FACE ( 'NONE', ( #439 ), #447, .F. ) ;
#470 = EDGE_CURVE ( 'NONE', #365, #650, #443, .T. ) ;
#471 = CARTESIAN_POINT ( 'NONE',  ( 80.00000000000000000, 79.99999999999998579, 0.000000000000000000 ) ) ;
#472 = LINE ( 'NONE', #377, #229 ) ;
#473 = LOCAL_TIME ( 14, 36, 52.00000000000000000, #669 ) ;
#474 = VERTEX_POINT ( 'NONE', #296 ) ;
#475 = VECTOR ( 'NONE', #496, 1000.000000000000000 ) ;
#476 = AXIS2_PLACEMENT_3D ( 'NONE', #66, #281, #520 ) ;
#477 = FACE_BOUND ( 'NONE', #91, .T. ) ;
#478 = DIRECTION ( 'NONE',  ( -1.000000000000000000, 0.000000000000000000, 0.000000000000000000 ) ) ;
#479 = VERTEX_POINT ( 'NONE', #70 ) ;
#480 = ORIENTED_EDGE ( 'NONE', *, *, #340, .F. ) ;
#481 = PRODUCT_DEFINITION ( 'UNKNOWN', '', #376, #115 ) ;
#482 = CYLINDRICAL_SURFACE ( 'NONE', #631, 5.000000000000004441 ) ;
#483 = ORIENTED_EDGE ( 'NONE', *, *, #24, .F. ) ;
#484 = COORDINATED_UNIVERSAL_TIME_OFFSET ( 1, 0, .AHEAD. ) ;
#485 = LINE ( 'NONE', #640, #395 ) ;
#486 = ORIENTED_EDGE ( 'NONE', *, *, #120, .F. ) ;
#487 = AXIS2_PLACEMENT_3D ( 'NONE', #321, #568, #572 ) ;
#488 = AXIS2_PLACEMENT_3D ( 'NONE', #73, #594, #21 ) ;
#489 = CARTESIAN_POINT ( 'NONE',  ( -85.00000000000000000, 84.99999999999998579, 0.000000000000000000 ) ) ;
#490 = EDGE_CURVE ( 'NONE', #573, #434, #78, .T. ) ;
#491 = ORIENTED_EDGE ( 'NONE', *, *, #232, .F. ) ;
#492 = CARTESIAN_POINT ( 'NONE',  ( -80.00000000000000000, 79.99999999999998579, 7.000000000000000000 ) ) ;
#493 = CARTESIAN_POINT ( 'NONE',  ( 84.99999999999998579, 99.99999999999998579, 7.000000000000000000 ) ) ;
#494 = DIRECTION ( 'NONE',  ( -0.000000000000000000, -0.000000000000000000, 1.000000000000000000 ) ) ;
#495 = VERTEX_POINT ( 'NONE', #291 ) ;
#496 = DIRECTION ( 'NONE',  ( -0.000000000000000000, -0.000000000000000000, -1.000000000000000000 ) ) ;
#497 = DIRECTION ( 'NONE',  ( -1.000000000000000000, 0.000000000000000000, 0.000000000000000000 ) ) ;
#498 = AXIS2_PLACEMENT_3D ( 'NONE', #34, #656, #441 ) ;
#499 = CARTESIAN_POINT ( 'NONE',  ( -75.00000000000000000, -80.00000000000000000, 0.000000000000000000 ) ) ;
#500 = ORIENTED_EDGE ( 'NONE', *, *, #418, .F. ) ;
#501 = DIRECTION ( 'NONE',  ( 1.000000000000000000, 0.000000000000000000, 0.000000000000000000 ) ) ;
#502 = AXIS2_PLACEMENT_3D ( 'NONE', #361, #39, #463 ) ;
#503 = FACE_OUTER_BOUND ( 'NONE', #358, .T. ) ;
#504 = ORIENTED_EDGE ( 'NONE', *, *, #348, .T. ) ;
#505 = ADVANCED_FACE ( 'NONE', ( #240, #653, #307, #506, #37 ), #248, .T. ) ;
#506 = FACE_BOUND ( 'NONE', #437, .T. ) ;
#507 = CARTESIAN_POINT ( 'NONE',  ( 100.0000000000000000, -85.00000000000001421, 7.000000000000000000 ) ) ;
#508 = ORIENTED_EDGE ( 'NONE', *, *, #4, .F. ) ;
#509 = DIRECTION ( 'NONE',  ( 0.000000000000000000, -0.000000000000000000, -1.000000000000000000 ) ) ;
#510 = LINE ( 'NONE', #493, #276 ) ;
#511 = DIRECTION ( 'NONE',  ( -0.000000000000000000, -1.000000000000000000, -0.000000000000000000 ) ) ;
#512 = FACE_OUTER_BOUND ( 'NONE', #20, .T. ) ;
#513 = CIRCLE ( 'NONE', #372, 5.000000000000004441 ) ;
#514 = LINE ( 'NONE', #270, #577 ) ;
#515 = ADVANCED_FACE ( 'NONE', ( #314 ), #56, .F. ) ;
#516 = ORIENTED_EDGE ( 'NONE', *, *, #630, .F. ) ;
#517 = CARTESIAN_POINT ( 'NONE',  ( 80.00000000000000000, -80.00000000000000000, 0.000000000000000000 ) ) ;
#518 = CARTESIAN_POINT ( 'NONE',  ( 75.00000000000000000, 79.99999999999998579, 7.000000000000000000 ) ) ;
#519 = EDGE_CURVE ( 'NONE', #236, #474, #464, .T. ) ;
#520 = DIRECTION ( 'NONE',  ( 1.000000000000000000, 0.000000000000000000, 0.000000000000000000 ) ) ;
#521 = COORDINATED_UNIVERSAL_TIME_OFFSET ( 1, 0, .AHEAD. ) ;
#522 = CIRCLE ( 'NONE', #255, 15.00000000000000000 ) ;
#523 = FACE_BOUND ( 'NONE', #334, .T. ) ;
#524 = MECHANICAL_CONTEXT ( 'NONE', #96, 'mechanical' ) ;
#525 = VECTOR ( 'NONE', #575, 1000.000000000000000 ) ;
#526 = ADVANCED_FACE ( 'NONE', ( #46 ), #259, .F. ) ;
#527 = CARTESIAN_POINT ( 'NONE',  ( -100.0000000000000000, 84.99999999999998579, 0.000000000000000000 ) ) ;
#528 = LINE ( 'NONE', #109, #90 ) ;
#529 = ORIENTED_EDGE ( 'NONE', *, *, #234, .F. ) ;
#530 = DIRECTION ( 'NONE',  ( 0.000000000000000000, 0.000000000000000000, -1.000000000000000000 ) ) ;
#531 = ORIENTED_EDGE ( 'NONE', *, *, #105, .T. ) ;
#532 = VECTOR ( 'NONE', #49, 1000.000000000000000 ) ;
#533 = EDGE_CURVE ( 'NONE', #537, #15, #166, .T. ) ;
#534 = CARTESIAN_POINT ( 'NONE',  ( -75.00000000000000000, 79.99999999999998579, 0.000000000000000000 ) ) ;
#535 = ORIENTED_EDGE ( 'NONE', *, *, #423, .T. ) ;
#536 = EDGE_CURVE ( 'NONE', #605, #573, #209, .T. ) ;
#537 = VERTEX_POINT ( 'NONE', #261 ) ;
#538 = ORIENTED_EDGE ( 'NONE', *, *, #71, .F. ) ;
#539 = LINE ( 'NONE', #616, #55 ) ;
#540 = DIRECTION ( 'NONE',  ( -1.000000000000000000, 0.000000000000000000, 0.000000000000000000 ) ) ;
#541 = AXIS2_PLACEMENT_3D ( 'NONE', #269, #465, #151 ) ;
#542 = ORIENTED_EDGE ( 'NONE', *, *, #305, .F. ) ;
#543 = AXIS2_PLACEMENT_3D ( 'NONE', #198, #411, #87 ) ;
#544 = ADVANCED_FACE ( 'NONE', ( #460 ), #628, .F. ) ;
#545 = DIRECTION ( 'NONE',  ( -0.000000000000000000, -0.000000000000000000, 1.000000000000000000 ) ) ;
#546 = CARTESIAN_POINT ( 'NONE',  ( -100.0000000000000000, -100.0000000000000000, 7.000000000000000000 ) ) ;
#547 = DIRECTION ( 'NONE',  ( -0.000000000000000000, -0.000000000000000000, -1.000000000000000000 ) ) ;
#548 = ORIENTED_EDGE ( 'NONE', *, *, #234, .T. ) ;
#549 = DIRECTION ( 'NONE',  ( -1.000000000000000000, 0.000000000000000000, 0.000000000000000000 ) ) ;
#550 = ORIENTED_EDGE ( 'NONE', *, *, #536, .F. ) ;
#551 = DIRECTION ( 'NONE',  ( -0.000000000000000000, -0.000000000000000000, 1.000000000000000000 ) ) ;
#552 = CARTESIAN_POINT ( 'NONE',  ( -80.00000000000000000, 79.99999999999998579, 7.000000000000000000 ) ) ;
#553 = CC_DESIGN_PERSON_AND_ORGANIZATION_ASSIGNMENT ( #50, #262, ( #376 ) ) ;
#554 = LINE ( 'NONE', #666, #58 ) ;
#555 = ORIENTED_EDGE ( 'NONE', *, *, #298, .F. ) ;
#556 = DIRECTION ( 'NONE',  ( -0.000000000000000000, -0.000000000000000000, -1.000000000000000000 ) ) ;
#557 = CIRCLE ( 'NONE', #638, 5.000000000000004441 ) ;
#558 = DIRECTION ( 'NONE',  ( 0.000000000000000000, 0.000000000000000000, 1.000000000000000000 ) ) ;
#559 = DIRECTION ( 'NONE',  ( -0.000000000000000000, -0.000000000000000000, -1.000000000000000000 ) ) ;
#560 = LINE ( 'NONE', #129, #268 ) ;
#561 = ORIENTED_EDGE ( 'NONE', *, *, #74, .T. ) ;
#562 = CARTESIAN_POINT ( 'NONE',  ( -100.0000000000000000, 99.99999999999998579, 7.000000000000000000 ) ) ;
#563 = ORIENTED_EDGE ( 'NONE', *, *, #4, .T. ) ;
#564 = CYLINDRICAL_SURFACE ( 'NONE', #543, 5.000000000000004441 ) ;
#565 = CC_DESIGN_DATE_AND_TIME_ASSIGNMENT ( #152, #102, ( #329 ) ) ;
#566 = COORDINATED_UNIVERSAL_TIME_OFFSET ( 1, 0, .AHEAD. ) ;
#567 = ORIENTED_EDGE ( 'NONE', *, *, #45, .F. ) ;
#568 = DIRECTION ( 'NONE',  ( 0.000000000000000000, 0.000000000000000000, 1.000000000000000000 ) ) ;
#569 = SECURITY_CLASSIFICATION_LEVEL ( 'unclassified' ) ;
#570 = AXIS2_PLACEMENT_3D ( 'NONE', #301, #501, #446 ) ;
#571 = ORIENTED_EDGE ( 'NONE', *, *, #652, .F. ) ;
#572 = DIRECTION ( 'NONE',  ( 1.000000000000000000, 0.000000000000000000, 0.000000000000000000 ) ) ;
#573 = VERTEX_POINT ( 'NONE', #154 ) ;
#574 = PRODUCT_DEFINITION_SHAPE ( 'NONE', 'NONE',  #481 ) ;
#575 = DIRECTION ( 'NONE',  ( -0.000000000000000000, -0.000000000000000000, 1.000000000000000000 ) ) ;
#576 = DATE_AND_TIME ( #210, #141 ) ;
#577 = VECTOR ( 'NONE', #672, 1000.000000000000000 ) ;
#578 = DIRECTION ( 'NONE',  ( 1.000000000000000000, 0.000000000000000000, 0.000000000000000000 ) ) ;
#579 = CIRCLE ( 'NONE', #286, 15.00000000000000000 ) ;
#580 = DIRECTION ( 'NONE',  ( 1.000000000000000000, 0.000000000000000000, 0.000000000000000000 ) ) ;
#581 = CARTESIAN_POINT ( 'NONE',  ( 80.00000000000000000, 79.99999999999998579, 7.000000000000000000 ) ) ;
#582 = DIRECTION ( 'NONE',  ( 0.000000000000000000, 0.000000000000000000, -1.000000000000000000 ) ) ;
#583 = DIRECTION ( 'NONE',  ( 0.000000000000000000, 0.000000000000000000, 1.000000000000000000 ) ) ;
#584 = EDGE_CURVE ( 'NONE', #338, #613, #636, .T. ) ;
#585 = APPROVAL_DATE_TIME ( #380, #432 ) ;
#586 = AXIS2_PLACEMENT_3D ( 'NONE', #602, #612, #128 ) ;
#587 = ORIENTED_EDGE ( 'NONE', *, *, #348, .F. ) ;
#588 = CIRCLE ( 'NONE', #304, 15.00000000000000000 ) ;
#589 = ORIENTED_EDGE ( 'NONE', *, *, #105, .F. ) ;
#590 = DIRECTION ( 'NONE',  ( 1.000000000000000000, 0.000000000000000000, 0.000000000000000000 ) ) ;
#591 = ORIENTED_EDGE ( 'NONE', *, *, #94, .T. ) ;
#592 = EDGE_CURVE ( 'NONE', #171, #474, #292, .T. ) ;
#593 = VERTEX_POINT ( 'NONE', #40 ) ;
#594 = DIRECTION ( 'NONE',  ( 0.000000000000000000, 0.000000000000000000, 1.000000000000000000 ) ) ;
#595 = DIRECTION ( 'NONE',  ( -0.000000000000000000, -1.000000000000000000, -0.000000000000000000 ) ) ;
#596 = ORIENTED_EDGE ( 'NONE', *, *, #592, .T. ) ;
#597 = CARTESIAN_POINT ( 'NONE',  ( 84.99999999999998579, 99.99999999999998579, 7.000000000000000000 ) ) ;
#598 = CYLINDRICAL_SURFACE ( 'NONE', #648, 5.000000000000004441 ) ;
#599 = CIRCLE ( 'NONE', #302, 5.000000000000004441 ) ;
#600 = EDGE_LOOP ( 'NONE', ( #274, #596, #456, #491 ) ) ;
#601 = LINE ( 'NONE', #131, #373 ) ;
#602 = CARTESIAN_POINT ( 'NONE',  ( -80.00000000000000000, 79.99999999999998579, 7.000000000000000000 ) ) ;
#603 = CYLINDRICAL_SURFACE ( 'NONE', #427, 5.000000000000004441 ) ;
#604 = DIRECTION ( 'NONE',  ( 0.000000000000000000, 0.000000000000000000, -1.000000000000000000 ) ) ;
#605 = VERTEX_POINT ( 'NONE', #246 ) ;
#606 = CARTESIAN_POINT ( 'NONE',  ( 84.99999999999998579, -100.0000000000000142, 7.000000000000000000 ) ) ;
#607 = CARTESIAN_POINT ( 'NONE',  ( -85.00000000000000000, -100.0000000000000000, 7.000000000000000000 ) ) ;
#608 = EDGE_CURVE ( 'NONE', #384, #317, #617, .T. ) ;
#609 = EDGE_LOOP ( 'NONE', ( #516, #165, #480, #86 ) ) ;
#610 = CARTESIAN_POINT ( 'NONE',  ( 100.0000000000000000, 84.99999999999997158, 7.000000000000000000 ) ) ;
#611 = APPROVAL_PERSON_ORGANIZATION ( #422, #432, #283 ) ;
#612 = DIRECTION ( 'NONE',  ( 0.000000000000000000, 0.000000000000000000, 1.000000000000000000 ) ) ;
#613 = VERTEX_POINT ( 'NONE', #448 ) ;
#614 = AXIS2_PLACEMENT_3D ( 'NONE', #62, #277, #159 ) ;
#615 = CYLINDRICAL_SURFACE ( 'NONE', #651, 5.000000000000004441 ) ;
#616 = CARTESIAN_POINT ( 'NONE',  ( -75.00000000000000000, 79.99999999999998579, 7.000000000000000000 ) ) ;
#617 = LINE ( 'NONE', #140, #195 ) ;
#618 = DIRECTION ( 'NONE',  ( 0.000000000000000000, 1.000000000000000000, 0.000000000000000000 ) ) ;
#619 = ORIENTED_EDGE ( 'NONE', *, *, #191, .F. ) ;
#620 = ADVANCED_FACE ( 'NONE', ( #310 ), #598, .F. ) ;
#621 = PERSON_AND_ORGANIZATION_ROLE ( 'design_owner' ) ;
#622 = EDGE_CURVE ( 'NONE', #388, #338, #510, .T. ) ;
#623 = ORIENTED_EDGE ( 'NONE', *, *, #423, .F. ) ;
#624 = DIRECTION ( 'NONE',  ( 0.000000000000000000, -1.000000000000000000, 0.000000000000000000 ) ) ;
#625 = ORIENTED_EDGE ( 'NONE', *, *, #213, .T. ) ;
#626 = CALENDAR_DATE ( 2020, 29, 11 ) ;
#627 = ORIENTED_EDGE ( 'NONE', *, *, #652, .T. ) ;
#628 = CYLINDRICAL_SURFACE ( 'NONE', #68, 5.000000000000004441 ) ;
#629 = CALENDAR_DATE ( 2020, 29, 11 ) ;
#630 = EDGE_CURVE ( 'NONE', #317, #67, #522, .T. ) ;
#631 = AXIS2_PLACEMENT_3D ( 'NONE', #387, #433, #330 ) ;
#632 = ORIENTED_EDGE ( 'NONE', *, *, #536, .T. ) ;
#633 = EDGE_CURVE ( 'NONE', #338, #634, #397, .T. ) ;
#634 = VERTEX_POINT ( 'NONE', #297 ) ;
#635 = EDGE_LOOP ( 'NONE', ( #589, #258, #33, #79 ) ) ;
#636 = CIRCLE ( 'NONE', #453, 15.00000000000000000 ) ;
#637 = ORIENTED_EDGE ( 'NONE', *, *, #630, .T. ) ;
#638 = AXIS2_PLACEMENT_3D ( 'NONE', #249, #413, #243 ) ;
#639 = ADVANCED_FACE ( 'NONE', ( #238 ), #603, .F. ) ;
#640 = CARTESIAN_POINT ( 'NONE',  ( 100.0000000000000000, -100.0000000000000142, 7.000000000000000000 ) ) ;
#641 = ORIENTED_EDGE ( 'NONE', *, *, #346, .F. ) ;
#642 = ORIENTED_EDGE ( 'NONE', *, *, #60, .F. ) ;
#643 = DIRECTION ( 'NONE',  ( 0.000000000000000000, -0.000000000000000000, -1.000000000000000000 ) ) ;
#644 = EDGE_LOOP ( 'NONE', ( #179, #637, #531, #670, #170, #200, #548, #504 ) ) ;
#645 = FACE_OUTER_BOUND ( 'NONE', #239, .T. ) ;
#646 = CYLINDRICAL_SURFACE ( 'NONE', #157, 5.000000000000004441 ) ;
#647 = DIRECTION ( 'NONE',  ( -0.000000000000000000, -0.000000000000000000, -1.000000000000000000 ) ) ;
#648 = AXIS2_PLACEMENT_3D ( 'NONE', #127, #647, #182 ) ;
#649 = EDGE_CURVE ( 'NONE', #67, #593, #29, .T. ) ;
#650 = VERTEX_POINT ( 'NONE', #186 ) ;
#651 = AXIS2_PLACEMENT_3D ( 'NONE', #53, #308, #264 ) ;
#652 = EDGE_CURVE ( 'NONE', #142, #458, #82, .T. ) ;
#653 = FACE_BOUND ( 'NONE', #173, .T. ) ;
#654 = CARTESIAN_POINT ( 'NONE',  ( -80.00000000000000000, -80.00000000000000000, 0.000000000000000000 ) ) ;
#655 = ORIENTED_EDGE ( 'NONE', *, *, #244, .F. ) ;
#656 = DIRECTION ( 'NONE',  ( 0.000000000000000000, 0.000000000000000000, -1.000000000000000000 ) ) ;
#657 = CARTESIAN_POINT ( 'NONE',  ( -100.0000000000000000, 99.99999999999998579, 0.000000000000000000 ) ) ;
#658 = CARTESIAN_POINT ( 'NONE',  ( -100.0000000000000000, -100.0000000000000000, 7.000000000000000000 ) ) ;
#659 = ORIENTED_EDGE ( 'NONE', *, *, #325, .T. ) ;
#660 = DIRECTION ( 'NONE',  ( -1.000000000000000000, 0.000000000000000000, 0.000000000000000000 ) ) ;
#661 = DIRECTION ( 'NONE',  ( 0.000000000000000000, 0.000000000000000000, -1.000000000000000000 ) ) ;
#662 = AXIS2_PLACEMENT_3D ( 'NONE', #155, #664, #578 ) ;
#663 = EDGE_LOOP ( 'NONE', ( #452, #36, #436, #619 ) ) ;
#664 = DIRECTION ( 'NONE',  ( 0.000000000000000000, 0.000000000000000000, 1.000000000000000000 ) ) ;
#665 = EDGE_CURVE ( 'NONE', #650, #667, #514, .T. ) ;
#666 = CARTESIAN_POINT ( 'NONE',  ( -100.0000000000000000, 99.99999999999998579, 7.000000000000000000 ) ) ;
#667 = VERTEX_POINT ( 'NONE', #212 ) ;
#668 = LINE ( 'NONE', #85, #3 ) ;
#669 = COORDINATED_UNIVERSAL_TIME_OFFSET ( 1, 0, .AHEAD. ) ;
#670 = ORIENTED_EDGE ( 'NONE', *, *, #244, .T. ) ;
#671 = CARTESIAN_POINT ( 'NONE',  ( -80.00000000000000000, 79.99999999999998579, 7.000000000000000000 ) ) ;
#672 = DIRECTION ( 'NONE',  ( -0.000000000000000000, -0.000000000000000000, -1.000000000000000000 ) ) ;
#673 = CARTESIAN_POINT ( 'NONE',  ( -100.0000000000000000, 84.99999999999998579, 7.000000000000000000 ) ) ;
ENDSEC;
END-ISO-10303-21;
