ISO-10303-21;
HEADER;
FILE_DESCRIPTION (( 'STEP AP203' ),
    '1' );
FILE_NAME ('Poid_Défaut_sldprt.STEP',
    '2020-11-29T13:36:57',
    ( '' ),
    ( '' ),
    'SwSTEP 2.0',
    'SolidWorks 2020',
    '' );
FILE_SCHEMA (( 'CONFIG_CONTROL_DESIGN' ));
ENDSEC;

DATA;
#1 = FACE_OUTER_BOUND ( 'NONE', #75, .T. ) ;
#2 = CC_DESIGN_PERSON_AND_ORGANIZATION_ASSIGNMENT ( #29, #68, ( #70 ) ) ;
#3 = CARTESIAN_POINT ( 'NONE',  ( 35.00000000000000711, 4.286263797015737285E-15, 20.00000000000000000 ) ) ;
#4 = APPROVAL_ROLE ( '' ) ;
#5 = DATE_AND_TIME ( #38, #42 ) ;
#6 = DIRECTION ( 'NONE',  ( 0.000000000000000000, 0.000000000000000000, 1.000000000000000000 ) ) ;
#7 = CALENDAR_DATE ( 2020, 29, 11 ) ;
#8 = VERTEX_POINT ( 'NONE', #138 ) ;
#9 = AXIS2_PLACEMENT_3D ( 'NONE', #51, #53, #107 ) ;
#10 = CARTESIAN_POINT ( 'NONE',  ( 0.000000000000000000, 0.000000000000000000, 0.000000000000000000 ) ) ;
#11 = LINE ( 'NONE', #90, #89 ) ;
#12 = DIRECTION ( 'NONE',  ( -1.000000000000000000, 0.000000000000000000, 0.000000000000000000 ) ) ;
#13 =( GEOMETRIC_REPRESENTATION_CONTEXT ( 3 ) GLOBAL_UNCERTAINTY_ASSIGNED_CONTEXT ( ( #99 ) ) GLOBAL_UNIT_ASSIGNED_CONTEXT ( ( #37, #14, #165 ) ) REPRESENTATION_CONTEXT ( 'NONE', 'WORKASPACE' ) );
#14 =( NAMED_UNIT ( * ) PLANE_ANGLE_UNIT ( ) SI_UNIT ( $, .RADIAN. ) );
#15 = PERSON_AND_ORGANIZATION ( #125, #19 ) ;
#16 = APPROVAL_STATUS ( 'not_yet_approved' ) ;
#17 = CC_DESIGN_PERSON_AND_ORGANIZATION_ASSIGNMENT ( #82, #67, ( #109 ) ) ;
#18 = APPROVAL ( #141, 'UNSPECIFIED' ) ;
#19 = ORGANIZATION ( 'UNSPECIFIED', 'UNSPECIFIED', '' ) ;
#20 = CC_DESIGN_SECURITY_CLASSIFICATION ( #70, ( #109 ) ) ;
#21 = DIRECTION ( 'NONE',  ( 0.000000000000000000, 0.000000000000000000, 1.000000000000000000 ) ) ;
#22 = CARTESIAN_POINT ( 'NONE',  ( 0.000000000000000000, 0.000000000000000000, 0.000000000000000000 ) ) ;
#23 = DIRECTION ( 'NONE',  ( -0.000000000000000000, -0.000000000000000000, -1.000000000000000000 ) ) ;
#24 = ADVANCED_FACE ( 'NONE', ( #103 ), #91, .F. ) ;
#25 = AXIS2_PLACEMENT_3D ( 'NONE', #36, #21, #35 ) ;
#26 = DATE_TIME_ROLE ( 'creation_date' ) ;
#27 = CARTESIAN_POINT ( 'NONE',  ( 0.000000000000000000, 0.000000000000000000, 0.000000000000000000 ) ) ;
#28 = APPROVAL_ROLE ( '' ) ;
#29 = PERSON_AND_ORGANIZATION ( #125, #19 ) ;
#30 = APPROVAL ( #166, 'UNSPECIFIED' ) ;
#31 = AXIS2_PLACEMENT_3D ( 'NONE', #27, #6, #57 ) ;
#32 = VERTEX_POINT ( 'NONE', #164 ) ;
#33 = ORIENTED_EDGE ( 'NONE', *, *, #142, .F. ) ;
#34 = CARTESIAN_POINT ( 'NONE',  ( -35.00000000000000711, 0.000000000000000000, 0.000000000000000000 ) ) ;
#35 = DIRECTION ( 'NONE',  ( 1.000000000000000000, 0.000000000000000000, 0.000000000000000000 ) ) ;
#36 = CARTESIAN_POINT ( 'NONE',  ( 0.000000000000000000, 0.000000000000000000, 0.000000000000000000 ) ) ;
#37 =( LENGTH_UNIT ( ) NAMED_UNIT ( * ) SI_UNIT ( .MILLI., .METRE. ) );
#38 = CALENDAR_DATE ( 2020, 29, 11 ) ;
#39 = COORDINATED_UNIVERSAL_TIME_OFFSET ( 1, 0, .AHEAD. ) ;
#40 = DATE_TIME_ROLE ( 'classification_date' ) ;
#41 = PERSON_AND_ORGANIZATION ( #125, #19 ) ;
#42 = LOCAL_TIME ( 14, 36, 57.00000000000000000, #95 ) ;
#43 = LOCAL_TIME ( 14, 36, 57.00000000000000000, #81 ) ;
#44 = CC_DESIGN_PERSON_AND_ORGANIZATION_ASSIGNMENT ( #167, #151, ( #109 ) ) ;
#45 = EDGE_LOOP ( 'NONE', ( #159, #61 ) ) ;
#46 = ORIENTED_EDGE ( 'NONE', *, *, #118, .T. ) ;
#47 = APPROVAL_PERSON_ORGANIZATION ( #139, #136, #140 ) ;
#48 = ORIENTED_EDGE ( 'NONE', *, *, #66, .F. ) ;
#49 = DIRECTION ( 'NONE',  ( 0.000000000000000000, 0.000000000000000000, 1.000000000000000000 ) ) ;
#50 = EDGE_CURVE ( 'NONE', #71, #163, #85, .T. ) ;
#51 = CARTESIAN_POINT ( 'NONE',  ( 0.000000000000000000, 0.000000000000000000, 20.00000000000000000 ) ) ;
#52 = LOCAL_TIME ( 14, 36, 57.00000000000000000, #54 ) ;
#53 = DIRECTION ( 'NONE',  ( 0.000000000000000000, 0.000000000000000000, 1.000000000000000000 ) ) ;
#54 = COORDINATED_UNIVERSAL_TIME_OFFSET ( 1, 0, .AHEAD. ) ;
#55 = ADVANCED_FACE ( 'NONE', ( #92 ), #116, .T. ) ;
#56 = AXIS2_PLACEMENT_3D ( 'NONE', #22, #104, #105 ) ;
#57 = DIRECTION ( 'NONE',  ( 1.000000000000000000, 0.000000000000000000, 0.000000000000000000 ) ) ;
#58 = CLOSED_SHELL ( 'NONE', ( #96, #55, #160, #24 ) ) ;
#59 = DIRECTION ( 'NONE',  ( -0.000000000000000000, -0.000000000000000000, -1.000000000000000000 ) ) ;
#60 = CC_DESIGN_DATE_AND_TIME_ASSIGNMENT ( #168, #40, ( #70 ) ) ;
#61 = ORIENTED_EDGE ( 'NONE', *, *, #72, .F. ) ;
#62 = CARTESIAN_POINT ( 'NONE',  ( 0.000000000000000000, 0.000000000000000000, 20.00000000000000000 ) ) ;
#63 = ORIENTED_EDGE ( 'NONE', *, *, #142, .T. ) ;
#64 = DATE_AND_TIME ( #153, #102 ) ;
#65 = CALENDAR_DATE ( 2020, 29, 11 ) ;
#66 = EDGE_CURVE ( 'NONE', #8, #32, #69, .T. ) ;
#67 = PERSON_AND_ORGANIZATION_ROLE ( 'creator' ) ;
#68 = PERSON_AND_ORGANIZATION_ROLE ( 'classification_officer' ) ;
#69 = CIRCLE ( 'NONE', #113, 35.00000000000000711 ) ;
#70 = SECURITY_CLASSIFICATION ( '', '', #152 ) ;
#71 = VERTEX_POINT ( 'NONE', #34 ) ;
#72 = EDGE_CURVE ( 'NONE', #163, #71, #169, .T. ) ;
#73 = CC_DESIGN_PERSON_AND_ORGANIZATION_ASSIGNMENT ( #41, #156, ( #154 ) ) ;
#74 = DIRECTION ( 'NONE',  ( -0.000000000000000000, -0.000000000000000000, -1.000000000000000000 ) ) ;
#75 = EDGE_LOOP ( 'NONE', ( #130, #63 ) ) ;
#76 = DIRECTION ( 'NONE',  ( -1.000000000000000000, 0.000000000000000000, 0.000000000000000000 ) ) ;
#77 = FACE_OUTER_BOUND ( 'NONE', #144, .T. ) ;
#78 = PLANE ( 'NONE',  #9 ) ;
#79 = SHAPE_DEFINITION_REPRESENTATION ( #148, #131 ) ;
#80 = PRODUCT ( 'Poid_Défaut_sldprt', 'Poid_Défaut_sldprt', '', ( #115 ) ) ;
#81 = COORDINATED_UNIVERSAL_TIME_OFFSET ( 1, 0, .AHEAD. ) ;
#82 = PERSON_AND_ORGANIZATION ( #125, #19 ) ;
#83 = APPROVAL_DATE_TIME ( #64, #18 ) ;
#84 = DATE_AND_TIME ( #7, #98 ) ;
#85 = CIRCLE ( 'NONE', #25, 35.00000000000000711 ) ;
#86 = ORIENTED_EDGE ( 'NONE', *, *, #50, .T. ) ;
#87 = CC_DESIGN_DATE_AND_TIME_ASSIGNMENT ( #5, #26, ( #154 ) ) ;
#88 = EDGE_LOOP ( 'NONE', ( #158, #48, #46, #86 ) ) ;
#89 = VECTOR ( 'NONE', #59, 1000.000000000000000 ) ;
#90 = CARTESIAN_POINT ( 'NONE',  ( -35.00000000000000711, 0.000000000000000000, 20.00000000000000000 ) ) ;
#91 = PLANE ( 'NONE',  #150 ) ;
#92 = FACE_OUTER_BOUND ( 'NONE', #88, .T. ) ;
#93 = PERSON_AND_ORGANIZATION ( #125, #19 ) ;
#94 = CIRCLE ( 'NONE', #162, 35.00000000000000711 ) ;
#95 = COORDINATED_UNIVERSAL_TIME_OFFSET ( 1, 0, .AHEAD. ) ;
#96 = ADVANCED_FACE ( 'NONE', ( #77 ), #121, .T. ) ;
#97 = APPROVAL_DATE_TIME ( #84, #136 ) ;
#98 = LOCAL_TIME ( 14, 36, 57.00000000000000000, #128 ) ;
#99 = UNCERTAINTY_MEASURE_WITH_UNIT (LENGTH_MEASURE( 1.000000000000000082E-05 ), #37, 'distance_accuracy_value', 'NONE');
#100 = ORIENTED_EDGE ( 'NONE', *, *, #106, .T. ) ;
#101 = ORIENTED_EDGE ( 'NONE', *, *, #118, .F. ) ;
#102 = LOCAL_TIME ( 14, 36, 57.00000000000000000, #39 ) ;
#103 = FACE_OUTER_BOUND ( 'NONE', #45, .T. ) ;
#104 = DIRECTION ( 'NONE',  ( 0.000000000000000000, 0.000000000000000000, 1.000000000000000000 ) ) ;
#105 = DIRECTION ( 'NONE',  ( 1.000000000000000000, 0.000000000000000000, 0.000000000000000000 ) ) ;
#106 = EDGE_CURVE ( 'NONE', #32, #163, #135, .T. ) ;
#107 = DIRECTION ( 'NONE',  ( 1.000000000000000000, 0.000000000000000000, -0.000000000000000000 ) ) ;
#108 = CARTESIAN_POINT ( 'NONE',  ( 35.00000000000000711, 4.286263797015737285E-15, 0.000000000000000000 ) ) ;
#109 = PRODUCT_DEFINITION_FORMATION_WITH_SPECIFIED_SOURCE ( 'ANY', '', #80, .NOT_KNOWN. ) ;
#110 = APPLICATION_PROTOCOL_DEFINITION ( 'international standard', 'config_control_design', 1994, #172 ) ;
#111 = APPROVAL_DATE_TIME ( #122, #30 ) ;
#112 = CALENDAR_DATE ( 2020, 29, 11 ) ;
#113 = AXIS2_PLACEMENT_3D ( 'NONE', #62, #49, #146 ) ;
#114 = CC_DESIGN_APPROVAL ( #136, ( #70 ) ) ;
#115 = MECHANICAL_CONTEXT ( 'NONE', #126, 'mechanical' ) ;
#116 = CYLINDRICAL_SURFACE ( 'NONE', #119, 35.00000000000000711 ) ;
#117 = CARTESIAN_POINT ( 'NONE',  ( 0.000000000000000000, 0.000000000000000000, 20.00000000000000000 ) ) ;
#118 = EDGE_CURVE ( 'NONE', #8, #71, #11, .T. ) ;
#119 = AXIS2_PLACEMENT_3D ( 'NONE', #134, #23, #12 ) ;
#120 = DIRECTION ( 'NONE',  ( 0.000000000000000000, 0.000000000000000000, 1.000000000000000000 ) ) ;
#121 = CYLINDRICAL_SURFACE ( 'NONE', #129, 35.00000000000000711 ) ;
#122 = DATE_AND_TIME ( #112, #52 ) ;
#123 = PERSON_AND_ORGANIZATION_ROLE ( 'design_owner' ) ;
#124 = PERSON_AND_ORGANIZATION ( #125, #19 ) ;
#125 = PERSON ( 'UNSPECIFIED', 'UNSPECIFIED', 'UNSPECIFIED', ('UNSPECIFIED'), ('UNSPECIFIED'), ('UNSPECIFIED') ) ;
#126 = APPLICATION_CONTEXT ( 'configuration controlled 3d designs of mechanical parts and assemblies' ) ;
#127 = CC_DESIGN_PERSON_AND_ORGANIZATION_ASSIGNMENT ( #124, #123, ( #80 ) ) ;
#128 = COORDINATED_UNIVERSAL_TIME_OFFSET ( 1, 0, .AHEAD. ) ;
#129 = AXIS2_PLACEMENT_3D ( 'NONE', #147, #74, #76 ) ;
#130 = ORIENTED_EDGE ( 'NONE', *, *, #66, .T. ) ;
#131 = ADVANCED_BREP_SHAPE_REPRESENTATION ( 'Poid_DÚfaut_sldprt', ( #157, #31 ), #13 ) ;
#132 = DIRECTION ( 'NONE',  ( 0.000000000000000000, 0.000000000000000000, 1.000000000000000000 ) ) ;
#133 = APPROVAL_PERSON_ORGANIZATION ( #93, #30, #28 ) ;
#134 = CARTESIAN_POINT ( 'NONE',  ( 0.000000000000000000, 0.000000000000000000, 20.00000000000000000 ) ) ;
#135 = LINE ( 'NONE', #3, #175 ) ;
#136 = APPROVAL ( #16, 'UNSPECIFIED' ) ;
#137 = DIRECTION ( 'NONE',  ( -0.000000000000000000, -0.000000000000000000, -1.000000000000000000 ) ) ;
#138 = CARTESIAN_POINT ( 'NONE',  ( -35.00000000000000711, 0.000000000000000000, 20.00000000000000000 ) ) ;
#139 = PERSON_AND_ORGANIZATION ( #125, #19 ) ;
#140 = APPROVAL_ROLE ( '' ) ;
#141 = APPROVAL_STATUS ( 'not_yet_approved' ) ;
#142 = EDGE_CURVE ( 'NONE', #32, #8, #94, .T. ) ;
#143 = DESIGN_CONTEXT ( 'detailed design', #172, 'design' ) ;
#144 = EDGE_LOOP ( 'NONE', ( #33, #100, #170, #101 ) ) ;
#145 = APPROVAL_PERSON_ORGANIZATION ( #15, #18, #4 ) ;
#146 = DIRECTION ( 'NONE',  ( 1.000000000000000000, 0.000000000000000000, 0.000000000000000000 ) ) ;
#147 = CARTESIAN_POINT ( 'NONE',  ( 0.000000000000000000, 0.000000000000000000, 20.00000000000000000 ) ) ;
#148 = PRODUCT_DEFINITION_SHAPE ( 'NONE', 'NONE',  #154 ) ;
#149 = CC_DESIGN_APPROVAL ( #18, ( #154 ) ) ;
#150 = AXIS2_PLACEMENT_3D ( 'NONE', #10, #132, #173 ) ;
#151 = PERSON_AND_ORGANIZATION_ROLE ( 'design_supplier' ) ;
#152 = SECURITY_CLASSIFICATION_LEVEL ( 'unclassified' ) ;
#153 = CALENDAR_DATE ( 2020, 29, 11 ) ;
#154 = PRODUCT_DEFINITION ( 'UNKNOWN', '', #109, #143 ) ;
#155 = CC_DESIGN_APPROVAL ( #30, ( #109 ) ) ;
#156 = PERSON_AND_ORGANIZATION_ROLE ( 'creator' ) ;
#157 = MANIFOLD_SOLID_BREP ( 'Boss.-Extru.1', #58 ) ;
#158 = ORIENTED_EDGE ( 'NONE', *, *, #106, .F. ) ;
#159 = ORIENTED_EDGE ( 'NONE', *, *, #50, .F. ) ;
#160 = ADVANCED_FACE ( 'NONE', ( #1 ), #78, .T. ) ;
#161 = PRODUCT_RELATED_PRODUCT_CATEGORY ( 'detail', '', ( #80 ) ) ;
#162 = AXIS2_PLACEMENT_3D ( 'NONE', #117, #120, #174 ) ;
#163 = VERTEX_POINT ( 'NONE', #108 ) ;
#164 = CARTESIAN_POINT ( 'NONE',  ( 35.00000000000000711, 4.286263797015737285E-15, 20.00000000000000000 ) ) ;
#165 =( NAMED_UNIT ( * ) SI_UNIT ( $, .STERADIAN. ) SOLID_ANGLE_UNIT ( ) );
#166 = APPROVAL_STATUS ( 'not_yet_approved' ) ;
#167 = PERSON_AND_ORGANIZATION ( #125, #19 ) ;
#168 = DATE_AND_TIME ( #65, #43 ) ;
#169 = CIRCLE ( 'NONE', #56, 35.00000000000000711 ) ;
#170 = ORIENTED_EDGE ( 'NONE', *, *, #72, .T. ) ;
#171 = APPLICATION_PROTOCOL_DEFINITION ( 'international standard', 'config_control_design', 1994, #126 ) ;
#172 = APPLICATION_CONTEXT ( 'configuration controlled 3d designs of mechanical parts and assemblies' ) ;
#173 = DIRECTION ( 'NONE',  ( 1.000000000000000000, 0.000000000000000000, -0.000000000000000000 ) ) ;
#174 = DIRECTION ( 'NONE',  ( 1.000000000000000000, 0.000000000000000000, 0.000000000000000000 ) ) ;
#175 = VECTOR ( 'NONE', #137, 1000.000000000000000 ) ;
ENDSEC;
END-ISO-10303-21;
