ISO-10303-21;
HEADER;
FILE_DESCRIPTION (( 'STEP AP203' ),
    '1' );
FILE_NAME ('barres_opt_Défaut_sldprt.STEP',
    '2020-11-29T13:37:02',
    ( '' ),
    ( '' ),
    'SwSTEP 2.0',
    'SolidWorks 2020',
    '' );
FILE_SCHEMA (( 'CONFIG_CONTROL_DESIGN' ));
ENDSEC;

DATA;
#1 = VECTOR ( 'NONE', #715, 1000.000000000000000 ) ;
#2 = LINE ( 'NONE', #807, #701 ) ;
#3 = AXIS2_PLACEMENT_3D ( 'NONE', #1305, #1281, #351 ) ;
#4 = PLANE ( 'NONE',  #381 ) ;
#5 = CARTESIAN_POINT ( 'NONE',  ( 137.4999999999999432, 137.4999999999999716, 200.0000000000000000 ) ) ;
#6 = EDGE_CURVE ( 'NONE', #899, #694, #248, .T. ) ;
#7 = CYLINDRICAL_SURFACE ( 'NONE', #1229, 5.000000000000004441 ) ;
#8 = LINE ( 'NONE', #907, #777 ) ;
#9 = ADVANCED_FACE ( 'NONE', ( #1080 ), #459, .F. ) ;
#10 = CARTESIAN_POINT ( 'NONE',  ( 0.000000000000000000, 0.000000000000000000, 209.9999999999999716 ) ) ;
#11 = CARTESIAN_POINT ( 'NONE',  ( 5.510910596163089556E-15, -25.00000000000000000, 205.0000000000000284 ) ) ;
#12 = CARTESIAN_POINT ( 'NONE',  ( -7.500000000000000000, 0.000000000000000000, 9.999999999999968026 ) ) ;
#13 = DIRECTION ( 'NONE',  ( 1.000000000000000000, 0.000000000000000000, -0.000000000000000000 ) ) ;
#14 = AXIS2_PLACEMENT_3D ( 'NONE', #18, #320, #303 ) ;
#15 = FACE_OUTER_BOUND ( 'NONE', #811, .T. ) ;
#16 = APPROVAL_DATE_TIME ( #438, #629 ) ;
#17 = ORIENTED_EDGE ( 'NONE', *, *, #770, .F. ) ;
#18 = CARTESIAN_POINT ( 'NONE',  ( -80.00000000000001421, -80.00000000000001421, 610.0000000000000000 ) ) ;
#19 = VECTOR ( 'NONE', #1234, 1000.000000000000000 ) ;
#20 = PLANE ( 'NONE',  #314 ) ;
#21 = VECTOR ( 'NONE', #683, 1000.000000000000000 ) ;
#22 = CARTESIAN_POINT ( 'NONE',  ( -127.4999999999999432, 137.5000000000000000, 200.0000000000000000 ) ) ;
#23 = CLOSED_SHELL ( 'NONE', ( #419, #829, #550, #1077 ) ) ;
#24 = DIRECTION ( 'NONE',  ( -4.336808689942015764E-16, -1.000000000000000000, 0.000000000000000000 ) ) ;
#25 = CALENDAR_DATE ( 2020, 29, 11 ) ;
#26 = DIRECTION ( 'NONE',  ( 0.000000000000000000, 0.000000000000000000, 1.000000000000000000 ) ) ;
#27 = FACE_OUTER_BOUND ( 'NONE', #909, .T. ) ;
#28 = ORIENTED_EDGE ( 'NONE', *, *, #809, .T. ) ;
#29 = CALENDAR_DATE ( 2020, 29, 11 ) ;
#30 = DIRECTION ( 'NONE',  ( -1.084202172485504434E-16, -1.000000000000000000, 0.000000000000000000 ) ) ;
#31 = CARTESIAN_POINT ( 'NONE',  ( 7.500000000000002665, -16.99999999999999289, 205.0000000000000284 ) ) ;
#32 = AXIS2_PLACEMENT_3D ( 'NONE', #435, #952, #330 ) ;
#33 = EDGE_CURVE ( 'NONE', #1093, #993, #1133, .T. ) ;
#34 = DATE_AND_TIME ( #763, #546 ) ;
#35 = LINE ( 'NONE', #447, #1270 ) ;
#36 = CIRCLE ( 'NONE', #353, 10.00000000000000888 ) ;
#37 = LOCAL_TIME ( 14, 37, 2.000000000000000000, #543 ) ;
#38 = LINE ( 'NONE', #1245, #1141 ) ;
#39 = CIRCLE ( 'NONE', #1285, 5.000000000000004441 ) ;
#40 = VECTOR ( 'NONE', #754, 1000.000000000000000 ) ;
#41 = EDGE_CURVE ( 'NONE', #1010, #1058, #846, .T. ) ;
#42 = DATE_AND_TIME ( #433, #37 ) ;
#43 = ADVANCED_FACE ( 'NONE', ( #196 ), #497, .T. ) ;
#44 = DIRECTION ( 'NONE',  ( 1.000000000000000000, 0.000000000000000000, 0.000000000000000000 ) ) ;
#45 = ORIENTED_EDGE ( 'NONE', *, *, #319, .F. ) ;
#46 = FACE_OUTER_BOUND ( 'NONE', #324, .T. ) ;
#47 = DIRECTION ( 'NONE',  ( 1.000000000000000000, 0.000000000000000000, -0.000000000000000000 ) ) ;
#48 = ORIENTED_EDGE ( 'NONE', *, *, #1298, .T. ) ;
#49 = VERTEX_POINT ( 'NONE', #1140 ) ;
#50 = DIRECTION ( 'NONE',  ( 1.000000000000000000, 1.678979138093659569E-16, 0.000000000000000000 ) ) ;
#51 = CYLINDRICAL_SURFACE ( 'NONE', #212, 5.000000000000004441 ) ;
#52 = ORIENTED_EDGE ( 'NONE', *, *, #343, .T. ) ;
#53 = CARTESIAN_POINT ( 'NONE',  ( 0.000000000000000000, 0.000000000000000000, 9.999999999999968026 ) ) ;
#54 = ORIENTED_EDGE ( 'NONE', *, *, #1159, .F. ) ;
#55 = VERTEX_POINT ( 'NONE', #600 ) ;
#56 = VECTOR ( 'NONE', #186, 1000.000000000000000 ) ;
#57 = AXIS2_PLACEMENT_3D ( 'NONE', #297, #1012, #1117 ) ;
#58 = EDGE_CURVE ( 'NONE', #49, #299, #830, .T. ) ;
#59 = AXIS2_PLACEMENT_3D ( 'NONE', #734, #189, #744 ) ;
#60 = DIRECTION ( 'NONE',  ( 0.000000000000000000, 0.000000000000000000, 1.000000000000000000 ) ) ;
#61 = EDGE_LOOP ( 'NONE', ( #169, #1086, #87, #1070 ) ) ;
#62 = VERTEX_POINT ( 'NONE', #1040 ) ;
#63 = ADVANCED_FACE ( 'NONE', ( #526 ), #7, .T. ) ;
#64 = CIRCLE ( 'NONE', #725, 5.000000000000004441 ) ;
#65 = DIRECTION ( 'NONE',  ( 0.000000000000000000, 0.000000000000000000, 1.000000000000000000 ) ) ;
#66 = DIRECTION ( 'NONE',  ( 0.000000000000000000, 0.000000000000000000, 1.000000000000000000 ) ) ;
#67 = ORIENTED_EDGE ( 'NONE', *, *, #437, .F. ) ;
#68 = DIRECTION ( 'NONE',  ( 4.336808689942015764E-16, 1.000000000000000000, 0.000000000000000000 ) ) ;
#69 = VERTEX_POINT ( 'NONE', #1236 ) ;
#70 = ORIENTED_EDGE ( 'NONE', *, *, #904, .T. ) ;
#71 = DIRECTION ( 'NONE',  ( 1.000000000000000000, -1.680333332844618051E-16, 0.000000000000000000 ) ) ;
#72 = ORIENTED_EDGE ( 'NONE', *, *, #441, .T. ) ;
#73 = CARTESIAN_POINT ( 'NONE',  ( 80.00000000000000000, 79.99999999999998579, 610.0000000000000000 ) ) ;
#74 = ORIENTED_EDGE ( 'NONE', *, *, #1201, .F. ) ;
#75 = ORIENTED_EDGE ( 'NONE', *, *, #343, .F. ) ;
#76 = FACE_OUTER_BOUND ( 'NONE', #573, .T. ) ;
#77 = CARTESIAN_POINT ( 'NONE',  ( -7.499999999999994671, -25.00000000000000000, 200.0000000000000000 ) ) ;
#78 = EDGE_LOOP ( 'NONE', ( #1114, #855 ) ) ;
#79 = DIRECTION ( 'NONE',  ( 3.993297967480360515E-16, 1.000000000000000000, 0.000000000000000000 ) ) ;
#80 = AXIS2_PLACEMENT_3D ( 'NONE', #895, #872, #1276 ) ;
#81 = ORIENTED_EDGE ( 'NONE', *, *, #461, .T. ) ;
#82 = ORIENTED_EDGE ( 'NONE', *, *, #539, .T. ) ;
#83 = DIRECTION ( 'NONE',  ( -0.000000000000000000, -0.000000000000000000, -1.000000000000000000 ) ) ;
#84 = AXIS2_PLACEMENT_3D ( 'NONE', #660, #442, #667 ) ;
#85 = CARTESIAN_POINT ( 'NONE',  ( 147.4999999999999716, 137.4999999999999716, 0.000000000000000000 ) ) ;
#86 = EDGE_CURVE ( 'NONE', #246, #694, #306, .T. ) ;
#87 = ORIENTED_EDGE ( 'NONE', *, *, #335, .T. ) ;
#88 = DIRECTION ( 'NONE',  ( -1.000000000000000000, 0.000000000000000000, 0.000000000000000000 ) ) ;
#89 = DIRECTION ( 'NONE',  ( 1.000000000000000000, 0.000000000000000000, 0.000000000000000000 ) ) ;
#90 = CARTESIAN_POINT ( 'NONE',  ( -3.221295782887532331E-15, 20.00000000000000000, 205.0000000000000284 ) ) ;
#91 = EDGE_LOOP ( 'NONE', ( #1182, #682 ) ) ;
#92 = DIRECTION ( 'NONE',  ( 1.000000000000000000, 1.678979138093659569E-16, 0.000000000000000000 ) ) ;
#93 = DIRECTION ( 'NONE',  ( 4.336808689942017736E-16, 1.000000000000000000, 0.000000000000000000 ) ) ;
#94 = ORIENTED_EDGE ( 'NONE', *, *, #1039, .F. ) ;
#95 = DIRECTION ( 'NONE',  ( 0.000000000000000000, 0.000000000000000000, 1.000000000000000000 ) ) ;
#96 = DIRECTION ( 'NONE',  ( 0.000000000000000000, 0.000000000000000000, -1.000000000000000000 ) ) ;
#97 = EDGE_CURVE ( 'NONE', #967, #302, #906, .T. ) ;
#98 = CARTESIAN_POINT ( 'NONE',  ( 80.00000000000001421, -80.00000000000001421, 0.000000000000000000 ) ) ;
#99 = ORIENTED_EDGE ( 'NONE', *, *, #197, .T. ) ;
#100 = ADVANCED_FACE ( 'NONE', ( #398 ), #1119, .T. ) ;
#101 =( LENGTH_UNIT ( ) NAMED_UNIT ( * ) SI_UNIT ( .MILLI., .METRE. ) );
#102 = CARTESIAN_POINT ( 'NONE',  ( 7.500000000000007105, -33.00000000000000000, 200.0000000000000000 ) ) ;
#103 = DIRECTION ( 'NONE',  ( 1.000000000000000000, 0.000000000000000000, -0.000000000000000000 ) ) ;
#104 = DIRECTION ( 'NONE',  ( -0.000000000000000000, -0.000000000000000000, -1.000000000000000000 ) ) ;
#105 = CARTESIAN_POINT ( 'NONE',  ( -7.499999999999995559, -33.00000000000000000, 205.0000000000000284 ) ) ;
#106 = ORIENTED_EDGE ( 'NONE', *, *, #904, .F. ) ;
#107 = EDGE_CURVE ( 'NONE', #790, #342, #1076, .T. ) ;
#108 = CYLINDRICAL_SURFACE ( 'NONE', #841, 5.000000000000000888 ) ;
#109 = AXIS2_PLACEMENT_3D ( 'NONE', #420, #126, #1052 ) ;
#110 = VECTOR ( 'NONE', #412, 1000.000000000000000 ) ;
#111 = ORIENTED_EDGE ( 'NONE', *, *, #971, .F. ) ;
#112 = DIRECTION ( 'NONE',  ( -0.000000000000000000, -0.000000000000000000, -1.000000000000000000 ) ) ;
#113 = AXIS2_PLACEMENT_3D ( 'NONE', #1249, #26, #30 ) ;
#114 = DIRECTION ( 'NONE',  ( -1.000000000000000000, 0.000000000000000000, 0.000000000000000000 ) ) ;
#115 = DIRECTION ( 'NONE',  ( -1.000000000000000000, -1.678979138093659569E-16, 0.000000000000000000 ) ) ;
#116 = ORIENTED_EDGE ( 'NONE', *, *, #582, .T. ) ;
#117 = CARTESIAN_POINT ( 'NONE',  ( 7.499999999999995559, 16.99999999999999289, 205.0000000000000284 ) ) ;
#118 = DIRECTION ( 'NONE',  ( 0.000000000000000000, 0.000000000000000000, 1.000000000000000000 ) ) ;
#119 = DIRECTION ( 'NONE',  ( -0.000000000000000000, -0.000000000000000000, -1.000000000000000000 ) ) ;
#120 = VERTEX_POINT ( 'NONE', #187 ) ;
#121 = APPROVAL ( #1158, 'UNSPECIFIED' ) ;
#122 = DIRECTION ( 'NONE',  ( -0.000000000000000000, -0.000000000000000000, -1.000000000000000000 ) ) ;
#123 = EDGE_CURVE ( 'NONE', #1136, #978, #946, .T. ) ;
#124 = CARTESIAN_POINT ( 'NONE',  ( -6.123233995736760366E-16, 25.00000000000000000, 200.0000000000000000 ) ) ;
#125 = PERSON ( 'UNSPECIFIED', 'UNSPECIFIED', 'UNSPECIFIED', ('UNSPECIFIED'), ('UNSPECIFIED'), ('UNSPECIFIED') ) ;
#126 = DIRECTION ( 'NONE',  ( 0.000000000000000000, 0.000000000000000000, 1.000000000000000000 ) ) ;
#127 = AXIS2_PLACEMENT_3D ( 'NONE', #865, #242, #1048 ) ;
#128 = APPLICATION_PROTOCOL_DEFINITION ( 'international standard', 'config_control_design', 1994, #534 ) ;
#129 = CIRCLE ( 'NONE', #1095, 10.00000000000000888 ) ;
#130 = CARTESIAN_POINT ( 'NONE',  ( 127.4999999999999432, 137.4999999999999716, 200.0000000000000000 ) ) ;
#131 = EDGE_CURVE ( 'NONE', #579, #269, #166, .T. ) ;
#132 = FACE_OUTER_BOUND ( 'NONE', #449, .T. ) ;
#133 = ORIENTED_EDGE ( 'NONE', *, *, #622, .F. ) ;
#134 = CLOSED_SHELL ( 'NONE', ( #1273, #845, #848, #943, #262, #703, #588, #9 ) ) ;
#135 = APPROVAL_ROLE ( '' ) ;
#136 = CALENDAR_DATE ( 2020, 29, 11 ) ;
#137 = CARTESIAN_POINT ( 'NONE',  ( -147.4999999999999716, 137.5000000000000000, 200.0000000000000000 ) ) ;
#138 = CARTESIAN_POINT ( 'NONE',  ( 7.499999999999999112, 24.99999999999999645, 205.0000000000000284 ) ) ;
#139 = EDGE_CURVE ( 'NONE', #1277, #773, #738, .T. ) ;
#140 = PERSON_AND_ORGANIZATION ( #125, #466 ) ;
#141 = EDGE_CURVE ( 'NONE', #120, #1235, #2, .T. ) ;
#142 = DIRECTION ( 'NONE',  ( 1.000000000000000000, 0.000000000000000000, -0.000000000000000000 ) ) ;
#143 = DIRECTION ( 'NONE',  ( 0.000000000000000000, -0.000000000000000000, -1.000000000000000000 ) ) ;
#144 = EDGE_CURVE ( 'NONE', #62, #183, #628, .T. ) ;
#145 = CARTESIAN_POINT ( 'NONE',  ( -80.00000000000001421, -80.00000000000001421, 610.0000000000000000 ) ) ;
#146 = VECTOR ( 'NONE', #1091, 1000.000000000000000 ) ;
#147 = ORIENTED_EDGE ( 'NONE', *, *, #539, .F. ) ;
#148 = CIRCLE ( 'NONE', #1014, 10.00000000000000888 ) ;
#149 = FACE_OUTER_BOUND ( 'NONE', #1251, .T. ) ;
#150 = ORIENTED_EDGE ( 'NONE', *, *, #1144, .T. ) ;
#151 = CARTESIAN_POINT ( 'NONE',  ( 7.499999999999999112, 24.99999999999999645, 205.0000000000000284 ) ) ;
#152 = EDGE_LOOP ( 'NONE', ( #1294, #785, #278, #474 ) ) ;
#153 = LINE ( 'NONE', #708, #1031 ) ;
#154 = EDGE_CURVE ( 'NONE', #563, #55, #148, .T. ) ;
#155 = ORIENTED_EDGE ( 'NONE', *, *, #1221, .F. ) ;
#156 = AXIS2_PLACEMENT_3D ( 'NONE', #138, #430, #542 ) ;
#157 = DIRECTION ( 'NONE',  ( 0.000000000000000000, 0.000000000000000000, 1.000000000000000000 ) ) ;
#158 = EDGE_LOOP ( 'NONE', ( #1122, #950, #477, #178 ) ) ;
#159 = ADVANCED_FACE ( 'NONE', ( #620 ), #521, .T. ) ;
#160 = PRODUCT_RELATED_PRODUCT_CATEGORY ( 'detail', '', ( #681 ) ) ;
#161 = CYLINDRICAL_SURFACE ( 'NONE', #1263, 5.000000000000004441 ) ;
#162 = CARTESIAN_POINT ( 'NONE',  ( 80.00000000000000000, 79.99999999999998579, 610.0000000000000000 ) ) ;
#163 = ORIENTED_EDGE ( 'NONE', *, *, #1278, .F. ) ;
#164 = VECTOR ( 'NONE', #674, 1000.000000000000000 ) ;
#165 = CIRCLE ( 'NONE', #109, 5.000000000000000888 ) ;
#166 = CIRCLE ( 'NONE', #517, 7.500000000000000000 ) ;
#167 = DIRECTION ( 'NONE',  ( 0.000000000000000000, 0.000000000000000000, 1.000000000000000000 ) ) ;
#168 = ORIENTED_EDGE ( 'NONE', *, *, #131, .F. ) ;
#169 = ORIENTED_EDGE ( 'NONE', *, *, #999, .F. ) ;
#170 = AXIS2_PLACEMENT_3D ( 'NONE', #235, #664, #142 ) ;
#171 = PLANE ( 'NONE',  #857 ) ;
#172 = CARTESIAN_POINT ( 'NONE',  ( -137.4999999999999432, -137.4999999999999432, 0.000000000000000000 ) ) ;
#173 = MANIFOLD_SOLID_BREP ( 'Longue_colone-1-solid1', #574 ) ;
#174 = ORIENTED_EDGE ( 'NONE', *, *, #375, .T. ) ;
#175 = ORIENTED_EDGE ( 'NONE', *, *, #1059, .F. ) ;
#176 = DIRECTION ( 'NONE',  ( 0.000000000000000000, 0.000000000000000000, 1.000000000000000000 ) ) ;
#177 = ORIENTED_EDGE ( 'NONE', *, *, #319, .T. ) ;
#178 = ORIENTED_EDGE ( 'NONE', *, *, #461, .F. ) ;
#179 = CARTESIAN_POINT ( 'NONE',  ( 7.500000000000005329, -24.99999999999999645, 205.0000000000000284 ) ) ;
#180 = DIRECTION ( 'NONE',  ( -0.000000000000000000, -0.000000000000000000, -1.000000000000000000 ) ) ;
#181 = VECTOR ( 'NONE', #143, 1000.000000000000000 ) ;
#182 = FACE_OUTER_BOUND ( 'NONE', #389, .T. ) ;
#183 = VERTEX_POINT ( 'NONE', #931 ) ;
#184 = ADVANCED_FACE ( 'NONE', ( #835 ), #20, .F. ) ;
#185 = DIRECTION ( 'NONE',  ( 1.000000000000000000, 0.000000000000000000, -0.000000000000000000 ) ) ;
#186 = DIRECTION ( 'NONE',  ( -0.000000000000000000, -0.000000000000000000, -1.000000000000000000 ) ) ;
#187 = CARTESIAN_POINT ( 'NONE',  ( 7.500000000000002665, 33.00000000000000000, 205.0000000000000284 ) ) ;
#188 = DIRECTION ( 'NONE',  ( 1.000000000000000000, 0.000000000000000000, -0.000000000000000000 ) ) ;
#189 = DIRECTION ( 'NONE',  ( 0.000000000000000000, 0.000000000000000000, 1.000000000000000000 ) ) ;
#190 = AXIS2_PLACEMENT_3D ( 'NONE', #250, #271, #581 ) ;
#191 = EDGE_LOOP ( 'NONE', ( #979, #751, #503, #1037 ) ) ;
#192 = DIRECTION ( 'NONE',  ( 0.000000000000000000, 0.000000000000000000, 1.000000000000000000 ) ) ;
#193 = CLOSED_SHELL ( 'NONE', ( #1179, #357, #1244, #712 ) ) ;
#194 = CARTESIAN_POINT ( 'NONE',  ( 137.4999999999999432, -137.4999999999999432, 0.000000000000000000 ) ) ;
#195 = EDGE_CURVE ( 'NONE', #1093, #1318, #959, .T. ) ;
#196 = FACE_OUTER_BOUND ( 'NONE', #972, .T. ) ;
#197 = EDGE_CURVE ( 'NONE', #1319, #805, #1160, .T. ) ;
#198 = CYLINDRICAL_SURFACE ( 'NONE', #673, 7.500000000000000000 ) ;
#199 = DIRECTION ( 'NONE',  ( -6.339854965420820322E-17, -1.000000000000000000, 0.000000000000000000 ) ) ;
#200 = DIRECTION ( 'NONE',  ( 0.000000000000000000, 0.000000000000000000, 1.000000000000000000 ) ) ;
#201 = VERTEX_POINT ( 'NONE', #766 ) ;
#202 = CARTESIAN_POINT ( 'NONE',  ( -80.00000000000001421, 79.99999999999995737, 0.000000000000000000 ) ) ;
#203 = EDGE_CURVE ( 'NONE', #790, #1001, #35, .T. ) ;
#204 = CARTESIAN_POINT ( 'NONE',  ( -6.123233995736760366E-16, 25.00000000000000000, 205.0000000000000284 ) ) ;
#205 = CARTESIAN_POINT ( 'NONE',  ( 7.500000000000000000, 9.184850993605147944E-16, 209.9999999999999716 ) ) ;
#206 = VERTEX_POINT ( 'NONE', #429 ) ;
#207 = CARTESIAN_POINT ( 'NONE',  ( 127.4999999999999432, -137.4999999999999432, 0.000000000000000000 ) ) ;
#208 = DIRECTION ( 'NONE',  ( -1.000000000000000000, 1.680333332844618051E-16, 0.000000000000000000 ) ) ;
#209 = CARTESIAN_POINT ( 'NONE',  ( -137.4999999999999432, 137.5000000000000000, 0.000000000000000000 ) ) ;
#210 = DIRECTION ( 'NONE',  ( -0.000000000000000000, -0.000000000000000000, -1.000000000000000000 ) ) ;
#211 = VERTEX_POINT ( 'NONE', #769 ) ;
#212 = AXIS2_PLACEMENT_3D ( 'NONE', #677, #991, #267 ) ;
#213 = AXIS2_PLACEMENT_3D ( 'NONE', #954, #1269, #24 ) ;
#214 = CLOSED_SHELL ( 'NONE', ( #802, #500, #43, #414 ) ) ;
#215 = CARTESIAN_POINT ( 'NONE',  ( 7.500000000000002665, -16.99999999999999289, 205.0000000000000284 ) ) ;
#216 = DIRECTION ( 'NONE',  ( 0.000000000000000000, -0.000000000000000000, -1.000000000000000000 ) ) ;
#217 = APPROVAL ( #947, 'UNSPECIFIED' ) ;
#218 = DIRECTION ( 'NONE',  ( 0.000000000000000000, 0.000000000000000000, 1.000000000000000000 ) ) ;
#219 = EDGE_CURVE ( 'NONE', #1053, #1327, #64, .T. ) ;
#220 = PLANE ( 'NONE',  #1176 ) ;
#221 = DIRECTION ( 'NONE',  ( 0.000000000000000000, 0.000000000000000000, 1.000000000000000000 ) ) ;
#222 = FACE_OUTER_BOUND ( 'NONE', #289, .T. ) ;
#223 = DESIGN_CONTEXT ( 'detailed design', #534, 'design' ) ;
#224 = DATE_AND_TIME ( #25, #651 ) ;
#225 = DIRECTION ( 'NONE',  ( 0.000000000000000000, 0.000000000000000000, 1.000000000000000000 ) ) ;
#226 = CIRCLE ( 'NONE', #32, 10.00000000000000888 ) ;
#227 = EDGE_CURVE ( 'NONE', #718, #1045, #884, .T. ) ;
#228 = FACE_OUTER_BOUND ( 'NONE', #905, .T. ) ;
#229 = CARTESIAN_POINT ( 'NONE',  ( -75.00000000000001421, -80.00000000000001421, 610.0000000000000000 ) ) ;
#230 = ORIENTED_EDGE ( 'NONE', *, *, #1144, .F. ) ;
#231 = APPROVAL_ROLE ( '' ) ;
#232 = CIRCLE ( 'NONE', #762, 5.000000000000000888 ) ;
#233 = CARTESIAN_POINT ( 'NONE',  ( -7.499999999999993783, -16.99999999999999645, 205.0000000000000284 ) ) ;
#234 = CARTESIAN_POINT ( 'NONE',  ( -75.00000000000001421, 79.99999999999995737, 0.000000000000000000 ) ) ;
#235 = CARTESIAN_POINT ( 'NONE',  ( -137.4999999999999432, 137.5000000000000000, 0.000000000000000000 ) ) ;
#236 = DIRECTION ( 'NONE',  ( -0.000000000000000000, -0.000000000000000000, -1.000000000000000000 ) ) ;
#237 = ORIENTED_EDGE ( 'NONE', *, *, #33, .F. ) ;
#238 = EDGE_CURVE ( 'NONE', #1319, #407, #266, .T. ) ;
#239 = EDGE_CURVE ( 'NONE', #1136, #55, #942, .T. ) ;
#240 = DIRECTION ( 'NONE',  ( 0.000000000000000000, 0.000000000000000000, 1.000000000000000000 ) ) ;
#241 = AXIS2_PLACEMENT_3D ( 'NONE', #1123, #192, #607 ) ;
#242 = DIRECTION ( 'NONE',  ( 0.000000000000000000, 0.000000000000000000, 1.000000000000000000 ) ) ;
#243 = EDGE_CURVE ( 'NONE', #407, #436, #936, .T. ) ;
#244 = DIRECTION ( 'NONE',  ( 1.000000000000000000, 0.000000000000000000, 0.000000000000000000 ) ) ;
#245 = CIRCLE ( 'NONE', #1266, 7.500000000000000000 ) ;
#246 = VERTEX_POINT ( 'NONE', #1154 ) ;
#247 = ORIENTED_EDGE ( 'NONE', *, *, #688, .T. ) ;
#248 = CIRCLE ( 'NONE', #472, 5.000000000000004441 ) ;
#249 = DIRECTION ( 'NONE',  ( 0.000000000000000000, 0.000000000000000000, 1.000000000000000000 ) ) ;
#250 = CARTESIAN_POINT ( 'NONE',  ( 0.000000000000000000, 0.000000000000000000, 209.9999999999999716 ) ) ;
#251 = EDGE_LOOP ( 'NONE', ( #940, #997, #1191, #585 ) ) ;
#252 = CARTESIAN_POINT ( 'NONE',  ( -7.499999999999993783, -16.99999999999999645, 205.0000000000000284 ) ) ;
#253 = DIRECTION ( 'NONE',  ( 4.336808689942015764E-16, 1.000000000000000000, 0.000000000000000000 ) ) ;
#254 = ORIENTED_EDGE ( 'NONE', *, *, #1288, .T. ) ;
#255 = DIRECTION ( 'NONE',  ( -0.000000000000000000, -0.000000000000000000, -1.000000000000000000 ) ) ;
#256 = PLANE ( 'NONE',  #490 ) ;
#257 = ORIENTED_EDGE ( 'NONE', *, *, #604, .F. ) ;
#258 = AXIS2_PLACEMENT_3D ( 'NONE', #1109, #686, #494 ) ;
#259 = DIRECTION ( 'NONE',  ( 1.000000000000000000, 0.000000000000000000, 0.000000000000000000 ) ) ;
#260 = EDGE_LOOP ( 'NONE', ( #338, #933 ) ) ;
#261 = PLANE ( 'NONE',  #656 ) ;
#262 = ADVANCED_FACE ( 'NONE', ( #228 ), #652, .F. ) ;
#263 = EDGE_LOOP ( 'NONE', ( #780, #99, #1291, #705 ) ) ;
#264 = AXIS2_PLACEMENT_3D ( 'NONE', #617, #1138, #1018 ) ;
#265 = CIRCLE ( 'NONE', #882, 10.00000000000000888 ) ;
#266 = CIRCLE ( 'NONE', #1034, 5.000000000000000888 ) ;
#267 = DIRECTION ( 'NONE',  ( -1.000000000000000000, 0.000000000000000000, 0.000000000000000000 ) ) ;
#268 = VERTEX_POINT ( 'NONE', #1049 ) ;
#269 = VERTEX_POINT ( 'NONE', #12 ) ;
#270 = DIRECTION ( 'NONE',  ( -1.000000000000000000, 0.000000000000000000, 0.000000000000000000 ) ) ;
#271 = DIRECTION ( 'NONE',  ( -0.000000000000000000, -0.000000000000000000, -1.000000000000000000 ) ) ;
#272 = ORIENTED_EDGE ( 'NONE', *, *, #298, .F. ) ;
#273 = EDGE_LOOP ( 'NONE', ( #886, #374 ) ) ;
#274 = DIRECTION ( 'NONE',  ( 0.000000000000000000, 0.000000000000000000, 1.000000000000000000 ) ) ;
#275 = EDGE_CURVE ( 'NONE', #246, #294, #1313, .T. ) ;
#276 = DIRECTION ( 'NONE',  ( 0.000000000000000000, 0.000000000000000000, 1.000000000000000000 ) ) ;
#277 = EDGE_LOOP ( 'NONE', ( #774, #54, #177, #818 ) ) ;
#278 = ORIENTED_EDGE ( 'NONE', *, *, #1105, .T. ) ;
#279 = CARTESIAN_POINT ( 'NONE',  ( 80.00000000000001421, -80.00000000000001421, 0.000000000000000000 ) ) ;
#280 = FACE_BOUND ( 'NONE', #1111, .T. ) ;
#281 = DIRECTION ( 'NONE',  ( 0.000000000000000000, 0.000000000000000000, 1.000000000000000000 ) ) ;
#282 = FACE_OUTER_BOUND ( 'NONE', #1007, .T. ) ;
#283 = AXIS2_PLACEMENT_3D ( 'NONE', #527, #1151, #767 ) ;
#284 = DIRECTION ( 'NONE',  ( 3.993297967480359529E-16, 1.000000000000000000, 0.000000000000000000 ) ) ;
#285 = ORIENTED_EDGE ( 'NONE', *, *, #123, .F. ) ;
#286 = AXIS2_PLACEMENT_3D ( 'NONE', #376, #1296, #270 ) ;
#287 = CARTESIAN_POINT ( 'NONE',  ( 80.00000000000001421, -80.00000000000001421, 610.0000000000000000 ) ) ;
#288 = CARTESIAN_POINT ( 'NONE',  ( -127.4999999999999432, -137.4999999999999432, 200.0000000000000000 ) ) ;
#289 = EDGE_LOOP ( 'NONE', ( #1019, #1282, #82, #373 ) ) ;
#290 = DIRECTION ( 'NONE',  ( -0.000000000000000000, -0.000000000000000000, -1.000000000000000000 ) ) ;
#291 = DIRECTION ( 'NONE',  ( 3.993297967480359529E-16, 1.000000000000000000, 0.000000000000000000 ) ) ;
#292 = FACE_OUTER_BOUND ( 'NONE', #870, .T. ) ;
#293 = AXIS2_PLACEMENT_3D ( 'NONE', #473, #1308, #1113 ) ;
#294 = VERTEX_POINT ( 'NONE', #1069 ) ;
#295 = AXIS2_PLACEMENT_3D ( 'NONE', #507, #932, #1247 ) ;
#296 = AXIS2_PLACEMENT_3D ( 'NONE', #329, #221, #1265 ) ;
#297 = CARTESIAN_POINT ( 'NONE',  ( 0.000000000000000000, 0.000000000000000000, 209.9999999999999716 ) ) ;
#298 = EDGE_CURVE ( 'NONE', #1168, #1058, #537, .T. ) ;
#299 = VERTEX_POINT ( 'NONE', #1062 ) ;
#300 = DIRECTION ( 'NONE',  ( 0.000000000000000000, 0.000000000000000000, 1.000000000000000000 ) ) ;
#301 = DIRECTION ( 'NONE',  ( -1.000000000000000000, 0.000000000000000000, 0.000000000000000000 ) ) ;
#302 = VERTEX_POINT ( 'NONE', #951 ) ;
#303 = DIRECTION ( 'NONE',  ( 1.000000000000000000, 0.000000000000000000, -0.000000000000000000 ) ) ;
#304 = LINE ( 'NONE', #1321, #1309 ) ;
#305 = VERTEX_POINT ( 'NONE', #840 ) ;
#306 = LINE ( 'NONE', #732, #1 ) ;
#307 = CYLINDRICAL_SURFACE ( 'NONE', #635, 10.00000000000000888 ) ;
#308 = DIRECTION ( 'NONE',  ( 1.000000000000000000, 0.000000000000000000, 0.000000000000000000 ) ) ;
#309 = CARTESIAN_POINT ( 'NONE',  ( 7.499999999999995559, 16.99999999999999289, 205.0000000000000284 ) ) ;
#310 = DIRECTION ( 'NONE',  ( -6.339854965420820322E-17, -1.000000000000000000, 0.000000000000000000 ) ) ;
#311 = FACE_OUTER_BOUND ( 'NONE', #1189, .T. ) ;
#312 = CIRCLE ( 'NONE', #264, 8.000000000000003553 ) ;
#313 = LINE ( 'NONE', #941, #668 ) ;
#314 = AXIS2_PLACEMENT_3D ( 'NONE', #749, #322, #1254 ) ;
#315 = EDGE_CURVE ( 'NONE', #1196, #183, #1271, .T. ) ;
#316 = LINE ( 'NONE', #541, #575 ) ;
#317 = CARTESIAN_POINT ( 'NONE',  ( 5.510910596163089556E-15, -25.00000000000000000, 205.0000000000000284 ) ) ;
#318 = ORIENTED_EDGE ( 'NONE', *, *, #335, .F. ) ;
#319 = EDGE_CURVE ( 'NONE', #211, #833, #316, .T. ) ;
#320 = DIRECTION ( 'NONE',  ( 0.000000000000000000, 0.000000000000000000, 1.000000000000000000 ) ) ;
#321 = ADVANCED_BREP_SHAPE_REPRESENTATION ( 'barres_opt_DÚfaut_sldprt', ( #641, #627, #643, #637, #173, #630, #1065, #1068, #1064, #1071, #1061, #127 ), #352 ) ;
#322 = DIRECTION ( 'NONE',  ( 0.000000000000000000, 0.000000000000000000, 1.000000000000000000 ) ) ;
#323 = CARTESIAN_POINT ( 'NONE',  ( -137.4999999999999432, -137.4999999999999432, 200.0000000000000000 ) ) ;
#324 = EDGE_LOOP ( 'NONE', ( #569, #594 ) ) ;
#325 = UNCERTAINTY_MEASURE_WITH_UNIT (LENGTH_MEASURE( 1.000000000000000082E-05 ), #101, 'distance_accuracy_value', 'NONE');
#326 = COORDINATED_UNIVERSAL_TIME_OFFSET ( 1, 0, .AHEAD. ) ;
#327 = PERSON_AND_ORGANIZATION ( #125, #466 ) ;
#328 = AXIS2_PLACEMENT_3D ( 'NONE', #538, #661, #310 ) ;
#329 = CARTESIAN_POINT ( 'NONE',  ( -137.4999999999999432, 137.5000000000000000, 200.0000000000000000 ) ) ;
#330 = DIRECTION ( 'NONE',  ( 1.000000000000000000, 0.000000000000000000, 0.000000000000000000 ) ) ;
#331 = ORIENTED_EDGE ( 'NONE', *, *, #195, .T. ) ;
#332 = APPROVAL_ROLE ( '' ) ;
#333 = AXIS2_PLACEMENT_3D ( 'NONE', #478, #176, #786 ) ;
#334 = AXIS2_PLACEMENT_3D ( 'NONE', #808, #413, #114 ) ;
#335 = EDGE_CURVE ( 'NONE', #718, #967, #1056, .T. ) ;
#336 = FACE_OUTER_BOUND ( 'NONE', #877, .T. ) ;
#337 = FACE_OUTER_BOUND ( 'NONE', #1302, .T. ) ;
#338 = ORIENTED_EDGE ( 'NONE', *, *, #1241, .F. ) ;
#339 = ADVANCED_FACE ( 'NONE', ( #336 ), #1166, .F. ) ;
#340 = DIRECTION ( 'NONE',  ( 1.000000000000000000, 0.000000000000000000, 0.000000000000000000 ) ) ;
#341 = DIRECTION ( 'NONE',  ( 0.000000000000000000, 0.000000000000000000, 1.000000000000000000 ) ) ;
#342 = VERTEX_POINT ( 'NONE', #544 ) ;
#343 = EDGE_CURVE ( 'NONE', #1083, #206, #928, .T. ) ;
#344 = ADVANCED_FACE ( 'NONE', ( #149 ), #345, .T. ) ;
#345 = PLANE ( 'NONE',  #702 ) ;
#346 = CIRCLE ( 'NONE', #283, 5.000000000000004441 ) ;
#347 = ORIENTED_EDGE ( 'NONE', *, *, #670, .T. ) ;
#348 = ORIENTED_EDGE ( 'NONE', *, *, #739, .F. ) ;
#349 = CARTESIAN_POINT ( 'NONE',  ( -7.499999999999995559, -33.00000000000000000, 200.0000000000000000 ) ) ;
#350 = CARTESIAN_POINT ( 'NONE',  ( -80.00000000000001421, 79.99999999999995737, 610.0000000000000000 ) ) ;
#351 = DIRECTION ( 'NONE',  ( 1.000000000000000000, 0.000000000000000000, 0.000000000000000000 ) ) ;
#352 =( GEOMETRIC_REPRESENTATION_CONTEXT ( 3 ) GLOBAL_UNCERTAINTY_ASSIGNED_CONTEXT ( ( #325 ) ) GLOBAL_UNIT_ASSIGNED_CONTEXT ( ( #101, #839, #1225 ) ) REPRESENTATION_CONTEXT ( 'NONE', 'WORKASPACE' ) );
#353 = AXIS2_PLACEMENT_3D ( 'NONE', #1087, #704, #1184 ) ;
#354 = ORIENTED_EDGE ( 'NONE', *, *, #669, .T. ) ;
#355 = DIRECTION ( 'NONE',  ( 0.000000000000000000, 0.000000000000000000, 1.000000000000000000 ) ) ;
#356 = LINE ( 'NONE', #252, #21 ) ;
#357 = ADVANCED_FACE ( 'NONE', ( #451 ), #457, .T. ) ;
#358 = DIRECTION ( 'NONE',  ( 0.000000000000000000, 0.000000000000000000, 1.000000000000000000 ) ) ;
#359 = EDGE_LOOP ( 'NONE', ( #1016, #508 ) ) ;
#360 = PLANE ( 'NONE',  #862 ) ;
#361 = EDGE_LOOP ( 'NONE', ( #116, #237, #74, #383 ) ) ;
#362 = ORIENTED_EDGE ( 'NONE', *, *, #315, .F. ) ;
#363 = PLANE ( 'NONE',  #333 ) ;
#364 = ORIENTED_EDGE ( 'NONE', *, *, #58, .F. ) ;
#365 = CC_DESIGN_PERSON_AND_ORGANIZATION_ASSIGNMENT ( #851, #1252, ( #792 ) ) ;
#366 = EDGE_LOOP ( 'NONE', ( #1125, #711, #812, #72 ) ) ;
#367 = PLANE ( 'NONE',  #771 ) ;
#368 = CARTESIAN_POINT ( 'NONE',  ( -137.4999999999999432, -137.4999999999999432, 0.000000000000000000 ) ) ;
#369 = VERTEX_POINT ( 'NONE', #784 ) ;
#370 = EDGE_LOOP ( 'NONE', ( #1299, #1232, #961, #888 ) ) ;
#371 = EDGE_CURVE ( 'NONE', #1058, #1010, #1165, .T. ) ;
#372 = DIRECTION ( 'NONE',  ( 1.000000000000000000, 0.000000000000000000, 0.000000000000000000 ) ) ;
#373 = ORIENTED_EDGE ( 'NONE', *, *, #480, .F. ) ;
#374 = ORIENTED_EDGE ( 'NONE', *, *, #691, .F. ) ;
#375 = EDGE_CURVE ( 'NONE', #1103, #369, #468, .T. ) ;
#376 = CARTESIAN_POINT ( 'NONE',  ( 80.00000000000001421, -80.00000000000001421, 610.0000000000000000 ) ) ;
#377 = DIRECTION ( 'NONE',  ( 0.000000000000000000, 0.000000000000000000, 1.000000000000000000 ) ) ;
#378 = EDGE_CURVE ( 'NONE', #1327, #69, #1290, .T. ) ;
#379 = ORIENTED_EDGE ( 'NONE', *, *, #566, .T. ) ;
#380 = CIRCLE ( 'NONE', #672, 10.00000000000000888 ) ;
#381 = AXIS2_PLACEMENT_3D ( 'NONE', #105, #1128, #115 ) ;
#382 = DIRECTION ( 'NONE',  ( 0.000000000000000000, 0.000000000000000000, 1.000000000000000000 ) ) ;
#383 = ORIENTED_EDGE ( 'NONE', *, *, #556, .T. ) ;
#384 = DIRECTION ( 'NONE',  ( -1.000000000000000000, 0.000000000000000000, 0.000000000000000000 ) ) ;
#385 = CYLINDRICAL_SURFACE ( 'NONE', #1054, 10.00000000000000888 ) ;
#386 = CARTESIAN_POINT ( 'NONE',  ( 7.499999999999995559, 16.99999999999999289, 200.0000000000000000 ) ) ;
#387 = FACE_OUTER_BOUND ( 'NONE', #361, .T. ) ;
#388 = FACE_OUTER_BOUND ( 'NONE', #1174, .T. ) ;
#389 = EDGE_LOOP ( 'NONE', ( #347, #485, #880, #331 ) ) ;
#390 = EDGE_LOOP ( 'NONE', ( #645, #589, #364, #150 ) ) ;
#391 = DIRECTION ( 'NONE',  ( -6.339854965420820322E-17, -1.000000000000000000, 0.000000000000000000 ) ) ;
#392 = CARTESIAN_POINT ( 'NONE',  ( 7.500000000000002665, 33.00000000000000000, 200.0000000000000000 ) ) ;
#393 = DIRECTION ( 'NONE',  ( 1.000000000000000000, 0.000000000000000000, 0.000000000000000000 ) ) ;
#394 = DIRECTION ( 'NONE',  ( 1.000000000000000000, 0.000000000000000000, 0.000000000000000000 ) ) ;
#395 = EDGE_LOOP ( 'NONE', ( #1163, #666 ) ) ;
#396 = FACE_OUTER_BOUND ( 'NONE', #366, .T. ) ;
#397 = ORIENTED_EDGE ( 'NONE', *, *, #144, .F. ) ;
#398 = FACE_OUTER_BOUND ( 'NONE', #984, .T. ) ;
#399 = LINE ( 'NONE', #1027, #1164 ) ;
#400 = AXIS2_PLACEMENT_3D ( 'NONE', #806, #200, #828 ) ;
#401 = PLANE ( 'NONE',  #446 ) ;
#402 = VECTOR ( 'NONE', #1230, 1000.000000000000000 ) ;
#403 = CLOSED_SHELL ( 'NONE', ( #867, #1035, #452, #885, #1324, #746, #432, #803 ) ) ;
#404 = CARTESIAN_POINT ( 'NONE',  ( -7.499999999999995559, -33.00000000000000000, 205.0000000000000284 ) ) ;
#405 = VECTOR ( 'NONE', #408, 1000.000000000000000 ) ;
#406 = FACE_OUTER_BOUND ( 'NONE', #395, .T. ) ;
#407 = VERTEX_POINT ( 'NONE', #1101 ) ;
#408 = DIRECTION ( 'NONE',  ( 0.000000000000000000, 0.000000000000000000, -1.000000000000000000 ) ) ;
#409 = DIRECTION ( 'NONE',  ( -0.000000000000000000, -0.000000000000000000, -1.000000000000000000 ) ) ;
#410 = LINE ( 'NONE', #404, #861 ) ;
#411 = EDGE_CURVE ( 'NONE', #268, #305, #153, .T. ) ;
#412 = DIRECTION ( 'NONE',  ( 0.000000000000000000, 0.000000000000000000, -1.000000000000000000 ) ) ;
#413 = DIRECTION ( 'NONE',  ( -0.000000000000000000, -0.000000000000000000, -1.000000000000000000 ) ) ;
#414 = ADVANCED_FACE ( 'NONE', ( #562 ), #360, .F. ) ;
#415 = DIRECTION ( 'NONE',  ( 0.000000000000000000, 0.000000000000000000, 1.000000000000000000 ) ) ;
#416 = EDGE_CURVE ( 'NONE', #993, #1196, #876, .T. ) ;
#417 = CARTESIAN_POINT ( 'NONE',  ( -137.4999999999999432, 137.5000000000000000, 200.0000000000000000 ) ) ;
#418 = CARTESIAN_POINT ( 'NONE',  ( -75.00000000000001421, 79.99999999999995737, 610.0000000000000000 ) ) ;
#419 = ADVANCED_FACE ( 'NONE', ( #1078 ), #1181, .T. ) ;
#420 = CARTESIAN_POINT ( 'NONE',  ( -6.123233995736760366E-16, 25.00000000000000000, 205.0000000000000284 ) ) ;
#421 = ORIENTED_EDGE ( 'NONE', *, *, #582, .F. ) ;
#422 = APPROVAL_STATUS ( 'not_yet_approved' ) ;
#423 = ORIENTED_EDGE ( 'NONE', *, *, #1084, .T. ) ;
#424 = AXIS2_PLACEMENT_3D ( 'NONE', #5, #122, #729 ) ;
#425 = CIRCLE ( 'NONE', #293, 5.000000000000004441 ) ;
#426 = CARTESIAN_POINT ( 'NONE',  ( 5.510910596163089556E-15, -25.00000000000000000, 195.0000000000000000 ) ) ;
#427 = CIRCLE ( 'NONE', #295, 5.000000000000000888 ) ;
#428 = CLOSED_SHELL ( 'NONE', ( #638, #716, #344, #962 ) ) ;
#429 = CARTESIAN_POINT ( 'NONE',  ( 75.00000000000001421, -80.00000000000001421, 0.000000000000000000 ) ) ;
#430 = DIRECTION ( 'NONE',  ( 0.000000000000000000, -0.000000000000000000, -1.000000000000000000 ) ) ;
#431 = DATE_AND_TIME ( #136, #1172 ) ;
#432 = ADVANCED_FACE ( 'NONE', ( #679, #988 ), #256, .F. ) ;
#433 = CALENDAR_DATE ( 2020, 29, 11 ) ;
#434 = DIRECTION ( 'NONE',  ( -0.000000000000000000, -0.000000000000000000, -1.000000000000000000 ) ) ;
#435 = CARTESIAN_POINT ( 'NONE',  ( 137.4999999999999432, -137.4999999999999432, 0.000000000000000000 ) ) ;
#436 = VERTEX_POINT ( 'NONE', #976 ) ;
#437 = EDGE_CURVE ( 'NONE', #269, #579, #776, .T. ) ;
#438 = DATE_AND_TIME ( #29, #690 ) ;
#439 = EDGE_CURVE ( 'NONE', #1103, #1083, #890, .T. ) ;
#440 = AXIS2_PLACEMENT_3D ( 'NONE', #937, #532, #1261 ) ;
#441 = EDGE_CURVE ( 'NONE', #615, #1214, #983, .T. ) ;
#442 = DIRECTION ( 'NONE',  ( 0.000000000000000000, 0.000000000000000000, 1.000000000000000000 ) ) ;
#443 = CARTESIAN_POINT ( 'NONE',  ( 85.00000000000001421, -80.00000000000001421, 610.0000000000000000 ) ) ;
#444 = ORIENTED_EDGE ( 'NONE', *, *, #141, .T. ) ;
#445 = AXIS2_PLACEMENT_3D ( 'NONE', #77, #917, #1329 ) ;
#446 = AXIS2_PLACEMENT_3D ( 'NONE', #914, #810, #79 ) ;
#447 = CARTESIAN_POINT ( 'NONE',  ( 147.4999999999999716, -137.4999999999999432, 200.0000000000000000 ) ) ;
#448 = VECTOR ( 'NONE', #646, 1000.000000000000000 ) ;
#449 = EDGE_LOOP ( 'NONE', ( #272, #1170, #606, #1311 ) ) ;
#450 = COORDINATED_UNIVERSAL_TIME_OFFSET ( 1, 0, .AHEAD. ) ;
#451 = FACE_OUTER_BOUND ( 'NONE', #528, .T. ) ;
#452 = ADVANCED_FACE ( 'NONE', ( #1194 ), #261, .F. ) ;
#453 = EDGE_LOOP ( 'NONE', ( #975, #662 ) ) ;
#454 = DIRECTION ( 'NONE',  ( 1.000000000000000000, 0.000000000000000000, 0.000000000000000000 ) ) ;
#455 = PERSON_AND_ORGANIZATION_ROLE ( 'design_owner' ) ;
#456 = EDGE_CURVE ( 'NONE', #294, #246, #1226, .T. ) ;
#457 = CYLINDRICAL_SURFACE ( 'NONE', #519, 5.000000000000004441 ) ;
#458 = EDGE_LOOP ( 'NONE', ( #163, #568, #81, #1300 ) ) ;
#459 = CYLINDRICAL_SURFACE ( 'NONE', #1147, 5.000000000000000888 ) ;
#460 = AXIS2_PLACEMENT_3D ( 'NONE', #1116, #65, #391 ) ;
#461 = EDGE_CURVE ( 'NONE', #548, #269, #597, .T. ) ;
#462 = CC_DESIGN_APPROVAL ( #217, ( #856 ) ) ;
#463 = CARTESIAN_POINT ( 'NONE',  ( -85.00000000000001421, 79.99999999999995737, 610.0000000000000000 ) ) ;
#464 = CARTESIAN_POINT ( 'NONE',  ( -147.4999999999999716, 137.5000000000000000, 200.0000000000000000 ) ) ;
#465 = ORIENTED_EDGE ( 'NONE', *, *, #298, .T. ) ;
#466 = ORGANIZATION ( 'UNSPECIFIED', 'UNSPECIFIED', '' ) ;
#467 = CARTESIAN_POINT ( 'NONE',  ( 85.00000000000001421, -80.00000000000001421, 610.0000000000000000 ) ) ;
#468 = CIRCLE ( 'NONE', #743, 5.000000000000004441 ) ;
#469 = ORIENTED_EDGE ( 'NONE', *, *, #197, .F. ) ;
#470 = ORIENTED_EDGE ( 'NONE', *, *, #935, .T. ) ;
#471 = AXIS2_PLACEMENT_3D ( 'NONE', #913, #512, #89 ) ;
#472 = AXIS2_PLACEMENT_3D ( 'NONE', #973, #781, #559 ) ;
#473 = CARTESIAN_POINT ( 'NONE',  ( -80.00000000000001421, -80.00000000000001421, 610.0000000000000000 ) ) ;
#474 = ORIENTED_EDGE ( 'NONE', *, *, #935, .F. ) ;
#475 = DIRECTION ( 'NONE',  ( 0.000000000000000000, 0.000000000000000000, 1.000000000000000000 ) ) ;
#476 = ORIENTED_EDGE ( 'NONE', *, *, #1258, .F. ) ;
#477 = ORIENTED_EDGE ( 'NONE', *, *, #131, .T. ) ;
#478 = CARTESIAN_POINT ( 'NONE',  ( -80.00000000000001421, -80.00000000000001421, 0.000000000000000000 ) ) ;
#479 = ORIENTED_EDGE ( 'NONE', *, *, #375, .F. ) ;
#480 = EDGE_CURVE ( 'NONE', #342, #1293, #1025, .T. ) ;
#481 = DIRECTION ( 'NONE',  ( -1.000000000000000000, 0.000000000000000000, 0.000000000000000000 ) ) ;
#482 = DIRECTION ( 'NONE',  ( -1.000000000000000000, 0.000000000000000000, 0.000000000000000000 ) ) ;
#483 = VERTEX_POINT ( 'NONE', #1210 ) ;
#484 = DIRECTION ( 'NONE',  ( -0.000000000000000000, -0.000000000000000000, -1.000000000000000000 ) ) ;
#485 = ORIENTED_EDGE ( 'NONE', *, *, #1295, .T. ) ;
#486 = DIRECTION ( 'NONE',  ( 0.000000000000000000, 0.000000000000000000, 1.000000000000000000 ) ) ;
#487 = PLANE ( 'NONE',  #445 ) ;
#488 = ORIENTED_EDGE ( 'NONE', *, *, #439, .F. ) ;
#489 = VERTEX_POINT ( 'NONE', #626 ) ;
#490 = AXIS2_PLACEMENT_3D ( 'NONE', #1085, #572, #789 ) ;
#491 = FACE_OUTER_BOUND ( 'NONE', #728, .T. ) ;
#492 = ORIENTED_EDGE ( 'NONE', *, *, #852, .F. ) ;
#493 = ORIENTED_EDGE ( 'NONE', *, *, #922, .T. ) ;
#494 = DIRECTION ( 'NONE',  ( 1.000000000000000000, 0.000000000000000000, -0.000000000000000000 ) ) ;
#495 = CARTESIAN_POINT ( 'NONE',  ( -127.4999999999999432, -137.4999999999999432, 200.0000000000000000 ) ) ;
#496 = VERTEX_POINT ( 'NONE', #102 ) ;
#497 = PLANE ( 'NONE',  #553 ) ;
#498 = FACE_OUTER_BOUND ( 'NONE', #1188, .T. ) ;
#499 = CARTESIAN_POINT ( 'NONE',  ( -3.221295782887532331E-15, 20.00000000000000000, 200.0000000000000000 ) ) ;
#500 = ADVANCED_FACE ( 'NONE', ( #396 ), #385, .T. ) ;
#501 = LINE ( 'NONE', #392, #633 ) ;
#502 = CC_DESIGN_DATE_AND_TIME_ASSIGNMENT ( #224, #955, ( #591 ) ) ;
#503 = ORIENTED_EDGE ( 'NONE', *, *, #480, .T. ) ;
#504 = DIRECTION ( 'NONE',  ( 0.000000000000000000, 0.000000000000000000, 1.000000000000000000 ) ) ;
#505 = CARTESIAN_POINT ( 'NONE',  ( -85.00000000000001421, 79.99999999999995737, 610.0000000000000000 ) ) ;
#506 = AXIS2_PLACEMENT_3D ( 'NONE', #317, #665, #1255 ) ;
#507 = CARTESIAN_POINT ( 'NONE',  ( -6.123233995736760366E-16, 25.00000000000000000, 200.0000000000000000 ) ) ;
#508 = ORIENTED_EDGE ( 'NONE', *, *, #1298, .F. ) ;
#509 = CARTESIAN_POINT ( 'NONE',  ( -85.00000000000001421, -80.00000000000001421, 610.0000000000000000 ) ) ;
#510 = LINE ( 'NONE', #495, #901 ) ;
#511 = DIRECTION ( 'NONE',  ( 0.000000000000000000, 0.000000000000000000, 1.000000000000000000 ) ) ;
#512 = DIRECTION ( 'NONE',  ( 0.000000000000000000, 0.000000000000000000, 1.000000000000000000 ) ) ;
#513 = AXIS2_PLACEMENT_3D ( 'NONE', #172, #552, #44 ) ;
#514 = DIRECTION ( 'NONE',  ( -1.000000000000000000, 0.000000000000000000, 0.000000000000000000 ) ) ;
#515 = AXIS2_PLACEMENT_3D ( 'NONE', #750, #236, #647 ) ;
#516 = CC_DESIGN_SECURITY_CLASSIFICATION ( #591, ( #792 ) ) ;
#517 = AXIS2_PLACEMENT_3D ( 'NONE', #612, #95, #912 ) ;
#518 = LINE ( 'NONE', #650, #1011 ) ;
#519 = AXIS2_PLACEMENT_3D ( 'NONE', #772, #966, #482 ) ;
#520 = ORIENTED_EDGE ( 'NONE', *, *, #58, .T. ) ;
#521 = PLANE ( 'NONE',  #1289 ) ;
#522 = CYLINDRICAL_SURFACE ( 'NONE', #1098, 10.00000000000000888 ) ;
#523 = PERSON_AND_ORGANIZATION ( #125, #466 ) ;
#524 = DIRECTION ( 'NONE',  ( 0.000000000000000000, 0.000000000000000000, 1.000000000000000000 ) ) ;
#525 = EDGE_CURVE ( 'NONE', #938, #489, #501, .T. ) ;
#526 = FACE_OUTER_BOUND ( 'NONE', #1183, .T. ) ;
#527 = CARTESIAN_POINT ( 'NONE',  ( -80.00000000000001421, -80.00000000000001421, 0.000000000000000000 ) ) ;
#528 = EDGE_LOOP ( 'NONE', ( #476, #654, #1207, #889 ) ) ;
#529 = PLANE ( 'NONE',  #14 ) ;
#530 = CIRCLE ( 'NONE', #791, 10.00000000000000888 ) ;
#531 = DIRECTION ( 'NONE',  ( 0.000000000000000000, 0.000000000000000000, 1.000000000000000000 ) ) ;
#532 = DIRECTION ( 'NONE',  ( 0.000000000000000000, 0.000000000000000000, 1.000000000000000000 ) ) ;
#533 = AXIS2_PLACEMENT_3D ( 'NONE', #982, #804, #782 ) ;
#534 = APPLICATION_CONTEXT ( 'configuration controlled 3d designs of mechanical parts and assemblies' ) ;
#535 = AXIS2_PLACEMENT_3D ( 'NONE', #621, #96, #1205 ) ;
#536 = VECTOR ( 'NONE', #1242, 1000.000000000000000 ) ;
#537 = LINE ( 'NONE', #418, #747 ) ;
#538 = CARTESIAN_POINT ( 'NONE',  ( 5.510910596163089556E-15, -25.00000000000000000, 200.0000000000000000 ) ) ;
#539 = EDGE_CURVE ( 'NONE', #1001, #1293, #129, .T. ) ;
#540 = PERSON_AND_ORGANIZATION_ROLE ( 'design_supplier' ) ;
#541 = CARTESIAN_POINT ( 'NONE',  ( 5.193917847892048675E-15, -30.00000000000000355, 195.0000000000000000 ) ) ;
#542 = DIRECTION ( 'NONE',  ( -4.336808689942015764E-16, -1.000000000000000000, 0.000000000000000000 ) ) ;
#543 = COORDINATED_UNIVERSAL_TIME_OFFSET ( 1, 0, .AHEAD. ) ;
#544 = CARTESIAN_POINT ( 'NONE',  ( 127.4999999999999432, -137.4999999999999432, 200.0000000000000000 ) ) ;
#545 = CIRCLE ( 'NONE', #460, 5.000000000000000888 ) ;
#546 = LOCAL_TIME ( 14, 37, 2.000000000000000000, #1259 ) ;
#547 = CARTESIAN_POINT ( 'NONE',  ( 85.00000000000001421, -80.00000000000001421, 0.000000000000000000 ) ) ;
#548 = VERTEX_POINT ( 'NONE', #1124 ) ;
#549 = VECTOR ( 'NONE', #587, 1000.000000000000000 ) ;
#550 = ADVANCED_FACE ( 'NONE', ( #406 ), #1227, .T. ) ;
#551 = CIRCLE ( 'NONE', #471, 5.000000000000004441 ) ;
#552 = DIRECTION ( 'NONE',  ( 0.000000000000000000, 0.000000000000000000, 1.000000000000000000 ) ) ;
#553 = AXIS2_PLACEMENT_3D ( 'NONE', #1331, #300, #926 ) ;
#554 = EDGE_LOOP ( 'NONE', ( #709, #1310, #470, #1274 ) ) ;
#555 = EDGE_CURVE ( 'NONE', #564, #1214, #510, .T. ) ;
#556 = EDGE_CURVE ( 'NONE', #483, #496, #304, .T. ) ;
#557 = DIRECTION ( 'NONE',  ( 1.000000000000000000, 0.000000000000000000, 0.000000000000000000 ) ) ;
#558 = EDGE_LOOP ( 'NONE', ( #1306, #618 ) ) ;
#559 = DIRECTION ( 'NONE',  ( 1.000000000000000000, 0.000000000000000000, 0.000000000000000000 ) ) ;
#560 = CARTESIAN_POINT ( 'NONE',  ( 7.499999999999999112, 24.99999999999999645, 200.0000000000000000 ) ) ;
#561 = ORIENTED_EDGE ( 'NONE', *, *, #1051, .T. ) ;
#562 = FACE_OUTER_BOUND ( 'NONE', #273, .T. ) ;
#563 = VERTEX_POINT ( 'NONE', #85 ) ;
#564 = VERTEX_POINT ( 'NONE', #288 ) ;
#565 = CC_DESIGN_APPROVAL ( #629, ( #591 ) ) ;
#566 = EDGE_CURVE ( 'NONE', #489, #1277, #723, .T. ) ;
#567 = CARTESIAN_POINT ( 'NONE',  ( -7.499999999999994671, -25.00000000000000000, 205.0000000000000284 ) ) ;
#568 = ORIENTED_EDGE ( 'NONE', *, *, #631, .F. ) ;
#569 = ORIENTED_EDGE ( 'NONE', *, *, #610, .F. ) ;
#570 = CYLINDRICAL_SURFACE ( 'NONE', #286, 5.000000000000004441 ) ;
#571 = AXIS2_PLACEMENT_3D ( 'NONE', #1286, #382, #1198 ) ;
#572 = DIRECTION ( 'NONE',  ( 0.000000000000000000, -0.000000000000000000, 1.000000000000000000 ) ) ;
#573 = EDGE_LOOP ( 'NONE', ( #700, #75 ) ) ;
#574 = CLOSED_SHELL ( 'NONE', ( #63, #1171, #1215, #1187 ) ) ;
#575 = VECTOR ( 'NONE', #1150, 1000.000000000000000 ) ;
#576 = EDGE_CURVE ( 'NONE', #120, #938, #608, .T. ) ;
#577 = DIRECTION ( 'NONE',  ( -1.000000000000000000, 0.000000000000000000, 0.000000000000000000 ) ) ;
#578 = ORIENTED_EDGE ( 'NONE', *, *, #1288, .F. ) ;
#579 = VERTEX_POINT ( 'NONE', #1335 ) ;
#580 = DIRECTION ( 'NONE',  ( 1.000000000000000000, 0.000000000000000000, -0.000000000000000000 ) ) ;
#581 = DIRECTION ( 'NONE',  ( -1.000000000000000000, 0.000000000000000000, 0.000000000000000000 ) ) ;
#582 = EDGE_CURVE ( 'NONE', #496, #993, #312, .T. ) ;
#583 = ORIENTED_EDGE ( 'NONE', *, *, #219, .T. ) ;
#584 = FACE_OUTER_BOUND ( 'NONE', #1326, .T. ) ;
#585 = ORIENTED_EDGE ( 'NONE', *, *, #525, .F. ) ;
#586 = CARTESIAN_POINT ( 'NONE',  ( -75.00000000000001421, -80.00000000000001421, 0.000000000000000000 ) ) ;
#587 = DIRECTION ( 'NONE',  ( 0.000000000000000000, -0.000000000000000000, -1.000000000000000000 ) ) ;
#588 = ADVANCED_FACE ( 'NONE', ( #280, #1005 ), #487, .F. ) ;
#589 = ORIENTED_EDGE ( 'NONE', *, *, #1042, .F. ) ;
#590 = CIRCLE ( 'NONE', #1279, 5.000000000000004441 ) ;
#591 = SECURITY_CLASSIFICATION ( '', '', #649 ) ;
#592 = CIRCLE ( 'NONE', #1008, 10.00000000000000888 ) ;
#593 = PLANE ( 'NONE',  #924 ) ;
#594 = ORIENTED_EDGE ( 'NONE', *, *, #1051, .F. ) ;
#595 = ORIENTED_EDGE ( 'NONE', *, *, #41, .F. ) ;
#596 = LINE ( 'NONE', #788, #1243 ) ;
#597 = LINE ( 'NONE', #1218, #56 ) ;
#598 = EDGE_CURVE ( 'NONE', #1235, #49, #696, .T. ) ;
#599 = ORIENTED_EDGE ( 'NONE', *, *, #378, .F. ) ;
#600 = CARTESIAN_POINT ( 'NONE',  ( 127.4999999999999432, 137.4999999999999716, 0.000000000000000000 ) ) ;
#601 = AXIS2_PLACEMENT_3D ( 'NONE', #560, #157, #68 ) ;
#602 = CARTESIAN_POINT ( 'NONE',  ( -147.4999999999999716, 137.5000000000000000, 0.000000000000000000 ) ) ;
#603 = AXIS2_PLACEMENT_3D ( 'NONE', #1213, #929, #605 ) ;
#604 = EDGE_CURVE ( 'NONE', #1168, #915, #1284, .T. ) ;
#605 = DIRECTION ( 'NONE',  ( 1.000000000000000000, 0.000000000000000000, 0.000000000000000000 ) ) ;
#606 = ORIENTED_EDGE ( 'NONE', *, *, #971, .T. ) ;
#607 = DIRECTION ( 'NONE',  ( 1.000000000000000000, 0.000000000000000000, -0.000000000000000000 ) ) ;
#608 = LINE ( 'NONE', #1131, #549 ) ;
#609 = APPLICATION_CONTEXT ( 'configuration controlled 3d designs of mechanical parts and assemblies' ) ;
#610 = EDGE_CURVE ( 'NONE', #69, #1203, #945, .T. ) ;
#611 = EDGE_LOOP ( 'NONE', ( #488, #878, #28, #1097 ) ) ;
#612 = CARTESIAN_POINT ( 'NONE',  ( 0.000000000000000000, 0.000000000000000000, 9.999999999999968026 ) ) ;
#613 = CYLINDRICAL_SURFACE ( 'NONE', #535, 8.000000000000003553 ) ;
#614 = FACE_OUTER_BOUND ( 'NONE', #756, .T. ) ;
#615 = VERTEX_POINT ( 'NONE', #710 ) ;
#616 = CARTESIAN_POINT ( 'NONE',  ( -7.500000000000000888, 16.99999999999999645, 200.0000000000000000 ) ) ;
#617 = CARTESIAN_POINT ( 'NONE',  ( 7.500000000000005329, -24.99999999999999645, 200.0000000000000000 ) ) ;
#618 = ORIENTED_EDGE ( 'NONE', *, *, #107, .T. ) ;
#619 = CC_DESIGN_PERSON_AND_ORGANIZATION_ASSIGNMENT ( #853, #658, ( #856 ) ) ;
#620 = FACE_OUTER_BOUND ( 'NONE', #768, .T. ) ;
#621 = CARTESIAN_POINT ( 'NONE',  ( 7.500000000000005329, -24.99999999999999645, 205.0000000000000284 ) ) ;
#622 = EDGE_CURVE ( 'NONE', #299, #120, #657, .T. ) ;
#623 = DIRECTION ( 'NONE',  ( 1.084202172485503941E-16, 1.000000000000000000, 0.000000000000000000 ) ) ;
#624 = EDGE_CURVE ( 'NONE', #915, #1168, #1177, .T. ) ;
#625 = CARTESIAN_POINT ( 'NONE',  ( -7.500000000000000888, 33.00000000000000000, 205.0000000000000284 ) ) ;
#626 = CARTESIAN_POINT ( 'NONE',  ( -7.500000000000000888, 33.00000000000000000, 200.0000000000000000 ) ) ;
#627 = MANIFOLD_SOLID_BREP ( 'Colone-2-solid1', #1127 ) ;
#628 = LINE ( 'NONE', #815, #110 ) ;
#629 = APPROVAL ( #422, 'UNSPECIFIED' ) ;
#630 = MANIFOLD_SOLID_BREP ( 'Longue_colone-2-solid1', #428 ) ;
#631 = EDGE_CURVE ( 'NONE', #548, #800, #245, .T. ) ;
#632 = CYLINDRICAL_SURFACE ( 'NONE', #334, 10.00000000000000888 ) ;
#633 = VECTOR ( 'NONE', #208, 1000.000000000000000 ) ;
#634 = CARTESIAN_POINT ( 'NONE',  ( -6.123233995736760366E-16, 25.00000000000000000, 195.0000000000000000 ) ) ;
#635 = AXIS2_PLACEMENT_3D ( 'NONE', #1022, #740, #514 ) ;
#636 = ORIENTED_EDGE ( 'NONE', *, *, #97, .F. ) ;
#637 = MANIFOLD_SOLID_BREP ( 'Colone-4-solid1', #989 ) ;
#638 = ADVANCED_FACE ( 'NONE', ( #898 ), #775, .T. ) ;
#639 = AXIS2_PLACEMENT_3D ( 'NONE', #209, #118, #393 ) ;
#640 = DIRECTION ( 'NONE',  ( -1.000000000000000000, 1.680333332844617311E-16, 0.000000000000000000 ) ) ;
#641 = MANIFOLD_SOLID_BREP ( 'Colone-1-solid1', #779 ) ;
#642 = DIRECTION ( 'NONE',  ( 1.000000000000000000, 0.000000000000000000, 0.000000000000000000 ) ) ;
#643 = MANIFOLD_SOLID_BREP ( 'Colone-3-solid1', #214 ) ;
#644 = FACE_OUTER_BOUND ( 'NONE', #191, .T. ) ;
#645 = ORIENTED_EDGE ( 'NONE', *, *, #139, .T. ) ;
#646 = DIRECTION ( 'NONE',  ( 0.000000000000000000, 0.000000000000000000, 1.000000000000000000 ) ) ;
#647 = DIRECTION ( 'NONE',  ( -1.000000000000000000, 0.000000000000000000, 0.000000000000000000 ) ) ;
#648 = ORIENTED_EDGE ( 'NONE', *, *, #439, .T. ) ;
#649 = SECURITY_CLASSIFICATION_LEVEL ( 'unclassified' ) ;
#650 = CARTESIAN_POINT ( 'NONE',  ( 7.500000000000000000, 9.184850993605147944E-16, 209.9999999999999716 ) ) ;
#651 = LOCAL_TIME ( 14, 37, 2.000000000000000000, #326 ) ;
#652 = PLANE ( 'NONE',  #965 ) ;
#653 = CYLINDRICAL_SURFACE ( 'NONE', #515, 5.000000000000004441 ) ;
#654 = ORIENTED_EDGE ( 'NONE', *, *, #669, .F. ) ;
#655 = PERSON_AND_ORGANIZATION ( #125, #466 ) ;
#656 = AXIS2_PLACEMENT_3D ( 'NONE', #697, #995, #71 ) ;
#657 = CIRCLE ( 'NONE', #881, 8.000000000000003553 ) ;
#658 = PERSON_AND_ORGANIZATION_ROLE ( 'creator' ) ;
#659 = VECTOR ( 'NONE', #919, 1000.000000000000000 ) ;
#660 = CARTESIAN_POINT ( 'NONE',  ( 80.00000000000000000, 79.99999999999998579, 610.0000000000000000 ) ) ;
#661 = DIRECTION ( 'NONE',  ( 0.000000000000000000, 0.000000000000000000, 1.000000000000000000 ) ) ;
#662 = ORIENTED_EDGE ( 'NONE', *, *, #969, .F. ) ;
#663 = APPROVAL_DATE_TIME ( #42, #217 ) ;
#664 = DIRECTION ( 'NONE',  ( 0.000000000000000000, 0.000000000000000000, 1.000000000000000000 ) ) ;
#665 = DIRECTION ( 'NONE',  ( 0.000000000000000000, 0.000000000000000000, 1.000000000000000000 ) ) ;
#666 = ORIENTED_EDGE ( 'NONE', *, *, #1024, .T. ) ;
#667 = DIRECTION ( 'NONE',  ( 1.000000000000000000, 0.000000000000000000, 0.000000000000000000 ) ) ;
#668 = VECTOR ( 'NONE', #753, 1000.000000000000000 ) ;
#669 = EDGE_CURVE ( 'NONE', #1327, #1053, #425, .T. ) ;
#670 = EDGE_CURVE ( 'NONE', #1318, #62, #761, .T. ) ;
#671 = MECHANICAL_CONTEXT ( 'NONE', #609, 'mechanical' ) ;
#672 = AXIS2_PLACEMENT_3D ( 'NONE', #893, #167, #372 ) ;
#673 = AXIS2_PLACEMENT_3D ( 'NONE', #10, #1332, #1121 ) ;
#674 = DIRECTION ( 'NONE',  ( -1.000000000000000000, -1.678979138093660555E-16, 0.000000000000000000 ) ) ;
#675 = VECTOR ( 'NONE', #1272, 1000.000000000000000 ) ;
#676 = ORIENTED_EDGE ( 'NONE', *, *, #141, .F. ) ;
#677 = CARTESIAN_POINT ( 'NONE',  ( 80.00000000000000000, 79.99999999999998579, 610.0000000000000000 ) ) ;
#678 = ORIENTED_EDGE ( 'NONE', *, *, #922, .F. ) ;
#679 = FACE_BOUND ( 'NONE', #78, .T. ) ;
#680 = EDGE_CURVE ( 'NONE', #342, #790, #36, .T. ) ;
#681 = PRODUCT ( 'barres_opt_Défaut_sldprt', 'barres_opt_Défaut_sldprt', '', ( #671 ) ) ;
#682 = ORIENTED_EDGE ( 'NONE', *, *, #1105, .F. ) ;
#683 = DIRECTION ( 'NONE',  ( 0.000000000000000000, 0.000000000000000000, -1.000000000000000000 ) ) ;
#684 = DIRECTION ( 'NONE',  ( 0.000000000000000000, 0.000000000000000000, 1.000000000000000000 ) ) ;
#685 = ORIENTED_EDGE ( 'NONE', *, *, #576, .T. ) ;
#686 = DIRECTION ( 'NONE',  ( 0.000000000000000000, 0.000000000000000000, 1.000000000000000000 ) ) ;
#687 = DIRECTION ( 'NONE',  ( 1.000000000000000000, 0.000000000000000000, 0.000000000000000000 ) ) ;
#688 = EDGE_CURVE ( 'NONE', #773, #938, #964, .T. ) ;
#689 = ORIENTED_EDGE ( 'NONE', *, *, #1021, .T. ) ;
#690 = LOCAL_TIME ( 14, 37, 2.000000000000000000, #1264 ) ;
#691 = EDGE_CURVE ( 'NONE', #1214, #615, #1199, .T. ) ;
#692 = FACE_OUTER_BOUND ( 'NONE', #554, .T. ) ;
#693 = ORIENTED_EDGE ( 'NONE', *, *, #1241, .T. ) ;
#694 = VERTEX_POINT ( 'NONE', #1206 ) ;
#695 = CARTESIAN_POINT ( 'NONE',  ( -75.00000000000001421, 79.99999999999995737, 610.0000000000000000 ) ) ;
#696 = CIRCLE ( 'NONE', #400, 8.000000000000000000 ) ;
#697 = CARTESIAN_POINT ( 'NONE',  ( 7.500000000000002665, 33.00000000000000000, 205.0000000000000284 ) ) ;
#698 = AXIS2_PLACEMENT_3D ( 'NONE', #1148, #218, #908 ) ;
#699 = ORIENTED_EDGE ( 'NONE', *, *, #731, .T. ) ;
#700 = ORIENTED_EDGE ( 'NONE', *, *, #819, .F. ) ;
#701 = VECTOR ( 'NONE', #822, 1000.000000000000000 ) ;
#702 = AXIS2_PLACEMENT_3D ( 'NONE', #162, #1173, #970 ) ;
#703 = ADVANCED_FACE ( 'NONE', ( #1292, #182 ), #593, .T. ) ;
#704 = DIRECTION ( 'NONE',  ( 0.000000000000000000, 0.000000000000000000, 1.000000000000000000 ) ) ;
#705 = ORIENTED_EDGE ( 'NONE', *, *, #243, .F. ) ;
#706 = ORIENTED_EDGE ( 'NONE', *, *, #809, .F. ) ;
#707 = CARTESIAN_POINT ( 'NONE',  ( -80.00000000000001421, -80.00000000000001421, 610.0000000000000000 ) ) ;
#708 = CARTESIAN_POINT ( 'NONE',  ( 6.440226744007807755E-15, -20.00000000000000000, 195.0000000000000000 ) ) ;
#709 = ORIENTED_EDGE ( 'NONE', *, *, #86, .F. ) ;
#710 = CARTESIAN_POINT ( 'NONE',  ( -147.4999999999999716, -137.4999999999999432, 0.000000000000000000 ) ) ;
#711 = ORIENTED_EDGE ( 'NONE', *, *, #1084, .F. ) ;
#712 = ADVANCED_FACE ( 'NONE', ( #46 ), #363, .F. ) ;
#713 = CARTESIAN_POINT ( 'NONE',  ( -127.4999999999999432, -137.4999999999999432, 0.000000000000000000 ) ) ;
#714 = CARTESIAN_POINT ( 'NONE',  ( -80.00000000000001421, 79.99999999999995737, 610.0000000000000000 ) ) ;
#715 = DIRECTION ( 'NONE',  ( -0.000000000000000000, -0.000000000000000000, -1.000000000000000000 ) ) ;
#716 = ADVANCED_FACE ( 'NONE', ( #692 ), #51, .T. ) ;
#717 = CARTESIAN_POINT ( 'NONE',  ( 7.499999999999995559, 16.99999999999999289, 200.0000000000000000 ) ) ;
#718 = VERTEX_POINT ( 'NONE', #464 ) ;
#719 = ADVANCED_FACE ( 'NONE', ( #584 ), #1301, .F. ) ;
#720 = CARTESIAN_POINT ( 'NONE',  ( -147.4999999999999716, -137.4999999999999432, 200.0000000000000000 ) ) ;
#721 = DIRECTION ( 'NONE',  ( 0.000000000000000000, 0.000000000000000000, 1.000000000000000000 ) ) ;
#722 = CARTESIAN_POINT ( 'NONE',  ( -80.00000000000001421, 79.99999999999995737, 610.0000000000000000 ) ) ;
#723 = CIRCLE ( 'NONE', #1333, 8.000000000000000000 ) ;
#724 = AXIS2_PLACEMENT_3D ( 'NONE', #1112, #274, #188 ) ;
#725 = AXIS2_PLACEMENT_3D ( 'NONE', #145, #531, #340 ) ;
#726 = CARTESIAN_POINT ( 'NONE',  ( 147.4999999999999716, -137.4999999999999432, 200.0000000000000000 ) ) ;
#727 = ORIENTED_EDGE ( 'NONE', *, *, #525, .T. ) ;
#728 = EDGE_LOOP ( 'NONE', ( #469, #492, #992, #689 ) ) ;
#729 = DIRECTION ( 'NONE',  ( -1.000000000000000000, 0.000000000000000000, 0.000000000000000000 ) ) ;
#730 = DIRECTION ( 'NONE',  ( -0.000000000000000000, -0.000000000000000000, -1.000000000000000000 ) ) ;
#731 = EDGE_CURVE ( 'NONE', #1045, #718, #380, .T. ) ;
#732 = CARTESIAN_POINT ( 'NONE',  ( 85.00000000000000000, 79.99999999999998579, 610.0000000000000000 ) ) ;
#733 = CARTESIAN_POINT ( 'NONE',  ( 7.500000000000002665, 33.00000000000000000, 200.0000000000000000 ) ) ;
#734 = CARTESIAN_POINT ( 'NONE',  ( -80.00000000000001421, 79.99999999999995737, 0.000000000000000000 ) ) ;
#735 = ORIENTED_EDGE ( 'NONE', *, *, #968, .T. ) ;
#736 = DIRECTION ( 'NONE',  ( 0.000000000000000000, -0.000000000000000000, -1.000000000000000000 ) ) ;
#737 = CARTESIAN_POINT ( 'NONE',  ( -7.500000000000000888, 25.00000000000000000, 200.0000000000000000 ) ) ;
#738 = LINE ( 'NONE', #386, #659 ) ;
#739 = EDGE_CURVE ( 'NONE', #302, #967, #265, .T. ) ;
#740 = DIRECTION ( 'NONE',  ( -0.000000000000000000, -0.000000000000000000, -1.000000000000000000 ) ) ;
#741 = DIRECTION ( 'NONE',  ( 0.000000000000000000, 0.000000000000000000, 1.000000000000000000 ) ) ;
#742 = CARTESIAN_POINT ( 'NONE',  ( 7.499999999999995559, 16.99999999999999289, 205.0000000000000284 ) ) ;
#743 = AXIS2_PLACEMENT_3D ( 'NONE', #1297, #883, #244 ) ;
#744 = DIRECTION ( 'NONE',  ( 1.000000000000000000, 0.000000000000000000, -0.000000000000000000 ) ) ;
#745 = SHAPE_DEFINITION_REPRESENTATION ( #996, #321 ) ;
#746 = ADVANCED_FACE ( 'NONE', ( #1317, #614 ), #401, .T. ) ;
#747 = VECTOR ( 'NONE', #858, 1000.000000000000000 ) ;
#748 = DIRECTION ( 'NONE',  ( -0.000000000000000000, -0.000000000000000000, -1.000000000000000000 ) ) ;
#749 = CARTESIAN_POINT ( 'NONE',  ( 137.4999999999999432, 137.4999999999999716, 0.000000000000000000 ) ) ;
#750 = CARTESIAN_POINT ( 'NONE',  ( -80.00000000000001421, 79.99999999999995737, 610.0000000000000000 ) ) ;
#751 = ORIENTED_EDGE ( 'NONE', *, *, #680, .F. ) ;
#752 = PERSON_AND_ORGANIZATION ( #125, #466 ) ;
#753 = DIRECTION ( 'NONE',  ( -0.000000000000000000, -0.000000000000000000, -1.000000000000000000 ) ) ;
#754 = DIRECTION ( 'NONE',  ( -0.000000000000000000, -0.000000000000000000, -1.000000000000000000 ) ) ;
#755 = DIRECTION ( 'NONE',  ( 1.000000000000000000, 0.000000000000000000, 0.000000000000000000 ) ) ;
#756 = EDGE_LOOP ( 'NONE', ( #1096, #444, #860, #520 ) ) ;
#757 = CC_DESIGN_PERSON_AND_ORGANIZATION_ASSIGNMENT ( #752, #939, ( #591 ) ) ;
#758 = AXIS2_PLACEMENT_3D ( 'NONE', #836, #1057, #13 ) ;
#759 = DIRECTION ( 'NONE',  ( 3.993297967480359529E-16, 1.000000000000000000, 0.000000000000000000 ) ) ;
#760 = DIRECTION ( 'NONE',  ( -1.000000000000000000, 0.000000000000000000, 0.000000000000000000 ) ) ;
#761 = CIRCLE ( 'NONE', #571, 8.000000000000000000 ) ;
#762 = AXIS2_PLACEMENT_3D ( 'NONE', #204, #831, #291 ) ;
#763 = CALENDAR_DATE ( 2020, 29, 11 ) ;
#764 = AXIS2_PLACEMENT_3D ( 'NONE', #722, #290, #88 ) ;
#765 = VECTOR ( 'NONE', #434, 1000.000000000000000 ) ;
#766 = CARTESIAN_POINT ( 'NONE',  ( -147.4999999999999716, -137.4999999999999432, 200.0000000000000000 ) ) ;
#767 = DIRECTION ( 'NONE',  ( 1.000000000000000000, 0.000000000000000000, 0.000000000000000000 ) ) ;
#768 = EDGE_LOOP ( 'NONE', ( #873, #1156 ) ) ;
#769 = CARTESIAN_POINT ( 'NONE',  ( 5.193917847892048675E-15, -30.00000000000000355, 200.0000000000000000 ) ) ;
#770 = EDGE_CURVE ( 'NONE', #978, #1136, #903, .T. ) ;
#771 = AXIS2_PLACEMENT_3D ( 'NONE', #287, #1099, #185 ) ;
#772 = CARTESIAN_POINT ( 'NONE',  ( -80.00000000000001421, -80.00000000000001421, 610.0000000000000000 ) ) ;
#773 = VERTEX_POINT ( 'NONE', #717 ) ;
#774 = ORIENTED_EDGE ( 'NONE', *, *, #411, .F. ) ;
#775 = CYLINDRICAL_SURFACE ( 'NONE', #1074, 5.000000000000004441 ) ;
#776 = CIRCLE ( 'NONE', #1145, 7.500000000000000000 ) ;
#777 = VECTOR ( 'NONE', #1134, 1000.000000000000000 ) ;
#778 = DIRECTION ( 'NONE',  ( -0.000000000000000000, -0.000000000000000000, -1.000000000000000000 ) ) ;
#779 = CLOSED_SHELL ( 'NONE', ( #864, #1275, #1195, #339 ) ) ;
#780 = ORIENTED_EDGE ( 'NONE', *, *, #238, .F. ) ;
#781 = DIRECTION ( 'NONE',  ( 0.000000000000000000, 0.000000000000000000, 1.000000000000000000 ) ) ;
#782 = DIRECTION ( 'NONE',  ( 1.000000000000000000, 0.000000000000000000, 0.000000000000000000 ) ) ;
#783 = EDGE_LOOP ( 'NONE', ( #175, #918, #48, #45 ) ) ;
#784 = CARTESIAN_POINT ( 'NONE',  ( 75.00000000000001421, -80.00000000000001421, 610.0000000000000000 ) ) ;
#785 = ORIENTED_EDGE ( 'NONE', *, *, #86, .T. ) ;
#786 = DIRECTION ( 'NONE',  ( 1.000000000000000000, 0.000000000000000000, -0.000000000000000000 ) ) ;
#787 = ORIENTED_EDGE ( 'NONE', *, *, #556, .F. ) ;
#788 = CARTESIAN_POINT ( 'NONE',  ( 147.4999999999999716, 137.4999999999999716, 200.0000000000000000 ) ) ;
#789 = DIRECTION ( 'NONE',  ( 3.993297967480360515E-16, 1.000000000000000000, 0.000000000000000000 ) ) ;
#790 = VERTEX_POINT ( 'NONE', #726 ) ;
#791 = AXIS2_PLACEMENT_3D ( 'NONE', #323, #1063, #755 ) ;
#792 = PRODUCT_DEFINITION_FORMATION_WITH_SPECIFIED_SOURCE ( 'ANY', '', #681, .NOT_KNOWN. ) ;
#793 = DIRECTION ( 'NONE',  ( 0.000000000000000000, 0.000000000000000000, 1.000000000000000000 ) ) ;
#794 = ORIENTED_EDGE ( 'NONE', *, *, #371, .F. ) ;
#795 = FACE_OUTER_BOUND ( 'NONE', #611, .T. ) ;
#796 = AXIS2_PLACEMENT_3D ( 'NONE', #875, #1094, #1180 ) ;
#797 = CARTESIAN_POINT ( 'NONE',  ( -80.00000000000001421, 79.99999999999995737, 0.000000000000000000 ) ) ;
#798 = AXIS2_PLACEMENT_3D ( 'NONE', #1222, #1231, #623 ) ;
#799 = ORIENTED_EDGE ( 'NONE', *, *, #123, .T. ) ;
#800 = VERTEX_POINT ( 'NONE', #205 ) ;
#801 = VECTOR ( 'NONE', #240, 1000.000000000000000 ) ;
#802 = ADVANCED_FACE ( 'NONE', ( #825 ), #307, .T. ) ;
#803 = ADVANCED_FACE ( 'NONE', ( #491 ), #1009, .F. ) ;
#804 = DIRECTION ( 'NONE',  ( 0.000000000000000000, 0.000000000000000000, 1.000000000000000000 ) ) ;
#805 = VERTEX_POINT ( 'NONE', #90 ) ;
#806 = CARTESIAN_POINT ( 'NONE',  ( -7.500000000000000888, 25.00000000000000000, 205.0000000000000284 ) ) ;
#807 = CARTESIAN_POINT ( 'NONE',  ( 7.500000000000002665, 33.00000000000000000, 205.0000000000000284 ) ) ;
#808 = CARTESIAN_POINT ( 'NONE',  ( 137.4999999999999432, 137.4999999999999716, 200.0000000000000000 ) ) ;
#809 = EDGE_CURVE ( 'NONE', #369, #206, #1142, .T. ) ;
#810 = DIRECTION ( 'NONE',  ( 0.000000000000000000, -0.000000000000000000, 1.000000000000000000 ) ) ;
#811 = EDGE_LOOP ( 'NONE', ( #799, #871 ) ) ;
#812 = ORIENTED_EDGE ( 'NONE', *, *, #1209, .T. ) ;
#813 = CARTESIAN_POINT ( 'NONE',  ( -7.500000000000000888, 33.00000000000000000, 205.0000000000000284 ) ) ;
#814 = DIRECTION ( 'NONE',  ( -1.000000000000000000, 0.000000000000000000, 0.000000000000000000 ) ) ;
#815 = CARTESIAN_POINT ( 'NONE',  ( -7.499999999999995559, -33.00000000000000000, 205.0000000000000284 ) ) ;
#816 = APPROVAL_PERSON_ORGANIZATION ( #327, #121, #231 ) ;
#817 = CARTESIAN_POINT ( 'NONE',  ( 75.00000000000001421, -80.00000000000001421, 610.0000000000000000 ) ) ;
#818 = ORIENTED_EDGE ( 'NONE', *, *, #1060, .T. ) ;
#819 = EDGE_CURVE ( 'NONE', #206, #1083, #39, .T. ) ;
#820 = CARTESIAN_POINT ( 'NONE',  ( -137.4999999999999432, -137.4999999999999432, 200.0000000000000000 ) ) ;
#821 = AXIS2_PLACEMENT_3D ( 'NONE', #350, #1280, #454 ) ;
#822 = DIRECTION ( 'NONE',  ( -1.000000000000000000, 1.680333332844618051E-16, 0.000000000000000000 ) ) ;
#823 = LINE ( 'NONE', #505, #402 ) ;
#824 = VECTOR ( 'NONE', #210, 1000.000000000000000 ) ;
#825 = FACE_OUTER_BOUND ( 'NONE', #370, .T. ) ;
#826 = ADVANCED_FACE ( 'NONE', ( #311 ), #1135, .F. ) ;
#827 = FACE_OUTER_BOUND ( 'NONE', #783, .T. ) ;
#828 = DIRECTION ( 'NONE',  ( 4.336808689942017736E-16, 1.000000000000000000, 0.000000000000000000 ) ) ;
#829 = ADVANCED_FACE ( 'NONE', ( #1325 ), #198, .T. ) ;
#830 = LINE ( 'NONE', #309, #536 ) ;
#831 = DIRECTION ( 'NONE',  ( 0.000000000000000000, 0.000000000000000000, 1.000000000000000000 ) ) ;
#832 = FACE_OUTER_BOUND ( 'NONE', #1115, .T. ) ;
#833 = VERTEX_POINT ( 'NONE', #1028 ) ;
#834 = DIRECTION ( 'NONE',  ( 1.680333332844617311E-16, 1.000000000000000000, 0.000000000000000000 ) ) ;
#835 = FACE_OUTER_BOUND ( 'NONE', #260, .T. ) ;
#836 = CARTESIAN_POINT ( 'NONE',  ( 0.000000000000000000, 0.000000000000000000, 9.999999999999968026 ) ) ;
#837 = AXIS2_PLACEMENT_3D ( 'NONE', #1250, #119, #481 ) ;
#838 = CYLINDRICAL_SURFACE ( 'NONE', #698, 5.000000000000000888 ) ;
#839 =( NAMED_UNIT ( * ) PLANE_ANGLE_UNIT ( ) SI_UNIT ( $, .RADIAN. ) );
#840 = CARTESIAN_POINT ( 'NONE',  ( 6.440226744007807755E-15, -20.00000000000000000, 205.0000000000000284 ) ) ;
#841 = AXIS2_PLACEMENT_3D ( 'NONE', #426, #225, #199 ) ;
#842 = CYLINDRICAL_SURFACE ( 'NONE', #1328, 10.00000000000000888 ) ;
#843 = ORIENTED_EDGE ( 'NONE', *, *, #219, .F. ) ;
#844 = VECTOR ( 'NONE', #778, 1000.000000000000000 ) ;
#845 = ADVANCED_FACE ( 'NONE', ( #498 ), #1015, .T. ) ;
#846 = CIRCLE ( 'NONE', #987, 5.000000000000004441 ) ;
#847 = FACE_OUTER_BOUND ( 'NONE', #892, .T. ) ;
#848 = ADVANCED_FACE ( 'NONE', ( #832 ), #4, .F. ) ;
#849 = CARTESIAN_POINT ( 'NONE',  ( 1.384325584166504319E-15, 30.00000000000000355, 195.0000000000000000 ) ) ;
#850 = DIRECTION ( 'NONE',  ( -0.000000000000000000, -0.000000000000000000, -1.000000000000000000 ) ) ;
#851 = PERSON_AND_ORGANIZATION ( #125, #466 ) ;
#852 = EDGE_CURVE ( 'NONE', #407, #1319, #427, .T. ) ;
#853 = PERSON_AND_ORGANIZATION ( #125, #466 ) ;
#854 = DIRECTION ( 'NONE',  ( 1.678979138093660555E-16, -1.000000000000000000, 0.000000000000000000 ) ) ;
#855 = ORIENTED_EDGE ( 'NONE', *, *, #238, .T. ) ;
#856 = PRODUCT_DEFINITION ( 'UNKNOWN', '', #792, #223 ) ;
#857 = AXIS2_PLACEMENT_3D ( 'NONE', #279, #486, #580 ) ;
#858 = DIRECTION ( 'NONE',  ( -0.000000000000000000, -0.000000000000000000, -1.000000000000000000 ) ) ;
#859 = DIRECTION ( 'NONE',  ( 0.000000000000000000, 0.000000000000000000, 1.000000000000000000 ) ) ;
#860 = ORIENTED_EDGE ( 'NONE', *, *, #598, .T. ) ;
#861 = VECTOR ( 'NONE', #92, 1000.000000000000000 ) ;
#862 = AXIS2_PLACEMENT_3D ( 'NONE', #368, #377, #47 ) ;
#863 = CIRCLE ( 'NONE', #440, 7.500000000000000000 ) ;
#864 = ADVANCED_FACE ( 'NONE', ( #292 ), #522, .T. ) ;
#865 = CARTESIAN_POINT ( 'NONE',  ( 0.000000000000000000, 0.000000000000000000, 0.000000000000000000 ) ) ;
#866 = CLOSED_SHELL ( 'NONE', ( #100, #1003, #159, #826 ) ) ;
#867 = ADVANCED_FACE ( 'NONE', ( #1238 ), #838, .F. ) ;
#868 = DIRECTION ( 'NONE',  ( 1.000000000000000000, 1.678979138093660555E-16, 0.000000000000000000 ) ) ;
#869 = FACE_OUTER_BOUND ( 'NONE', #558, .T. ) ;
#870 = EDGE_LOOP ( 'NONE', ( #1002, #1303, #1107, #318 ) ) ;
#871 = ORIENTED_EDGE ( 'NONE', *, *, #770, .T. ) ;
#872 = DIRECTION ( 'NONE',  ( 0.000000000000000000, 0.000000000000000000, 1.000000000000000000 ) ) ;
#873 = ORIENTED_EDGE ( 'NONE', *, *, #624, .T. ) ;
#874 = LINE ( 'NONE', #349, #1033 ) ;
#875 = CARTESIAN_POINT ( 'NONE',  ( 137.4999999999999432, -137.4999999999999432, 0.000000000000000000 ) ) ;
#876 = LINE ( 'NONE', #1202, #164 ) ;
#877 = EDGE_LOOP ( 'NONE', ( #636, #348 ) ) ;
#878 = ORIENTED_EDGE ( 'NONE', *, *, #968, .F. ) ;
#879 = DIRECTION ( 'NONE',  ( 1.000000000000000000, 0.000000000000000000, 0.000000000000000000 ) ) ;
#880 = ORIENTED_EDGE ( 'NONE', *, *, #1201, .T. ) ;
#881 = AXIS2_PLACEMENT_3D ( 'NONE', #151, #60, #253 ) ;
#882 = AXIS2_PLACEMENT_3D ( 'NONE', #1106, #249, #1000 ) ;
#883 = DIRECTION ( 'NONE',  ( 0.000000000000000000, 0.000000000000000000, 1.000000000000000000 ) ) ;
#884 = CIRCLE ( 'NONE', #296, 10.00000000000000888 ) ;
#885 = ADVANCED_FACE ( 'NONE', ( #388 ), #1157, .T. ) ;
#886 = ORIENTED_EDGE ( 'NONE', *, *, #441, .F. ) ;
#887 = CARTESIAN_POINT ( 'NONE',  ( -80.00000000000001421, -80.00000000000001421, 0.000000000000000000 ) ) ;
#888 = ORIENTED_EDGE ( 'NONE', *, *, #1209, .F. ) ;
#889 = ORIENTED_EDGE ( 'NONE', *, *, #610, .T. ) ;
#890 = LINE ( 'NONE', #467, #146 ) ;
#891 = ORIENTED_EDGE ( 'NONE', *, *, #456, .T. ) ;
#892 = EDGE_LOOP ( 'NONE', ( #155, #285, #1330, #693 ) ) ;
#893 = CARTESIAN_POINT ( 'NONE',  ( -137.4999999999999432, 137.5000000000000000, 200.0000000000000000 ) ) ;
#894 = ORIENTED_EDGE ( 'NONE', *, *, #1256, .T. ) ;
#895 = CARTESIAN_POINT ( 'NONE',  ( 80.00000000000000000, 79.99999999999998579, 610.0000000000000000 ) ) ;
#896 = ORIENTED_EDGE ( 'NONE', *, *, #33, .T. ) ;
#897 = ADVANCED_FACE ( 'NONE', ( #15 ), #963, .T. ) ;
#898 = FACE_OUTER_BOUND ( 'NONE', #152, .T. ) ;
#899 = VERTEX_POINT ( 'NONE', #1073 ) ;
#900 = FACE_OUTER_BOUND ( 'NONE', #1175, .T. ) ;
#901 = VECTOR ( 'NONE', #730, 1000.000000000000000 ) ;
#902 = DIRECTION ( 'NONE',  ( 1.000000000000000000, 0.000000000000000000, 0.000000000000000000 ) ) ;
#903 = CIRCLE ( 'NONE', #603, 10.00000000000000888 ) ;
#904 = EDGE_CURVE ( 'NONE', #183, #496, #874, .T. ) ;
#905 = EDGE_LOOP ( 'NONE', ( #1200, #678, #1208, #896 ) ) ;
#906 = CIRCLE ( 'NONE', #639, 10.00000000000000888 ) ;
#907 = CARTESIAN_POINT ( 'NONE',  ( 75.00000000000000000, 79.99999999999998579, 610.0000000000000000 ) ) ;
#908 = DIRECTION ( 'NONE',  ( 3.993297967480359529E-16, 1.000000000000000000, 0.000000000000000000 ) ) ;
#909 = EDGE_LOOP ( 'NONE', ( #247, #1216, #133, #1104 ) ) ;
#910 = ORIENTED_EDGE ( 'NONE', *, *, #371, .T. ) ;
#911 = CARTESIAN_POINT ( 'NONE',  ( 127.4999999999999432, -137.4999999999999432, 200.0000000000000000 ) ) ;
#912 = DIRECTION ( 'NONE',  ( 1.000000000000000000, 0.000000000000000000, 0.000000000000000000 ) ) ;
#913 = CARTESIAN_POINT ( 'NONE',  ( 80.00000000000001421, -80.00000000000001421, 610.0000000000000000 ) ) ;
#914 = CARTESIAN_POINT ( 'NONE',  ( 7.499999999999999112, 24.99999999999999645, 205.0000000000000284 ) ) ;
#915 = VERTEX_POINT ( 'NONE', #463 ) ;
#916 = FACE_OUTER_BOUND ( 'NONE', #390, .T. ) ;
#917 = DIRECTION ( 'NONE',  ( 0.000000000000000000, 0.000000000000000000, 1.000000000000000000 ) ) ;
#918 = ORIENTED_EDGE ( 'NONE', *, *, #411, .T. ) ;
#919 = DIRECTION ( 'NONE',  ( 1.000000000000000000, -1.680333332844617311E-16, 0.000000000000000000 ) ) ;
#920 = CARTESIAN_POINT ( 'NONE',  ( 7.500000000000002665, -16.99999999999999289, 200.0000000000000000 ) ) ;
#921 = CARTESIAN_POINT ( 'NONE',  ( -137.4999999999999432, 137.5000000000000000, 200.0000000000000000 ) ) ;
#922 = EDGE_CURVE ( 'NONE', #1318, #1196, #356, .T. ) ;
#923 = DIRECTION ( 'NONE',  ( 0.000000000000000000, 0.000000000000000000, -1.000000000000000000 ) ) ;
#924 = AXIS2_PLACEMENT_3D ( 'NONE', #567, #358, #1082 ) ;
#925 = ORIENTED_EDGE ( 'NONE', *, *, #670, .F. ) ;
#926 = DIRECTION ( 'NONE',  ( 1.000000000000000000, 0.000000000000000000, -0.000000000000000000 ) ) ;
#927 = AXIS2_PLACEMENT_3D ( 'NONE', #1220, #741, #1126 ) ;
#928 = CIRCLE ( 'NONE', #3, 5.000000000000004441 ) ;
#929 = DIRECTION ( 'NONE',  ( 0.000000000000000000, 0.000000000000000000, 1.000000000000000000 ) ) ;
#930 = DIRECTION ( 'NONE',  ( -6.339854965420820322E-17, -1.000000000000000000, 0.000000000000000000 ) ) ;
#931 = CARTESIAN_POINT ( 'NONE',  ( -7.499999999999995559, -33.00000000000000000, 200.0000000000000000 ) ) ;
#932 = DIRECTION ( 'NONE',  ( 0.000000000000000000, 0.000000000000000000, 1.000000000000000000 ) ) ;
#933 = ORIENTED_EDGE ( 'NONE', *, *, #154, .F. ) ;
#934 = DIRECTION ( 'NONE',  ( 1.000000000000000000, 0.000000000000000000, 0.000000000000000000 ) ) ;
#935 = EDGE_CURVE ( 'NONE', #294, #899, #8, .T. ) ;
#936 = LINE ( 'NONE', #849, #801 ) ;
#937 = CARTESIAN_POINT ( 'NONE',  ( 0.000000000000000000, 0.000000000000000000, 209.9999999999999716 ) ) ;
#938 = VERTEX_POINT ( 'NONE', #733 ) ;
#939 = PERSON_AND_ORGANIZATION_ROLE ( 'classification_officer' ) ;
#940 = ORIENTED_EDGE ( 'NONE', *, *, #688, .F. ) ;
#941 = CARTESIAN_POINT ( 'NONE',  ( -75.00000000000001421, -80.00000000000001421, 610.0000000000000000 ) ) ;
#942 = LINE ( 'NONE', #130, #40 ) ;
#943 = ADVANCED_FACE ( 'NONE', ( #387 ), #613, .T. ) ;
#944 = LINE ( 'NONE', #742, #181 ) ;
#945 = CIRCLE ( 'NONE', #1248, 5.000000000000004441 ) ;
#946 = CIRCLE ( 'NONE', #1100, 10.00000000000000888 ) ;
#947 = APPROVAL_STATUS ( 'not_yet_approved' ) ;
#948 = DIRECTION ( 'NONE',  ( 0.000000000000000000, 0.000000000000000000, 1.000000000000000000 ) ) ;
#949 = PLANE ( 'NONE',  #758 ) ;
#950 = ORIENTED_EDGE ( 'NONE', *, *, #1278, .T. ) ;
#951 = CARTESIAN_POINT ( 'NONE',  ( -127.4999999999999432, 137.5000000000000000, 0.000000000000000000 ) ) ;
#952 = DIRECTION ( 'NONE',  ( 0.000000000000000000, 0.000000000000000000, 1.000000000000000000 ) ) ;
#953 = ORIENTED_EDGE ( 'NONE', *, *, #416, .F. ) ;
#954 = CARTESIAN_POINT ( 'NONE',  ( -7.500000000000000888, 25.00000000000000000, 205.0000000000000284 ) ) ;
#955 = DATE_TIME_ROLE ( 'classification_date' ) ;
#956 = ADVANCED_FACE ( 'NONE', ( #282 ), #632, .T. ) ;
#957 = DATE_TIME_ROLE ( 'creation_date' ) ;
#958 = AXIS2_PLACEMENT_3D ( 'NONE', #179, #1217, #1192 ) ;
#959 = LINE ( 'NONE', #1043, #675 ) ;
#960 = CARTESIAN_POINT ( 'NONE',  ( 127.4999999999999432, 137.4999999999999716, 200.0000000000000000 ) ) ;
#961 = ORIENTED_EDGE ( 'NONE', *, *, #691, .T. ) ;
#962 = ADVANCED_FACE ( 'NONE', ( #1212 ), #1120, .F. ) ;
#963 = PLANE ( 'NONE',  #1178 ) ;
#964 = CIRCLE ( 'NONE', #601, 8.000000000000003553 ) ;
#965 = AXIS2_PLACEMENT_3D ( 'NONE', #233, #854, #868 ) ;
#966 = DIRECTION ( 'NONE',  ( -0.000000000000000000, -0.000000000000000000, -1.000000000000000000 ) ) ;
#967 = VERTEX_POINT ( 'NONE', #602 ) ;
#968 = EDGE_CURVE ( 'NONE', #369, #1103, #551, .T. ) ;
#969 = EDGE_CURVE ( 'NONE', #805, #436, #232, .T. ) ;
#970 = DIRECTION ( 'NONE',  ( 1.000000000000000000, 0.000000000000000000, -0.000000000000000000 ) ) ;
#971 = EDGE_CURVE ( 'NONE', #915, #1010, #823, .T. ) ;
#972 = EDGE_LOOP ( 'NONE', ( #423, #894 ) ) ;
#973 = CARTESIAN_POINT ( 'NONE',  ( 80.00000000000000000, 79.99999999999998579, 0.000000000000000000 ) ) ;
#974 = CARTESIAN_POINT ( 'NONE',  ( 0.000000000000000000, 0.000000000000000000, 209.9999999999999716 ) ) ;
#975 = ORIENTED_EDGE ( 'NONE', *, *, #1021, .F. ) ;
#976 = CARTESIAN_POINT ( 'NONE',  ( 1.384325584166504319E-15, 30.00000000000000355, 205.0000000000000284 ) ) ;
#977 = APPROVAL_PERSON_ORGANIZATION ( #655, #629, #135 ) ;
#978 = VERTEX_POINT ( 'NONE', #1323 ) ;
#979 = ORIENTED_EDGE ( 'NONE', *, *, #203, .F. ) ;
#980 = DIRECTION ( 'NONE',  ( 1.000000000000000000, 0.000000000000000000, -0.000000000000000000 ) ) ;
#981 = AXIS2_PLACEMENT_3D ( 'NONE', #417, #748, #1030 ) ;
#982 = CARTESIAN_POINT ( 'NONE',  ( -137.4999999999999432, -137.4999999999999432, 0.000000000000000000 ) ) ;
#983 = CIRCLE ( 'NONE', #513, 10.00000000000000888 ) ;
#984 = EDGE_LOOP ( 'NONE', ( #257, #465, #910, #111 ) ) ;
#985 = EDGE_LOOP ( 'NONE', ( #362, #953, #421, #106 ) ) ;
#986 = DIRECTION ( 'NONE',  ( -0.000000000000000000, -0.000000000000000000, -1.000000000000000000 ) ) ;
#987 = AXIS2_PLACEMENT_3D ( 'NONE', #202, #1032, #642 ) ;
#988 = FACE_OUTER_BOUND ( 'NONE', #251, .T. ) ;
#989 = CLOSED_SHELL ( 'NONE', ( #956, #1316, #897, #184 ) ) ;
#990 = EDGE_LOOP ( 'NONE', ( #1029, #699 ) ) ;
#991 = DIRECTION ( 'NONE',  ( -0.000000000000000000, -0.000000000000000000, -1.000000000000000000 ) ) ;
#992 = ORIENTED_EDGE ( 'NONE', *, *, #243, .T. ) ;
#993 = VERTEX_POINT ( 'NONE', #920 ) ;
#994 = PLANE ( 'NONE',  #241 ) ;
#995 = DIRECTION ( 'NONE',  ( -1.680333332844618051E-16, -1.000000000000000000, 0.000000000000000000 ) ) ;
#996 = PRODUCT_DEFINITION_SHAPE ( 'NONE', 'NONE',  #856 ) ;
#997 = ORIENTED_EDGE ( 'NONE', *, *, #139, .F. ) ;
#998 = ORIENTED_EDGE ( 'NONE', *, *, #315, .T. ) ;
#999 = EDGE_CURVE ( 'NONE', #1045, #302, #399, .T. ) ;
#1000 = DIRECTION ( 'NONE',  ( 1.000000000000000000, 0.000000000000000000, 0.000000000000000000 ) ) ;
#1001 = VERTEX_POINT ( 'NONE', #1237 ) ;
#1002 = ORIENTED_EDGE ( 'NONE', *, *, #731, .F. ) ;
#1003 = ADVANCED_FACE ( 'NONE', ( #132 ), #653, .T. ) ;
#1004 = LINE ( 'NONE', #720, #1193 ) ;
#1005 = FACE_OUTER_BOUND ( 'NONE', #985, .T. ) ;
#1006 = ORIENTED_EDGE ( 'NONE', *, *, #1059, .T. ) ;
#1007 = EDGE_LOOP ( 'NONE', ( #17, #1079, #1262, #1088 ) ) ;
#1008 = AXIS2_PLACEMENT_3D ( 'NONE', #1017, #341, #308 ) ;
#1009 = CYLINDRICAL_SURFACE ( 'NONE', #1268, 5.000000000000000888 ) ;
#1010 = VERTEX_POINT ( 'NONE', #1044 ) ;
#1011 = VECTOR ( 'NONE', #1038, 1000.000000000000000 ) ;
#1012 = DIRECTION ( 'NONE',  ( 0.000000000000000000, 0.000000000000000000, 1.000000000000000000 ) ) ;
#1013 = CARTESIAN_POINT ( 'NONE',  ( 80.00000000000001421, -80.00000000000001421, 610.0000000000000000 ) ) ;
#1014 = AXIS2_PLACEMENT_3D ( 'NONE', #1322, #511, #1228 ) ;
#1015 = CYLINDRICAL_SURFACE ( 'NONE', #798, 8.000000000000003553 ) ;
#1016 = ORIENTED_EDGE ( 'NONE', *, *, #1060, .F. ) ;
#1017 = CARTESIAN_POINT ( 'NONE',  ( 137.4999999999999432, 137.4999999999999716, 0.000000000000000000 ) ) ;
#1018 = DIRECTION ( 'NONE',  ( -1.084202172485503941E-16, -1.000000000000000000, 0.000000000000000000 ) ) ;
#1019 = ORIENTED_EDGE ( 'NONE', *, *, #107, .F. ) ;
#1020 = DIRECTION ( 'NONE',  ( -1.000000000000000000, 0.000000000000000000, 0.000000000000000000 ) ) ;
#1021 = EDGE_CURVE ( 'NONE', #436, #805, #165, .T. ) ;
#1022 = CARTESIAN_POINT ( 'NONE',  ( -137.4999999999999432, -137.4999999999999432, 200.0000000000000000 ) ) ;
#1023 = FACE_OUTER_BOUND ( 'NONE', #1132, .T. ) ;
#1024 = EDGE_CURVE ( 'NONE', #800, #548, #863, .T. ) ;
#1025 = LINE ( 'NONE', #911, #19 ) ;
#1026 = CARTESIAN_POINT ( 'NONE',  ( -80.00000000000001421, 79.99999999999995737, 610.0000000000000000 ) ) ;
#1027 = CARTESIAN_POINT ( 'NONE',  ( -127.4999999999999432, 137.5000000000000000, 200.0000000000000000 ) ) ;
#1028 = CARTESIAN_POINT ( 'NONE',  ( 5.193917847892048675E-15, -30.00000000000000355, 205.0000000000000284 ) ) ;
#1029 = ORIENTED_EDGE ( 'NONE', *, *, #227, .T. ) ;
#1030 = DIRECTION ( 'NONE',  ( -1.000000000000000000, 0.000000000000000000, 0.000000000000000000 ) ) ;
#1031 = VECTOR ( 'NONE', #66, 1000.000000000000000 ) ;
#1032 = DIRECTION ( 'NONE',  ( 0.000000000000000000, 0.000000000000000000, 1.000000000000000000 ) ) ;
#1033 = VECTOR ( 'NONE', #50, 1000.000000000000000 ) ;
#1034 = AXIS2_PLACEMENT_3D ( 'NONE', #124, #948, #759 ) ;
#1035 = ADVANCED_FACE ( 'NONE', ( #27 ), #1162, .T. ) ;
#1036 = DIRECTION ( 'NONE',  ( 0.000000000000000000, 0.000000000000000000, 1.000000000000000000 ) ) ;
#1037 = ORIENTED_EDGE ( 'NONE', *, *, #1039, .T. ) ;
#1038 = DIRECTION ( 'NONE',  ( -0.000000000000000000, -0.000000000000000000, -1.000000000000000000 ) ) ;
#1039 = EDGE_CURVE ( 'NONE', #1293, #1001, #226, .T. ) ;
#1040 = CARTESIAN_POINT ( 'NONE',  ( -7.499999999999995559, -33.00000000000000000, 205.0000000000000284 ) ) ;
#1041 = CYLINDRICAL_SURFACE ( 'NONE', #837, 10.00000000000000888 ) ;
#1042 = EDGE_CURVE ( 'NONE', #299, #773, #944, .T. ) ;
#1043 = CARTESIAN_POINT ( 'NONE',  ( -7.499999999999993783, -16.99999999999999645, 205.0000000000000284 ) ) ;
#1044 = CARTESIAN_POINT ( 'NONE',  ( -85.00000000000001421, 79.99999999999995737, 0.000000000000000000 ) ) ;
#1045 = VERTEX_POINT ( 'NONE', #22 ) ;
#1046 = CIRCLE ( 'NONE', #328, 5.000000000000000888 ) ;
#1047 = CIRCLE ( 'NONE', #958, 8.000000000000003553 ) ;
#1048 = DIRECTION ( 'NONE',  ( 1.000000000000000000, 0.000000000000000000, 0.000000000000000000 ) ) ;
#1049 = CARTESIAN_POINT ( 'NONE',  ( 6.440226744007807755E-15, -20.00000000000000000, 200.0000000000000000 ) ) ;
#1050 = VECTOR ( 'NONE', #736, 1000.000000000000000 ) ;
#1051 = EDGE_CURVE ( 'NONE', #1203, #69, #346, .T. ) ;
#1052 = DIRECTION ( 'NONE',  ( 3.993297967480359529E-16, 1.000000000000000000, 0.000000000000000000 ) ) ;
#1053 = VERTEX_POINT ( 'NONE', #229 ) ;
#1054 = AXIS2_PLACEMENT_3D ( 'NONE', #820, #180, #814 ) ;
#1055 = ADVANCED_FACE ( 'NONE', ( #222 ), #842, .T. ) ;
#1056 = LINE ( 'NONE', #137, #765 ) ;
#1057 = DIRECTION ( 'NONE',  ( 0.000000000000000000, 0.000000000000000000, 1.000000000000000000 ) ) ;
#1058 = VERTEX_POINT ( 'NONE', #234 ) ;
#1059 = EDGE_CURVE ( 'NONE', #268, #211, #1046, .T. ) ;
#1060 = EDGE_CURVE ( 'NONE', #833, #305, #1089, .T. ) ;
#1061 = MANIFOLD_SOLID_BREP ( 'ColoneMillieu-1-solid1', #23 ) ;
#1062 = CARTESIAN_POINT ( 'NONE',  ( 7.499999999999995559, 16.99999999999999289, 205.0000000000000284 ) ) ;
#1063 = DIRECTION ( 'NONE',  ( 0.000000000000000000, 0.000000000000000000, 1.000000000000000000 ) ) ;
#1064 = MANIFOLD_SOLID_BREP ( 'maintien-1-solid1', #403 ) ;
#1065 = MANIFOLD_SOLID_BREP ( 'Longue_colone-3-solid1', #193 ) ;
#1066 = PERSON_AND_ORGANIZATION ( #125, #466 ) ;
#1067 = CIRCLE ( 'NONE', #1246, 10.00000000000000888 ) ;
#1068 = MANIFOLD_SOLID_BREP ( 'Longue_colone-4-solid1', #866 ) ;
#1069 = CARTESIAN_POINT ( 'NONE',  ( 75.00000000000000000, 79.99999999999998579, 610.0000000000000000 ) ) ;
#1070 = ORIENTED_EDGE ( 'NONE', *, *, #97, .T. ) ;
#1071 = MANIFOLD_SOLID_BREP ( 'maintien-2-solid1', #134 ) ;
#1072 = CIRCLE ( 'NONE', #1197, 5.000000000000000888 ) ;
#1073 = CARTESIAN_POINT ( 'NONE',  ( 75.00000000000000000, 79.99999999999998579, 0.000000000000000000 ) ) ;
#1074 = AXIS2_PLACEMENT_3D ( 'NONE', #73, #484, #577 ) ;
#1075 = CC_DESIGN_PERSON_AND_ORGANIZATION_ASSIGNMENT ( #523, #540, ( #792 ) ) ;
#1076 = CIRCLE ( 'NONE', #927, 10.00000000000000888 ) ;
#1077 = ADVANCED_FACE ( 'NONE', ( #337 ), #949, .F. ) ;
#1078 = FACE_OUTER_BOUND ( 'NONE', #158, .T. ) ;
#1079 = ORIENTED_EDGE ( 'NONE', *, *, #1221, .T. ) ;
#1080 = FACE_OUTER_BOUND ( 'NONE', #277, .T. ) ;
#1081 = CARTESIAN_POINT ( 'NONE',  ( 137.4999999999999432, 137.4999999999999716, 200.0000000000000000 ) ) ;
#1082 = DIRECTION ( 'NONE',  ( -6.339854965420828950E-17, -1.000000000000000000, 0.000000000000000000 ) ) ;
#1083 = VERTEX_POINT ( 'NONE', #547 ) ;
#1084 = EDGE_CURVE ( 'NONE', #201, #564, #530, .T. ) ;
#1085 = CARTESIAN_POINT ( 'NONE',  ( 7.499999999999999112, 24.99999999999999645, 200.0000000000000000 ) ) ;
#1086 = ORIENTED_EDGE ( 'NONE', *, *, #227, .F. ) ;
#1087 = CARTESIAN_POINT ( 'NONE',  ( 137.4999999999999432, -137.4999999999999432, 200.0000000000000000 ) ) ;
#1088 = ORIENTED_EDGE ( 'NONE', *, *, #239, .F. ) ;
#1089 = CIRCLE ( 'NONE', #506, 5.000000000000000888 ) ;
#1090 = FACE_OUTER_BOUND ( 'NONE', #1152, .T. ) ;
#1091 = DIRECTION ( 'NONE',  ( -0.000000000000000000, -0.000000000000000000, -1.000000000000000000 ) ) ;
#1092 = CC_DESIGN_PERSON_AND_ORGANIZATION_ASSIGNMENT ( #140, #455, ( #681 ) ) ;
#1093 = VERTEX_POINT ( 'NONE', #31 ) ;
#1094 = DIRECTION ( 'NONE',  ( 0.000000000000000000, 0.000000000000000000, 1.000000000000000000 ) ) ;
#1095 = AXIS2_PLACEMENT_3D ( 'NONE', #194, #1314, #902 ) ;
#1096 = ORIENTED_EDGE ( 'NONE', *, *, #622, .T. ) ;
#1097 = ORIENTED_EDGE ( 'NONE', *, *, #819, .T. ) ;
#1098 = AXIS2_PLACEMENT_3D ( 'NONE', #921, #409, #301 ) ;
#1099 = DIRECTION ( 'NONE',  ( 0.000000000000000000, 0.000000000000000000, 1.000000000000000000 ) ) ;
#1100 = AXIS2_PLACEMENT_3D ( 'NONE', #1315, #504, #1211 ) ;
#1101 = CARTESIAN_POINT ( 'NONE',  ( 1.384325584166504319E-15, 30.00000000000000355, 200.0000000000000000 ) ) ;
#1102 = AXIS2_PLACEMENT_3D ( 'NONE', #797, #1110, #557 ) ;
#1103 = VERTEX_POINT ( 'NONE', #443 ) ;
#1104 = ORIENTED_EDGE ( 'NONE', *, *, #1042, .T. ) ;
#1105 = EDGE_CURVE ( 'NONE', #694, #899, #590, .T. ) ;
#1106 = CARTESIAN_POINT ( 'NONE',  ( -137.4999999999999432, 137.5000000000000000, 0.000000000000000000 ) ) ;
#1107 = ORIENTED_EDGE ( 'NONE', *, *, #739, .T. ) ;
#1108 = ORIENTED_EDGE ( 'NONE', *, *, #1159, .T. ) ;
#1109 = CARTESIAN_POINT ( 'NONE',  ( -137.4999999999999432, 137.5000000000000000, 200.0000000000000000 ) ) ;
#1110 = DIRECTION ( 'NONE',  ( 0.000000000000000000, 0.000000000000000000, 1.000000000000000000 ) ) ;
#1111 = EDGE_LOOP ( 'NONE', ( #1108, #1006 ) ) ;
#1112 = CARTESIAN_POINT ( 'NONE',  ( 80.00000000000000000, 79.99999999999998579, 0.000000000000000000 ) ) ;
#1113 = DIRECTION ( 'NONE',  ( 1.000000000000000000, 0.000000000000000000, 0.000000000000000000 ) ) ;
#1114 = ORIENTED_EDGE ( 'NONE', *, *, #852, .T. ) ;
#1115 = EDGE_LOOP ( 'NONE', ( #70, #787, #1204, #1219 ) ) ;
#1116 = CARTESIAN_POINT ( 'NONE',  ( 5.510910596163089556E-15, -25.00000000000000000, 200.0000000000000000 ) ) ;
#1117 = DIRECTION ( 'NONE',  ( 1.000000000000000000, 0.000000000000000000, -0.000000000000000000 ) ) ;
#1118 = CC_DESIGN_APPROVAL ( #121, ( #792 ) ) ;
#1119 = CYLINDRICAL_SURFACE ( 'NONE', #764, 5.000000000000004441 ) ;
#1120 = PLANE ( 'NONE',  #724 ) ;
#1121 = DIRECTION ( 'NONE',  ( -1.000000000000000000, 0.000000000000000000, 0.000000000000000000 ) ) ;
#1122 = ORIENTED_EDGE ( 'NONE', *, *, #1024, .F. ) ;
#1123 = CARTESIAN_POINT ( 'NONE',  ( 137.4999999999999432, -137.4999999999999432, 200.0000000000000000 ) ) ;
#1124 = CARTESIAN_POINT ( 'NONE',  ( -7.500000000000000000, 0.000000000000000000, 209.9999999999999716 ) ) ;
#1125 = ORIENTED_EDGE ( 'NONE', *, *, #555, .F. ) ;
#1126 = DIRECTION ( 'NONE',  ( 1.000000000000000000, 0.000000000000000000, 0.000000000000000000 ) ) ;
#1127 = CLOSED_SHELL ( 'NONE', ( #1055, #1149, #1239, #719 ) ) ;
#1128 = DIRECTION ( 'NONE',  ( -1.678979138093659569E-16, 1.000000000000000000, 0.000000000000000000 ) ) ;
#1129 = ORIENTED_EDGE ( 'NONE', *, *, #598, .F. ) ;
#1130 = LINE ( 'NONE', #625, #1050 ) ;
#1131 = CARTESIAN_POINT ( 'NONE',  ( 7.500000000000002665, 33.00000000000000000, 205.0000000000000284 ) ) ;
#1132 = EDGE_LOOP ( 'NONE', ( #354, #583 ) ) ;
#1133 = LINE ( 'NONE', #215, #405 ) ;
#1134 = DIRECTION ( 'NONE',  ( -0.000000000000000000, -0.000000000000000000, -1.000000000000000000 ) ) ;
#1135 = PLANE ( 'NONE',  #59 ) ;
#1136 = VERTEX_POINT ( 'NONE', #960 ) ;
#1137 = CYLINDRICAL_SURFACE ( 'NONE', #424, 10.00000000000000888 ) ;
#1138 = DIRECTION ( 'NONE',  ( 0.000000000000000000, 0.000000000000000000, 1.000000000000000000 ) ) ;
#1139 = CC_DESIGN_DATE_AND_TIME_ASSIGNMENT ( #34, #957, ( #856 ) ) ;
#1140 = CARTESIAN_POINT ( 'NONE',  ( -7.500000000000000888, 16.99999999999999645, 205.0000000000000284 ) ) ;
#1141 = VECTOR ( 'NONE', #216, 1000.000000000000000 ) ;
#1142 = LINE ( 'NONE', #817, #824 ) ;
#1143 = FACE_OUTER_BOUND ( 'NONE', #61, .T. ) ;
#1144 = EDGE_CURVE ( 'NONE', #49, #1277, #38, .T. ) ;
#1145 = AXIS2_PLACEMENT_3D ( 'NONE', #53, #475, #687 ) ;
#1146 = DIRECTION ( 'NONE',  ( -6.339854965420820322E-17, -1.000000000000000000, 0.000000000000000000 ) ) ;
#1147 = AXIS2_PLACEMENT_3D ( 'NONE', #1283, #355, #1146 ) ;
#1148 = CARTESIAN_POINT ( 'NONE',  ( -6.123233995736760366E-16, 25.00000000000000000, 195.0000000000000000 ) ) ;
#1149 = ADVANCED_FACE ( 'NONE', ( #644 ), #1041, .T. ) ;
#1150 = DIRECTION ( 'NONE',  ( 0.000000000000000000, 0.000000000000000000, 1.000000000000000000 ) ) ;
#1151 = DIRECTION ( 'NONE',  ( 0.000000000000000000, 0.000000000000000000, 1.000000000000000000 ) ) ;
#1152 = EDGE_LOOP ( 'NONE', ( #735, #174 ) ) ;
#1153 = CARTESIAN_POINT ( 'NONE',  ( -137.4999999999999432, -137.4999999999999432, 200.0000000000000000 ) ) ;
#1154 = CARTESIAN_POINT ( 'NONE',  ( 85.00000000000000000, 79.99999999999998579, 610.0000000000000000 ) ) ;
#1155 = CARTESIAN_POINT ( 'NONE',  ( 137.4999999999999432, -137.4999999999999432, 200.0000000000000000 ) ) ;
#1156 = ORIENTED_EDGE ( 'NONE', *, *, #604, .T. ) ;
#1157 = CYLINDRICAL_SURFACE ( 'NONE', #213, 8.000000000000003553 ) ;
#1158 = APPROVAL_STATUS ( 'not_yet_approved' ) ;
#1159 = EDGE_CURVE ( 'NONE', #211, #268, #545, .T. ) ;
#1160 = LINE ( 'NONE', #1260, #448 ) ;
#1161 = AXIS2_PLACEMENT_3D ( 'NONE', #714, #276, #879 ) ;
#1162 = CYLINDRICAL_SURFACE ( 'NONE', #156, 8.000000000000003553 ) ;
#1163 = ORIENTED_EDGE ( 'NONE', *, *, #631, .T. ) ;
#1164 = VECTOR ( 'NONE', #104, 1000.000000000000000 ) ;
#1165 = CIRCLE ( 'NONE', #1102, 5.000000000000004441 ) ;
#1166 = PLANE ( 'NONE',  #170 ) ;
#1167 = CARTESIAN_POINT ( 'NONE',  ( 80.00000000000000000, 79.99999999999998579, 0.000000000000000000 ) ) ;
#1168 = VERTEX_POINT ( 'NONE', #695 ) ;
#1169 = DIRECTION ( 'NONE',  ( -0.000000000000000000, -0.000000000000000000, -1.000000000000000000 ) ) ;
#1170 = ORIENTED_EDGE ( 'NONE', *, *, #624, .F. ) ;
#1171 = ADVANCED_FACE ( 'NONE', ( #795 ), #570, .T. ) ;
#1172 = LOCAL_TIME ( 14, 37, 2.000000000000000000, #450 ) ;
#1173 = DIRECTION ( 'NONE',  ( 0.000000000000000000, 0.000000000000000000, 1.000000000000000000 ) ) ;
#1174 = EDGE_LOOP ( 'NONE', ( #379, #230, #1129, #254 ) ) ;
#1175 = EDGE_LOOP ( 'NONE', ( #843, #1287, #561, #599 ) ) ;
#1176 = AXIS2_PLACEMENT_3D ( 'NONE', #117, #834, #640 ) ;
#1177 = CIRCLE ( 'NONE', #821, 5.000000000000004441 ) ;
#1178 = AXIS2_PLACEMENT_3D ( 'NONE', #1081, #1307, #980 ) ;
#1179 = ADVANCED_FACE ( 'NONE', ( #900 ), #161, .T. ) ;
#1180 = DIRECTION ( 'NONE',  ( 1.000000000000000000, 0.000000000000000000, -0.000000000000000000 ) ) ;
#1181 = CYLINDRICAL_SURFACE ( 'NONE', #190, 7.500000000000000000 ) ;
#1182 = ORIENTED_EDGE ( 'NONE', *, *, #6, .F. ) ;
#1183 = EDGE_LOOP ( 'NONE', ( #479, #648, #52, #706 ) ) ;
#1184 = DIRECTION ( 'NONE',  ( 1.000000000000000000, 0.000000000000000000, 0.000000000000000000 ) ) ;
#1185 = EDGE_LOOP ( 'NONE', ( #727, #578, #676, #685 ) ) ;
#1186 = CARTESIAN_POINT ( 'NONE',  ( -85.00000000000001421, -80.00000000000001421, 610.0000000000000000 ) ) ;
#1187 = ADVANCED_FACE ( 'NONE', ( #76 ), #171, .F. ) ;
#1188 = EDGE_LOOP ( 'NONE', ( #998, #397, #925, #493 ) ) ;
#1189 = EDGE_LOOP ( 'NONE', ( #595, #794 ) ) ;
#1190 = DIRECTION ( 'NONE',  ( 1.000000000000000000, 0.000000000000000000, 0.000000000000000000 ) ) ;
#1191 = ORIENTED_EDGE ( 'NONE', *, *, #566, .F. ) ;
#1192 = DIRECTION ( 'NONE',  ( -1.084202172485503941E-16, -1.000000000000000000, 0.000000000000000000 ) ) ;
#1193 = VECTOR ( 'NONE', #986, 1000.000000000000000 ) ;
#1194 = FACE_OUTER_BOUND ( 'NONE', #1185, .T. ) ;
#1195 = ADVANCED_FACE ( 'NONE', ( #1304 ), #1312, .T. ) ;
#1196 = VERTEX_POINT ( 'NONE', #1320 ) ;
#1197 = AXIS2_PLACEMENT_3D ( 'NONE', #11, #524, #930 ) ;
#1198 = DIRECTION ( 'NONE',  ( -1.084202172485504434E-16, -1.000000000000000000, 0.000000000000000000 ) ) ;
#1199 = CIRCLE ( 'NONE', #533, 10.00000000000000888 ) ;
#1200 = ORIENTED_EDGE ( 'NONE', *, *, #416, .T. ) ;
#1201 = EDGE_CURVE ( 'NONE', #483, #1093, #1047, .T. ) ;
#1202 = CARTESIAN_POINT ( 'NONE',  ( -7.499999999999993783, -16.99999999999999645, 200.0000000000000000 ) ) ;
#1203 = VERTEX_POINT ( 'NONE', #586 ) ;
#1204 = ORIENTED_EDGE ( 'NONE', *, *, #1295, .F. ) ;
#1205 = DIRECTION ( 'NONE',  ( 1.084202172485503941E-16, 1.000000000000000000, 0.000000000000000000 ) ) ;
#1206 = CARTESIAN_POINT ( 'NONE',  ( 85.00000000000000000, 79.99999999999998579, 0.000000000000000000 ) ) ;
#1207 = ORIENTED_EDGE ( 'NONE', *, *, #378, .T. ) ;
#1208 = ORIENTED_EDGE ( 'NONE', *, *, #195, .F. ) ;
#1209 = EDGE_CURVE ( 'NONE', #201, #615, #1004, .T. ) ;
#1210 = CARTESIAN_POINT ( 'NONE',  ( 7.500000000000007105, -33.00000000000000000, 205.0000000000000284 ) ) ;
#1211 = DIRECTION ( 'NONE',  ( 1.000000000000000000, 0.000000000000000000, 0.000000000000000000 ) ) ;
#1212 = FACE_OUTER_BOUND ( 'NONE', #91, .T. ) ;
#1213 = CARTESIAN_POINT ( 'NONE',  ( 137.4999999999999432, 137.4999999999999716, 200.0000000000000000 ) ) ;
#1214 = VERTEX_POINT ( 'NONE', #713 ) ;
#1215 = ADVANCED_FACE ( 'NONE', ( #1090 ), #367, .T. ) ;
#1216 = ORIENTED_EDGE ( 'NONE', *, *, #576, .F. ) ;
#1217 = DIRECTION ( 'NONE',  ( 0.000000000000000000, 0.000000000000000000, 1.000000000000000000 ) ) ;
#1218 = CARTESIAN_POINT ( 'NONE',  ( -7.500000000000000000, 0.000000000000000000, 209.9999999999999716 ) ) ;
#1219 = ORIENTED_EDGE ( 'NONE', *, *, #144, .T. ) ;
#1220 = CARTESIAN_POINT ( 'NONE',  ( 137.4999999999999432, -137.4999999999999432, 200.0000000000000000 ) ) ;
#1221 = EDGE_CURVE ( 'NONE', #978, #563, #596, .T. ) ;
#1222 = CARTESIAN_POINT ( 'NONE',  ( -7.499999999999994671, -25.00000000000000000, 205.0000000000000284 ) ) ;
#1223 = ORIENTED_EDGE ( 'NONE', *, *, #275, .T. ) ;
#1224 = APPROVAL_PERSON_ORGANIZATION ( #1066, #217, #332 ) ;
#1225 =( NAMED_UNIT ( * ) SI_UNIT ( $, .STERADIAN. ) SOLID_ANGLE_UNIT ( ) );
#1226 = CIRCLE ( 'NONE', #80, 5.000000000000004441 ) ;
#1227 = PLANE ( 'NONE',  #57 ) ;
#1228 = DIRECTION ( 'NONE',  ( 1.000000000000000000, 0.000000000000000000, 0.000000000000000000 ) ) ;
#1229 = AXIS2_PLACEMENT_3D ( 'NONE', #1013, #112, #1020 ) ;
#1230 = DIRECTION ( 'NONE',  ( -0.000000000000000000, -0.000000000000000000, -1.000000000000000000 ) ) ;
#1231 = DIRECTION ( 'NONE',  ( 0.000000000000000000, 0.000000000000000000, -1.000000000000000000 ) ) ;
#1232 = ORIENTED_EDGE ( 'NONE', *, *, #555, .T. ) ;
#1233 = CYLINDRICAL_SURFACE ( 'NONE', #981, 10.00000000000000888 ) ;
#1234 = DIRECTION ( 'NONE',  ( -0.000000000000000000, -0.000000000000000000, -1.000000000000000000 ) ) ;
#1235 = VERTEX_POINT ( 'NONE', #813 ) ;
#1236 = CARTESIAN_POINT ( 'NONE',  ( -85.00000000000001421, -80.00000000000001421, 0.000000000000000000 ) ) ;
#1237 = CARTESIAN_POINT ( 'NONE',  ( 147.4999999999999716, -137.4999999999999432, 0.000000000000000000 ) ) ;
#1238 = FACE_OUTER_BOUND ( 'NONE', #263, .T. ) ;
#1239 = ADVANCED_FACE ( 'NONE', ( #869 ), #994, .T. ) ;
#1240 = CARTESIAN_POINT ( 'NONE',  ( -7.499999999999993783, -16.99999999999999645, 205.0000000000000284 ) ) ;
#1241 = EDGE_CURVE ( 'NONE', #55, #563, #592, .T. ) ;
#1242 = DIRECTION ( 'NONE',  ( 1.000000000000000000, -1.680333332844617311E-16, 0.000000000000000000 ) ) ;
#1243 = VECTOR ( 'NONE', #83, 1000.000000000000000 ) ;
#1244 = ADVANCED_FACE ( 'NONE', ( #1023 ), #529, .T. ) ;
#1245 = CARTESIAN_POINT ( 'NONE',  ( -7.500000000000000888, 16.99999999999999645, 205.0000000000000284 ) ) ;
#1246 = AXIS2_PLACEMENT_3D ( 'NONE', #1153, #1253, #934 ) ;
#1247 = DIRECTION ( 'NONE',  ( 3.993297967480359529E-16, 1.000000000000000000, 0.000000000000000000 ) ) ;
#1248 = AXIS2_PLACEMENT_3D ( 'NONE', #887, #793, #1190 ) ;
#1249 = CARTESIAN_POINT ( 'NONE',  ( -7.499999999999994671, -25.00000000000000000, 200.0000000000000000 ) ) ;
#1250 = CARTESIAN_POINT ( 'NONE',  ( 137.4999999999999432, -137.4999999999999432, 200.0000000000000000 ) ) ;
#1251 = EDGE_LOOP ( 'NONE', ( #891, #1223 ) ) ;
#1252 = PERSON_AND_ORGANIZATION_ROLE ( 'creator' ) ;
#1253 = DIRECTION ( 'NONE',  ( 0.000000000000000000, 0.000000000000000000, 1.000000000000000000 ) ) ;
#1254 = DIRECTION ( 'NONE',  ( 1.000000000000000000, 0.000000000000000000, -0.000000000000000000 ) ) ;
#1255 = DIRECTION ( 'NONE',  ( -6.339854965420820322E-17, -1.000000000000000000, 0.000000000000000000 ) ) ;
#1256 = EDGE_CURVE ( 'NONE', #564, #201, #1067, .T. ) ;
#1257 = APPROVAL_DATE_TIME ( #431, #121 ) ;
#1258 = EDGE_CURVE ( 'NONE', #1053, #1203, #313, .T. ) ;
#1259 = COORDINATED_UNIVERSAL_TIME_OFFSET ( 1, 0, .AHEAD. ) ;
#1260 = CARTESIAN_POINT ( 'NONE',  ( -3.221295782887533119E-15, 20.00000000000000000, 195.0000000000000000 ) ) ;
#1261 = DIRECTION ( 'NONE',  ( 1.000000000000000000, 0.000000000000000000, 0.000000000000000000 ) ) ;
#1262 = ORIENTED_EDGE ( 'NONE', *, *, #154, .T. ) ;
#1263 = AXIS2_PLACEMENT_3D ( 'NONE', #707, #255, #384 ) ;
#1264 = COORDINATED_UNIVERSAL_TIME_OFFSET ( 1, 0, .AHEAD. ) ;
#1265 = DIRECTION ( 'NONE',  ( 1.000000000000000000, 0.000000000000000000, 0.000000000000000000 ) ) ;
#1266 = AXIS2_PLACEMENT_3D ( 'NONE', #974, #684, #259 ) ;
#1267 = DIRECTION ( 'NONE',  ( 1.000000000000000000, 0.000000000000000000, 0.000000000000000000 ) ) ;
#1268 = AXIS2_PLACEMENT_3D ( 'NONE', #634, #1036, #284 ) ;
#1269 = DIRECTION ( 'NONE',  ( 0.000000000000000000, -0.000000000000000000, -1.000000000000000000 ) ) ;
#1270 = VECTOR ( 'NONE', #1169, 1000.000000000000000 ) ;
#1271 = CIRCLE ( 'NONE', #113, 8.000000000000000000 ) ;
#1272 = DIRECTION ( 'NONE',  ( -1.000000000000000000, -1.678979138093660555E-16, 0.000000000000000000 ) ) ;
#1273 = ADVANCED_FACE ( 'NONE', ( #827 ), #108, .F. ) ;
#1274 = ORIENTED_EDGE ( 'NONE', *, *, #6, .T. ) ;
#1275 = ADVANCED_FACE ( 'NONE', ( #1143 ), #1233, .T. ) ;
#1276 = DIRECTION ( 'NONE',  ( 1.000000000000000000, 0.000000000000000000, 0.000000000000000000 ) ) ;
#1277 = VERTEX_POINT ( 'NONE', #616 ) ;
#1278 = EDGE_CURVE ( 'NONE', #800, #579, #518, .T. ) ;
#1279 = AXIS2_PLACEMENT_3D ( 'NONE', #1167, #859, #1267 ) ;
#1280 = DIRECTION ( 'NONE',  ( 0.000000000000000000, 0.000000000000000000, 1.000000000000000000 ) ) ;
#1281 = DIRECTION ( 'NONE',  ( 0.000000000000000000, 0.000000000000000000, 1.000000000000000000 ) ) ;
#1282 = ORIENTED_EDGE ( 'NONE', *, *, #203, .T. ) ;
#1283 = CARTESIAN_POINT ( 'NONE',  ( 5.510910596163089556E-15, -25.00000000000000000, 195.0000000000000000 ) ) ;
#1284 = CIRCLE ( 'NONE', #1161, 5.000000000000004441 ) ;
#1285 = AXIS2_PLACEMENT_3D ( 'NONE', #98, #415, #394 ) ;
#1286 = CARTESIAN_POINT ( 'NONE',  ( -7.499999999999994671, -25.00000000000000000, 205.0000000000000284 ) ) ;
#1287 = ORIENTED_EDGE ( 'NONE', *, *, #1258, .T. ) ;
#1288 = EDGE_CURVE ( 'NONE', #1235, #489, #1130, .T. ) ;
#1289 = AXIS2_PLACEMENT_3D ( 'NONE', #1026, #281, #103 ) ;
#1290 = LINE ( 'NONE', #1186, #844 ) ;
#1291 = ORIENTED_EDGE ( 'NONE', *, *, #969, .T. ) ;
#1292 = FACE_BOUND ( 'NONE', #359, .T. ) ;
#1293 = VERTEX_POINT ( 'NONE', #207 ) ;
#1294 = ORIENTED_EDGE ( 'NONE', *, *, #275, .F. ) ;
#1295 = EDGE_CURVE ( 'NONE', #62, #483, #410, .T. ) ;
#1296 = DIRECTION ( 'NONE',  ( -0.000000000000000000, -0.000000000000000000, -1.000000000000000000 ) ) ;
#1297 = CARTESIAN_POINT ( 'NONE',  ( 80.00000000000001421, -80.00000000000001421, 610.0000000000000000 ) ) ;
#1298 = EDGE_CURVE ( 'NONE', #305, #833, #1072, .T. ) ;
#1299 = ORIENTED_EDGE ( 'NONE', *, *, #1256, .F. ) ;
#1300 = ORIENTED_EDGE ( 'NONE', *, *, #437, .T. ) ;
#1301 = PLANE ( 'NONE',  #796 ) ;
#1302 = EDGE_LOOP ( 'NONE', ( #67, #168 ) ) ;
#1303 = ORIENTED_EDGE ( 'NONE', *, *, #999, .T. ) ;
#1304 = FACE_OUTER_BOUND ( 'NONE', #990, .T. ) ;
#1305 = CARTESIAN_POINT ( 'NONE',  ( 80.00000000000001421, -80.00000000000001421, 0.000000000000000000 ) ) ;
#1306 = ORIENTED_EDGE ( 'NONE', *, *, #680, .T. ) ;
#1307 = DIRECTION ( 'NONE',  ( 0.000000000000000000, 0.000000000000000000, 1.000000000000000000 ) ) ;
#1308 = DIRECTION ( 'NONE',  ( 0.000000000000000000, 0.000000000000000000, 1.000000000000000000 ) ) ;
#1309 = VECTOR ( 'NONE', #923, 1000.000000000000000 ) ;
#1310 = ORIENTED_EDGE ( 'NONE', *, *, #456, .F. ) ;
#1311 = ORIENTED_EDGE ( 'NONE', *, *, #41, .T. ) ;
#1312 = PLANE ( 'NONE',  #258 ) ;
#1313 = CIRCLE ( 'NONE', #84, 5.000000000000004441 ) ;
#1314 = DIRECTION ( 'NONE',  ( 0.000000000000000000, 0.000000000000000000, 1.000000000000000000 ) ) ;
#1315 = CARTESIAN_POINT ( 'NONE',  ( 137.4999999999999432, 137.4999999999999716, 200.0000000000000000 ) ) ;
#1316 = ADVANCED_FACE ( 'NONE', ( #847 ), #1137, .T. ) ;
#1317 = FACE_BOUND ( 'NONE', #453, .T. ) ;
#1318 = VERTEX_POINT ( 'NONE', #1240 ) ;
#1319 = VERTEX_POINT ( 'NONE', #499 ) ;
#1320 = CARTESIAN_POINT ( 'NONE',  ( -7.499999999999993783, -16.99999999999999645, 200.0000000000000000 ) ) ;
#1321 = CARTESIAN_POINT ( 'NONE',  ( 7.500000000000007105, -33.00000000000000000, 205.0000000000000284 ) ) ;
#1322 = CARTESIAN_POINT ( 'NONE',  ( 137.4999999999999432, 137.4999999999999716, 0.000000000000000000 ) ) ;
#1323 = CARTESIAN_POINT ( 'NONE',  ( 147.4999999999999716, 137.4999999999999716, 200.0000000000000000 ) ) ;
#1324 = ADVANCED_FACE ( 'NONE', ( #916 ), #220, .F. ) ;
#1325 = FACE_OUTER_BOUND ( 'NONE', #458, .T. ) ;
#1326 = EDGE_LOOP ( 'NONE', ( #94, #147 ) ) ;
#1327 = VERTEX_POINT ( 'NONE', #509 ) ;
#1328 = AXIS2_PLACEMENT_3D ( 'NONE', #1155, #850, #760 ) ;
#1329 = DIRECTION ( 'NONE',  ( -6.339854965420828950E-17, -1.000000000000000000, 0.000000000000000000 ) ) ;
#1330 = ORIENTED_EDGE ( 'NONE', *, *, #239, .T. ) ;
#1331 = CARTESIAN_POINT ( 'NONE',  ( -137.4999999999999432, -137.4999999999999432, 200.0000000000000000 ) ) ;
#1332 = DIRECTION ( 'NONE',  ( -0.000000000000000000, -0.000000000000000000, -1.000000000000000000 ) ) ;
#1333 = AXIS2_PLACEMENT_3D ( 'NONE', #737, #721, #93 ) ;
#1334 = APPLICATION_PROTOCOL_DEFINITION ( 'international standard', 'config_control_design', 1994, #609 ) ;
#1335 = CARTESIAN_POINT ( 'NONE',  ( 7.500000000000000000, 9.184850993605147944E-16, 9.999999999999968026 ) ) ;
ENDSEC;
END-ISO-10303-21;
