ISO-10303-21;
HEADER;
FILE_DESCRIPTION (( 'STEP AP203' ),
    '1' );
FILE_NAME ('moteur_haut_Défaut_sldprt.STEP',
    '2020-11-29T13:37:16',
    ( '' ),
    ( '' ),
    'SwSTEP 2.0',
    'SolidWorks 2020',
    '' );
FILE_SCHEMA (( 'CONFIG_CONTROL_DESIGN' ));
ENDSEC;

DATA;
#1 = PLANE ( 'NONE',  #393 ) ;
#2 = ADVANCED_FACE ( 'NONE', ( #675, #174 ), #620, .T. ) ;
#3 = DIRECTION ( 'NONE',  ( 1.000000000000000000, 0.000000000000000000, -0.000000000000000000 ) ) ;
#4 = ORIENTED_EDGE ( 'NONE', *, *, #244, .T. ) ;
#5 = CALENDAR_DATE ( 2020, 29, 11 ) ;
#6 = CARTESIAN_POINT ( 'NONE',  ( 4.336808689942017736E-15, -34.99999988600697520, 5.000000000000000000 ) ) ;
#7 = APPLICATION_CONTEXT ( 'configuration controlled 3d designs of mechanical parts and assemblies' ) ;
#8 = DIRECTION ( 'NONE',  ( -1.000000000000000000, 0.000000000000000000, 0.000000000000000000 ) ) ;
#9 = ORIENTED_EDGE ( 'NONE', *, *, #332, .T. ) ;
#10 = DIRECTION ( 'NONE',  ( 0.000000000000000000, 0.000000000000000000, -1.000000000000000000 ) ) ;
#11 = AXIS2_PLACEMENT_3D ( 'NONE', #43, #152, #308 ) ;
#12 = LOCAL_TIME ( 14, 37, 16.00000000000000000, #465 ) ;
#13 = EDGE_LOOP ( 'NONE', ( #477, #408, #164, #187 ) ) ;
#14 = PLANE ( 'NONE',  #587 ) ;
#15 = CARTESIAN_POINT ( 'NONE',  ( 4.336808689942017736E-15, -34.99999988600697520, 5.000000000000000000 ) ) ;
#16 = ADVANCED_FACE ( 'NONE', ( #175 ), #115, .F. ) ;
#17 = CARTESIAN_POINT ( 'NONE',  ( 4.336808689942017736E-15, -34.99999988600697520, 35.00000000000000000 ) ) ;
#18 = DIRECTION ( 'NONE',  ( 0.000000000000000000, -1.000000000000000000, 0.000000000000000000 ) ) ;
#19 = PERSON_AND_ORGANIZATION_ROLE ( 'design_owner' ) ;
#20 = EDGE_CURVE ( 'NONE', #254, #343, #500, .T. ) ;
#21 = CIRCLE ( 'NONE', #131, 5.000000000000003553 ) ;
#22 = EDGE_CURVE ( 'NONE', #552, #315, #646, .T. ) ;
#23 = ORIENTED_EDGE ( 'NONE', *, *, #529, .F. ) ;
#24 = EDGE_CURVE ( 'NONE', #239, #211, #84, .T. ) ;
#25 =( NAMED_UNIT ( * ) PLANE_ANGLE_UNIT ( ) SI_UNIT ( $, .RADIAN. ) );
#26 = ORIENTED_EDGE ( 'NONE', *, *, #419, .F. ) ;
#27 = VERTEX_POINT ( 'NONE', #421 ) ;
#28 = DIRECTION ( 'NONE',  ( -1.000000000000000000, 0.000000000000000000, 0.000000000000000000 ) ) ;
#29 = CARTESIAN_POINT ( 'NONE',  ( -15.00000000000000533, 35.00000000000000000, 5.000000000000000000 ) ) ;
#30 = VECTOR ( 'NONE', #85, 1000.000000000000000 ) ;
#31 = PLANE ( 'NONE',  #235 ) ;
#32 = LINE ( 'NONE', #319, #713 ) ;
#33 = ORIENTED_EDGE ( 'NONE', *, *, #659, .T. ) ;
#34 = DIRECTION ( 'NONE',  ( -1.000000000000000000, 0.000000000000000000, 0.000000000000000000 ) ) ;
#35 = CARTESIAN_POINT ( 'NONE',  ( 4.336808689942017736E-15, -34.99999988600697520, 5.000000000000000000 ) ) ;
#36 = DIRECTION ( 'NONE',  ( 0.000000000000000000, 1.000000000000000000, 0.000000000000000000 ) ) ;
#37 = EDGE_CURVE ( 'NONE', #143, #397, #486, .T. ) ;
#38 = VERTEX_POINT ( 'NONE', #316 ) ;
#39 = DIRECTION ( 'NONE',  ( -0.000000000000000000, -0.000000000000000000, -1.000000000000000000 ) ) ;
#40 = ORIENTED_EDGE ( 'NONE', *, *, #503, .F. ) ;
#41 = AXIS2_PLACEMENT_3D ( 'NONE', #186, #139, #534 ) ;
#42 = DIRECTION ( 'NONE',  ( -0.000000000000000000, 1.000000000000000000, -0.000000000000000000 ) ) ;
#43 = CARTESIAN_POINT ( 'NONE',  ( 4.336808689942017736E-15, -34.99999988600697520, 5.000000000000000000 ) ) ;
#44 = ORIENTED_EDGE ( 'NONE', *, *, #304, .F. ) ;
#45 = EDGE_CURVE ( 'NONE', #284, #127, #86, .T. ) ;
#46 = PERSON_AND_ORGANIZATION_ROLE ( 'creator' ) ;
#47 = DIRECTION ( 'NONE',  ( -0.000000000000000000, 0.000000000000000000, 1.000000000000000000 ) ) ;
#48 = DIRECTION ( 'NONE',  ( 0.000000000000000000, -1.000000000000000000, 0.000000000000000000 ) ) ;
#49 = ORIENTED_EDGE ( 'NONE', *, *, #37, .T. ) ;
#50 = FACE_OUTER_BOUND ( 'NONE', #537, .T. ) ;
#51 = COORDINATED_UNIVERSAL_TIME_OFFSET ( 1, 0, .AHEAD. ) ;
#52 = DIRECTION ( 'NONE',  ( 1.000000000000000000, 0.000000000000000000, 0.000000000000000000 ) ) ;
#53 = ORIENTED_EDGE ( 'NONE', *, *, #469, .F. ) ;
#54 = ADVANCED_FACE ( 'NONE', ( #639 ), #693, .F. ) ;
#55 = PLANE ( 'NONE',  #696 ) ;
#56 = AXIS2_PLACEMENT_3D ( 'NONE', #349, #684, #302 ) ;
#57 = CARTESIAN_POINT ( 'NONE',  ( 4.336808689942017736E-15, -34.99999988600697520, 5.000000000000000000 ) ) ;
#58 = ORIENTED_EDGE ( 'NONE', *, *, #108, .F. ) ;
#59 = CARTESIAN_POINT ( 'NONE',  ( 0.05000000000000433958, -35.04999988600697236, 5.000000000000000888 ) ) ;
#60 = ADVANCED_FACE ( 'NONE', ( #471 ), #255, .F. ) ;
#61 = ORIENTED_EDGE ( 'NONE', *, *, #395, .F. ) ;
#62 = DIRECTION ( 'NONE',  ( -0.000000000000000000, -0.000000000000000000, 1.000000000000000000 ) ) ;
#63 = ORIENTED_EDGE ( 'NONE', *, *, #353, .T. ) ;
#64 = CALENDAR_DATE ( 2020, 29, 11 ) ;
#65 = AXIS2_PLACEMENT_3D ( 'NONE', #17, #626, #574 ) ;
#66 = CARTESIAN_POINT ( 'NONE',  ( 4.336808689942017736E-15, -34.99999988600697520, 0.000000000000000000 ) ) ;
#67 = EDGE_CURVE ( 'NONE', #315, #598, #150, .T. ) ;
#68 = ADVANCED_FACE ( 'NONE', ( #309 ), #31, .F. ) ;
#69 = DIRECTION ( 'NONE',  ( 0.000000000000000000, 0.000000000000000000, -1.000000000000000000 ) ) ;
#70 = PLANE ( 'NONE',  #237 ) ;
#71 = CC_DESIGN_DATE_AND_TIME_ASSIGNMENT ( #711, #610, ( #190 ) ) ;
#72 = EDGE_CURVE ( 'NONE', #279, #239, #146, .T. ) ;
#73 = ORIENTED_EDGE ( 'NONE', *, *, #72, .T. ) ;
#74 = DIRECTION ( 'NONE',  ( -1.000000000000000000, 0.000000000000000000, 0.000000000000000000 ) ) ;
#75 = CARTESIAN_POINT ( 'NONE',  ( 14.99999999999999822, 35.00000000000000000, 0.000000000000000000 ) ) ;
#76 = CARTESIAN_POINT ( 'NONE',  ( 1.734723475976807094E-15, -30.00000000000000000, 0.000000000000000000 ) ) ;
#77 = EDGE_CURVE ( 'NONE', #595, #156, #542, .T. ) ;
#78 = ORIENTED_EDGE ( 'NONE', *, *, #116, .T. ) ;
#79 = PLANE ( 'NONE',  #427 ) ;
#80 = AXIS2_PLACEMENT_3D ( 'NONE', #662, #210, #216 ) ;
#81 = EDGE_LOOP ( 'NONE', ( #23, #137, #182, #320 ) ) ;
#82 = CIRCLE ( 'NONE', #498, 15.00000000000000355 ) ;
#83 = CARTESIAN_POINT ( 'NONE',  ( -0.04999999999999566597, -35.04999988600697236, 5.000000000000000888 ) ) ;
#84 = LINE ( 'NONE', #596, #624 ) ;
#85 = DIRECTION ( 'NONE',  ( -0.000000000000000000, -0.000000000000000000, 1.000000000000000000 ) ) ;
#86 = LINE ( 'NONE', #538, #559 ) ;
#87 = CARTESIAN_POINT ( 'NONE',  ( -14.99999999999999645, -34.99999999999999289, 0.000000000000000000 ) ) ;
#88 = ORIENTED_EDGE ( 'NONE', *, *, #533, .F. ) ;
#89 = DIRECTION ( 'NONE',  ( 0.000000000000000000, -1.000000000000000000, 0.000000000000000000 ) ) ;
#90 = FACE_BOUND ( 'NONE', #133, .T. ) ;
#91 = DIRECTION ( 'NONE',  ( 0.000000000000000000, 1.000000000000000000, 0.000000000000000000 ) ) ;
#92 = EDGE_CURVE ( 'NONE', #153, #627, #307, .T. ) ;
#93 = ORIENTED_EDGE ( 'NONE', *, *, #459, .F. ) ;
#94 = VECTOR ( 'NONE', #134, 1000.000000000000000 ) ;
#95 = CC_DESIGN_SECURITY_CLASSIFICATION ( #380, ( #354 ) ) ;
#96 = LINE ( 'NONE', #550, #106 ) ;
#97 = CARTESIAN_POINT ( 'NONE',  ( 0.7602026298592018394, -34.99999988600697520, 5.000000000000000000 ) ) ;
#98 = ORIENTED_EDGE ( 'NONE', *, *, #183, .T. ) ;
#99 = CARTESIAN_POINT ( 'NONE',  ( -0.04999999999999566597, -35.04999988600697236, 5.000000000000000888 ) ) ;
#100 = PERSON_AND_ORGANIZATION ( #546, #623 ) ;
#101 = LINE ( 'NONE', #281, #482 ) ;
#102 = LINE ( 'NONE', #558, #588 ) ;
#103 = ORIENTED_EDGE ( 'NONE', *, *, #476, .T. ) ;
#104 = CARTESIAN_POINT ( 'NONE',  ( 0.7602026298592018394, -34.99999988600697520, 0.000000000000000000 ) ) ;
#105 = EDGE_LOOP ( 'NONE', ( #576, #480 ) ) ;
#106 = VECTOR ( 'NONE', #388, 1000.000000000000000 ) ;
#107 = DIRECTION ( 'NONE',  ( -0.000000000000000000, -1.000000000000000000, -0.000000000000000000 ) ) ;
#108 = EDGE_CURVE ( 'NONE', #678, #254, #593, .T. ) ;
#109 = VECTOR ( 'NONE', #203, 1000.000000000000000 ) ;
#110 = ORIENTED_EDGE ( 'NONE', *, *, #138, .T. ) ;
#111 = LINE ( 'NONE', #342, #199 ) ;
#112 = CARTESIAN_POINT ( 'NONE',  ( 1.734723475976807094E-15, -30.00000000000000000, -50.00000000000000000 ) ) ;
#113 = EDGE_LOOP ( 'NONE', ( #288, #258, #473, #592, #204, #493, #456 ) ) ;
#114 = ORIENTED_CLOSED_SHELL ( 'NONE', *, #680, .F. );
#115 = PLANE ( 'NONE',  #277 ) ;
#116 = EDGE_CURVE ( 'NONE', #27, #390, #311, .T. ) ;
#117 = DATE_AND_TIME ( #64, #12 ) ;
#118 = DIRECTION ( 'NONE',  ( -1.000000000000000000, -0.000000000000000000, -0.000000000000000000 ) ) ;
#119 = AXIS2_PLACEMENT_3D ( 'NONE', #475, #691, #262 ) ;
#120 = CARTESIAN_POINT ( 'NONE',  ( -15.00000000000000533, 30.00000000000000355, -20.00000000000000000 ) ) ;
#121 = CARTESIAN_POINT ( 'NONE',  ( -15.00000000000000533, 35.00000000000000000, 5.000000000000000000 ) ) ;
#122 = CARTESIAN_POINT ( 'NONE',  ( 0.000000000000000000, 0.000000000000000000, 0.000000000000000000 ) ) ;
#123 = CARTESIAN_POINT ( 'NONE',  ( 15.00000000000000355, -34.99999977201394330, 5.000000000000000000 ) ) ;
#124 = EDGE_CURVE ( 'NONE', #324, #397, #643, .T. ) ;
#125 = APPROVAL_ROLE ( '' ) ;
#126 = EDGE_LOOP ( 'NONE', ( #581, #650 ) ) ;
#127 = VERTEX_POINT ( 'NONE', #478 ) ;
#128 = ADVANCED_FACE ( 'NONE', ( #196 ), #79, .F. ) ;
#129 = AXIS2_PLACEMENT_3D ( 'NONE', #171, #557, #52 ) ;
#130 = CARTESIAN_POINT ( 'NONE',  ( 0.000000000000000000, 0.000000000000000000, -20.00000000000000000 ) ) ;
#131 = AXIS2_PLACEMENT_3D ( 'NONE', #597, #472, #436 ) ;
#132 = EDGE_LOOP ( 'NONE', ( #361, #78, #710, #412 ) ) ;
#133 = EDGE_LOOP ( 'NONE', ( #695, #578, #250, #9 ) ) ;
#134 = DIRECTION ( 'NONE',  ( -0.000000000000000000, -0.000000000000000000, -1.000000000000000000 ) ) ;
#135 = DIRECTION ( 'NONE',  ( 1.000000000000000000, 0.000000000000000000, 0.000000000000000000 ) ) ;
#136 = DIRECTION ( 'NONE',  ( -1.000000000000000000, 0.000000000000000000, 0.000000000000000000 ) ) ;
#137 = ORIENTED_EDGE ( 'NONE', *, *, #630, .F. ) ;
#138 = EDGE_CURVE ( 'NONE', #38, #598, #454, .T. ) ;
#139 = DIRECTION ( 'NONE',  ( 1.000000000000000000, 9.912705577010325549E-17, -0.000000000000000000 ) ) ;
#140 = CARTESIAN_POINT ( 'NONE',  ( -15.00000000000000533, 35.00000000000000000, -20.00000000000000000 ) ) ;
#141 = LINE ( 'NONE', #367, #30 ) ;
#142 = AXIS2_PLACEMENT_3D ( 'NONE', #15, #570, #460 ) ;
#143 = VERTEX_POINT ( 'NONE', #666 ) ;
#144 = VECTOR ( 'NONE', #635, 1000.000000000000000 ) ;
#145 = AXIS2_PLACEMENT_3D ( 'NONE', #6, #160, #394 ) ;
#146 = LINE ( 'NONE', #140, #452 ) ;
#147 = CARTESIAN_POINT ( 'NONE',  ( 4.336808689942017736E-15, -34.99999988600697520, 20.00000000000000000 ) ) ;
#148 = ORIENTED_EDGE ( 'NONE', *, *, #630, .T. ) ;
#149 = EDGE_CURVE ( 'NONE', #678, #274, #298, .T. ) ;
#150 = LINE ( 'NONE', #75, #531 ) ;
#151 = ADVANCED_FACE ( 'NONE', ( #345 ), #509, .T. ) ;
#152 = DIRECTION ( 'NONE',  ( 0.000000000000000000, 0.000000000000000000, 1.000000000000000000 ) ) ;
#153 = VERTEX_POINT ( 'NONE', #168 ) ;
#154 = APPROVAL_STATUS ( 'not_yet_approved' ) ;
#155 = LINE ( 'NONE', #376, #571 ) ;
#156 = VERTEX_POINT ( 'NONE', #657 ) ;
#157 = AXIS2_PLACEMENT_3D ( 'NONE', #654, #39, #136 ) ;
#158 = CARTESIAN_POINT ( 'NONE',  ( 5.000000000000007994, -34.99999988600697520, 5.000000000000000000 ) ) ;
#159 = CALENDAR_DATE ( 2020, 29, 11 ) ;
#160 = DIRECTION ( 'NONE',  ( -0.000000000000000000, -0.000000000000000000, -1.000000000000000000 ) ) ;
#161 = APPROVAL ( #344, 'UNSPECIFIED' ) ;
#162 = ORIENTED_EDGE ( 'NONE', *, *, #540, .F. ) ;
#163 = DIRECTION ( 'NONE',  ( 0.000000000000000000, 0.000000000000000000, -1.000000000000000000 ) ) ;
#164 = ORIENTED_EDGE ( 'NONE', *, *, #116, .F. ) ;
#165 = CARTESIAN_POINT ( 'NONE',  ( 14.99999999999999822, 35.00000000000000000, 0.000000000000000000 ) ) ;
#166 = EDGE_LOOP ( 'NONE', ( #428, #607, #73, #668 ) ) ;
#167 = AXIS2_PLACEMENT_3D ( 'NONE', #301, #461, #686 ) ;
#168 = CARTESIAN_POINT ( 'NONE',  ( -0.04999999999999566597, -34.94999988600697094, 5.000000000000000888 ) ) ;
#169 = VERTEX_POINT ( 'NONE', #271 ) ;
#170 = CC_DESIGN_PERSON_AND_ORGANIZATION_ASSIGNMENT ( #442, #46, ( #354 ) ) ;
#171 = CARTESIAN_POINT ( 'NONE',  ( 4.336808689942017736E-15, -34.99999988600697520, 5.000000000000000000 ) ) ;
#172 = CARTESIAN_POINT ( 'NONE',  ( 4.336808689942017736E-15, -34.99999988600697520, 0.000000000000000000 ) ) ;
#173 = EDGE_CURVE ( 'NONE', #603, #423, #111, .T. ) ;
#174 = FACE_OUTER_BOUND ( 'NONE', #132, .T. ) ;
#175 = FACE_OUTER_BOUND ( 'NONE', #468, .T. ) ;
#176 = CARTESIAN_POINT ( 'NONE',  ( -15.00000000000000533, 30.00000000000000355, -20.00000000000000000 ) ) ;
#177 = VECTOR ( 'NONE', #118, 1000.000000000000000 ) ;
#178 = AXIS2_PLACEMENT_3D ( 'NONE', #130, #579, #74 ) ;
#179 = ADVANCED_FACE ( 'NONE', ( #336 ), #384, .T. ) ;
#180 = APPROVAL_DATE_TIME ( #117, #329 ) ;
#181 = DIRECTION ( 'NONE',  ( 0.000000000000000000, -0.000000000000000000, -1.000000000000000000 ) ) ;
#182 = ORIENTED_EDGE ( 'NONE', *, *, #464, .F. ) ;
#183 = EDGE_CURVE ( 'NONE', #485, #211, #286, .T. ) ;
#184 = DIRECTION ( 'NONE',  ( 1.000000000000000000, 0.000000000000000000, 0.000000000000000000 ) ) ;
#185 = ORIENTED_EDGE ( 'NONE', *, *, #20, .F. ) ;
#186 = CARTESIAN_POINT ( 'NONE',  ( -15.00000000000000533, 35.00000000000000000, 5.000000000000000000 ) ) ;
#187 = ORIENTED_EDGE ( 'NONE', *, *, #357, .T. ) ;
#188 = CIRCLE ( 'NONE', #11, 5.000000000000003553 ) ;
#189 = LOCAL_TIME ( 14, 37, 16.00000000000000000, #656 ) ;
#190 = PRODUCT_DEFINITION ( 'UNKNOWN', '', #354, #508 ) ;
#191 = CARTESIAN_POINT ( 'NONE',  ( -0.04999999999999566597, -34.94999988600697094, 5.000000000000000888 ) ) ;
#192 = DIRECTION ( 'NONE',  ( -1.000000000000000000, 0.000000000000000000, 0.000000000000000000 ) ) ;
#193 = EDGE_CURVE ( 'NONE', #153, #603, #222, .T. ) ;
#194 = CARTESIAN_POINT ( 'NONE',  ( -15.00000000000000533, 35.00000000000000000, 0.000000000000000000 ) ) ;
#195 = EDGE_LOOP ( 'NONE', ( #148, #451, #294, #303 ) ) ;
#196 = FACE_OUTER_BOUND ( 'NONE', #488, .T. ) ;
#197 = CARTESIAN_POINT ( 'NONE',  ( -0.04999999999999566597, -35.04999988600697236, 5.000000000000000888 ) ) ;
#198 = EDGE_CURVE ( 'NONE', #598, #284, #382, .T. ) ;
#199 = VECTOR ( 'NONE', #562, 1000.000000000000000 ) ;
#200 = ORIENTED_EDGE ( 'NONE', *, *, #306, .F. ) ;
#201 = AXIS2_PLACEMENT_3D ( 'NONE', #112, #566, #229 ) ;
#202 = ADVANCED_FACE ( 'NONE', ( #219 ), #608, .T. ) ;
#203 = DIRECTION ( 'NONE',  ( -0.000000000000000000, -0.000000000000000000, -1.000000000000000000 ) ) ;
#204 = ORIENTED_EDGE ( 'NONE', *, *, #183, .F. ) ;
#205 = DIRECTION ( 'NONE',  ( -1.000000000000000000, 0.000000000000000000, 0.000000000000000000 ) ) ;
#206 = EDGE_LOOP ( 'NONE', ( #638, #383 ) ) ;
#207 = DIRECTION ( 'NONE',  ( 1.000000000000000000, 0.000000000000000000, 0.000000000000000000 ) ) ;
#208 = ADVANCED_FACE ( 'NONE', ( #599 ), #55, .F. ) ;
#209 = CALENDAR_DATE ( 2020, 29, 11 ) ;
#210 = DIRECTION ( 'NONE',  ( -0.000000000000000000, -0.000000000000000000, -1.000000000000000000 ) ) ;
#211 = VERTEX_POINT ( 'NONE', #674 ) ;
#212 = VECTOR ( 'NONE', #492, 1000.000000000000000 ) ;
#213 = DIRECTION ( 'NONE',  ( -0.000000000000000000, -0.000000000000000000, -1.000000000000000000 ) ) ;
#214 = APPROVAL_DATE_TIME ( #270, #677 ) ;
#215 = VECTOR ( 'NONE', #418, 1000.000000000000000 ) ;
#216 = DIRECTION ( 'NONE',  ( -1.000000000000000000, 0.000000000000000000, 0.000000000000000000 ) ) ;
#217 = CARTESIAN_POINT ( 'NONE',  ( 4.336808689942017736E-15, -34.99999988600697520, 0.000000000000000000 ) ) ;
#218 = ORIENTED_EDGE ( 'NONE', *, *, #149, .T. ) ;
#219 = FACE_OUTER_BOUND ( 'NONE', #547, .T. ) ;
#220 = ORIENTED_EDGE ( 'NONE', *, *, #312, .T. ) ;
#221 = PERSON_AND_ORGANIZATION ( #546, #623 ) ;
#222 = LINE ( 'NONE', #670, #543 ) ;
#223 = CARTESIAN_POINT ( 'NONE',  ( -0.04999999999999566597, -34.94999988600697094, 20.00000000000000000 ) ) ;
#224 = ORIENTED_EDGE ( 'NONE', *, *, #687, .T. ) ;
#225 = EDGE_CURVE ( 'NONE', #169, #27, #96, .T. ) ;
#226 = ADVANCED_FACE ( 'NONE', ( #266 ), #707, .T. ) ;
#227 = DIRECTION ( 'NONE',  ( -7.434529206971586827E-17, 1.000000000000000000, -0.000000000000000000 ) ) ;
#228 = AXIS2_PLACEMENT_3D ( 'NONE', #57, #287, #8 ) ;
#229 = DIRECTION ( 'NONE',  ( -1.000000000000000000, 0.000000000000000000, 0.000000000000000000 ) ) ;
#230 = EDGE_LOOP ( 'NONE', ( #61, #431, #567, #267 ) ) ;
#231 = PLANE ( 'NONE',  #41 ) ;
#232 = DIRECTION ( 'NONE',  ( 0.000000000000000000, 0.000000000000000000, 1.000000000000000000 ) ) ;
#233 = DIRECTION ( 'NONE',  ( -0.000000000000000000, -0.000000000000000000, 1.000000000000000000 ) ) ;
#234 = ORIENTED_EDGE ( 'NONE', *, *, #72, .F. ) ;
#235 = AXIS2_PLACEMENT_3D ( 'NONE', #245, #689, #251 ) ;
#236 =( NAMED_UNIT ( * ) SI_UNIT ( $, .STERADIAN. ) SOLID_ANGLE_UNIT ( ) );
#237 = AXIS2_PLACEMENT_3D ( 'NONE', #83, #34, #553 ) ;
#238 = DIRECTION ( 'NONE',  ( 0.000000000000000000, 0.000000000000000000, 1.000000000000000000 ) ) ;
#239 = VERTEX_POINT ( 'NONE', #439 ) ;
#240 = DIRECTION ( 'NONE',  ( 0.000000000000000000, 0.000000000000000000, 1.000000000000000000 ) ) ;
#241 = APPLICATION_PROTOCOL_DEFINITION ( 'international standard', 'config_control_design', 1994, #7 ) ;
#242 = ORIENTED_EDGE ( 'NONE', *, *, #173, .F. ) ;
#243 = VERTEX_POINT ( 'NONE', #606 ) ;
#244 = EDGE_CURVE ( 'NONE', #683, #647, #101, .T. ) ;
#245 = CARTESIAN_POINT ( 'NONE',  ( 0.000000000000000000, 0.000000000000000000, 20.00000000000000000 ) ) ;
#246 = CIRCLE ( 'NONE', #560, 15.00000000000000355 ) ;
#247 = DIRECTION ( 'NONE',  ( -0.000000000000000000, -1.000000000000000000, -0.000000000000000000 ) ) ;
#248 = DIRECTION ( 'NONE',  ( -0.000000000000000000, 1.000000000000000000, 0.000000000000000000 ) ) ;
#249 = CARTESIAN_POINT ( 'NONE',  ( 0.05000000000000433958, -35.04999988600697236, 5.000000000000000000 ) ) ;
#250 = ORIENTED_EDGE ( 'NONE', *, *, #173, .T. ) ;
#251 = DIRECTION ( 'NONE',  ( 1.000000000000000000, 0.000000000000000000, 0.000000000000000000 ) ) ;
#252 = CC_DESIGN_PERSON_AND_ORGANIZATION_ASSIGNMENT ( #706, #438, ( #380 ) ) ;
#253 = CARTESIAN_POINT ( 'NONE',  ( 0.05000000000000433958, -34.94999988600697094, 5.000000000000000888 ) ) ;
#254 = VERTEX_POINT ( 'NONE', #104 ) ;
#255 = PLANE ( 'NONE',  #391 ) ;
#256 = LINE ( 'NONE', #484, #679 ) ;
#257 = VECTOR ( 'NONE', #328, 1000.000000000000000 ) ;
#258 = ORIENTED_EDGE ( 'NONE', *, *, #198, .T. ) ;
#259 = CC_DESIGN_APPROVAL ( #161, ( #190 ) ) ;
#260 = ADVANCED_FACE ( 'NONE', ( #443 ), #1, .T. ) ;
#261 = DIRECTION ( 'NONE',  ( 0.000000000000000000, -0.000000000000000000, 1.000000000000000000 ) ) ;
#262 = DIRECTION ( 'NONE',  ( 1.000000000000000000, 0.000000000000000000, -0.000000000000000000 ) ) ;
#263 = EDGE_LOOP ( 'NONE', ( #26, #673, #609, #44 ) ) ;
#264 = CARTESIAN_POINT ( 'NONE',  ( 1.734723475976807094E-15, -30.00000000000000000, -50.00000000000000000 ) ) ;
#265 = PERSON_AND_ORGANIZATION ( #546, #623 ) ;
#266 = FACE_OUTER_BOUND ( 'NONE', #634, .T. ) ;
#267 = ORIENTED_EDGE ( 'NONE', *, *, #37, .F. ) ;
#268 = PRODUCT_RELATED_PRODUCT_CATEGORY ( 'detail', '', ( #445 ) ) ;
#269 = LINE ( 'NONE', #331, #323 ) ;
#270 = DATE_AND_TIME ( #549, #513 ) ;
#271 = CARTESIAN_POINT ( 'NONE',  ( -15.00000000000000533, 35.00000000000000000, 5.000000000000000000 ) ) ;
#272 = ADVANCED_FACE ( 'NONE', ( #611 ), #575, .F. ) ;
#273 = FACE_OUTER_BOUND ( 'NONE', #355, .T. ) ;
#274 = VERTEX_POINT ( 'NONE', #676 ) ;
#275 = AXIS2_PLACEMENT_3D ( 'NONE', #35, #585, #481 ) ;
#276 = CIRCLE ( 'NONE', #56, 0.7602026298591975095 ) ;
#277 = AXIS2_PLACEMENT_3D ( 'NONE', #347, #515, #348 ) ;
#278 = DIRECTION ( 'NONE',  ( -1.000000000000000000, 0.000000000000000000, -0.000000000000000000 ) ) ;
#279 = VERTEX_POINT ( 'NONE', #176 ) ;
#280 = COORDINATED_UNIVERSAL_TIME_OFFSET ( 1, 0, .AHEAD. ) ;
#281 = CARTESIAN_POINT ( 'NONE',  ( -15.00000000000000178, -29.99999999999999645, -50.00000000000000000 ) ) ;
#282 = ADVANCED_FACE ( 'NONE', ( #524 ), #463, .F. ) ;
#283 = CARTESIAN_POINT ( 'NONE',  ( -0.04999999999999566597, -34.94999988600697094, 20.00000000000000000 ) ) ;
#284 = VERTEX_POINT ( 'NONE', #400 ) ;
#285 = EDGE_CURVE ( 'NONE', #485, #169, #619, .T. ) ;
#286 = LINE ( 'NONE', #450, #257 ) ;
#287 = DIRECTION ( 'NONE',  ( -0.000000000000000000, -0.000000000000000000, -1.000000000000000000 ) ) ;
#288 = ORIENTED_EDGE ( 'NONE', *, *, #67, .T. ) ;
#289 = ADVANCED_FACE ( 'NONE', ( #398 ), #14, .F. ) ;
#290 = VECTOR ( 'NONE', #213, 1000.000000000000000 ) ;
#291 = DIRECTION ( 'NONE',  ( 1.000000000000000000, 0.000000000000000000, -0.000000000000000000 ) ) ;
#292 = CC_DESIGN_APPROVAL ( #329, ( #380 ) ) ;
#293 = LINE ( 'NONE', #514, #629 ) ;
#294 = ORIENTED_EDGE ( 'NONE', *, *, #621, .F. ) ;
#295 = CC_DESIGN_PERSON_AND_ORGANIZATION_ASSIGNMENT ( #517, #19, ( #445 ) ) ;
#296 = DIRECTION ( 'NONE',  ( -1.000000000000000000, 0.000000000000000000, 0.000000000000000000 ) ) ;
#297 = ADVANCED_FACE ( 'NONE', ( #406 ), #70, .F. ) ;
#298 = CIRCLE ( 'NONE', #129, 0.7602026298591975095 ) ;
#299 = PERSON_AND_ORGANIZATION ( #546, #623 ) ;
#300 = AXIS2_PLACEMENT_3D ( 'NONE', #555, #62, #491 ) ;
#301 = CARTESIAN_POINT ( 'NONE',  ( 14.99999999999999822, 35.00000000000000000, 5.000000000000000000 ) ) ;
#302 = DIRECTION ( 'NONE',  ( 1.000000000000000000, 0.000000000000000000, 0.000000000000000000 ) ) ;
#303 = ORIENTED_EDGE ( 'NONE', *, *, #573, .T. ) ;
#304 = EDGE_CURVE ( 'NONE', #647, #552, #269, .T. ) ;
#305 = EDGE_LOOP ( 'NONE', ( #53, #93, #660, #504 ) ) ;
#306 = EDGE_CURVE ( 'NONE', #274, #343, #433, .T. ) ;
#307 = LINE ( 'NONE', #191, #368 ) ;
#308 = DIRECTION ( 'NONE',  ( 1.000000000000000000, 0.000000000000000000, 0.000000000000000000 ) ) ;
#309 = FACE_OUTER_BOUND ( 'NONE', #81, .T. ) ;
#310 = APPROVAL_PERSON_ORGANIZATION ( #299, #161, #652 ) ;
#311 = CIRCLE ( 'NONE', #714, 15.00000000000000355 ) ;
#312 = EDGE_CURVE ( 'NONE', #603, #595, #326, .T. ) ;
#313 = CARTESIAN_POINT ( 'NONE',  ( 0.7602026298592018394, -34.99999988600697520, 5.000000000000000000 ) ) ;
#314 = DIRECTION ( 'NONE',  ( 0.000000000000000000, 0.000000000000000000, -1.000000000000000000 ) ) ;
#315 = VERTEX_POINT ( 'NONE', #701 ) ;
#316 = CARTESIAN_POINT ( 'NONE',  ( 15.00000000000000533, -30.00000000000000000, -50.00000000000000000 ) ) ;
#317 = LINE ( 'NONE', #487, #339 ) ;
#318 = ADVANCED_FACE ( 'NONE', ( #50 ), #548, .T. ) ;
#319 = CARTESIAN_POINT ( 'NONE',  ( 0.05000000000000433958, -35.04999988600697236, 5.000000000000000888 ) ) ;
#320 = ORIENTED_EDGE ( 'NONE', *, *, #77, .F. ) ;
#321 = DIRECTION ( 'NONE',  ( 0.000000000000000000, 0.000000000000000000, 1.000000000000000000 ) ) ;
#322 = LINE ( 'NONE', #586, #470 ) ;
#323 = VECTOR ( 'NONE', #494, 1000.000000000000000 ) ;
#324 = VERTEX_POINT ( 'NONE', #158 ) ;
#325 = CC_DESIGN_APPROVAL ( #677, ( #354 ) ) ;
#326 = LINE ( 'NONE', #99, #528 ) ;
#327 = COORDINATED_UNIVERSAL_TIME_OFFSET ( 1, 0, .AHEAD. ) ;
#328 = DIRECTION ( 'NONE',  ( -0.000000000000000000, -0.000000000000000000, -1.000000000000000000 ) ) ;
#329 = APPROVAL ( #333, 'UNSPECIFIED' ) ;
#330 = EDGE_LOOP ( 'NONE', ( #58, #218, #618, #185 ) ) ;
#331 = CARTESIAN_POINT ( 'NONE',  ( -15.00000000000000533, 35.00000000000000000, 0.000000000000000000 ) ) ;
#332 = EDGE_CURVE ( 'NONE', #423, #373, #32, .T. ) ;
#333 = APPROVAL_STATUS ( 'not_yet_approved' ) ;
#334 = DIRECTION ( 'NONE',  ( -0.000000000000000000, -0.000000000000000000, 1.000000000000000000 ) ) ;
#335 = ORIENTED_EDGE ( 'NONE', *, *, #529, .T. ) ;
#336 = FACE_OUTER_BOUND ( 'NONE', #13, .T. ) ;
#337 = EDGE_LOOP ( 'NONE', ( #33, #358 ) ) ;
#338 = AXIS2_PLACEMENT_3D ( 'NONE', #565, #47, #616 ) ;
#339 = VECTOR ( 'NONE', #36, 1000.000000000000000 ) ;
#340 = ADVANCED_FACE ( 'NONE', ( #273 ), #231, .F. ) ;
#341 = VECTOR ( 'NONE', #364, 1000.000000000000000 ) ;
#342 = CARTESIAN_POINT ( 'NONE',  ( -0.04999999999999566597, -35.04999988600697236, 5.000000000000000888 ) ) ;
#343 = VERTEX_POINT ( 'NONE', #554 ) ;
#344 = APPROVAL_STATUS ( 'not_yet_approved' ) ;
#345 = FACE_OUTER_BOUND ( 'NONE', #206, .T. ) ;
#346 = DIRECTION ( 'NONE',  ( 0.000000000000000000, 0.000000000000000000, 1.000000000000000000 ) ) ;
#347 = CARTESIAN_POINT ( 'NONE',  ( 1.734723475976807094E-15, -30.00000000000000000, 0.000000000000000000 ) ) ;
#348 = DIRECTION ( 'NONE',  ( -1.000000000000000000, 0.000000000000000000, -0.000000000000000000 ) ) ;
#349 = CARTESIAN_POINT ( 'NONE',  ( 4.336808689942017736E-15, -34.99999988600697520, 5.000000000000000000 ) ) ;
#350 = CARTESIAN_POINT ( 'NONE',  ( 15.00000000000000355, -34.99999977201394330, 5.000000000000000000 ) ) ;
#351 = CARTESIAN_POINT ( 'NONE',  ( 5.000000000000007994, -34.99999988600697520, 35.00000000000000000 ) ) ;
#352 = ORIENTED_EDGE ( 'NONE', *, *, #138, .F. ) ;
#353 = EDGE_CURVE ( 'NONE', #279, #127, #495, .T. ) ;
#354 = PRODUCT_DEFINITION_FORMATION_WITH_SPECIFIED_SOURCE ( 'ANY', '', #445, .NOT_KNOWN. ) ;
#355 = EDGE_LOOP ( 'NONE', ( #441, #234, #63, #685, #642, #664, #688 ) ) ;
#356 = PLANE ( 'NONE',  #178 ) ;
#357 = EDGE_CURVE ( 'NONE', #27, #552, #416, .T. ) ;
#358 = ORIENTED_EDGE ( 'NONE', *, *, #533, .T. ) ;
#359 = ORIENTED_EDGE ( 'NONE', *, *, #20, .T. ) ;
#360 = DIRECTION ( 'NONE',  ( -0.000000000000000000, -0.000000000000000000, -1.000000000000000000 ) ) ;
#361 = ORIENTED_EDGE ( 'NONE', *, *, #225, .T. ) ;
#362 = CARTESIAN_POINT ( 'NONE',  ( -0.04999999999999566597, -35.04999988600697236, 20.00000000000000000 ) ) ;
#363 = ORIENTED_EDGE ( 'NONE', *, *, #285, .F. ) ;
#364 = DIRECTION ( 'NONE',  ( 1.000000000000000000, 0.000000000000000000, 0.000000000000000000 ) ) ;
#365 = AXIS2_PLACEMENT_3D ( 'NONE', #66, #401, #622 ) ;
#366 = AXIS2_PLACEMENT_3D ( 'NONE', #76, #314, #192 ) ;
#367 = CARTESIAN_POINT ( 'NONE',  ( 0.05000000000000433958, -35.04999988600697236, 5.000000000000000888 ) ) ;
#368 = VECTOR ( 'NONE', #589, 1000.000000000000000 ) ;
#369 = ORIENTED_EDGE ( 'NONE', *, *, #24, .F. ) ;
#370 = LINE ( 'NONE', #694, #483 ) ;
#371 = ORIENTED_EDGE ( 'NONE', *, *, #464, .T. ) ;
#372 = DIRECTION ( 'NONE',  ( 0.000000000000000000, 0.000000000000000000, -1.000000000000000000 ) ) ;
#373 = VERTEX_POINT ( 'NONE', #632 ) ;
#374 = DATE_AND_TIME ( #5, #577 ) ;
#375 = DIRECTION ( 'NONE',  ( 0.000000000000000000, -0.000000000000000000, 1.000000000000000000 ) ) ;
#376 = CARTESIAN_POINT ( 'NONE',  ( 14.99999999999999822, 30.00000000000000355, -20.00000000000000000 ) ) ;
#377 = AXIS2_PLACEMENT_3D ( 'NONE', #264, #489, #207 ) ;
#378 = EDGE_CURVE ( 'NONE', #390, #315, #410, .T. ) ;
#379 = EDGE_LOOP ( 'NONE', ( #613, #692, #242, #220 ) ) ;
#380 = SECURITY_CLASSIFICATION ( '', '', #490 ) ;
#381 = DATE_AND_TIME ( #159, #189 ) ;
#382 = LINE ( 'NONE', #165, #614 ) ;
#383 = ORIENTED_EDGE ( 'NONE', *, *, #395, .T. ) ;
#384 = CYLINDRICAL_SURFACE ( 'NONE', #145, 15.00000000000000000 ) ;
#385 = ORIENTED_EDGE ( 'NONE', *, *, #45, .T. ) ;
#386 = CC_DESIGN_PERSON_AND_ORGANIZATION_ASSIGNMENT ( #265, #661, ( #354 ) ) ;
#387 = APPROVAL_DATE_TIME ( #374, #161 ) ;
#388 = DIRECTION ( 'NONE',  ( 9.912705577010325549E-17, -1.000000000000000000, 0.000000000000000000 ) ) ;
#389 = PLANE ( 'NONE',  #440 ) ;
#390 = VERTEX_POINT ( 'NONE', #350 ) ;
#391 = AXIS2_PLACEMENT_3D ( 'NONE', #649, #248, #375 ) ;
#392 = AXIS2_PLACEMENT_3D ( 'NONE', #147, #582, #591 ) ;
#393 = AXIS2_PLACEMENT_3D ( 'NONE', #446, #163, #278 ) ;
#394 = DIRECTION ( 'NONE',  ( -1.000000000000000000, 0.000000000000000000, 0.000000000000000000 ) ) ;
#395 = EDGE_CURVE ( 'NONE', #399, #143, #402, .T. ) ;
#396 = DIRECTION ( 'NONE',  ( -1.000000000000000000, -0.000000000000000000, -0.000000000000000000 ) ) ;
#397 = VERTEX_POINT ( 'NONE', #518 ) ;
#398 = FACE_OUTER_BOUND ( 'NONE', #700, .T. ) ;
#399 = VERTEX_POINT ( 'NONE', #351 ) ;
#400 = CARTESIAN_POINT ( 'NONE',  ( 14.99999999999999822, 30.00000000000000355, 0.000000000000000000 ) ) ;
#401 = DIRECTION ( 'NONE',  ( 0.000000000000000000, 0.000000000000000000, 1.000000000000000000 ) ) ;
#402 = CIRCLE ( 'NONE', #65, 5.000000000000003553 ) ;
#403 = CARTESIAN_POINT ( 'NONE',  ( 4.336808689942017736E-15, -34.99999988600697520, 0.000000000000000000 ) ) ;
#404 = ADVANCED_BREP_SHAPE_REPRESENTATION ( 'moteur_haut_DÚfaut_sldprt', ( #604, #612 ), #519 ) ;
#405 = SHAPE_DEFINITION_REPRESENTATION ( #505, #404 ) ;
#406 = FACE_OUTER_BOUND ( 'NONE', #526, .T. ) ;
#407 = ADVANCED_FACE ( 'NONE', ( #521 ), #356, .T. ) ;
#408 = ORIENTED_EDGE ( 'NONE', *, *, #378, .F. ) ;
#409 = EDGE_CURVE ( 'NONE', #243, #284, #293, .T. ) ;
#410 = LINE ( 'NONE', #123, #94 ) ;
#411 = APPLICATION_CONTEXT ( 'configuration controlled 3d designs of mechanical parts and assemblies' ) ;
#412 = ORIENTED_EDGE ( 'NONE', *, *, #285, .T. ) ;
#413 = VECTOR ( 'NONE', #422, 1000.000000000000000 ) ;
#414 = APPROVAL_PERSON_ORGANIZATION ( #100, #329, #125 ) ;
#415 = ORIENTED_EDGE ( 'NONE', *, *, #409, .T. ) ;
#416 = LINE ( 'NONE', #682, #600 ) ;
#417 = ORIENTED_EDGE ( 'NONE', *, *, #659, .F. ) ;
#418 = DIRECTION ( 'NONE',  ( -0.000000000000000000, -0.000000000000000000, -1.000000000000000000 ) ) ;
#419 = EDGE_CURVE ( 'NONE', #598, #647, #246, .T. ) ;
#420 = DIRECTION ( 'NONE',  ( -0.000000000000000000, -0.000000000000000000, 1.000000000000000000 ) ) ;
#421 = CARTESIAN_POINT ( 'NONE',  ( -14.99999999999999645, -34.99999999999999289, 5.000000000000000000 ) ) ;
#422 = DIRECTION ( 'NONE',  ( -0.000000000000000000, -0.000000000000000000, -1.000000000000000000 ) ) ;
#423 = VERTEX_POINT ( 'NONE', #249 ) ;
#424 = DIRECTION ( 'NONE',  ( 1.000000000000000000, -0.000000000000000000, -0.000000000000000000 ) ) ;
#425 = CIRCLE ( 'NONE', #201, 15.00000000000000355 ) ;
#426 = LINE ( 'NONE', #194, #453 ) ;
#427 = AXIS2_PLACEMENT_3D ( 'NONE', #697, #530, #261 ) ;
#428 = ORIENTED_EDGE ( 'NONE', *, *, #641, .T. ) ;
#429 = CARTESIAN_POINT ( 'NONE',  ( 4.336808689942017736E-15, -34.99999988600697520, 0.000000000000000000 ) ) ;
#430 = FACE_OUTER_BOUND ( 'NONE', #230, .T. ) ;
#431 = ORIENTED_EDGE ( 'NONE', *, *, #503, .T. ) ;
#432 = ADVANCED_FACE ( 'NONE', ( #430 ), #640, .T. ) ;
#433 = LINE ( 'NONE', #651, #290 ) ;
#434 = DIRECTION ( 'NONE',  ( -7.434529206971586827E-17, 1.000000000000000000, -0.000000000000000000 ) ) ;
#435 = EDGE_CURVE ( 'NONE', #423, #156, #141, .T. ) ;
#436 = DIRECTION ( 'NONE',  ( 1.000000000000000000, 0.000000000000000000, 0.000000000000000000 ) ) ;
#437 = EDGE_LOOP ( 'NONE', ( #371, #448, #561, #523 ) ) ;
#438 = PERSON_AND_ORGANIZATION_ROLE ( 'classification_officer' ) ;
#439 = CARTESIAN_POINT ( 'NONE',  ( -15.00000000000000533, 35.00000000000000000, -20.00000000000000000 ) ) ;
#440 = AXIS2_PLACEMENT_3D ( 'NONE', #217, #346, #3 ) ;
#441 = ORIENTED_EDGE ( 'NONE', *, *, #522, .T. ) ;
#442 = PERSON_AND_ORGANIZATION ( #546, #623 ) ;
#443 = FACE_OUTER_BOUND ( 'NONE', #337, .T. ) ;
#444 = ORIENTED_EDGE ( 'NONE', *, *, #353, .F. ) ;
#445 = PRODUCT ( 'moteur_haut_Défaut_sldprt', 'moteur_haut_Défaut_sldprt', '', ( #569 ) ) ;
#446 = CARTESIAN_POINT ( 'NONE',  ( 1.734723475976807094E-15, -30.00000000000000000, -50.00000000000000000 ) ) ;
#447 = CARTESIAN_POINT ( 'NONE',  ( 14.99999999999999822, 35.00000000000000000, 5.000000000000000000 ) ) ;
#448 = ORIENTED_EDGE ( 'NONE', *, *, #573, .F. ) ;
#449 = APPROVAL_ROLE ( '' ) ;
#450 = CARTESIAN_POINT ( 'NONE',  ( 14.99999999999999822, 35.00000000000000000, 5.000000000000000000 ) ) ;
#451 = ORIENTED_EDGE ( 'NONE', *, *, #92, .F. ) ;
#452 = VECTOR ( 'NONE', #42, 1000.000000000000000 ) ;
#453 = VECTOR ( 'NONE', #703, 1000.000000000000000 ) ;
#454 = LINE ( 'NONE', #501, #671 ) ;
#455 = CARTESIAN_POINT ( 'NONE',  ( 0.05000000000000433958, -34.94999988600697094, 20.00000000000000000 ) ) ;
#456 = ORIENTED_EDGE ( 'NONE', *, *, #378, .T. ) ;
#457 = UNCERTAINTY_MEASURE_WITH_UNIT (LENGTH_MEASURE( 1.000000000000000082E-05 ), #525, 'distance_accuracy_value', 'NONE');
#458 = DIRECTION ( 'NONE',  ( 1.000000000000000000, 0.000000000000000000, 0.000000000000000000 ) ) ;
#459 = EDGE_CURVE ( 'NONE', #127, #647, #426, .T. ) ;
#460 = DIRECTION ( 'NONE',  ( 1.000000000000000000, 0.000000000000000000, -0.000000000000000000 ) ) ;
#461 = DIRECTION ( 'NONE',  ( -1.000000000000000000, -7.434529206971586827E-17, 0.000000000000000000 ) ) ;
#462 = DIRECTION ( 'NONE',  ( -0.000000000000000000, -0.000000000000000000, -1.000000000000000000 ) ) ;
#463 = PLANE ( 'NONE',  #497 ) ;
#464 = EDGE_CURVE ( 'NONE', #156, #655, #317, .T. ) ;
#465 = COORDINATED_UNIVERSAL_TIME_OFFSET ( 1, 0, .AHEAD. ) ;
#466 = ORIENTED_EDGE ( 'NONE', *, *, #708, .F. ) ;
#467 = CARTESIAN_POINT ( 'NONE',  ( -15.00000000000000533, 35.00000000000000000, 5.000000000000000000 ) ) ;
#468 = EDGE_LOOP ( 'NONE', ( #499, #359 ) ) ;
#469 = EDGE_CURVE ( 'NONE', #647, #598, #644, .T. ) ;
#470 = VECTOR ( 'NONE', #247, 1000.000000000000000 ) ;
#471 = FACE_OUTER_BOUND ( 'NONE', #195, .T. ) ;
#472 = DIRECTION ( 'NONE',  ( -0.000000000000000000, 0.000000000000000000, 1.000000000000000000 ) ) ;
#473 = ORIENTED_EDGE ( 'NONE', *, *, #409, .F. ) ;
#474 = DIRECTION ( 'NONE',  ( 0.000000000000000000, 0.000000000000000000, 1.000000000000000000 ) ) ;
#475 = CARTESIAN_POINT ( 'NONE',  ( 4.336808689942017736E-15, -34.99999988600697520, 5.000000000000000000 ) ) ;
#476 = EDGE_CURVE ( 'NONE', #397, #324, #188, .T. ) ;
#477 = ORIENTED_EDGE ( 'NONE', *, *, #22, .T. ) ;
#478 = CARTESIAN_POINT ( 'NONE',  ( -15.00000000000000533, 30.00000000000000355, 0.000000000000000000 ) ) ;
#479 = CARTESIAN_POINT ( 'NONE',  ( 15.00000000000000355, -30.00000000000000000, 0.000000000000000000 ) ) ;
#480 = ORIENTED_EDGE ( 'NONE', *, *, #124, .F. ) ;
#481 = DIRECTION ( 'NONE',  ( 1.000000000000000000, 0.000000000000000000, 0.000000000000000000 ) ) ;
#482 = VECTOR ( 'NONE', #334, 1000.000000000000000 ) ;
#483 = VECTOR ( 'NONE', #360, 1000.000000000000000 ) ;
#484 = CARTESIAN_POINT ( 'NONE',  ( -0.04999999999999566597, -34.94999988600697094, 5.000000000000000888 ) ) ;
#485 = VERTEX_POINT ( 'NONE', #699 ) ;
#486 = LINE ( 'NONE', #527, #109 ) ;
#487 = CARTESIAN_POINT ( 'NONE',  ( 0.05000000000000433958, -35.04999988600697236, 20.00000000000000000 ) ) ;
#488 = EDGE_LOOP ( 'NONE', ( #385, #444, #541, #415 ) ) ;
#489 = DIRECTION ( 'NONE',  ( -0.000000000000000000, -0.000000000000000000, 1.000000000000000000 ) ) ;
#490 = SECURITY_CLASSIFICATION_LEVEL ( 'unclassified' ) ;
#491 = DIRECTION ( 'NONE',  ( 1.000000000000000000, 0.000000000000000000, 0.000000000000000000 ) ) ;
#492 = DIRECTION ( 'NONE',  ( -7.434529206971586827E-17, 1.000000000000000000, -0.000000000000000000 ) ) ;
#493 = ORIENTED_EDGE ( 'NONE', *, *, #648, .F. ) ;
#494 = DIRECTION ( 'NONE',  ( 9.912705577010325549E-17, -1.000000000000000000, 0.000000000000000000 ) ) ;
#495 = LINE ( 'NONE', #120, #144 ) ;
#496 = FACE_OUTER_BOUND ( 'NONE', #305, .T. ) ;
#497 = AXIS2_PLACEMENT_3D ( 'NONE', #403, #240, #291 ) ;
#498 = AXIS2_PLACEMENT_3D ( 'NONE', #532, #372, #205 ) ;
#499 = ORIENTED_EDGE ( 'NONE', *, *, #708, .T. ) ;
#500 = CIRCLE ( 'NONE', #365, 0.7602026298591975095 ) ;
#501 = CARTESIAN_POINT ( 'NONE',  ( 15.00000000000000533, -30.00000000000000000, -50.00000000000000000 ) ) ;
#502 = LINE ( 'NONE', #447, #212 ) ;
#503 = EDGE_CURVE ( 'NONE', #399, #324, #370, .T. ) ;
#504 = ORIENTED_EDGE ( 'NONE', *, *, #198, .F. ) ;
#505 = PRODUCT_DEFINITION_SHAPE ( 'NONE', 'NONE',  #190 ) ;
#506 = DIRECTION ( 'NONE',  ( -0.000000000000000000, -0.000000000000000000, 1.000000000000000000 ) ) ;
#507 = ORIENTED_EDGE ( 'NONE', *, *, #108, .T. ) ;
#508 = DESIGN_CONTEXT ( 'detailed design', #411, 'design' ) ;
#509 = PLANE ( 'NONE',  #338 ) ;
#510 = CYLINDRICAL_SURFACE ( 'NONE', #228, 0.7602026298591975095 ) ;
#511 = EDGE_LOOP ( 'NONE', ( #224, #507, #466, #200 ) ) ;
#512 = VECTOR ( 'NONE', #396, 1000.000000000000000 ) ;
#513 = LOCAL_TIME ( 14, 37, 16.00000000000000000, #327 ) ;
#514 = CARTESIAN_POINT ( 'NONE',  ( 14.99999999999999822, 30.00000000000000355, -20.00000000000000000 ) ) ;
#515 = DIRECTION ( 'NONE',  ( 0.000000000000000000, 0.000000000000000000, -1.000000000000000000 ) ) ;
#516 = CC_DESIGN_PERSON_AND_ORGANIZATION_ASSIGNMENT ( #564, #665, ( #190 ) ) ;
#517 = PERSON_AND_ORGANIZATION ( #546, #623 ) ;
#518 = CARTESIAN_POINT ( 'NONE',  ( -4.999999999999999112, -34.99999988600697520, 5.000000000000000000 ) ) ;
#519 =( GEOMETRIC_REPRESENTATION_CONTEXT ( 3 ) GLOBAL_UNCERTAINTY_ASSIGNED_CONTEXT ( ( #457 ) ) GLOBAL_UNIT_ASSIGNED_CONTEXT ( ( #525, #25, #236 ) ) REPRESENTATION_CONTEXT ( 'NONE', 'WORKASPACE' ) );
#520 = AXIS2_PLACEMENT_3D ( 'NONE', #645, #89, #653 ) ;
#521 = FACE_OUTER_BOUND ( 'NONE', #166, .T. ) ;
#522 = EDGE_CURVE ( 'NONE', #169, #239, #594, .T. ) ;
#523 = ORIENTED_EDGE ( 'NONE', *, *, #435, .T. ) ;
#524 = FACE_OUTER_BOUND ( 'NONE', #263, .T. ) ;
#525 =( LENGTH_UNIT ( ) NAMED_UNIT ( * ) SI_UNIT ( .MILLI., .METRE. ) );
#526 = EDGE_LOOP ( 'NONE', ( #335, #704, #583, #556 ) ) ;
#527 = CARTESIAN_POINT ( 'NONE',  ( -4.999999999999999112, -34.99999988600697520, 20.00000000000000000 ) ) ;
#528 = VECTOR ( 'NONE', #705, 1000.000000000000000 ) ;
#529 = EDGE_CURVE ( 'NONE', #627, #595, #322, .T. ) ;
#530 = DIRECTION ( 'NONE',  ( 0.000000000000000000, 1.000000000000000000, 0.000000000000000000 ) ) ;
#531 = VECTOR ( 'NONE', #434, 1000.000000000000000 ) ;
#532 = CARTESIAN_POINT ( 'NONE',  ( 1.734723475976807094E-15, -30.00000000000000000, -50.00000000000000000 ) ) ;
#533 = EDGE_CURVE ( 'NONE', #683, #38, #82, .T. ) ;
#534 = DIRECTION ( 'NONE',  ( -9.912705577010325549E-17, 1.000000000000000000, 0.000000000000000000 ) ) ;
#535 = CARTESIAN_POINT ( 'NONE',  ( 4.336808689942017736E-15, -34.99999988600697520, 5.000000000000000000 ) ) ;
#536 = PLANE ( 'NONE',  #119 ) ;
#537 = EDGE_LOOP ( 'NONE', ( #88, #4, #631, #352 ) ) ;
#538 = CARTESIAN_POINT ( 'NONE',  ( 14.99999999999999822, 30.00000000000000355, 0.000000000000000000 ) ) ;
#539 = CYLINDRICAL_SURFACE ( 'NONE', #157, 0.7602026298591975095 ) ;
#540 = EDGE_CURVE ( 'NONE', #143, #399, #21, .T. ) ;
#541 = ORIENTED_EDGE ( 'NONE', *, *, #669, .F. ) ;
#542 = LINE ( 'NONE', #636, #341 ) ;
#543 = VECTOR ( 'NONE', #107, 1000.000000000000000 ) ;
#544 = CIRCLE ( 'NONE', #658, 0.7602026298591975095 ) ;
#545 = LINE ( 'NONE', #253, #628 ) ;
#546 = PERSON ( 'UNSPECIFIED', 'UNSPECIFIED', 'UNSPECIFIED', ('UNSPECIFIED'), ('UNSPECIFIED'), ('UNSPECIFIED') ) ;
#547 = EDGE_LOOP ( 'NONE', ( #580, #417, #110, #563 ) ) ;
#548 = CYLINDRICAL_SURFACE ( 'NONE', #377, 15.00000000000000355 ) ;
#549 = CALENDAR_DATE ( 2020, 29, 11 ) ;
#550 = CARTESIAN_POINT ( 'NONE',  ( -15.00000000000000533, 35.00000000000000000, 5.000000000000000000 ) ) ;
#551 = LINE ( 'NONE', #223, #512 ) ;
#552 = VERTEX_POINT ( 'NONE', #87 ) ;
#553 = DIRECTION ( 'NONE',  ( 0.000000000000000000, 0.000000000000000000, 1.000000000000000000 ) ) ;
#554 = CARTESIAN_POINT ( 'NONE',  ( -0.7602026298591931797, -34.99999988600697520, 0.000000000000000000 ) ) ;
#555 = CARTESIAN_POINT ( 'NONE',  ( 1.734723475976807094E-15, -30.00000000000000000, -50.00000000000000000 ) ) ;
#556 = ORIENTED_EDGE ( 'NONE', *, *, #92, .T. ) ;
#557 = DIRECTION ( 'NONE',  ( 0.000000000000000000, 0.000000000000000000, 1.000000000000000000 ) ) ;
#558 = CARTESIAN_POINT ( 'NONE',  ( 14.99999999999999822, 35.00000000000000000, -20.00000000000000000 ) ) ;
#559 = VECTOR ( 'NONE', #28, 1000.000000000000000 ) ;
#560 = AXIS2_PLACEMENT_3D ( 'NONE', #572, #69, #296 ) ;
#561 = ORIENTED_EDGE ( 'NONE', *, *, #332, .F. ) ;
#562 = DIRECTION ( 'NONE',  ( 1.000000000000000000, 0.000000000000000000, 0.000000000000000000 ) ) ;
#563 = ORIENTED_EDGE ( 'NONE', *, *, #419, .T. ) ;
#564 = PERSON_AND_ORGANIZATION ( #546, #623 ) ;
#565 = CARTESIAN_POINT ( 'NONE',  ( 0.000000000000000000, 0.000000000000000000, 35.00000000000000000 ) ) ;
#566 = DIRECTION ( 'NONE',  ( 0.000000000000000000, 0.000000000000000000, -1.000000000000000000 ) ) ;
#567 = ORIENTED_EDGE ( 'NONE', *, *, #124, .T. ) ;
#568 = ADVANCED_FACE ( 'NONE', ( #90, #690 ), #536, .F. ) ;
#569 = MECHANICAL_CONTEXT ( 'NONE', #7, 'mechanical' ) ;
#570 = DIRECTION ( 'NONE',  ( 0.000000000000000000, 0.000000000000000000, 1.000000000000000000 ) ) ;
#571 = VECTOR ( 'NONE', #602, 1000.000000000000000 ) ;
#572 = CARTESIAN_POINT ( 'NONE',  ( 1.734723475976807094E-15, -30.00000000000000000, 0.000000000000000000 ) ) ;
#573 = EDGE_CURVE ( 'NONE', #373, #655, #545, .T. ) ;
#574 = DIRECTION ( 'NONE',  ( 1.000000000000000000, 0.000000000000000000, 0.000000000000000000 ) ) ;
#575 = PLANE ( 'NONE',  #167 ) ;
#576 = ORIENTED_EDGE ( 'NONE', *, *, #476, .F. ) ;
#577 = LOCAL_TIME ( 14, 37, 16.00000000000000000, #280 ) ;
#578 = ORIENTED_EDGE ( 'NONE', *, *, #193, .T. ) ;
#579 = DIRECTION ( 'NONE',  ( -0.000000000000000000, 0.000000000000000000, -1.000000000000000000 ) ) ;
#580 = ORIENTED_EDGE ( 'NONE', *, *, #244, .F. ) ;
#581 = ORIENTED_EDGE ( 'NONE', *, *, #687, .F. ) ;
#582 = DIRECTION ( 'NONE',  ( -0.000000000000000000, -0.000000000000000000, -1.000000000000000000 ) ) ;
#583 = ORIENTED_EDGE ( 'NONE', *, *, #193, .F. ) ;
#584 = ADVANCED_FACE ( 'NONE', ( #637 ), #539, .F. ) ;
#585 = DIRECTION ( 'NONE',  ( 0.000000000000000000, 0.000000000000000000, 1.000000000000000000 ) ) ;
#586 = CARTESIAN_POINT ( 'NONE',  ( -0.04999999999999566597, -35.04999988600697236, 20.00000000000000000 ) ) ;
#587 = AXIS2_PLACEMENT_3D ( 'NONE', #121, #18, #181 ) ;
#588 = VECTOR ( 'NONE', #48, 1000.000000000000000 ) ;
#589 = DIRECTION ( 'NONE',  ( -0.000000000000000000, -0.000000000000000000, 1.000000000000000000 ) ) ;
#590 = CLOSED_SHELL ( 'NONE', ( #318, #432, #282, #633, #2, #340, #179, #272, #289, #128, #407, #226, #202, #260, #151 ) ) ;
#591 = DIRECTION ( 'NONE',  ( -1.000000000000000000, 0.000000000000000000, 0.000000000000000000 ) ) ;
#592 = ORIENTED_EDGE ( 'NONE', *, *, #641, .F. ) ;
#593 = LINE ( 'NONE', #313, #215 ) ;
#594 = LINE ( 'NONE', #29, #413 ) ;
#595 = VERTEX_POINT ( 'NONE', #362 ) ;
#596 = CARTESIAN_POINT ( 'NONE',  ( 14.99999999999999822, 35.00000000000000000, -20.00000000000000000 ) ) ;
#597 = CARTESIAN_POINT ( 'NONE',  ( 4.336808689942017736E-15, -34.99999988600697520, 35.00000000000000000 ) ) ;
#598 = VERTEX_POINT ( 'NONE', #479 ) ;
#599 = FACE_OUTER_BOUND ( 'NONE', #437, .T. ) ;
#600 = VECTOR ( 'NONE', #462, 1000.000000000000000 ) ;
#601 = APPROVAL_PERSON_ORGANIZATION ( #221, #677, #449 ) ;
#602 = DIRECTION ( 'NONE',  ( -1.000000000000000000, 0.000000000000000000, 0.000000000000000000 ) ) ;
#603 = VERTEX_POINT ( 'NONE', #197 ) ;
#604 = BREP_WITH_VOIDS ( 'NONE', #590, ( #114 ) );
#605 = DATE_TIME_ROLE ( 'classification_date' ) ;
#606 = CARTESIAN_POINT ( 'NONE',  ( 14.99999999999999822, 30.00000000000000355, -20.00000000000000000 ) ) ;
#607 = ORIENTED_EDGE ( 'NONE', *, *, #669, .T. ) ;
#608 = CYLINDRICAL_SURFACE ( 'NONE', #300, 15.00000000000000355 ) ;
#609 = ORIENTED_EDGE ( 'NONE', *, *, #22, .F. ) ;
#610 = DATE_TIME_ROLE ( 'creation_date' ) ;
#611 = FACE_OUTER_BOUND ( 'NONE', #113, .T. ) ;
#612 = AXIS2_PLACEMENT_3D ( 'NONE', #122, #232, #458 ) ;
#613 = ORIENTED_EDGE ( 'NONE', *, *, #77, .T. ) ;
#614 = VECTOR ( 'NONE', #227, 1000.000000000000000 ) ;
#615 = CC_DESIGN_DATE_AND_TIME_ASSIGNMENT ( #381, #605, ( #380 ) ) ;
#616 = DIRECTION ( 'NONE',  ( 1.000000000000000000, 0.000000000000000000, 0.000000000000000000 ) ) ;
#617 = FACE_OUTER_BOUND ( 'NONE', #330, .T. ) ;
#618 = ORIENTED_EDGE ( 'NONE', *, *, #306, .T. ) ;
#619 = LINE ( 'NONE', #467, #177 ) ;
#620 = PLANE ( 'NONE',  #142 ) ;
#621 = EDGE_CURVE ( 'NONE', #373, #153, #256, .T. ) ;
#622 = DIRECTION ( 'NONE',  ( 1.000000000000000000, 0.000000000000000000, 0.000000000000000000 ) ) ;
#623 = ORGANIZATION ( 'UNSPECIFIED', 'UNSPECIFIED', '' ) ;
#624 = VECTOR ( 'NONE', #424, 1000.000000000000000 ) ;
#625 = ADVANCED_FACE ( 'NONE', ( #617 ), #510, .F. ) ;
#626 = DIRECTION ( 'NONE',  ( -0.000000000000000000, 0.000000000000000000, 1.000000000000000000 ) ) ;
#627 = VERTEX_POINT ( 'NONE', #283 ) ;
#628 = VECTOR ( 'NONE', #420, 1000.000000000000000 ) ;
#629 = VECTOR ( 'NONE', #233, 1000.000000000000000 ) ;
#630 = EDGE_CURVE ( 'NONE', #655, #627, #551, .T. ) ;
#631 = ORIENTED_EDGE ( 'NONE', *, *, #469, .T. ) ;
#632 = CARTESIAN_POINT ( 'NONE',  ( 0.05000000000000433958, -34.94999988600697094, 5.000000000000000888 ) ) ;
#633 = ADVANCED_FACE ( 'NONE', ( #496 ), #389, .F. ) ;
#634 = EDGE_LOOP ( 'NONE', ( #40, #162, #49, #103 ) ) ;
#635 = DIRECTION ( 'NONE',  ( -0.000000000000000000, -0.000000000000000000, 1.000000000000000000 ) ) ;
#636 = CARTESIAN_POINT ( 'NONE',  ( -0.04999999999999566597, -35.04999988600697236, 20.00000000000000000 ) ) ;
#637 = FACE_OUTER_BOUND ( 'NONE', #511, .T. ) ;
#638 = ORIENTED_EDGE ( 'NONE', *, *, #540, .T. ) ;
#639 = FACE_OUTER_BOUND ( 'NONE', #379, .T. ) ;
#640 = CYLINDRICAL_SURFACE ( 'NONE', #392, 5.000000000000003553 ) ;
#641 = EDGE_CURVE ( 'NONE', #211, #243, #102, .T. ) ;
#642 = ORIENTED_EDGE ( 'NONE', *, *, #304, .T. ) ;
#643 = CIRCLE ( 'NONE', #275, 5.000000000000003553 ) ;
#644 = CIRCLE ( 'NONE', #366, 15.00000000000000355 ) ;
#645 = CARTESIAN_POINT ( 'NONE',  ( -0.04999999999999566597, -35.04999988600697236, 5.000000000000000888 ) ) ;
#646 = CIRCLE ( 'NONE', #698, 15.00000000000000355 ) ;
#647 = VERTEX_POINT ( 'NONE', #663 ) ;
#648 = EDGE_CURVE ( 'NONE', #390, #485, #502, .T. ) ;
#649 = CARTESIAN_POINT ( 'NONE',  ( -0.04999999999999566597, -34.94999988600697094, 5.000000000000000888 ) ) ;
#650 = ORIENTED_EDGE ( 'NONE', *, *, #149, .F. ) ;
#651 = CARTESIAN_POINT ( 'NONE',  ( -0.7602026298591931797, -34.99999988600697520, 5.000000000000000000 ) ) ;
#652 = APPROVAL_ROLE ( '' ) ;
#653 = DIRECTION ( 'NONE',  ( 0.000000000000000000, -0.000000000000000000, -1.000000000000000000 ) ) ;
#654 = CARTESIAN_POINT ( 'NONE',  ( 4.336808689942017736E-15, -34.99999988600697520, 5.000000000000000000 ) ) ;
#655 = VERTEX_POINT ( 'NONE', #455 ) ;
#656 = COORDINATED_UNIVERSAL_TIME_OFFSET ( 1, 0, .AHEAD. ) ;
#657 = CARTESIAN_POINT ( 'NONE',  ( 0.05000000000000433958, -35.04999988600697236, 20.00000000000000000 ) ) ;
#658 = AXIS2_PLACEMENT_3D ( 'NONE', #172, #238, #184 ) ;
#659 = EDGE_CURVE ( 'NONE', #38, #683, #425, .T. ) ;
#660 = ORIENTED_EDGE ( 'NONE', *, *, #45, .F. ) ;
#661 = PERSON_AND_ORGANIZATION_ROLE ( 'design_supplier' ) ;
#662 = CARTESIAN_POINT ( 'NONE',  ( 4.336808689942017736E-15, -34.99999988600697520, 20.00000000000000000 ) ) ;
#663 = CARTESIAN_POINT ( 'NONE',  ( -14.99999999999999822, -30.00000000000000000, 0.000000000000000000 ) ) ;
#664 = ORIENTED_EDGE ( 'NONE', *, *, #357, .F. ) ;
#665 = PERSON_AND_ORGANIZATION_ROLE ( 'creator' ) ;
#666 = CARTESIAN_POINT ( 'NONE',  ( -4.999999999999999112, -34.99999988600697520, 35.00000000000000000 ) ) ;
#667 = DIRECTION ( 'NONE',  ( -1.000000000000000000, -0.000000000000000000, -0.000000000000000000 ) ) ;
#668 = ORIENTED_EDGE ( 'NONE', *, *, #24, .T. ) ;
#669 = EDGE_CURVE ( 'NONE', #243, #279, #155, .T. ) ;
#670 = CARTESIAN_POINT ( 'NONE',  ( -0.04999999999999566597, -35.04999988600697236, 5.000000000000000888 ) ) ;
#671 = VECTOR ( 'NONE', #506, 1000.000000000000000 ) ;
#672 = LOCAL_TIME ( 14, 37, 16.00000000000000000, #51 ) ;
#673 = ORIENTED_EDGE ( 'NONE', *, *, #67, .F. ) ;
#674 = CARTESIAN_POINT ( 'NONE',  ( 14.99999999999999822, 35.00000000000000000, -20.00000000000000000 ) ) ;
#675 = FACE_BOUND ( 'NONE', #105, .T. ) ;
#676 = CARTESIAN_POINT ( 'NONE',  ( -0.7602026298591931797, -34.99999988600697520, 5.000000000000000000 ) ) ;
#677 = APPROVAL ( #154, 'UNSPECIFIED' ) ;
#678 = VERTEX_POINT ( 'NONE', #97 ) ;
#679 = VECTOR ( 'NONE', #667, 1000.000000000000000 ) ;
#680 = CLOSED_SHELL ( 'NONE', ( #584, #16, #625, #568, #54, #208, #60, #297, #68 ) ) ;
#681 = APPLICATION_PROTOCOL_DEFINITION ( 'international standard', 'config_control_design', 1994, #411 ) ;
#682 = CARTESIAN_POINT ( 'NONE',  ( -14.99999999999999645, -34.99999999999999289, 5.000000000000000000 ) ) ;
#683 = VERTEX_POINT ( 'NONE', #709 ) ;
#684 = DIRECTION ( 'NONE',  ( 0.000000000000000000, 0.000000000000000000, 1.000000000000000000 ) ) ;
#685 = ORIENTED_EDGE ( 'NONE', *, *, #459, .T. ) ;
#686 = DIRECTION ( 'NONE',  ( 7.434529206971586827E-17, -1.000000000000000000, 0.000000000000000000 ) ) ;
#687 = EDGE_CURVE ( 'NONE', #274, #678, #276, .T. ) ;
#688 = ORIENTED_EDGE ( 'NONE', *, *, #225, .F. ) ;
#689 = DIRECTION ( 'NONE',  ( -0.000000000000000000, 0.000000000000000000, 1.000000000000000000 ) ) ;
#690 = FACE_OUTER_BOUND ( 'NONE', #126, .T. ) ;
#691 = DIRECTION ( 'NONE',  ( 0.000000000000000000, 0.000000000000000000, 1.000000000000000000 ) ) ;
#692 = ORIENTED_EDGE ( 'NONE', *, *, #435, .F. ) ;
#693 = PLANE ( 'NONE',  #520 ) ;
#694 = CARTESIAN_POINT ( 'NONE',  ( 5.000000000000007994, -34.99999988600697520, 20.00000000000000000 ) ) ;
#695 = ORIENTED_EDGE ( 'NONE', *, *, #621, .T. ) ;
#696 = AXIS2_PLACEMENT_3D ( 'NONE', #59, #712, #10 ) ;
#697 = CARTESIAN_POINT ( 'NONE',  ( 14.99999999999999822, 30.00000000000000355, -20.00000000000000000 ) ) ;
#698 = AXIS2_PLACEMENT_3D ( 'NONE', #429, #474, #702 ) ;
#699 = CARTESIAN_POINT ( 'NONE',  ( 14.99999999999999822, 35.00000000000000000, 5.000000000000000000 ) ) ;
#700 = EDGE_LOOP ( 'NONE', ( #98, #369, #715, #363 ) ) ;
#701 = CARTESIAN_POINT ( 'NONE',  ( 15.00000000000000355, -34.99999977201394330, 0.000000000000000000 ) ) ;
#702 = DIRECTION ( 'NONE',  ( 1.000000000000000000, 0.000000000000000000, 0.000000000000000000 ) ) ;
#703 = DIRECTION ( 'NONE',  ( 9.912705577010325549E-17, -1.000000000000000000, 0.000000000000000000 ) ) ;
#704 = ORIENTED_EDGE ( 'NONE', *, *, #312, .F. ) ;
#705 = DIRECTION ( 'NONE',  ( -0.000000000000000000, -0.000000000000000000, 1.000000000000000000 ) ) ;
#706 = PERSON_AND_ORGANIZATION ( #546, #623 ) ;
#707 = CYLINDRICAL_SURFACE ( 'NONE', #80, 5.000000000000003553 ) ;
#708 = EDGE_CURVE ( 'NONE', #343, #254, #544, .T. ) ;
#709 = CARTESIAN_POINT ( 'NONE',  ( -15.00000000000000178, -29.99999999999999645, -50.00000000000000000 ) ) ;
#710 = ORIENTED_EDGE ( 'NONE', *, *, #648, .T. ) ;
#711 = DATE_AND_TIME ( #209, #672 ) ;
#712 = DIRECTION ( 'NONE',  ( 1.000000000000000000, -0.000000000000000000, 0.000000000000000000 ) ) ;
#713 = VECTOR ( 'NONE', #91, 1000.000000000000000 ) ;
#714 = AXIS2_PLACEMENT_3D ( 'NONE', #535, #321, #135 ) ;
#715 = ORIENTED_EDGE ( 'NONE', *, *, #522, .F. ) ;
ENDSEC;
END-ISO-10303-21;
